<?xml version="1.0" encoding="utf-8" standalone="no"?>
<!DOCTYPE svg PUBLIC "-//W3C//DTD SVG 1.1//EN"
  "http://www.w3.org/Graphics/SVG/1.1/DTD/svg11.dtd">
<!-- Created with matplotlib (https://matplotlib.org/) -->
<svg height="576pt" version="1.1" viewBox="0 0 576 576" width="576pt" xmlns="http://www.w3.org/2000/svg" xmlns:xlink="http://www.w3.org/1999/xlink">
 <defs>
  <style type="text/css">
*{stroke-linecap:butt;stroke-linejoin:round;}
  </style>
 </defs>
 <g id="figure_1">
  <g id="patch_1">
   <path d="M 0 576 
L 576 576 
L 576 0 
L 0 0 
z
" style="fill:#ffffff;"/>
  </g>
  <g id="axes_1">
   <g id="patch_2">
    <path d="M 544.568594 288 
C 544.568594 254.709362 538.011064 221.742433 525.271288 190.985893 
C 512.531512 160.229354 493.857247 132.281341 470.317211 108.741305 
C 446.777175 85.201268 418.829162 66.527003 388.072622 53.787228 
C 357.316083 41.047452 324.349154 34.489922 291.058516 34.489922 
C 257.767877 34.489922 224.800948 41.047452 194.044409 53.787228 
C 163.287869 66.527003 135.339856 85.201268 111.79982 108.741305 
C 88.259784 132.281341 69.585519 160.229354 56.845743 190.985893 
C 44.105967 221.742433 37.548438 254.709362 37.548438 288 
C 37.548438 321.290638 44.105967 354.257567 56.845743 385.014107 
C 69.585519 415.770646 88.259784 443.718659 111.79982 467.258695 
C 135.339856 490.798732 163.287869 509.472997 194.044409 522.212772 
C 224.800948 534.952548 257.767877 541.510078 291.058516 541.510078 
C 324.349154 541.510078 357.316083 534.952548 388.072622 522.212772 
C 418.829162 509.472997 446.777175 490.798732 470.317211 467.258695 
C 493.857247 443.718659 512.531512 415.770646 525.271288 385.014107 
C 538.011064 354.257567 544.568594 321.290638 544.568594 288 
M 291.058516 288 
C 291.058516 288 291.058516 288 291.058516 288 
C 291.058516 288 291.058516 288 291.058516 288 
C 291.058516 288 291.058516 288 291.058516 288 
C 291.058516 288 291.058516 288 291.058516 288 
C 291.058516 288 291.058516 288 291.058516 288 
C 291.058516 288 291.058516 288 291.058516 288 
C 291.058516 288 291.058516 288 291.058516 288 
C 291.058516 288 291.058516 288 291.058516 288 
C 291.058516 288 291.058516 288 291.058516 288 
C 291.058516 288 291.058516 288 291.058516 288 
C 291.058516 288 291.058516 288 291.058516 288 
C 291.058516 288 291.058516 288 291.058516 288 
C 291.058516 288 291.058516 288 291.058516 288 
C 291.058516 288 291.058516 288 291.058516 288 
C 291.058516 288 291.058516 288 291.058516 288 
C 291.058516 288 291.058516 288 291.058516 288 
M 544.568594 288 
z
" style="fill:#eaeaf2;"/>
   </g>
   <g id="matplotlib.axis_1">
    <g id="xtick_1">
     <g id="line2d_1">
      <path clip-path="url(#p4806919eba)" d="M 291.058516 288 
L 544.568594 288 
" style="fill:none;stroke:#ffffff;stroke-linecap:round;"/>
     </g>
     <g id="text_1">
      <!-- 0° -->
      <defs>
       <path d="M 4.15625 35.296875 
Q 4.15625 48 6.765625 55.734375 
Q 9.375 63.484375 14.515625 67.671875 
Q 19.671875 71.875 27.484375 71.875 
Q 33.25 71.875 37.59375 69.546875 
Q 41.9375 67.234375 44.765625 62.859375 
Q 47.609375 58.5 49.21875 52.21875 
Q 50.828125 45.953125 50.828125 35.296875 
Q 50.828125 22.703125 48.234375 14.96875 
Q 45.65625 7.234375 40.5 3 
Q 35.359375 -1.21875 27.484375 -1.21875 
Q 17.140625 -1.21875 11.234375 6.203125 
Q 4.15625 15.140625 4.15625 35.296875 
z
M 13.1875 35.296875 
Q 13.1875 17.671875 17.3125 11.828125 
Q 21.4375 6 27.484375 6 
Q 33.546875 6 37.671875 11.859375 
Q 41.796875 17.71875 41.796875 35.296875 
Q 41.796875 52.984375 37.671875 58.78125 
Q 33.546875 64.59375 27.390625 64.59375 
Q 21.34375 64.59375 17.71875 59.46875 
Q 13.1875 52.9375 13.1875 35.296875 
z
" id="ArialMT-48"/>
       <path d="M 6.25 59.28125 
Q 6.25 64.890625 10.21875 68.84375 
Q 14.203125 72.796875 19.78125 72.796875 
Q 25.4375 72.796875 29.390625 68.84375 
Q 33.34375 64.890625 33.34375 59.28125 
Q 33.34375 53.65625 29.359375 49.671875 
Q 25.390625 45.703125 19.78125 45.703125 
Q 14.203125 45.703125 10.21875 49.65625 
Q 6.25 53.609375 6.25 59.28125 
z
M 11.578125 59.28125 
Q 11.578125 55.859375 13.984375 53.4375 
Q 16.40625 51.03125 19.828125 51.03125 
Q 23.1875 51.03125 25.609375 53.4375 
Q 28.03125 55.859375 28.03125 59.28125 
Q 28.03125 62.703125 25.609375 65.109375 
Q 23.1875 67.53125 19.828125 67.53125 
Q 16.40625 67.53125 13.984375 65.109375 
Q 11.578125 62.703125 11.578125 59.28125 
z
" id="ArialMT-176"/>
      </defs>
      <g style="fill:#262626;" transform="translate(555.810938 290.843672)scale(0.11 -0.11)">
       <use xlink:href="#ArialMT-48"/>
       <use x="55.615234" xlink:href="#ArialMT-176"/>
      </g>
     </g>
    </g>
    <g id="xtick_2">
     <g id="line2d_2">
      <path clip-path="url(#p4806919eba)" d="M 291.058516 288 
L 470.317211 108.741305 
" style="fill:none;stroke:#ffffff;stroke-linecap:round;"/>
     </g>
     <g id="text_2">
      <!-- 45° -->
      <defs>
       <path d="M 32.328125 0 
L 32.328125 17.140625 
L 1.265625 17.140625 
L 1.265625 25.203125 
L 33.9375 71.578125 
L 41.109375 71.578125 
L 41.109375 25.203125 
L 50.78125 25.203125 
L 50.78125 17.140625 
L 41.109375 17.140625 
L 41.109375 0 
z
M 32.328125 25.203125 
L 32.328125 57.46875 
L 9.90625 25.203125 
z
" id="ArialMT-52"/>
       <path d="M 4.15625 18.75 
L 13.375 19.53125 
Q 14.40625 12.796875 18.140625 9.390625 
Q 21.875 6 27.15625 6 
Q 33.5 6 37.890625 10.78125 
Q 42.28125 15.578125 42.28125 23.484375 
Q 42.28125 31 38.0625 35.34375 
Q 33.84375 39.703125 27 39.703125 
Q 22.75 39.703125 19.328125 37.765625 
Q 15.921875 35.84375 13.96875 32.765625 
L 5.71875 33.84375 
L 12.640625 70.609375 
L 48.25 70.609375 
L 48.25 62.203125 
L 19.671875 62.203125 
L 15.828125 42.96875 
Q 22.265625 47.46875 29.34375 47.46875 
Q 38.71875 47.46875 45.15625 40.96875 
Q 51.609375 34.46875 51.609375 24.265625 
Q 51.609375 14.546875 45.953125 7.46875 
Q 39.0625 -1.21875 27.15625 -1.21875 
Q 17.390625 -1.21875 11.203125 4.25 
Q 5.03125 9.71875 4.15625 18.75 
z
" id="ArialMT-53"/>
      </defs>
      <g style="fill:#262626;" transform="translate(473.668301 99.917715)scale(0.11 -0.11)">
       <use xlink:href="#ArialMT-52"/>
       <use x="55.615234" xlink:href="#ArialMT-53"/>
       <use x="111.230469" xlink:href="#ArialMT-176"/>
      </g>
     </g>
    </g>
    <g id="xtick_3">
     <g id="line2d_3">
      <path clip-path="url(#p4806919eba)" d="M 291.058516 288 
L 291.058516 34.489922 
" style="fill:none;stroke:#ffffff;stroke-linecap:round;"/>
     </g>
     <g id="text_3">
      <!-- 90° -->
      <defs>
       <path d="M 5.46875 16.546875 
L 13.921875 17.328125 
Q 14.984375 11.375 18.015625 8.6875 
Q 21.046875 6 25.78125 6 
Q 29.828125 6 32.875 7.859375 
Q 35.9375 9.71875 37.890625 12.8125 
Q 39.84375 15.921875 41.15625 21.1875 
Q 42.484375 26.46875 42.484375 31.9375 
Q 42.484375 32.515625 42.4375 33.6875 
Q 39.796875 29.5 35.234375 26.875 
Q 30.671875 24.265625 25.34375 24.265625 
Q 16.453125 24.265625 10.296875 30.703125 
Q 4.15625 37.15625 4.15625 47.703125 
Q 4.15625 58.59375 10.578125 65.234375 
Q 17 71.875 26.65625 71.875 
Q 33.640625 71.875 39.421875 68.109375 
Q 45.21875 64.359375 48.21875 57.390625 
Q 51.21875 50.4375 51.21875 37.25 
Q 51.21875 23.53125 48.234375 15.40625 
Q 45.265625 7.28125 39.375 3.03125 
Q 33.5 -1.21875 25.59375 -1.21875 
Q 17.1875 -1.21875 11.859375 3.4375 
Q 6.546875 8.109375 5.46875 16.546875 
z
M 41.453125 48.140625 
Q 41.453125 55.71875 37.421875 60.15625 
Q 33.40625 64.59375 27.734375 64.59375 
Q 21.875 64.59375 17.53125 59.8125 
Q 13.1875 55.03125 13.1875 47.40625 
Q 13.1875 40.578125 17.3125 36.296875 
Q 21.4375 32.03125 27.484375 32.03125 
Q 33.59375 32.03125 37.515625 36.296875 
Q 41.453125 40.578125 41.453125 48.140625 
z
" id="ArialMT-57"/>
      </defs>
      <g style="fill:#262626;" transform="translate(282.742344 20.833594)scale(0.11 -0.11)">
       <use xlink:href="#ArialMT-57"/>
       <use x="55.615234" xlink:href="#ArialMT-48"/>
       <use x="111.230469" xlink:href="#ArialMT-176"/>
      </g>
     </g>
    </g>
    <g id="xtick_4">
     <g id="line2d_4">
      <path clip-path="url(#p4806919eba)" d="M 291.058516 288 
L 111.79982 108.741305 
" style="fill:none;stroke:#ffffff;stroke-linecap:round;"/>
     </g>
     <g id="text_4">
      <!-- 135° -->
      <defs>
       <path d="M 37.25 0 
L 28.46875 0 
L 28.46875 56 
Q 25.296875 52.984375 20.140625 49.953125 
Q 14.984375 46.921875 10.890625 45.40625 
L 10.890625 53.90625 
Q 18.265625 57.375 23.78125 62.296875 
Q 29.296875 67.234375 31.59375 71.875 
L 37.25 71.875 
z
" id="ArialMT-49"/>
       <path d="M 4.203125 18.890625 
L 12.984375 20.0625 
Q 14.5 12.59375 18.140625 9.296875 
Q 21.78125 6 27 6 
Q 33.203125 6 37.46875 10.296875 
Q 41.75 14.59375 41.75 20.953125 
Q 41.75 27 37.796875 30.921875 
Q 33.84375 34.859375 27.734375 34.859375 
Q 25.25 34.859375 21.53125 33.890625 
L 22.515625 41.609375 
Q 23.390625 41.5 23.921875 41.5 
Q 29.546875 41.5 34.03125 44.421875 
Q 38.53125 47.359375 38.53125 53.46875 
Q 38.53125 58.296875 35.25 61.46875 
Q 31.984375 64.65625 26.8125 64.65625 
Q 21.6875 64.65625 18.265625 61.421875 
Q 14.84375 58.203125 13.875 51.765625 
L 5.078125 53.328125 
Q 6.6875 62.15625 12.390625 67.015625 
Q 18.109375 71.875 26.609375 71.875 
Q 32.46875 71.875 37.390625 69.359375 
Q 42.328125 66.84375 44.9375 62.5 
Q 47.5625 58.15625 47.5625 53.265625 
Q 47.5625 48.640625 45.0625 44.828125 
Q 42.578125 41.015625 37.703125 38.765625 
Q 44.046875 37.3125 47.5625 32.6875 
Q 51.078125 28.078125 51.078125 21.140625 
Q 51.078125 11.765625 44.234375 5.25 
Q 37.40625 -1.265625 26.953125 -1.265625 
Q 17.53125 -1.265625 11.296875 4.34375 
Q 5.078125 9.96875 4.203125 18.890625 
z
" id="ArialMT-51"/>
      </defs>
      <g style="fill:#262626;" transform="translate(88.757871 99.917715)scale(0.11 -0.11)">
       <use xlink:href="#ArialMT-49"/>
       <use x="55.615234" xlink:href="#ArialMT-51"/>
       <use x="111.230469" xlink:href="#ArialMT-53"/>
       <use x="166.845703" xlink:href="#ArialMT-176"/>
      </g>
     </g>
    </g>
    <g id="xtick_5">
     <g id="line2d_5">
      <path clip-path="url(#p4806919eba)" d="M 291.058516 288 
L 37.548438 288 
" style="fill:none;stroke:#ffffff;stroke-linecap:round;"/>
     </g>
     <g id="text_5">
      <!-- 180° -->
      <defs>
       <path d="M 17.671875 38.8125 
Q 12.203125 40.828125 9.5625 44.53125 
Q 6.9375 48.25 6.9375 53.421875 
Q 6.9375 61.234375 12.546875 66.546875 
Q 18.171875 71.875 27.484375 71.875 
Q 36.859375 71.875 42.578125 66.421875 
Q 48.296875 60.984375 48.296875 53.171875 
Q 48.296875 48.1875 45.671875 44.5 
Q 43.0625 40.828125 37.75 38.8125 
Q 44.34375 36.671875 47.78125 31.875 
Q 51.21875 27.09375 51.21875 20.453125 
Q 51.21875 11.28125 44.71875 5.03125 
Q 38.234375 -1.21875 27.640625 -1.21875 
Q 17.046875 -1.21875 10.546875 5.046875 
Q 4.046875 11.328125 4.046875 20.703125 
Q 4.046875 27.6875 7.59375 32.390625 
Q 11.140625 37.109375 17.671875 38.8125 
z
M 15.921875 53.71875 
Q 15.921875 48.640625 19.1875 45.40625 
Q 22.46875 42.1875 27.6875 42.1875 
Q 32.765625 42.1875 36.015625 45.375 
Q 39.265625 48.578125 39.265625 53.21875 
Q 39.265625 58.0625 35.90625 61.359375 
Q 32.5625 64.65625 27.59375 64.65625 
Q 22.5625 64.65625 19.234375 61.421875 
Q 15.921875 58.203125 15.921875 53.71875 
z
M 13.09375 20.65625 
Q 13.09375 16.890625 14.875 13.375 
Q 16.65625 9.859375 20.171875 7.921875 
Q 23.6875 6 27.734375 6 
Q 34.03125 6 38.125 10.046875 
Q 42.234375 14.109375 42.234375 20.359375 
Q 42.234375 26.703125 38.015625 30.859375 
Q 33.796875 35.015625 27.4375 35.015625 
Q 21.234375 35.015625 17.15625 30.90625 
Q 13.09375 26.8125 13.09375 20.65625 
z
" id="ArialMT-56"/>
      </defs>
      <g style="fill:#262626;" transform="translate(9.67375 290.843672)scale(0.11 -0.11)">
       <use xlink:href="#ArialMT-49"/>
       <use x="55.615234" xlink:href="#ArialMT-56"/>
       <use x="111.230469" xlink:href="#ArialMT-48"/>
       <use x="166.845703" xlink:href="#ArialMT-176"/>
      </g>
     </g>
    </g>
    <g id="xtick_6">
     <g id="line2d_6">
      <path clip-path="url(#p4806919eba)" d="M 291.058516 288 
L 111.79982 467.258695 
" style="fill:none;stroke:#ffffff;stroke-linecap:round;"/>
     </g>
     <g id="text_6">
      <!-- 225° -->
      <defs>
       <path d="M 50.34375 8.453125 
L 50.34375 0 
L 3.03125 0 
Q 2.9375 3.171875 4.046875 6.109375 
Q 5.859375 10.9375 9.828125 15.625 
Q 13.8125 20.3125 21.34375 26.46875 
Q 33.015625 36.03125 37.109375 41.625 
Q 41.21875 47.21875 41.21875 52.203125 
Q 41.21875 57.421875 37.46875 61 
Q 33.734375 64.59375 27.734375 64.59375 
Q 21.390625 64.59375 17.578125 60.78125 
Q 13.765625 56.984375 13.71875 50.25 
L 4.6875 51.171875 
Q 5.609375 61.28125 11.65625 66.578125 
Q 17.71875 71.875 27.9375 71.875 
Q 38.234375 71.875 44.234375 66.15625 
Q 50.25 60.453125 50.25 52 
Q 50.25 47.703125 48.484375 43.546875 
Q 46.734375 39.40625 42.65625 34.8125 
Q 38.578125 30.21875 29.109375 22.21875 
Q 21.1875 15.578125 18.9375 13.203125 
Q 16.703125 10.84375 15.234375 8.453125 
z
" id="ArialMT-50"/>
      </defs>
      <g style="fill:#262626;" transform="translate(88.757871 481.769629)scale(0.11 -0.11)">
       <use xlink:href="#ArialMT-50"/>
       <use x="55.615234" xlink:href="#ArialMT-50"/>
       <use x="111.230469" xlink:href="#ArialMT-53"/>
       <use x="166.845703" xlink:href="#ArialMT-176"/>
      </g>
     </g>
    </g>
    <g id="xtick_7">
     <g id="line2d_7">
      <path clip-path="url(#p4806919eba)" d="M 291.058516 288 
L 291.058516 541.510078 
" style="fill:none;stroke:#ffffff;stroke-linecap:round;"/>
     </g>
     <g id="text_7">
      <!-- 270° -->
      <defs>
       <path d="M 4.734375 62.203125 
L 4.734375 70.65625 
L 51.078125 70.65625 
L 51.078125 63.8125 
Q 44.234375 56.546875 37.515625 44.484375 
Q 30.8125 32.421875 27.15625 19.671875 
Q 24.515625 10.6875 23.78125 0 
L 14.75 0 
Q 14.890625 8.453125 18.0625 20.40625 
Q 21.234375 32.375 27.171875 43.484375 
Q 33.109375 54.59375 39.796875 62.203125 
z
" id="ArialMT-55"/>
      </defs>
      <g style="fill:#262626;" transform="translate(279.683828 560.85375)scale(0.11 -0.11)">
       <use xlink:href="#ArialMT-50"/>
       <use x="55.615234" xlink:href="#ArialMT-55"/>
       <use x="111.230469" xlink:href="#ArialMT-48"/>
       <use x="166.845703" xlink:href="#ArialMT-176"/>
      </g>
     </g>
    </g>
    <g id="xtick_8">
     <g id="line2d_8">
      <path clip-path="url(#p4806919eba)" d="M 291.058516 288 
L 470.317211 467.258695 
" style="fill:none;stroke:#ffffff;stroke-linecap:round;"/>
     </g>
     <g id="text_8">
      <!-- 315° -->
      <g style="fill:#262626;" transform="translate(470.609785 481.769629)scale(0.11 -0.11)">
       <use xlink:href="#ArialMT-51"/>
       <use x="55.615234" xlink:href="#ArialMT-49"/>
       <use x="111.230469" xlink:href="#ArialMT-53"/>
       <use x="166.845703" xlink:href="#ArialMT-176"/>
      </g>
     </g>
    </g>
   </g>
   <g id="matplotlib.axis_2">
    <g id="ytick_1">
     <g id="line2d_9">
      <path clip-path="url(#p4806919eba)" d="M 319.600459 288 
L 319.444103 285.016555 
L 318.976749 282.065796 
L 318.203517 279.180055 
L 317.132878 276.390946 
L 315.776563 273.729028 
L 314.149433 271.223467 
L 312.269313 268.901712 
L 310.156803 266.789203 
L 307.835049 264.909083 
L 305.329487 263.281952 
L 302.66757 261.925638 
L 299.878461 260.854999 
L 296.992719 260.081767 
L 294.041961 259.614413 
L 291.058516 259.458057 
L 288.07507 259.614413 
L 285.124312 260.081767 
L 282.23857 260.854999 
L 279.449462 261.925638 
L 276.787544 263.281952 
L 274.281982 264.909083 
L 271.960228 266.789203 
L 269.847718 268.901712 
L 267.967599 271.223467 
L 266.340468 273.729028 
L 264.984153 276.390946 
L 263.913515 279.180055 
L 263.140282 282.065796 
L 262.672928 285.016555 
L 262.516573 288 
L 262.672928 290.983445 
L 263.140282 293.934204 
L 263.913515 296.819945 
L 264.984153 299.609054 
L 266.340468 302.270972 
L 267.967599 304.776533 
L 269.847718 307.098288 
L 271.960228 309.210797 
L 274.281982 311.090917 
L 276.787544 312.718048 
L 279.449462 314.074362 
L 282.23857 315.145001 
L 285.124312 315.918233 
L 288.07507 316.385587 
L 291.058516 316.541943 
L 294.041961 316.385587 
L 296.992719 315.918233 
L 299.878461 315.145001 
L 302.66757 314.074362 
L 305.329487 312.718048 
L 307.835049 311.090917 
L 310.156803 309.210797 
L 312.269313 307.098288 
L 314.149433 304.776533 
L 315.776563 302.270972 
L 317.132878 299.609054 
L 318.203517 296.819945 
L 318.976749 293.934204 
L 319.444103 290.983445 
L 319.600459 288 
L 319.600459 288 
" style="fill:none;stroke:#ffffff;stroke-linecap:round;"/>
     </g>
     <g id="text_9">
      <!-- 0.5 -->
      <defs>
       <path d="M 9.078125 0 
L 9.078125 10.015625 
L 19.09375 10.015625 
L 19.09375 0 
z
" id="ArialMT-46"/>
      </defs>
      <g style="fill:#262626;" transform="translate(317.427833 274.891221)scale(0.11 -0.11)">
       <use xlink:href="#ArialMT-48"/>
       <use x="55.615234" xlink:href="#ArialMT-46"/>
       <use x="83.398438" xlink:href="#ArialMT-53"/>
      </g>
     </g>
    </g>
    <g id="ytick_2">
     <g id="line2d_10">
      <path clip-path="url(#p4806919eba)" d="M 348.142402 288 
L 348.003348 284.018029 
L 347.586865 280.055459 
L 346.894982 276.131593 
L 345.931069 272.265549 
L 344.699822 268.476161 
L 343.207241 264.781892 
L 341.460596 261.200739 
L 339.468397 257.750149 
L 337.24035 254.446934 
L 334.787309 251.307185 
L 332.121227 248.346201 
L 329.255091 245.578405 
L 326.202865 243.017284 
L 322.97942 240.675314 
L 319.600459 238.563904 
L 316.082444 236.693343 
L 312.442516 235.072742 
L 308.698407 233.709998 
L 304.868358 232.611749 
L 300.971028 231.783346 
L 297.025407 231.228825 
L 293.050715 230.950888 
L 289.066317 230.950888 
L 285.091625 231.228825 
L 281.146003 231.783346 
L 277.248674 232.611749 
L 273.418625 233.709998 
L 269.674515 235.072742 
L 266.034587 236.693343 
L 262.516573 238.563904 
L 259.137612 240.675314 
L 255.914166 243.017284 
L 252.86194 245.578405 
L 249.995804 248.346201 
L 247.329722 251.307185 
L 244.876682 254.446934 
L 242.648635 257.750149 
L 240.656436 261.200739 
L 238.909791 264.781892 
L 237.417209 268.476161 
L 236.185962 272.265549 
L 235.222049 276.131593 
L 234.530166 280.055459 
L 234.113683 284.018029 
L 233.974629 288 
L 234.113683 291.981971 
L 234.530166 295.944541 
L 235.222049 299.868407 
L 236.185962 303.734451 
L 237.417209 307.523839 
L 238.909791 311.218108 
L 240.656436 314.799261 
L 242.648635 318.249851 
L 244.876682 321.553066 
L 247.329722 324.692815 
L 249.995804 327.653799 
L 252.86194 330.421595 
L 255.914166 332.982716 
L 259.137612 335.324686 
L 262.516573 337.436096 
L 266.034587 339.306657 
L 269.674515 340.927258 
L 273.418625 342.290002 
L 277.248674 343.388251 
L 281.146003 344.216654 
L 285.091625 344.771175 
L 289.066317 345.049112 
L 293.050715 345.049112 
L 297.025407 344.771175 
L 300.971028 344.216654 
L 304.868358 343.388251 
L 308.698407 342.290002 
L 312.442516 340.927258 
L 316.082444 339.306657 
L 319.600459 337.436096 
L 322.97942 335.324686 
L 326.202865 332.982716 
L 329.255091 330.421595 
L 332.121227 327.653799 
L 334.787309 324.692815 
L 337.24035 321.553066 
L 339.468397 318.249851 
L 341.460596 314.799261 
L 343.207241 311.218108 
L 344.699822 307.523839 
L 345.931069 303.734451 
L 346.894982 299.868407 
L 347.586865 295.944541 
L 348.003348 291.981971 
L 348.142402 288 
L 348.142402 288 
" style="fill:none;stroke:#ffffff;stroke-linecap:round;"/>
     </g>
     <g id="text_10">
      <!-- 1.0 -->
      <g style="fill:#262626;" transform="translate(343.79715 263.968693)scale(0.11 -0.11)">
       <use xlink:href="#ArialMT-49"/>
       <use x="55.615234" xlink:href="#ArialMT-46"/>
       <use x="83.398438" xlink:href="#ArialMT-48"/>
      </g>
     </g>
    </g>
    <g id="ytick_3">
     <g id="line2d_11">
      <path clip-path="url(#p4806919eba)" d="M 376.684345 288 
L 376.475765 282.027044 
L 375.85104 276.083188 
L 374.813215 270.197389 
L 373.367345 264.398323 
L 371.520476 258.714242 
L 369.281603 253.172838 
L 366.661635 247.801108 
L 363.673337 242.625224 
L 360.331267 237.6704 
L 356.651706 232.960778 
L 352.652583 228.519301 
L 348.353379 224.367608 
L 343.77504 220.525926 
L 338.939872 217.01297 
L 333.87143 213.845857 
L 328.594409 211.040014 
L 323.134516 208.609114 
L 317.518352 206.564997 
L 311.773279 204.917624 
L 305.927285 203.67502 
L 300.008852 202.843238 
L 294.046814 202.426332 
L 288.070217 202.426332 
L 282.108179 202.843238 
L 276.189746 203.67502 
L 270.343753 204.917624 
L 264.598679 206.564997 
L 258.982515 208.609114 
L 253.522623 211.040014 
L 248.245601 213.845857 
L 243.17716 217.01297 
L 238.341991 220.525926 
L 233.763653 224.367608 
L 229.464449 228.519301 
L 225.465325 232.960778 
L 221.785765 237.6704 
L 218.443694 242.625224 
L 215.455396 247.801108 
L 212.835428 253.172838 
L 210.596556 258.714242 
L 208.749686 264.398323 
L 207.303816 270.197389 
L 206.265991 276.083188 
L 205.641267 282.027044 
L 205.432686 288 
L 205.641267 293.972956 
L 206.265991 299.916812 
L 207.303816 305.802611 
L 208.749686 311.601677 
L 210.596556 317.285758 
L 212.835428 322.827162 
L 215.455396 328.198892 
L 218.443694 333.374776 
L 221.785765 338.3296 
L 225.465325 343.039222 
L 229.464449 347.480699 
L 233.763653 351.632392 
L 238.341991 355.474074 
L 243.17716 358.98703 
L 248.245601 362.154143 
L 253.522623 364.959986 
L 258.982515 367.390886 
L 264.598679 369.435003 
L 270.343753 371.082376 
L 276.189746 372.32498 
L 282.108179 373.156762 
L 288.070217 373.573668 
L 294.046814 373.573668 
L 300.008852 373.156762 
L 305.927285 372.32498 
L 311.773279 371.082376 
L 317.518352 369.435003 
L 323.134516 367.390886 
L 328.594409 364.959986 
L 333.87143 362.154143 
L 338.939872 358.98703 
L 343.77504 355.474074 
L 348.353379 351.632392 
L 352.652583 347.480699 
L 356.651706 343.039222 
L 360.331267 338.3296 
L 363.673337 333.374776 
L 366.661635 328.198892 
L 369.281603 322.827162 
L 371.520476 317.285758 
L 373.367345 311.601677 
L 374.813215 305.802611 
L 375.85104 299.916812 
L 376.475765 293.972956 
L 376.684345 288 
L 376.684345 288 
" style="fill:none;stroke:#ffffff;stroke-linecap:round;"/>
     </g>
     <g id="text_11">
      <!-- 1.5 -->
      <g style="fill:#262626;" transform="translate(370.166467 253.046164)scale(0.11 -0.11)">
       <use xlink:href="#ArialMT-49"/>
       <use x="55.615234" xlink:href="#ArialMT-46"/>
       <use x="83.398438" xlink:href="#ArialMT-53"/>
      </g>
     </g>
    </g>
    <g id="ytick_4">
     <g id="line2d_12">
      <path clip-path="url(#p4806919eba)" d="M 405.226288 288 
L 405.15674 284.015602 
L 404.948181 280.036059 
L 404.600865 276.066218 
L 404.115215 272.110917 
L 403.491823 268.174974 
L 402.731448 264.263185 
L 401.835017 260.380316 
L 400.803622 256.531097 
L 399.638519 252.720218 
L 398.341129 248.952322 
L 396.913031 245.232 
L 395.355965 241.563784 
L 393.67183 237.952143 
L 391.862675 234.401478 
L 389.930707 230.916114 
L 387.878278 227.500298 
L 385.707888 224.158192 
L 383.422184 220.893867 
L 381.023948 217.711301 
L 378.516103 214.614371 
L 375.901705 211.606849 
L 373.183938 208.692401 
L 370.366114 205.874577 
L 367.451666 203.156811 
L 364.444145 200.542412 
L 361.347215 198.034568 
L 358.164648 195.636332 
L 354.900324 193.350627 
L 351.558218 191.180238 
L 348.142402 189.127809 
L 344.657038 187.19584 
L 341.106373 185.386686 
L 337.494732 183.70255 
L 333.826516 182.145485 
L 330.106193 180.717387 
L 326.338297 179.419996 
L 322.527419 178.254894 
L 318.6782 177.223498 
L 314.79533 176.327067 
L 310.883541 175.566693 
L 306.947599 174.943301 
L 302.992297 174.457651 
L 299.022457 174.110335 
L 295.042913 173.901776 
L 291.058516 173.832228 
L 287.074118 173.901776 
L 283.094574 174.110335 
L 279.124734 174.457651 
L 275.169433 174.943301 
L 271.23349 175.566693 
L 267.321701 176.327067 
L 263.438832 177.223498 
L 259.589613 178.254894 
L 255.778734 179.419996 
L 252.010838 180.717387 
L 248.290515 182.145485 
L 244.622299 183.70255 
L 241.010658 185.386686 
L 237.459993 187.19584 
L 233.974629 189.127809 
L 230.558814 191.180238 
L 227.216708 193.350627 
L 223.952383 195.636332 
L 220.769816 198.034568 
L 217.672886 200.542412 
L 214.665365 203.156811 
L 211.750917 205.874577 
L 208.933093 208.692401 
L 206.215326 211.606849 
L 203.600928 214.614371 
L 201.093083 217.711301 
L 198.694848 220.893867 
L 196.409143 224.158192 
L 194.238754 227.500298 
L 192.186324 230.916114 
L 190.254356 234.401478 
L 188.445202 237.952143 
L 186.761066 241.563784 
L 185.204 245.232 
L 183.775902 248.952322 
L 182.478512 252.720218 
L 181.313409 256.531097 
L 180.282014 260.380316 
L 179.385583 264.263185 
L 178.625208 268.174974 
L 178.001816 272.110917 
L 177.516166 276.066218 
L 177.16885 280.036059 
L 176.960291 284.015602 
L 176.890743 288 
L 176.960291 291.984398 
L 177.16885 295.963941 
L 177.516166 299.933782 
L 178.001816 303.889083 
L 178.625208 307.825026 
L 179.385583 311.736815 
L 180.282014 315.619684 
L 181.313409 319.468903 
L 182.478512 323.279782 
L 183.775902 327.047678 
L 185.204 330.768 
L 186.761066 334.436216 
L 188.445202 338.047857 
L 190.254356 341.598522 
L 192.186324 345.083886 
L 194.238754 348.499702 
L 196.409143 351.841808 
L 198.694848 355.106133 
L 201.093083 358.288699 
L 203.600928 361.385629 
L 206.215326 364.393151 
L 208.933093 367.307599 
L 211.750917 370.125423 
L 214.665365 372.843189 
L 217.672886 375.457588 
L 220.769816 377.965432 
L 223.952383 380.363668 
L 227.216708 382.649373 
L 230.558814 384.819762 
L 233.974629 386.872191 
L 237.459993 388.80416 
L 241.010658 390.613314 
L 244.622299 392.29745 
L 248.290515 393.854515 
L 252.010838 395.282613 
L 255.778734 396.580004 
L 259.589613 397.745106 
L 263.438832 398.776502 
L 267.321701 399.672933 
L 271.23349 400.433307 
L 275.169433 401.056699 
L 279.124734 401.542349 
L 283.094574 401.889665 
L 287.074118 402.098224 
L 291.058516 402.167772 
L 295.042913 402.098224 
L 299.022457 401.889665 
L 302.992297 401.542349 
L 306.947599 401.056699 
L 310.883541 400.433307 
L 314.79533 399.672933 
L 318.6782 398.776502 
L 322.527419 397.745106 
L 326.338297 396.580004 
L 330.106193 395.282613 
L 333.826516 393.854515 
L 337.494732 392.29745 
L 341.106373 390.613314 
L 344.657038 388.80416 
L 348.142402 386.872191 
L 351.558218 384.819762 
L 354.900324 382.649373 
L 358.164648 380.363668 
L 361.347215 377.965432 
L 364.444145 375.457588 
L 367.451666 372.843189 
L 370.366114 370.125423 
L 373.183938 367.307599 
L 375.901705 364.393151 
L 378.516103 361.385629 
L 381.023948 358.288699 
L 383.422184 355.106133 
L 385.707888 351.841808 
L 387.878278 348.499702 
L 389.930707 345.083886 
L 391.862675 341.598522 
L 393.67183 338.047857 
L 395.355965 334.436216 
L 396.913031 330.768 
L 398.341129 327.047678 
L 399.638519 323.279782 
L 400.803622 319.468903 
L 401.835017 315.619684 
L 402.731448 311.736815 
L 403.491823 307.825026 
L 404.115215 303.889083 
L 404.600865 299.933782 
L 404.948181 295.963941 
L 405.15674 291.984398 
L 405.226288 288 
L 405.226288 288 
" style="fill:none;stroke:#ffffff;stroke-linecap:round;"/>
     </g>
     <g id="text_12">
      <!-- 2.0 -->
      <g style="fill:#262626;" transform="translate(396.535784 242.123635)scale(0.11 -0.11)">
       <use xlink:href="#ArialMT-50"/>
       <use x="55.615234" xlink:href="#ArialMT-46"/>
       <use x="83.398438" xlink:href="#ArialMT-48"/>
      </g>
     </g>
    </g>
    <g id="ytick_5">
     <g id="line2d_13">
      <path clip-path="url(#p4806919eba)" d="M 433.768231 288 
L 433.681296 283.019503 
L 433.420597 278.045073 
L 432.986452 273.082773 
L 432.37939 268.138646 
L 431.60015 263.218718 
L 430.649681 258.328982 
L 429.529143 253.475395 
L 428.239899 248.663871 
L 426.78352 243.900273 
L 425.161782 239.190403 
L 423.37666 234.54 
L 421.430328 229.954729 
L 419.325158 225.440178 
L 417.063715 221.001847 
L 414.648755 216.645142 
L 412.083218 212.375373 
L 409.370232 208.19774 
L 406.513101 204.117334 
L 403.515306 200.139126 
L 400.3805 196.267963 
L 397.112502 192.508562 
L 393.715294 188.865502 
L 390.193014 185.343222 
L 386.549954 181.946013 
L 382.790552 178.678016 
L 378.91939 175.54321 
L 374.941182 172.545415 
L 370.860776 169.688284 
L 366.683143 166.975298 
L 362.413373 164.409761 
L 358.056669 161.9948 
L 353.618337 159.733357 
L 349.103786 157.628188 
L 344.518516 155.681856 
L 339.868113 153.896734 
L 335.158243 152.274995 
L 330.394644 150.818617 
L 325.58312 149.529373 
L 320.729534 148.408834 
L 315.839798 147.458366 
L 310.919869 146.679126 
L 305.975743 146.072063 
L 301.013442 145.637918 
L 296.039013 145.377219 
L 291.058516 145.290285 
L 286.078018 145.377219 
L 281.103589 145.637918 
L 276.141288 146.072063 
L 271.197162 146.679126 
L 266.277234 147.458366 
L 261.387497 148.408834 
L 256.533911 149.529373 
L 251.722387 150.818617 
L 246.958788 152.274995 
L 242.248918 153.896734 
L 237.598515 155.681856 
L 233.013245 157.628188 
L 228.498694 159.733357 
L 224.060363 161.9948 
L 219.703658 164.409761 
L 215.433888 166.975298 
L 211.256256 169.688284 
L 207.17585 172.545415 
L 203.197642 175.54321 
L 199.326479 178.678016 
L 195.567077 181.946013 
L 191.924017 185.343222 
L 188.401737 188.865502 
L 185.004529 192.508562 
L 181.736531 196.267963 
L 178.601725 200.139126 
L 175.603931 204.117334 
L 172.7468 208.19774 
L 170.033813 212.375373 
L 167.468277 216.645142 
L 165.053316 221.001847 
L 162.791873 225.440178 
L 160.686703 229.954729 
L 158.740372 234.54 
L 156.955249 239.190403 
L 155.333511 243.900273 
L 153.877133 248.663871 
L 152.587889 253.475395 
L 151.46735 258.328982 
L 150.516881 263.218718 
L 149.737641 268.138646 
L 149.130579 273.082773 
L 148.696434 278.045073 
L 148.435735 283.019503 
L 148.3488 288 
L 148.435735 292.980497 
L 148.696434 297.954927 
L 149.130579 302.917227 
L 149.737641 307.861354 
L 150.516881 312.781282 
L 151.46735 317.671018 
L 152.587889 322.524605 
L 153.877133 327.336129 
L 155.333511 332.099727 
L 156.955249 336.809597 
L 158.740372 341.46 
L 160.686703 346.045271 
L 162.791873 350.559822 
L 165.053316 354.998153 
L 167.468277 359.354858 
L 170.033813 363.624627 
L 172.7468 367.80226 
L 175.603931 371.882666 
L 178.601725 375.860874 
L 181.736531 379.732037 
L 185.004529 383.491438 
L 188.401737 387.134498 
L 191.924017 390.656778 
L 195.567077 394.053987 
L 199.326479 397.321984 
L 203.197642 400.45679 
L 207.17585 403.454585 
L 211.256256 406.311716 
L 215.433888 409.024702 
L 219.703658 411.590239 
L 224.060363 414.0052 
L 228.498694 416.266643 
L 233.013245 418.371812 
L 237.598515 420.318144 
L 242.248918 422.103266 
L 246.958788 423.725005 
L 251.722387 425.181383 
L 256.533911 426.470627 
L 261.387497 427.591166 
L 266.277234 428.541634 
L 271.197162 429.320874 
L 276.141288 429.927937 
L 281.103589 430.362082 
L 286.078018 430.622781 
L 291.058516 430.709715 
L 296.039013 430.622781 
L 301.013442 430.362082 
L 305.975743 429.927937 
L 310.919869 429.320874 
L 315.839798 428.541634 
L 320.729534 427.591166 
L 325.58312 426.470627 
L 330.394644 425.181383 
L 335.158243 423.725005 
L 339.868113 422.103266 
L 344.518516 420.318144 
L 349.103786 418.371812 
L 353.618337 416.266643 
L 358.056669 414.0052 
L 362.413373 411.590239 
L 366.683143 409.024702 
L 370.860776 406.311716 
L 374.941182 403.454585 
L 378.91939 400.45679 
L 382.790552 397.321984 
L 386.549954 394.053987 
L 390.193014 390.656778 
L 393.715294 387.134498 
L 397.112502 383.491438 
L 400.3805 379.732037 
L 403.515306 375.860874 
L 406.513101 371.882666 
L 409.370232 367.80226 
L 412.083218 363.624627 
L 414.648755 359.354858 
L 417.063715 354.998153 
L 419.325158 350.559822 
L 421.430328 346.045271 
L 423.37666 341.46 
L 425.161782 336.809597 
L 426.78352 332.099727 
L 428.239899 327.336129 
L 429.529143 322.524605 
L 430.649681 317.671018 
L 431.60015 312.781282 
L 432.37939 307.861354 
L 432.986452 302.917227 
L 433.420597 297.954927 
L 433.681296 292.980497 
L 433.768231 288 
L 433.768231 288 
" style="fill:none;stroke:#ffffff;stroke-linecap:round;"/>
     </g>
     <g id="text_13">
      <!-- 2.5 -->
      <g style="fill:#262626;" transform="translate(422.905101 231.201106)scale(0.11 -0.11)">
       <use xlink:href="#ArialMT-50"/>
       <use x="55.615234" xlink:href="#ArialMT-46"/>
       <use x="83.398438" xlink:href="#ArialMT-53"/>
      </g>
     </g>
    </g>
    <g id="ytick_6">
     <g id="line2d_14">
      <path clip-path="url(#p4806919eba)" d="M 462.310174 288 
L 462.205852 282.023403 
L 461.893014 276.054088 
L 461.37204 270.099327 
L 460.643565 264.166376 
L 459.708477 258.262462 
L 458.567914 252.394778 
L 457.223268 246.570474 
L 455.676175 240.796646 
L 453.928521 235.080327 
L 451.982435 229.428483 
L 449.840288 223.848 
L 447.50469 218.345675 
L 444.978487 212.928214 
L 442.264755 207.602216 
L 439.366802 202.374171 
L 436.288159 197.250447 
L 433.032575 192.237288 
L 429.604018 187.340801 
L 426.006664 182.566951 
L 422.244897 177.921556 
L 418.323299 173.410274 
L 414.246649 169.038602 
L 410.019914 164.811866 
L 405.648242 160.735216 
L 401.13696 156.813619 
L 396.491564 153.051852 
L 391.717715 149.454498 
L 386.821228 146.025941 
L 381.808068 142.770357 
L 376.684345 139.691713 
L 371.456299 136.79376 
L 366.130302 134.080029 
L 360.71284 131.553825 
L 355.210516 129.218227 
L 349.630032 127.07608 
L 343.978188 125.129994 
L 338.26187 123.38234 
L 332.488041 121.835248 
L 326.663737 120.490601 
L 320.796054 119.350039 
L 314.89214 118.414951 
L 308.959188 117.686476 
L 303.004427 117.165502 
L 297.035112 116.852663 
L 291.058516 116.748342 
L 285.081919 116.852663 
L 279.112604 117.165502 
L 273.157843 117.686476 
L 267.224891 118.414951 
L 261.320977 119.350039 
L 255.453294 120.490601 
L 249.62899 121.835248 
L 243.855161 123.38234 
L 238.138843 125.129994 
L 232.486999 127.07608 
L 226.906515 129.218227 
L 221.404191 131.553825 
L 215.98673 134.080029 
L 210.660732 136.79376 
L 205.432686 139.691713 
L 200.308963 142.770357 
L 195.295803 146.025941 
L 190.399316 149.454498 
L 185.625467 153.051852 
L 180.980071 156.813619 
L 176.46879 160.735216 
L 172.097118 164.811866 
L 167.870382 169.038602 
L 163.793732 173.410274 
L 159.872134 177.921556 
L 156.110367 182.566951 
L 152.513014 187.340801 
L 149.084456 192.237288 
L 145.828873 197.250447 
L 142.750229 202.374171 
L 139.852276 207.602216 
L 137.138545 212.928214 
L 134.612341 218.345675 
L 132.276743 223.848 
L 130.134596 229.428483 
L 128.18851 235.080327 
L 126.440856 240.796646 
L 124.893763 246.570474 
L 123.549117 252.394778 
L 122.408555 258.262462 
L 121.473467 264.166376 
L 120.744992 270.099327 
L 120.224018 276.054088 
L 119.911179 282.023403 
L 119.806857 288 
L 119.911179 293.976597 
L 120.224018 299.945912 
L 120.744992 305.900673 
L 121.473467 311.833624 
L 122.408555 317.737538 
L 123.549117 323.605222 
L 124.893763 329.429526 
L 126.440856 335.203354 
L 128.18851 340.919673 
L 130.134596 346.571517 
L 132.276743 352.152 
L 134.612341 357.654325 
L 137.138545 363.071786 
L 139.852276 368.397784 
L 142.750229 373.625829 
L 145.828873 378.749553 
L 149.084456 383.762712 
L 152.513014 388.659199 
L 156.110367 393.433049 
L 159.872134 398.078444 
L 163.793732 402.589726 
L 167.870382 406.961398 
L 172.097118 411.188134 
L 176.46879 415.264784 
L 180.980071 419.186381 
L 185.625467 422.948148 
L 190.399316 426.545502 
L 195.295803 429.974059 
L 200.308963 433.229643 
L 205.432686 436.308287 
L 210.660732 439.20624 
L 215.98673 441.919971 
L 221.404191 444.446175 
L 226.906515 446.781773 
L 232.486999 448.92392 
L 238.138843 450.870006 
L 243.855161 452.61766 
L 249.62899 454.164752 
L 255.453294 455.509399 
L 261.320977 456.649961 
L 267.224891 457.585049 
L 273.157843 458.313524 
L 279.112604 458.834498 
L 285.081919 459.147337 
L 291.058516 459.251658 
L 297.035112 459.147337 
L 303.004427 458.834498 
L 308.959188 458.313524 
L 314.89214 457.585049 
L 320.796054 456.649961 
L 326.663737 455.509399 
L 332.488041 454.164752 
L 338.26187 452.61766 
L 343.978188 450.870006 
L 349.630032 448.92392 
L 355.210516 446.781773 
L 360.71284 444.446175 
L 366.130302 441.919971 
L 371.456299 439.20624 
L 376.684345 436.308287 
L 381.808068 433.229643 
L 386.821228 429.974059 
L 391.717715 426.545502 
L 396.491564 422.948148 
L 401.13696 419.186381 
L 405.648242 415.264784 
L 410.019914 411.188134 
L 414.246649 406.961398 
L 418.323299 402.589726 
L 422.244897 398.078444 
L 426.006664 393.433049 
L 429.604018 388.659199 
L 433.032575 383.762712 
L 436.288159 378.749553 
L 439.366802 373.625829 
L 442.264755 368.397784 
L 444.978487 363.071786 
L 447.50469 357.654325 
L 449.840288 352.152 
L 451.982435 346.571517 
L 453.928521 340.919673 
L 455.676175 335.203354 
L 457.223268 329.429526 
L 458.567914 323.605222 
L 459.708477 317.737538 
L 460.643565 311.833624 
L 461.37204 305.900673 
L 461.893014 299.945912 
L 462.205852 293.976597 
L 462.310174 288 
L 462.310174 288 
" style="fill:none;stroke:#ffffff;stroke-linecap:round;"/>
     </g>
     <g id="text_14">
      <!-- 3.0 -->
      <g style="fill:#262626;" transform="translate(449.274418 220.278578)scale(0.11 -0.11)">
       <use xlink:href="#ArialMT-51"/>
       <use x="55.615234" xlink:href="#ArialMT-46"/>
       <use x="83.398438" xlink:href="#ArialMT-48"/>
      </g>
     </g>
    </g>
    <g id="ytick_7">
     <g id="line2d_15">
      <path clip-path="url(#p4806919eba)" d="M 490.852117 288 
L 490.730408 281.027304 
L 490.36543 274.063103 
L 489.757627 267.115882 
L 488.90774 260.194105 
L 487.816803 253.306205 
L 486.486148 246.460574 
L 484.917393 239.665553 
L 483.112452 232.92942 
L 481.073522 226.260382 
L 478.803089 219.666564 
L 476.303917 213.156 
L 473.579053 206.736621 
L 470.631815 200.41625 
L 467.465795 194.202586 
L 464.08485 188.103199 
L 460.493099 182.125522 
L 456.694918 176.276836 
L 452.694935 170.564267 
L 448.498022 164.994776 
L 444.109294 159.575148 
L 439.534097 154.311986 
L 434.778005 149.211702 
L 429.846813 144.280511 
L 424.746529 139.524419 
L 419.483367 134.949222 
L 414.063739 130.560493 
L 408.494248 126.363581 
L 402.78168 122.363598 
L 396.932994 118.565417 
L 390.955316 114.973666 
L 384.85593 111.59272 
L 378.642266 108.4267 
L 372.321894 105.479463 
L 365.902516 102.754598 
L 359.391952 100.255427 
L 352.798134 97.984993 
L 346.129096 95.946064 
L 339.392962 94.141122 
L 332.597941 92.572368 
L 325.75231 91.241712 
L 318.864411 90.150776 
L 311.942634 89.300889 
L 304.995413 88.693086 
L 298.031212 88.328107 
L 291.058516 88.206398 
L 284.085819 88.328107 
L 277.121619 88.693086 
L 270.174397 89.300889 
L 263.252621 90.150776 
L 256.364721 91.241712 
L 249.51909 92.572368 
L 242.724069 94.141122 
L 235.987936 95.946064 
L 229.318897 97.984993 
L 222.725079 100.255427 
L 216.214515 102.754598 
L 209.795137 105.479463 
L 203.474765 108.4267 
L 197.261101 111.59272 
L 191.161715 114.973666 
L 185.184037 118.565417 
L 179.335351 122.363598 
L 173.622783 126.363581 
L 168.053292 130.560493 
L 162.633664 134.949222 
L 157.370502 139.524419 
L 152.270218 144.280511 
L 147.339026 149.211702 
L 142.582934 154.311986 
L 138.007737 159.575148 
L 133.619009 164.994776 
L 129.422097 170.564267 
L 125.422113 176.276836 
L 121.623932 182.125522 
L 118.032181 188.103199 
L 114.651236 194.202586 
L 111.485216 200.41625 
L 108.537978 206.736621 
L 105.813114 213.156 
L 103.313943 219.666564 
L 101.043509 226.260382 
L 99.004579 232.92942 
L 97.199638 239.665553 
L 95.630884 246.460574 
L 94.300228 253.306205 
L 93.209292 260.194105 
L 92.359404 267.115882 
L 91.751601 274.063103 
L 91.386623 281.027304 
L 91.264914 288 
L 91.386623 294.972696 
L 91.751601 301.936897 
L 92.359404 308.884118 
L 93.209292 315.805895 
L 94.300228 322.693795 
L 95.630884 329.539426 
L 97.199638 336.334447 
L 99.004579 343.07058 
L 101.043509 349.739618 
L 103.313943 356.333436 
L 105.813114 362.844 
L 108.537978 369.263379 
L 111.485216 375.58375 
L 114.651236 381.797414 
L 118.032181 387.896801 
L 121.623932 393.874478 
L 125.422113 399.723164 
L 129.422097 405.435733 
L 133.619009 411.005224 
L 138.007737 416.424852 
L 142.582934 421.688014 
L 147.339026 426.788298 
L 152.270218 431.719489 
L 157.370502 436.475581 
L 162.633664 441.050778 
L 168.053292 445.439507 
L 173.622783 449.636419 
L 179.335351 453.636402 
L 185.184037 457.434583 
L 191.161715 461.026334 
L 197.261101 464.40728 
L 203.474765 467.5733 
L 209.795137 470.520537 
L 216.214515 473.245402 
L 222.725079 475.744573 
L 229.318897 478.015007 
L 235.987936 480.053936 
L 242.724069 481.858878 
L 249.51909 483.427632 
L 256.364721 484.758288 
L 263.252621 485.849224 
L 270.174397 486.699111 
L 277.121619 487.306914 
L 284.085819 487.671893 
L 291.058516 487.793602 
L 298.031212 487.671893 
L 304.995413 487.306914 
L 311.942634 486.699111 
L 318.864411 485.849224 
L 325.75231 484.758288 
L 332.597941 483.427632 
L 339.392962 481.858878 
L 346.129096 480.053936 
L 352.798134 478.015007 
L 359.391952 475.744573 
L 365.902516 473.245402 
L 372.321894 470.520537 
L 378.642266 467.5733 
L 384.85593 464.40728 
L 390.955316 461.026334 
L 396.932994 457.434583 
L 402.78168 453.636402 
L 408.494248 449.636419 
L 414.063739 445.439507 
L 419.483367 441.050778 
L 424.746529 436.475581 
L 429.846813 431.719489 
L 434.778005 426.788298 
L 439.534097 421.688014 
L 444.109294 416.424852 
L 448.498022 411.005224 
L 452.694935 405.435733 
L 456.694918 399.723164 
L 460.493099 393.874478 
L 464.08485 387.896801 
L 467.465795 381.797414 
L 470.631815 375.58375 
L 473.579053 369.263379 
L 476.303917 362.844 
L 478.803089 356.333436 
L 481.073522 349.739618 
L 483.112452 343.07058 
L 484.917393 336.334447 
L 486.486148 329.539426 
L 487.816803 322.693795 
L 488.90774 315.805895 
L 489.757627 308.884118 
L 490.36543 301.936897 
L 490.730408 294.972696 
L 490.852117 288 
L 490.852117 288 
" style="fill:none;stroke:#ffffff;stroke-linecap:round;"/>
     </g>
     <g id="text_15">
      <!-- 3.5 -->
      <g style="fill:#262626;" transform="translate(475.643735 209.356049)scale(0.11 -0.11)">
       <use xlink:href="#ArialMT-51"/>
       <use x="55.615234" xlink:href="#ArialMT-46"/>
       <use x="83.398438" xlink:href="#ArialMT-53"/>
      </g>
     </g>
    </g>
    <g id="ytick_8">
     <g id="line2d_16">
      <path clip-path="url(#p4806919eba)" d="M 519.39406 288 
L 519.254964 280.031204 
L 518.837846 272.072118 
L 518.143214 264.132436 
L 517.171914 256.221834 
L 515.92513 248.349949 
L 514.404381 240.526371 
L 512.611519 232.760632 
L 510.548729 225.062194 
L 508.218523 217.440436 
L 505.623742 209.904644 
L 502.767546 202.463999 
L 499.653415 195.127567 
L 496.285144 187.904285 
L 492.666835 180.802955 
L 488.802898 173.832228 
L 484.69804 167.000596 
L 480.357261 160.316384 
L 475.785852 153.787734 
L 470.98938 147.422602 
L 465.973691 141.228741 
L 460.744894 135.213699 
L 455.309361 129.384803 
L 449.673713 123.749155 
L 443.844817 118.313622 
L 437.829775 113.084825 
L 431.635914 108.069135 
L 425.270781 103.272664 
L 418.742132 98.701254 
L 412.057919 94.360476 
L 405.226288 90.255618 
L 398.255561 86.39168 
L 391.15423 82.773372 
L 383.930949 79.4051 
L 376.594516 76.29097 
L 369.153871 73.434774 
L 361.618079 70.839992 
L 353.996321 68.509787 
L 346.297883 66.446997 
L 338.532145 64.654135 
L 330.708567 63.133385 
L 322.836681 61.886601 
L 314.926079 60.915301 
L 306.986398 60.220669 
L 299.027311 59.803551 
L 291.058516 59.664455 
L 283.08972 59.803551 
L 275.130633 60.220669 
L 267.190952 60.915301 
L 259.28035 61.886601 
L 251.408464 63.133385 
L 243.584886 64.654135 
L 235.819148 66.446997 
L 228.12071 68.509787 
L 220.498952 70.839992 
L 212.96316 73.434774 
L 205.522515 76.29097 
L 198.186083 79.4051 
L 190.962801 82.773372 
L 183.861471 86.39168 
L 176.890743 90.255618 
L 170.059112 94.360476 
L 163.374899 98.701254 
L 156.84625 103.272664 
L 150.481117 108.069135 
L 144.287257 113.084825 
L 138.272214 118.313622 
L 132.443318 123.749155 
L 126.807671 129.384803 
L 121.372137 135.213699 
L 116.14334 141.228741 
L 111.127651 147.422602 
L 106.33118 153.787734 
L 101.75977 160.316384 
L 97.418992 167.000596 
L 93.314133 173.832228 
L 89.450196 180.802955 
L 85.831888 187.904285 
L 82.463616 195.127567 
L 79.349485 202.463999 
L 76.493289 209.904644 
L 73.898508 217.440436 
L 71.568303 225.062194 
L 69.505512 232.760632 
L 67.71265 240.526371 
L 66.191901 248.349949 
L 64.945117 256.221834 
L 63.973817 264.132436 
L 63.279185 272.072118 
L 62.862067 280.031204 
L 62.722971 288 
L 62.862067 295.968796 
L 63.279185 303.927882 
L 63.973817 311.867564 
L 64.945117 319.778166 
L 66.191901 327.650051 
L 67.71265 335.473629 
L 69.505512 343.239368 
L 71.568303 350.937806 
L 73.898508 358.559564 
L 76.493289 366.095356 
L 79.349485 373.536001 
L 82.463616 380.872433 
L 85.831888 388.095715 
L 89.450196 395.197045 
L 93.314133 402.167772 
L 97.418992 408.999404 
L 101.75977 415.683616 
L 106.33118 422.212266 
L 111.127651 428.577398 
L 116.14334 434.771259 
L 121.372137 440.786301 
L 126.807671 446.615197 
L 132.443318 452.250845 
L 138.272214 457.686378 
L 144.287257 462.915175 
L 150.481117 467.930865 
L 156.84625 472.727336 
L 163.374899 477.298746 
L 170.059112 481.639524 
L 176.890743 485.744382 
L 183.861471 489.60832 
L 190.962801 493.226628 
L 198.186083 496.5949 
L 205.522515 499.70903 
L 212.96316 502.565226 
L 220.498952 505.160008 
L 228.12071 507.490213 
L 235.819148 509.553003 
L 243.584886 511.345865 
L 251.408464 512.866615 
L 259.28035 514.113399 
L 267.190952 515.084699 
L 275.130633 515.779331 
L 283.08972 516.196449 
L 291.058516 516.335545 
L 299.027311 516.196449 
L 306.986398 515.779331 
L 314.926079 515.084699 
L 322.836681 514.113399 
L 330.708567 512.866615 
L 338.532145 511.345865 
L 346.297883 509.553003 
L 353.996321 507.490213 
L 361.618079 505.160008 
L 369.153871 502.565226 
L 376.594516 499.70903 
L 383.930949 496.5949 
L 391.15423 493.226628 
L 398.255561 489.60832 
L 405.226288 485.744382 
L 412.057919 481.639524 
L 418.742132 477.298746 
L 425.270781 472.727336 
L 431.635914 467.930865 
L 437.829775 462.915175 
L 443.844817 457.686378 
L 449.673713 452.250845 
L 455.309361 446.615197 
L 460.744894 440.786301 
L 465.973691 434.771259 
L 470.98938 428.577398 
L 475.785852 422.212266 
L 480.357261 415.683616 
L 484.69804 408.999404 
L 488.802898 402.167772 
L 492.666835 395.197045 
L 496.285144 388.095715 
L 499.653415 380.872433 
L 502.767546 373.536001 
L 505.623742 366.095356 
L 508.218523 358.559564 
L 510.548729 350.937806 
L 512.611519 343.239368 
L 514.404381 335.473629 
L 515.92513 327.650051 
L 517.171914 319.778166 
L 518.143214 311.867564 
L 518.837846 303.927882 
L 519.254964 295.968796 
L 519.39406 288 
L 519.39406 288 
" style="fill:none;stroke:#ffffff;stroke-linecap:round;"/>
     </g>
     <g id="text_16">
      <!-- 4.0 -->
      <g style="fill:#262626;" transform="translate(502.013052 198.43352)scale(0.11 -0.11)">
       <use xlink:href="#ArialMT-52"/>
       <use x="55.615234" xlink:href="#ArialMT-46"/>
       <use x="83.398438" xlink:href="#ArialMT-48"/>
      </g>
     </g>
    </g>
   </g>
   <g id="line2d_17">
    <defs>
     <path d="M 0 3 
C 0.795609 3 1.55874 2.683901 2.12132 2.12132 
C 2.683901 1.55874 3 0.795609 3 0 
C 3 -0.795609 2.683901 -1.55874 2.12132 -2.12132 
C 1.55874 -2.683901 0.795609 -3 0 -3 
C -0.795609 -3 -1.55874 -2.683901 -2.12132 -2.12132 
C -2.683901 -1.55874 -3 -0.795609 -3 0 
C -3 0.795609 -2.683901 1.55874 -2.12132 2.12132 
C -1.55874 2.683901 -0.795609 3 0 3 
z
" id="m2ba2c17c03" style="stroke:#4c72b0;"/>
    </defs>
    <g clip-path="url(#p4806919eba)">
     <use style="fill:#4c72b0;stroke:#4c72b0;" x="291.058516" xlink:href="#m2ba2c17c03" y="116.748342"/>
     <use style="fill:#4c72b0;stroke:#4c72b0;" x="400.679018" xlink:href="#m2ba2c17c03" y="319.900245"/>
    </g>
   </g>
   <g id="line2d_18">
    <defs>
     <path d="M -3 3 
L 3 -3 
M -3 -3 
L 3 3 
" id="m9dd7b48240" style="stroke:#dd8452;"/>
    </defs>
    <g clip-path="url(#p4806919eba)">
     <use style="fill:#dd8452;stroke:#dd8452;" x="510.299521" xlink:href="#m9dd7b48240" y="180.548831"/>
    </g>
   </g>
   <g id="line2d_19">
    <defs>
     <path d="M -3 3 
L 3 -3 
M -3 -3 
L 3 3 
" id="m43225c8d1a" style="stroke:#55a868;"/>
    </defs>
    <g clip-path="url(#p4806919eba)">
     <use style="fill:#55a868;stroke:#55a868;" x="364.138851" xlink:href="#m43225c8d1a" y="252.182944"/>
    </g>
   </g>
   <g id="line2d_20">
    <defs>
     <path d="M -3 3 
L 3 -3 
M -3 -3 
L 3 3 
" id="mff2915141d" style="stroke:#c44e52;"/>
    </defs>
    <g clip-path="url(#p4806919eba)">
     <use style="fill:#c44e52;stroke:#c44e52;" x="239.799871" xlink:href="#mff2915141d" y="313.122131"/>
    </g>
   </g>
   <g id="patch_3">
    <path d="M 544.568594 288 
C 544.568594 254.709362 538.011064 221.742433 525.271288 190.985893 
C 512.531512 160.229354 493.857247 132.281341 470.317211 108.741305 
C 446.777175 85.201268 418.829162 66.527003 388.072622 53.787228 
C 357.316083 41.047452 324.349154 34.489922 291.058516 34.489922 
C 257.767877 34.489922 224.800948 41.047452 194.044409 53.787228 
C 163.287869 66.527003 135.339856 85.201268 111.79982 108.741305 
C 88.259784 132.281341 69.585519 160.229354 56.845743 190.985893 
C 44.105967 221.742433 37.548438 254.709362 37.548438 288 
C 37.548438 321.290638 44.105967 354.257567 56.845743 385.014107 
C 69.585519 415.770646 88.259784 443.718659 111.79982 467.258695 
C 135.339856 490.798732 163.287869 509.472997 194.044409 522.212772 
C 224.800948 534.952548 257.767877 541.510078 291.058516 541.510078 
C 324.349154 541.510078 357.316083 534.952548 388.072622 522.212772 
C 418.829162 509.472997 446.777175 490.798732 470.317211 467.258695 
C 493.857247 443.718659 512.531512 415.770646 525.271288 385.014107 
C 538.011064 354.257567 544.568594 321.290638 544.568594 288 
" style="fill:none;stroke:#ffffff;stroke-linecap:square;stroke-linejoin:miter;stroke-width:1.25;"/>
   </g>
   <g id="legend_1">
    <g id="patch_4">
     <path d="M 424.6325 105.787109 
L 536.868594 105.787109 
Q 539.068594 105.787109 539.068594 103.587109 
L 539.068594 42.189922 
Q 539.068594 39.989922 536.868594 39.989922 
L 424.6325 39.989922 
Q 422.4325 39.989922 422.4325 42.189922 
L 422.4325 103.587109 
Q 422.4325 105.787109 424.6325 105.787109 
z
" style="fill:#eaeaf2;opacity:0.8;stroke:#cccccc;stroke-linejoin:miter;"/>
    </g>
    <g id="line2d_21"/>
    <g id="line2d_22">
     <g>
      <use style="fill:#4c72b0;stroke:#4c72b0;" x="437.8325" xlink:href="#m2ba2c17c03" y="48.413516"/>
     </g>
    </g>
    <g id="text_17">
     <!-- Seeds -->
     <defs>
      <path d="M 4.5 23 
L 13.421875 23.78125 
Q 14.0625 18.40625 16.375 14.96875 
Q 18.703125 11.53125 23.578125 9.40625 
Q 28.46875 7.28125 34.578125 7.28125 
Q 39.984375 7.28125 44.140625 8.890625 
Q 48.296875 10.5 50.3125 13.296875 
Q 52.34375 16.109375 52.34375 19.4375 
Q 52.34375 22.796875 50.390625 25.3125 
Q 48.4375 27.828125 43.953125 29.546875 
Q 41.0625 30.671875 31.203125 33.03125 
Q 21.34375 35.40625 17.390625 37.5 
Q 12.25 40.1875 9.734375 44.15625 
Q 7.234375 48.140625 7.234375 53.078125 
Q 7.234375 58.5 10.296875 63.203125 
Q 13.375 67.921875 19.28125 70.359375 
Q 25.203125 72.796875 32.421875 72.796875 
Q 40.375 72.796875 46.453125 70.234375 
Q 52.546875 67.671875 55.8125 62.6875 
Q 59.078125 57.71875 59.328125 51.421875 
L 50.25 50.734375 
Q 49.515625 57.515625 45.28125 60.984375 
Q 41.0625 64.453125 32.8125 64.453125 
Q 24.21875 64.453125 20.28125 61.296875 
Q 16.359375 58.15625 16.359375 53.71875 
Q 16.359375 49.859375 19.140625 47.359375 
Q 21.875 44.875 33.421875 42.265625 
Q 44.96875 39.65625 49.265625 37.703125 
Q 55.515625 34.8125 58.484375 30.390625 
Q 61.46875 25.984375 61.46875 20.21875 
Q 61.46875 14.5 58.203125 9.4375 
Q 54.9375 4.390625 48.796875 1.578125 
Q 42.671875 -1.21875 35.015625 -1.21875 
Q 25.296875 -1.21875 18.71875 1.609375 
Q 12.15625 4.4375 8.421875 10.125 
Q 4.6875 15.828125 4.5 23 
z
" id="ArialMT-83"/>
      <path d="M 42.09375 16.703125 
L 51.171875 15.578125 
Q 49.03125 7.625 43.21875 3.21875 
Q 37.40625 -1.171875 28.375 -1.171875 
Q 17 -1.171875 10.328125 5.828125 
Q 3.65625 12.84375 3.65625 25.484375 
Q 3.65625 38.578125 10.390625 45.796875 
Q 17.140625 53.03125 27.875 53.03125 
Q 38.28125 53.03125 44.875 45.953125 
Q 51.46875 38.875 51.46875 26.03125 
Q 51.46875 25.25 51.421875 23.6875 
L 12.75 23.6875 
Q 13.234375 15.140625 17.578125 10.59375 
Q 21.921875 6.0625 28.421875 6.0625 
Q 33.25 6.0625 36.671875 8.59375 
Q 40.09375 11.140625 42.09375 16.703125 
z
M 13.234375 30.90625 
L 42.1875 30.90625 
Q 41.609375 37.453125 38.875 40.71875 
Q 34.671875 45.796875 27.984375 45.796875 
Q 21.921875 45.796875 17.796875 41.75 
Q 13.671875 37.703125 13.234375 30.90625 
z
" id="ArialMT-101"/>
      <path d="M 40.234375 0 
L 40.234375 6.546875 
Q 35.296875 -1.171875 25.734375 -1.171875 
Q 19.53125 -1.171875 14.328125 2.25 
Q 9.125 5.671875 6.265625 11.796875 
Q 3.421875 17.921875 3.421875 25.875 
Q 3.421875 33.640625 6 39.96875 
Q 8.59375 46.296875 13.765625 49.65625 
Q 18.953125 53.03125 25.34375 53.03125 
Q 30.03125 53.03125 33.6875 51.046875 
Q 37.359375 49.078125 39.65625 45.90625 
L 39.65625 71.578125 
L 48.390625 71.578125 
L 48.390625 0 
z
M 12.453125 25.875 
Q 12.453125 15.921875 16.640625 10.984375 
Q 20.84375 6.0625 26.5625 6.0625 
Q 32.328125 6.0625 36.34375 10.765625 
Q 40.375 15.484375 40.375 25.140625 
Q 40.375 35.796875 36.265625 40.765625 
Q 32.171875 45.75 26.171875 45.75 
Q 20.3125 45.75 16.375 40.96875 
Q 12.453125 36.1875 12.453125 25.875 
z
" id="ArialMT-100"/>
      <path d="M 3.078125 15.484375 
L 11.765625 16.84375 
Q 12.5 11.625 15.84375 8.84375 
Q 19.1875 6.0625 25.203125 6.0625 
Q 31.25 6.0625 34.171875 8.515625 
Q 37.109375 10.984375 37.109375 14.3125 
Q 37.109375 17.28125 34.515625 19 
Q 32.71875 20.171875 25.53125 21.96875 
Q 15.875 24.421875 12.140625 26.203125 
Q 8.40625 27.984375 6.46875 31.125 
Q 4.546875 34.28125 4.546875 38.09375 
Q 4.546875 41.546875 6.125 44.5 
Q 7.71875 47.46875 10.453125 49.421875 
Q 12.5 50.921875 16.03125 51.96875 
Q 19.578125 53.03125 23.640625 53.03125 
Q 29.734375 53.03125 34.34375 51.265625 
Q 38.96875 49.515625 41.15625 46.5 
Q 43.359375 43.5 44.1875 38.484375 
L 35.59375 37.3125 
Q 35.015625 41.3125 32.203125 43.546875 
Q 29.390625 45.796875 24.265625 45.796875 
Q 18.21875 45.796875 15.625 43.796875 
Q 13.03125 41.796875 13.03125 39.109375 
Q 13.03125 37.40625 14.109375 36.03125 
Q 15.1875 34.625 17.484375 33.6875 
Q 18.796875 33.203125 25.25 31.453125 
Q 34.578125 28.953125 38.25 27.359375 
Q 41.9375 25.78125 44.03125 22.75 
Q 46.140625 19.734375 46.140625 15.234375 
Q 46.140625 10.84375 43.578125 6.953125 
Q 41.015625 3.078125 36.171875 0.953125 
Q 31.34375 -1.171875 25.25 -1.171875 
Q 15.140625 -1.171875 9.84375 3.03125 
Q 4.546875 7.234375 3.078125 15.484375 
z
" id="ArialMT-115"/>
     </defs>
     <g style="fill:#262626;" transform="translate(457.6325 52.263516)scale(0.11 -0.11)">
      <use xlink:href="#ArialMT-83"/>
      <use x="66.699219" xlink:href="#ArialMT-101"/>
      <use x="122.314453" xlink:href="#ArialMT-101"/>
      <use x="177.929688" xlink:href="#ArialMT-100"/>
      <use x="233.544922" xlink:href="#ArialMT-115"/>
     </g>
    </g>
    <g id="line2d_23"/>
    <g id="line2d_24">
     <g>
      <use style="fill:#dd8452;stroke:#dd8452;" x="437.8325" xlink:href="#m9dd7b48240" y="63.973359"/>
     </g>
    </g>
    <g id="text_18">
     <!-- Weighted sum -->
     <defs>
      <path d="M 20.21875 0 
L 1.21875 71.578125 
L 10.9375 71.578125 
L 21.828125 24.65625 
Q 23.578125 17.28125 24.859375 10.015625 
Q 27.59375 21.484375 28.078125 23.25 
L 41.703125 71.578125 
L 53.125 71.578125 
L 63.375 35.359375 
Q 67.234375 21.875 68.953125 10.015625 
Q 70.3125 16.796875 72.515625 25.59375 
L 83.734375 71.578125 
L 93.265625 71.578125 
L 73.640625 0 
L 64.5 0 
L 49.421875 54.546875 
Q 47.515625 61.375 47.171875 62.9375 
Q 46.046875 58.015625 45.0625 54.546875 
L 29.890625 0 
z
" id="ArialMT-87"/>
      <path d="M 6.640625 61.46875 
L 6.640625 71.578125 
L 15.4375 71.578125 
L 15.4375 61.46875 
z
M 6.640625 0 
L 6.640625 51.859375 
L 15.4375 51.859375 
L 15.4375 0 
z
" id="ArialMT-105"/>
      <path d="M 4.984375 -4.296875 
L 13.53125 -5.5625 
Q 14.0625 -9.515625 16.5 -11.328125 
Q 19.78125 -13.765625 25.4375 -13.765625 
Q 31.546875 -13.765625 34.859375 -11.328125 
Q 38.1875 -8.890625 39.359375 -4.5 
Q 40.046875 -1.8125 39.984375 6.78125 
Q 34.234375 0 25.640625 0 
Q 14.9375 0 9.078125 7.71875 
Q 3.21875 15.4375 3.21875 26.21875 
Q 3.21875 33.640625 5.90625 39.90625 
Q 8.59375 46.1875 13.6875 49.609375 
Q 18.796875 53.03125 25.6875 53.03125 
Q 34.859375 53.03125 40.828125 45.609375 
L 40.828125 51.859375 
L 48.921875 51.859375 
L 48.921875 7.03125 
Q 48.921875 -5.078125 46.453125 -10.125 
Q 44 -15.1875 38.640625 -18.109375 
Q 33.296875 -21.046875 25.484375 -21.046875 
Q 16.21875 -21.046875 10.5 -16.875 
Q 4.78125 -12.703125 4.984375 -4.296875 
z
M 12.25 26.859375 
Q 12.25 16.65625 16.296875 11.96875 
Q 20.359375 7.28125 26.46875 7.28125 
Q 32.515625 7.28125 36.609375 11.9375 
Q 40.71875 16.609375 40.71875 26.5625 
Q 40.71875 36.078125 36.5 40.90625 
Q 32.28125 45.75 26.3125 45.75 
Q 20.453125 45.75 16.34375 40.984375 
Q 12.25 36.234375 12.25 26.859375 
z
" id="ArialMT-103"/>
      <path d="M 6.59375 0 
L 6.59375 71.578125 
L 15.375 71.578125 
L 15.375 45.90625 
Q 21.53125 53.03125 30.90625 53.03125 
Q 36.671875 53.03125 40.921875 50.75 
Q 45.171875 48.484375 47 44.484375 
Q 48.828125 40.484375 48.828125 32.859375 
L 48.828125 0 
L 40.046875 0 
L 40.046875 32.859375 
Q 40.046875 39.453125 37.1875 42.453125 
Q 34.328125 45.453125 29.109375 45.453125 
Q 25.203125 45.453125 21.75 43.421875 
Q 18.3125 41.40625 16.84375 37.9375 
Q 15.375 34.46875 15.375 28.375 
L 15.375 0 
z
" id="ArialMT-104"/>
      <path d="M 25.78125 7.859375 
L 27.046875 0.09375 
Q 23.34375 -0.6875 20.40625 -0.6875 
Q 15.625 -0.6875 12.984375 0.828125 
Q 10.359375 2.34375 9.28125 4.8125 
Q 8.203125 7.28125 8.203125 15.1875 
L 8.203125 45.015625 
L 1.765625 45.015625 
L 1.765625 51.859375 
L 8.203125 51.859375 
L 8.203125 64.703125 
L 16.9375 69.96875 
L 16.9375 51.859375 
L 25.78125 51.859375 
L 25.78125 45.015625 
L 16.9375 45.015625 
L 16.9375 14.703125 
Q 16.9375 10.9375 17.40625 9.859375 
Q 17.875 8.796875 18.921875 8.15625 
Q 19.96875 7.515625 21.921875 7.515625 
Q 23.390625 7.515625 25.78125 7.859375 
z
" id="ArialMT-116"/>
      <path id="ArialMT-32"/>
      <path d="M 40.578125 0 
L 40.578125 7.625 
Q 34.515625 -1.171875 24.125 -1.171875 
Q 19.53125 -1.171875 15.546875 0.578125 
Q 11.578125 2.34375 9.640625 5 
Q 7.71875 7.671875 6.9375 11.53125 
Q 6.390625 14.109375 6.390625 19.734375 
L 6.390625 51.859375 
L 15.1875 51.859375 
L 15.1875 23.09375 
Q 15.1875 16.21875 15.71875 13.8125 
Q 16.546875 10.359375 19.234375 8.375 
Q 21.921875 6.390625 25.875 6.390625 
Q 29.828125 6.390625 33.296875 8.421875 
Q 36.765625 10.453125 38.203125 13.9375 
Q 39.65625 17.4375 39.65625 24.078125 
L 39.65625 51.859375 
L 48.4375 51.859375 
L 48.4375 0 
z
" id="ArialMT-117"/>
      <path d="M 6.59375 0 
L 6.59375 51.859375 
L 14.453125 51.859375 
L 14.453125 44.578125 
Q 16.890625 48.390625 20.9375 50.703125 
Q 25 53.03125 30.171875 53.03125 
Q 35.9375 53.03125 39.625 50.640625 
Q 43.3125 48.25 44.828125 43.953125 
Q 50.984375 53.03125 60.84375 53.03125 
Q 68.5625 53.03125 72.703125 48.75 
Q 76.859375 44.484375 76.859375 35.59375 
L 76.859375 0 
L 68.109375 0 
L 68.109375 32.671875 
Q 68.109375 37.9375 67.25 40.25 
Q 66.40625 42.578125 64.15625 43.984375 
Q 61.921875 45.40625 58.890625 45.40625 
Q 53.421875 45.40625 49.796875 41.765625 
Q 46.1875 38.140625 46.1875 30.125 
L 46.1875 0 
L 37.40625 0 
L 37.40625 33.6875 
Q 37.40625 39.546875 35.25 42.46875 
Q 33.109375 45.40625 28.21875 45.40625 
Q 24.515625 45.40625 21.359375 43.453125 
Q 18.21875 41.5 16.796875 37.734375 
Q 15.375 33.984375 15.375 26.90625 
L 15.375 0 
z
" id="ArialMT-109"/>
     </defs>
     <g style="fill:#262626;" transform="translate(457.6325 67.823359)scale(0.11 -0.11)">
      <use xlink:href="#ArialMT-87"/>
      <use x="94.369141" xlink:href="#ArialMT-101"/>
      <use x="149.984375" xlink:href="#ArialMT-105"/>
      <use x="172.201172" xlink:href="#ArialMT-103"/>
      <use x="227.816406" xlink:href="#ArialMT-104"/>
      <use x="283.431641" xlink:href="#ArialMT-116"/>
      <use x="311.214844" xlink:href="#ArialMT-101"/>
      <use x="366.830078" xlink:href="#ArialMT-100"/>
      <use x="422.445312" xlink:href="#ArialMT-32"/>
      <use x="450.228516" xlink:href="#ArialMT-115"/>
      <use x="500.228516" xlink:href="#ArialMT-117"/>
      <use x="555.84375" xlink:href="#ArialMT-109"/>
     </g>
    </g>
    <g id="line2d_25"/>
    <g id="line2d_26">
     <g>
      <use style="fill:#55a868;stroke:#55a868;" x="437.8325" xlink:href="#m43225c8d1a" y="79.662109"/>
     </g>
    </g>
    <g id="text_19">
     <!-- Weighted mean -->
     <defs>
      <path d="M 40.4375 6.390625 
Q 35.546875 2.25 31.03125 0.53125 
Q 26.515625 -1.171875 21.34375 -1.171875 
Q 12.796875 -1.171875 8.203125 3 
Q 3.609375 7.171875 3.609375 13.671875 
Q 3.609375 17.484375 5.34375 20.625 
Q 7.078125 23.78125 9.890625 25.6875 
Q 12.703125 27.59375 16.21875 28.5625 
Q 18.796875 29.25 24.03125 29.890625 
Q 34.671875 31.15625 39.703125 32.90625 
Q 39.75 34.71875 39.75 35.203125 
Q 39.75 40.578125 37.25 42.78125 
Q 33.890625 45.75 27.25 45.75 
Q 21.046875 45.75 18.09375 43.578125 
Q 15.140625 41.40625 13.71875 35.890625 
L 5.125 37.0625 
Q 6.296875 42.578125 8.984375 45.96875 
Q 11.671875 49.359375 16.75 51.1875 
Q 21.828125 53.03125 28.515625 53.03125 
Q 35.15625 53.03125 39.296875 51.46875 
Q 43.453125 49.90625 45.40625 47.53125 
Q 47.359375 45.171875 48.140625 41.546875 
Q 48.578125 39.3125 48.578125 33.453125 
L 48.578125 21.734375 
Q 48.578125 9.46875 49.140625 6.21875 
Q 49.703125 2.984375 51.375 0 
L 42.1875 0 
Q 40.828125 2.734375 40.4375 6.390625 
z
M 39.703125 26.03125 
Q 34.90625 24.078125 25.34375 22.703125 
Q 19.921875 21.921875 17.671875 20.9375 
Q 15.4375 19.96875 14.203125 18.09375 
Q 12.984375 16.21875 12.984375 13.921875 
Q 12.984375 10.40625 15.640625 8.0625 
Q 18.3125 5.71875 23.4375 5.71875 
Q 28.515625 5.71875 32.46875 7.9375 
Q 36.421875 10.15625 38.28125 14.015625 
Q 39.703125 17 39.703125 22.796875 
z
" id="ArialMT-97"/>
      <path d="M 6.59375 0 
L 6.59375 51.859375 
L 14.5 51.859375 
L 14.5 44.484375 
Q 20.21875 53.03125 31 53.03125 
Q 35.6875 53.03125 39.625 51.34375 
Q 43.5625 49.65625 45.515625 46.921875 
Q 47.46875 44.1875 48.25 40.4375 
Q 48.734375 37.984375 48.734375 31.890625 
L 48.734375 0 
L 39.9375 0 
L 39.9375 31.546875 
Q 39.9375 36.921875 38.90625 39.578125 
Q 37.890625 42.234375 35.28125 43.8125 
Q 32.671875 45.40625 29.15625 45.40625 
Q 23.53125 45.40625 19.453125 41.84375 
Q 15.375 38.28125 15.375 28.328125 
L 15.375 0 
z
" id="ArialMT-110"/>
     </defs>
     <g style="fill:#262626;" transform="translate(457.6325 83.512109)scale(0.11 -0.11)">
      <use xlink:href="#ArialMT-87"/>
      <use x="94.369141" xlink:href="#ArialMT-101"/>
      <use x="149.984375" xlink:href="#ArialMT-105"/>
      <use x="172.201172" xlink:href="#ArialMT-103"/>
      <use x="227.816406" xlink:href="#ArialMT-104"/>
      <use x="283.431641" xlink:href="#ArialMT-116"/>
      <use x="311.214844" xlink:href="#ArialMT-101"/>
      <use x="366.830078" xlink:href="#ArialMT-100"/>
      <use x="422.445312" xlink:href="#ArialMT-32"/>
      <use x="450.228516" xlink:href="#ArialMT-109"/>
      <use x="533.529297" xlink:href="#ArialMT-101"/>
      <use x="589.144531" xlink:href="#ArialMT-97"/>
      <use x="644.759766" xlink:href="#ArialMT-110"/>
     </g>
    </g>
    <g id="line2d_27"/>
    <g id="line2d_28">
     <g>
      <use style="fill:#c44e52;stroke:#c44e52;" x="437.8325" xlink:href="#mff2915141d" y="95.350859"/>
     </g>
    </g>
    <g id="text_20">
     <!-- Next seed -->
     <defs>
      <path d="M 7.625 0 
L 7.625 71.578125 
L 17.328125 71.578125 
L 54.9375 15.375 
L 54.9375 71.578125 
L 64.015625 71.578125 
L 64.015625 0 
L 54.296875 0 
L 16.703125 56.25 
L 16.703125 0 
z
" id="ArialMT-78"/>
      <path d="M 0.734375 0 
L 19.671875 26.953125 
L 2.15625 51.859375 
L 13.140625 51.859375 
L 21.09375 39.703125 
Q 23.34375 36.234375 24.703125 33.890625 
Q 26.859375 37.109375 28.65625 39.59375 
L 37.40625 51.859375 
L 47.90625 51.859375 
L 29.984375 27.4375 
L 49.265625 0 
L 38.484375 0 
L 27.828125 16.109375 
L 25 20.453125 
L 11.375 0 
z
" id="ArialMT-120"/>
     </defs>
     <g style="fill:#262626;" transform="translate(457.6325 99.200859)scale(0.11 -0.11)">
      <use xlink:href="#ArialMT-78"/>
      <use x="72.216797" xlink:href="#ArialMT-101"/>
      <use x="127.832031" xlink:href="#ArialMT-120"/>
      <use x="177.832031" xlink:href="#ArialMT-116"/>
      <use x="205.615234" xlink:href="#ArialMT-32"/>
      <use x="233.398438" xlink:href="#ArialMT-115"/>
      <use x="283.398438" xlink:href="#ArialMT-101"/>
      <use x="339.013672" xlink:href="#ArialMT-101"/>
      <use x="394.628906" xlink:href="#ArialMT-100"/>
     </g>
    </g>
   </g>
  </g>
 </g>
 <defs>
  <clipPath id="p4806919eba">
   <path d="M 544.568594 288 
C 544.568594 254.709362 538.011064 221.742433 525.271288 190.985893 
C 512.531512 160.229354 493.857247 132.281341 470.317211 108.741305 
C 446.777175 85.201268 418.829162 66.527003 388.072622 53.787228 
C 357.316083 41.047452 324.349154 34.489922 291.058516 34.489922 
C 257.767877 34.489922 224.800948 41.047452 194.044409 53.787228 
C 163.287869 66.527003 135.339856 85.201268 111.79982 108.741305 
C 88.259784 132.281341 69.585519 160.229354 56.845743 190.985893 
C 44.105967 221.742433 37.548438 254.709362 37.548438 288 
C 37.548438 321.290638 44.105967 354.257567 56.845743 385.014107 
C 69.585519 415.770646 88.259784 443.718659 111.79982 467.258695 
C 135.339856 490.798732 163.287869 509.472997 194.044409 522.212772 
C 224.800948 534.952548 257.767877 541.510078 291.058516 541.510078 
C 324.349154 541.510078 357.316083 534.952548 388.072622 522.212772 
C 418.829162 509.472997 446.777175 490.798732 470.317211 467.258695 
C 493.857247 443.718659 512.531512 415.770646 525.271288 385.014107 
C 538.011064 354.257567 544.568594 321.290638 544.568594 288 
M 291.058516 288 
C 291.058516 288 291.058516 288 291.058516 288 
C 291.058516 288 291.058516 288 291.058516 288 
C 291.058516 288 291.058516 288 291.058516 288 
C 291.058516 288 291.058516 288 291.058516 288 
C 291.058516 288 291.058516 288 291.058516 288 
C 291.058516 288 291.058516 288 291.058516 288 
C 291.058516 288 291.058516 288 291.058516 288 
C 291.058516 288 291.058516 288 291.058516 288 
C 291.058516 288 291.058516 288 291.058516 288 
C 291.058516 288 291.058516 288 291.058516 288 
C 291.058516 288 291.058516 288 291.058516 288 
C 291.058516 288 291.058516 288 291.058516 288 
C 291.058516 288 291.058516 288 291.058516 288 
C 291.058516 288 291.058516 288 291.058516 288 
C 291.058516 288 291.058516 288 291.058516 288 
C 291.058516 288 291.058516 288 291.058516 288 
M 544.568594 288 
z
"/>
  </clipPath>
 </defs>
</svg>
