<?xml version="1.0" encoding="utf-8" standalone="no"?>
<!DOCTYPE svg PUBLIC "-//W3C//DTD SVG 1.1//EN"
  "http://www.w3.org/Graphics/SVG/1.1/DTD/svg11.dtd">
<!-- Created with matplotlib (https://matplotlib.org/) -->
<svg height="864pt" version="1.1" viewBox="0 0 864 864" width="864pt" xmlns="http://www.w3.org/2000/svg" xmlns:xlink="http://www.w3.org/1999/xlink">
 <defs>
  <style type="text/css">
*{stroke-linecap:butt;stroke-linejoin:round;}
  </style>
 </defs>
 <g id="figure_1">
  <g id="patch_1">
   <path d="M 0 864 
L 864 864 
L 864 0 
L 0 0 
z
" style="fill:#ffffff;"/>
  </g>
  <g id="axes_1">
   <g id="patch_2">
    <path d="M 626.776484 219.871406 
C 626.776484 195.527333 621.981233 171.419975 612.665159 148.928984 
C 603.349086 126.437992 589.693364 106.000761 572.479505 88.786902 
C 555.265645 71.573042 534.828414 57.917321 512.337423 48.601247 
C 489.846432 39.285174 465.739073 34.489922 441.395 34.489922 
C 417.050927 34.489922 392.943568 39.285174 370.452577 48.601247 
C 347.961586 57.917321 327.524355 71.573042 310.310495 88.786902 
C 293.096636 106.000761 279.440914 126.437992 270.124841 148.928984 
C 260.808767 171.419975 256.013516 195.527333 256.013516 219.871406 
C 256.013516 244.21548 260.808767 268.322838 270.124841 290.813829 
C 279.440914 313.30482 293.096636 333.742052 310.310495 350.955911 
C 327.524355 368.16977 347.961586 381.825492 370.452577 391.141565 
C 392.943568 400.457639 417.050927 405.252891 441.395 405.252891 
C 465.739073 405.252891 489.846432 400.457639 512.337423 391.141565 
C 534.828414 381.825492 555.265645 368.16977 572.479505 350.955911 
C 589.693364 333.742052 603.349086 313.30482 612.665159 290.813829 
C 621.981233 268.322838 626.776484 244.21548 626.776484 219.871406 
M 441.395 219.871406 
C 441.395 219.871406 441.395 219.871406 441.395 219.871406 
C 441.395 219.871406 441.395 219.871406 441.395 219.871406 
C 441.395 219.871406 441.395 219.871406 441.395 219.871406 
C 441.395 219.871406 441.395 219.871406 441.395 219.871406 
C 441.395 219.871406 441.395 219.871406 441.395 219.871406 
C 441.395 219.871406 441.395 219.871406 441.395 219.871406 
C 441.395 219.871406 441.395 219.871406 441.395 219.871406 
C 441.395 219.871406 441.395 219.871406 441.395 219.871406 
C 441.395 219.871406 441.395 219.871406 441.395 219.871406 
C 441.395 219.871406 441.395 219.871406 441.395 219.871406 
C 441.395 219.871406 441.395 219.871406 441.395 219.871406 
C 441.395 219.871406 441.395 219.871406 441.395 219.871406 
C 441.395 219.871406 441.395 219.871406 441.395 219.871406 
C 441.395 219.871406 441.395 219.871406 441.395 219.871406 
C 441.395 219.871406 441.395 219.871406 441.395 219.871406 
C 441.395 219.871406 441.395 219.871406 441.395 219.871406 
M 626.776484 219.871406 
z
" style="fill:#eaeaf2;"/>
   </g>
   <g id="matplotlib.axis_1">
    <g id="xtick_1">
     <g id="line2d_1">
      <path clip-path="url(#pecd96c4a48)" d="M 441.395 219.871406 
L 626.776484 219.871406 
" style="fill:none;stroke:#ffffff;stroke-linecap:round;"/>
     </g>
     <g id="text_1">
      <!-- 0° -->
      <defs>
       <path d="M 4.15625 35.296875 
Q 4.15625 48 6.765625 55.734375 
Q 9.375 63.484375 14.515625 67.671875 
Q 19.671875 71.875 27.484375 71.875 
Q 33.25 71.875 37.59375 69.546875 
Q 41.9375 67.234375 44.765625 62.859375 
Q 47.609375 58.5 49.21875 52.21875 
Q 50.828125 45.953125 50.828125 35.296875 
Q 50.828125 22.703125 48.234375 14.96875 
Q 45.65625 7.234375 40.5 3 
Q 35.359375 -1.21875 27.484375 -1.21875 
Q 17.140625 -1.21875 11.234375 6.203125 
Q 4.15625 15.140625 4.15625 35.296875 
z
M 13.1875 35.296875 
Q 13.1875 17.671875 17.3125 11.828125 
Q 21.4375 6 27.484375 6 
Q 33.546875 6 37.671875 11.859375 
Q 41.796875 17.71875 41.796875 35.296875 
Q 41.796875 52.984375 37.671875 58.78125 
Q 33.546875 64.59375 27.390625 64.59375 
Q 21.34375 64.59375 17.71875 59.46875 
Q 13.1875 52.9375 13.1875 35.296875 
z
" id="ArialMT-48"/>
       <path d="M 6.25 59.28125 
Q 6.25 64.890625 10.21875 68.84375 
Q 14.203125 72.796875 19.78125 72.796875 
Q 25.4375 72.796875 29.390625 68.84375 
Q 33.34375 64.890625 33.34375 59.28125 
Q 33.34375 53.65625 29.359375 49.671875 
Q 25.390625 45.703125 19.78125 45.703125 
Q 14.203125 45.703125 10.21875 49.65625 
Q 6.25 53.609375 6.25 59.28125 
z
M 11.578125 59.28125 
Q 11.578125 55.859375 13.984375 53.4375 
Q 16.40625 51.03125 19.828125 51.03125 
Q 23.1875 51.03125 25.609375 53.4375 
Q 28.03125 55.859375 28.03125 59.28125 
Q 28.03125 62.703125 25.609375 65.109375 
Q 23.1875 67.53125 19.828125 67.53125 
Q 16.40625 67.53125 13.984375 65.109375 
Q 11.578125 62.703125 11.578125 59.28125 
z
" id="ArialMT-176"/>
      </defs>
      <g style="fill:#262626;" transform="translate(638.018828 222.715078)scale(0.11 -0.11)">
       <use xlink:href="#ArialMT-48"/>
       <use x="55.615234" xlink:href="#ArialMT-176"/>
      </g>
     </g>
    </g>
    <g id="xtick_2">
     <g id="line2d_2">
      <path clip-path="url(#pecd96c4a48)" d="M 441.395 219.871406 
L 572.479505 88.786902 
" style="fill:none;stroke:#ffffff;stroke-linecap:round;"/>
     </g>
     <g id="text_2">
      <!-- 45° -->
      <defs>
       <path d="M 32.328125 0 
L 32.328125 17.140625 
L 1.265625 17.140625 
L 1.265625 25.203125 
L 33.9375 71.578125 
L 41.109375 71.578125 
L 41.109375 25.203125 
L 50.78125 25.203125 
L 50.78125 17.140625 
L 41.109375 17.140625 
L 41.109375 0 
z
M 32.328125 25.203125 
L 32.328125 57.46875 
L 9.90625 25.203125 
z
" id="ArialMT-52"/>
       <path d="M 4.15625 18.75 
L 13.375 19.53125 
Q 14.40625 12.796875 18.140625 9.390625 
Q 21.875 6 27.15625 6 
Q 33.5 6 37.890625 10.78125 
Q 42.28125 15.578125 42.28125 23.484375 
Q 42.28125 31 38.0625 35.34375 
Q 33.84375 39.703125 27 39.703125 
Q 22.75 39.703125 19.328125 37.765625 
Q 15.921875 35.84375 13.96875 32.765625 
L 5.71875 33.84375 
L 12.640625 70.609375 
L 48.25 70.609375 
L 48.25 62.203125 
L 19.671875 62.203125 
L 15.828125 42.96875 
Q 22.265625 47.46875 29.34375 47.46875 
Q 38.71875 47.46875 45.15625 40.96875 
Q 51.609375 34.46875 51.609375 24.265625 
Q 51.609375 14.546875 45.953125 7.46875 
Q 39.0625 -1.21875 27.15625 -1.21875 
Q 17.390625 -1.21875 11.203125 4.25 
Q 5.03125 9.71875 4.15625 18.75 
z
" id="ArialMT-53"/>
      </defs>
      <g style="fill:#262626;" transform="translate(575.830595 79.963312)scale(0.11 -0.11)">
       <use xlink:href="#ArialMT-52"/>
       <use x="55.615234" xlink:href="#ArialMT-53"/>
       <use x="111.230469" xlink:href="#ArialMT-176"/>
      </g>
     </g>
    </g>
    <g id="xtick_3">
     <g id="line2d_3">
      <path clip-path="url(#pecd96c4a48)" d="M 441.395 219.871406 
L 441.395 34.489922 
" style="fill:none;stroke:#ffffff;stroke-linecap:round;"/>
     </g>
     <g id="text_3">
      <!-- 90° -->
      <defs>
       <path d="M 5.46875 16.546875 
L 13.921875 17.328125 
Q 14.984375 11.375 18.015625 8.6875 
Q 21.046875 6 25.78125 6 
Q 29.828125 6 32.875 7.859375 
Q 35.9375 9.71875 37.890625 12.8125 
Q 39.84375 15.921875 41.15625 21.1875 
Q 42.484375 26.46875 42.484375 31.9375 
Q 42.484375 32.515625 42.4375 33.6875 
Q 39.796875 29.5 35.234375 26.875 
Q 30.671875 24.265625 25.34375 24.265625 
Q 16.453125 24.265625 10.296875 30.703125 
Q 4.15625 37.15625 4.15625 47.703125 
Q 4.15625 58.59375 10.578125 65.234375 
Q 17 71.875 26.65625 71.875 
Q 33.640625 71.875 39.421875 68.109375 
Q 45.21875 64.359375 48.21875 57.390625 
Q 51.21875 50.4375 51.21875 37.25 
Q 51.21875 23.53125 48.234375 15.40625 
Q 45.265625 7.28125 39.375 3.03125 
Q 33.5 -1.21875 25.59375 -1.21875 
Q 17.1875 -1.21875 11.859375 3.4375 
Q 6.546875 8.109375 5.46875 16.546875 
z
M 41.453125 48.140625 
Q 41.453125 55.71875 37.421875 60.15625 
Q 33.40625 64.59375 27.734375 64.59375 
Q 21.875 64.59375 17.53125 59.8125 
Q 13.1875 55.03125 13.1875 47.40625 
Q 13.1875 40.578125 17.3125 36.296875 
Q 21.4375 32.03125 27.484375 32.03125 
Q 33.59375 32.03125 37.515625 36.296875 
Q 41.453125 40.578125 41.453125 48.140625 
z
" id="ArialMT-57"/>
      </defs>
      <g style="fill:#262626;" transform="translate(433.078828 20.833594)scale(0.11 -0.11)">
       <use xlink:href="#ArialMT-57"/>
       <use x="55.615234" xlink:href="#ArialMT-48"/>
       <use x="111.230469" xlink:href="#ArialMT-176"/>
      </g>
     </g>
    </g>
    <g id="xtick_4">
     <g id="line2d_4">
      <path clip-path="url(#pecd96c4a48)" d="M 441.395 219.871406 
L 310.310495 88.786902 
" style="fill:none;stroke:#ffffff;stroke-linecap:round;"/>
     </g>
     <g id="text_4">
      <!-- 135° -->
      <defs>
       <path d="M 37.25 0 
L 28.46875 0 
L 28.46875 56 
Q 25.296875 52.984375 20.140625 49.953125 
Q 14.984375 46.921875 10.890625 45.40625 
L 10.890625 53.90625 
Q 18.265625 57.375 23.78125 62.296875 
Q 29.296875 67.234375 31.59375 71.875 
L 37.25 71.875 
z
" id="ArialMT-49"/>
       <path d="M 4.203125 18.890625 
L 12.984375 20.0625 
Q 14.5 12.59375 18.140625 9.296875 
Q 21.78125 6 27 6 
Q 33.203125 6 37.46875 10.296875 
Q 41.75 14.59375 41.75 20.953125 
Q 41.75 27 37.796875 30.921875 
Q 33.84375 34.859375 27.734375 34.859375 
Q 25.25 34.859375 21.53125 33.890625 
L 22.515625 41.609375 
Q 23.390625 41.5 23.921875 41.5 
Q 29.546875 41.5 34.03125 44.421875 
Q 38.53125 47.359375 38.53125 53.46875 
Q 38.53125 58.296875 35.25 61.46875 
Q 31.984375 64.65625 26.8125 64.65625 
Q 21.6875 64.65625 18.265625 61.421875 
Q 14.84375 58.203125 13.875 51.765625 
L 5.078125 53.328125 
Q 6.6875 62.15625 12.390625 67.015625 
Q 18.109375 71.875 26.609375 71.875 
Q 32.46875 71.875 37.390625 69.359375 
Q 42.328125 66.84375 44.9375 62.5 
Q 47.5625 58.15625 47.5625 53.265625 
Q 47.5625 48.640625 45.0625 44.828125 
Q 42.578125 41.015625 37.703125 38.765625 
Q 44.046875 37.3125 47.5625 32.6875 
Q 51.078125 28.078125 51.078125 21.140625 
Q 51.078125 11.765625 44.234375 5.25 
Q 37.40625 -1.265625 26.953125 -1.265625 
Q 17.53125 -1.265625 11.296875 4.34375 
Q 5.078125 9.96875 4.203125 18.890625 
z
" id="ArialMT-51"/>
      </defs>
      <g style="fill:#262626;" transform="translate(287.268546 79.963312)scale(0.11 -0.11)">
       <use xlink:href="#ArialMT-49"/>
       <use x="55.615234" xlink:href="#ArialMT-51"/>
       <use x="111.230469" xlink:href="#ArialMT-53"/>
       <use x="166.845703" xlink:href="#ArialMT-176"/>
      </g>
     </g>
    </g>
    <g id="xtick_5">
     <g id="line2d_5">
      <path clip-path="url(#pecd96c4a48)" d="M 441.395 219.871406 
L 256.013516 219.871406 
" style="fill:none;stroke:#ffffff;stroke-linecap:round;"/>
     </g>
     <g id="text_5">
      <!-- 180° -->
      <defs>
       <path d="M 17.671875 38.8125 
Q 12.203125 40.828125 9.5625 44.53125 
Q 6.9375 48.25 6.9375 53.421875 
Q 6.9375 61.234375 12.546875 66.546875 
Q 18.171875 71.875 27.484375 71.875 
Q 36.859375 71.875 42.578125 66.421875 
Q 48.296875 60.984375 48.296875 53.171875 
Q 48.296875 48.1875 45.671875 44.5 
Q 43.0625 40.828125 37.75 38.8125 
Q 44.34375 36.671875 47.78125 31.875 
Q 51.21875 27.09375 51.21875 20.453125 
Q 51.21875 11.28125 44.71875 5.03125 
Q 38.234375 -1.21875 27.640625 -1.21875 
Q 17.046875 -1.21875 10.546875 5.046875 
Q 4.046875 11.328125 4.046875 20.703125 
Q 4.046875 27.6875 7.59375 32.390625 
Q 11.140625 37.109375 17.671875 38.8125 
z
M 15.921875 53.71875 
Q 15.921875 48.640625 19.1875 45.40625 
Q 22.46875 42.1875 27.6875 42.1875 
Q 32.765625 42.1875 36.015625 45.375 
Q 39.265625 48.578125 39.265625 53.21875 
Q 39.265625 58.0625 35.90625 61.359375 
Q 32.5625 64.65625 27.59375 64.65625 
Q 22.5625 64.65625 19.234375 61.421875 
Q 15.921875 58.203125 15.921875 53.71875 
z
M 13.09375 20.65625 
Q 13.09375 16.890625 14.875 13.375 
Q 16.65625 9.859375 20.171875 7.921875 
Q 23.6875 6 27.734375 6 
Q 34.03125 6 38.125 10.046875 
Q 42.234375 14.109375 42.234375 20.359375 
Q 42.234375 26.703125 38.015625 30.859375 
Q 33.796875 35.015625 27.4375 35.015625 
Q 21.234375 35.015625 17.15625 30.90625 
Q 13.09375 26.8125 13.09375 20.65625 
z
" id="ArialMT-56"/>
      </defs>
      <g style="fill:#262626;" transform="translate(228.138828 222.715078)scale(0.11 -0.11)">
       <use xlink:href="#ArialMT-49"/>
       <use x="55.615234" xlink:href="#ArialMT-56"/>
       <use x="111.230469" xlink:href="#ArialMT-48"/>
       <use x="166.845703" xlink:href="#ArialMT-176"/>
      </g>
     </g>
    </g>
    <g id="xtick_6">
     <g id="line2d_6">
      <path clip-path="url(#pecd96c4a48)" d="M 441.395 219.871406 
L 310.310495 350.955911 
" style="fill:none;stroke:#ffffff;stroke-linecap:round;"/>
     </g>
     <g id="text_6">
      <!-- 225° -->
      <defs>
       <path d="M 50.34375 8.453125 
L 50.34375 0 
L 3.03125 0 
Q 2.9375 3.171875 4.046875 6.109375 
Q 5.859375 10.9375 9.828125 15.625 
Q 13.8125 20.3125 21.34375 26.46875 
Q 33.015625 36.03125 37.109375 41.625 
Q 41.21875 47.21875 41.21875 52.203125 
Q 41.21875 57.421875 37.46875 61 
Q 33.734375 64.59375 27.734375 64.59375 
Q 21.390625 64.59375 17.578125 60.78125 
Q 13.765625 56.984375 13.71875 50.25 
L 4.6875 51.171875 
Q 5.609375 61.28125 11.65625 66.578125 
Q 17.71875 71.875 27.9375 71.875 
Q 38.234375 71.875 44.234375 66.15625 
Q 50.25 60.453125 50.25 52 
Q 50.25 47.703125 48.484375 43.546875 
Q 46.734375 39.40625 42.65625 34.8125 
Q 38.578125 30.21875 29.109375 22.21875 
Q 21.1875 15.578125 18.9375 13.203125 
Q 16.703125 10.84375 15.234375 8.453125 
z
" id="ArialMT-50"/>
      </defs>
      <g style="fill:#262626;" transform="translate(287.268546 365.466845)scale(0.11 -0.11)">
       <use xlink:href="#ArialMT-50"/>
       <use x="55.615234" xlink:href="#ArialMT-50"/>
       <use x="111.230469" xlink:href="#ArialMT-53"/>
       <use x="166.845703" xlink:href="#ArialMT-176"/>
      </g>
     </g>
    </g>
    <g id="xtick_7">
     <g id="line2d_7">
      <path clip-path="url(#pecd96c4a48)" d="M 441.395 219.871406 
L 441.395 405.252891 
" style="fill:none;stroke:#ffffff;stroke-linecap:round;"/>
     </g>
     <g id="text_7">
      <!-- 270° -->
      <defs>
       <path d="M 4.734375 62.203125 
L 4.734375 70.65625 
L 51.078125 70.65625 
L 51.078125 63.8125 
Q 44.234375 56.546875 37.515625 44.484375 
Q 30.8125 32.421875 27.15625 19.671875 
Q 24.515625 10.6875 23.78125 0 
L 14.75 0 
Q 14.890625 8.453125 18.0625 20.40625 
Q 21.234375 32.375 27.171875 43.484375 
Q 33.109375 54.59375 39.796875 62.203125 
z
" id="ArialMT-55"/>
      </defs>
      <g style="fill:#262626;" transform="translate(430.020312 424.596563)scale(0.11 -0.11)">
       <use xlink:href="#ArialMT-50"/>
       <use x="55.615234" xlink:href="#ArialMT-55"/>
       <use x="111.230469" xlink:href="#ArialMT-48"/>
       <use x="166.845703" xlink:href="#ArialMT-176"/>
      </g>
     </g>
    </g>
    <g id="xtick_8">
     <g id="line2d_8">
      <path clip-path="url(#pecd96c4a48)" d="M 441.395 219.871406 
L 572.479505 350.955911 
" style="fill:none;stroke:#ffffff;stroke-linecap:round;"/>
     </g>
     <g id="text_8">
      <!-- 315° -->
      <g style="fill:#262626;" transform="translate(572.772079 365.466845)scale(0.11 -0.11)">
       <use xlink:href="#ArialMT-51"/>
       <use x="55.615234" xlink:href="#ArialMT-49"/>
       <use x="111.230469" xlink:href="#ArialMT-53"/>
       <use x="166.845703" xlink:href="#ArialMT-176"/>
      </g>
     </g>
    </g>
   </g>
   <g id="matplotlib.axis_2">
    <g id="ytick_1">
     <g id="line2d_9">
      <path clip-path="url(#pecd96c4a48)" d="M 449.234424 219.871406 
L 449.115326 218.510105 
L 448.761649 217.190165 
L 448.184141 215.951694 
L 447.400347 214.832321 
L 446.434085 213.866059 
L 445.314712 213.082266 
L 444.076241 212.504757 
L 442.756302 212.15108 
L 441.395 212.031982 
L 440.033698 212.15108 
L 438.713759 212.504757 
L 437.475288 213.082266 
L 436.355915 213.866059 
L 435.389653 214.832321 
L 434.605859 215.951694 
L 434.028351 217.190165 
L 433.674674 218.510105 
L 433.555576 219.871406 
L 433.674674 221.232708 
L 434.028351 222.552647 
L 434.605859 223.791118 
L 435.389653 224.910491 
L 436.355915 225.876754 
L 437.475288 226.660547 
L 438.713759 227.238055 
L 440.033698 227.591732 
L 441.395 227.710831 
L 442.756302 227.591732 
L 444.076241 227.238055 
L 445.314712 226.660547 
L 446.434085 225.876754 
L 447.400347 224.910491 
L 448.184141 223.791118 
L 448.761649 222.552647 
L 449.115326 221.232708 
L 449.234424 219.871406 
L 449.234424 219.871406 
" style="fill:none;stroke:#ffffff;stroke-linecap:round;"/>
     </g>
     <g id="text_9">
      <!-- 0.0 -->
      <defs>
       <path d="M 9.078125 0 
L 9.078125 10.015625 
L 19.09375 10.015625 
L 19.09375 0 
z
" id="ArialMT-46"/>
      </defs>
      <g style="fill:#262626;" transform="translate(448.637684 214.685138)scale(0.11 -0.11)">
       <use xlink:href="#ArialMT-48"/>
       <use x="55.615234" xlink:href="#ArialMT-46"/>
       <use x="83.398438" xlink:href="#ArialMT-48"/>
      </g>
     </g>
    </g>
    <g id="ytick_2">
     <g id="line2d_10">
      <path clip-path="url(#pecd96c4a48)" d="M 477.420362 219.871406 
L 477.332607 217.358404 
L 477.069766 214.857645 
L 476.633122 212.381312 
L 476.024801 209.941471 
L 475.247767 207.550007 
L 474.305806 205.218571 
L 473.203507 202.958523 
L 471.94624 200.780873 
L 470.54013 198.696229 
L 468.992029 196.71475 
L 467.309477 194.846087 
L 465.500673 193.099345 
L 463.574428 191.483033 
L 461.540127 190.005027 
L 459.407681 188.672527 
L 457.187479 187.492025 
L 454.890338 186.469272 
L 452.527449 185.609251 
L 450.110324 184.916151 
L 447.650739 184.39335 
L 445.160676 184.043394 
L 442.652267 183.867989 
L 440.137733 183.867989 
L 437.629324 184.043394 
L 435.139261 184.39335 
L 432.679676 184.916151 
L 430.262551 185.609251 
L 427.899662 186.469272 
L 425.602521 187.492025 
L 423.382319 188.672527 
L 421.249873 190.005027 
L 419.215572 191.483033 
L 417.289327 193.099345 
L 415.480523 194.846087 
L 413.797971 196.71475 
L 412.24987 198.696229 
L 410.84376 200.780873 
L 409.586493 202.958523 
L 408.484194 205.218571 
L 407.542233 207.550007 
L 406.765199 209.941471 
L 406.156878 212.381312 
L 405.720234 214.857645 
L 405.457393 217.358404 
L 405.369638 219.871406 
L 405.457393 222.384409 
L 405.720234 224.885168 
L 406.156878 227.3615 
L 406.765199 229.801342 
L 407.542233 232.192806 
L 408.484194 234.524241 
L 409.586493 236.784289 
L 410.84376 238.96194 
L 412.24987 241.046583 
L 413.797971 243.028063 
L 415.480523 244.896726 
L 417.289327 246.643468 
L 419.215572 248.259779 
L 421.249873 249.737785 
L 423.382319 251.070285 
L 425.602521 252.250788 
L 427.899662 253.273541 
L 430.262551 254.133562 
L 432.679676 254.826661 
L 435.139261 255.349463 
L 437.629324 255.699418 
L 440.137733 255.874823 
L 442.652267 255.874823 
L 445.160676 255.699418 
L 447.650739 255.349463 
L 450.110324 254.826661 
L 452.527449 254.133562 
L 454.890338 253.273541 
L 457.187479 252.250788 
L 459.407681 251.070285 
L 461.540127 249.737785 
L 463.574428 248.259779 
L 465.500673 246.643468 
L 467.309477 244.896726 
L 468.992029 243.028063 
L 470.54013 241.046583 
L 471.94624 238.96194 
L 473.203507 236.784289 
L 474.305806 234.524241 
L 475.247767 232.192806 
L 476.024801 229.801342 
L 476.633122 227.3615 
L 477.069766 224.885168 
L 477.332607 222.384409 
L 477.420362 219.871406 
L 477.420362 219.871406 
" style="fill:none;stroke:#ffffff;stroke-linecap:round;"/>
     </g>
     <g id="text_10">
      <!-- 0.5 -->
      <g style="fill:#262626;" transform="translate(474.678095 203.898847)scale(0.11 -0.11)">
       <use xlink:href="#ArialMT-48"/>
       <use x="55.615234" xlink:href="#ArialMT-46"/>
       <use x="83.398438" xlink:href="#ArialMT-53"/>
      </g>
     </g>
    </g>
    <g id="ytick_3">
     <g id="line2d_11">
      <path clip-path="url(#pecd96c4a48)" d="M 505.606301 219.871406 
L 505.449885 215.392252 
L 504.981401 210.93492 
L 504.20313 206.521126 
L 503.118864 202.172373 
L 501.733885 197.909848 
L 500.054942 193.754317 
L 498.090213 189.726027 
L 495.849271 185.844601 
L 493.343033 182.128951 
L 490.58371 178.597178 
L 487.584744 175.266489 
L 484.360747 172.15311 
L 480.927424 169.272211 
L 477.301504 166.637825 
L 473.50065 164.262789 
L 469.543381 162.158672 
L 465.448977 160.335725 
L 461.237383 158.80283 
L 456.92912 157.567456 
L 452.545175 156.63562 
L 448.106909 156.011862 
L 443.635942 155.699221 
L 439.154058 155.699221 
L 434.683091 156.011862 
L 430.244825 156.63562 
L 425.86088 157.567456 
L 421.552617 158.80283 
L 417.341023 160.335725 
L 413.246619 162.158672 
L 409.28935 164.262789 
L 405.488496 166.637825 
L 401.862576 169.272211 
L 398.429253 172.15311 
L 395.205256 175.266489 
L 392.20629 178.597178 
L 389.446967 182.128951 
L 386.940729 185.844601 
L 384.699787 189.726027 
L 382.735058 193.754317 
L 381.056115 197.909848 
L 379.671136 202.172373 
L 378.58687 206.521126 
L 377.808599 210.93492 
L 377.340115 215.392252 
L 377.183699 219.871406 
L 377.340115 224.35056 
L 377.808599 228.807892 
L 378.58687 233.221686 
L 379.671136 237.570439 
L 381.056115 241.832964 
L 382.735058 245.988495 
L 384.699787 250.016786 
L 386.940729 253.898211 
L 389.446967 257.613862 
L 392.20629 261.145635 
L 395.205256 264.476324 
L 398.429253 267.589702 
L 401.862576 270.470602 
L 405.488496 273.104987 
L 409.28935 275.480024 
L 413.246619 277.584141 
L 417.341023 279.407087 
L 421.552617 280.939982 
L 425.86088 282.175357 
L 430.244825 283.107193 
L 434.683091 283.730951 
L 439.154058 284.043591 
L 443.635942 284.043591 
L 448.106909 283.730951 
L 452.545175 283.107193 
L 456.92912 282.175357 
L 461.237383 280.939982 
L 465.448977 279.407087 
L 469.543381 277.584141 
L 473.50065 275.480024 
L 477.301504 273.104987 
L 480.927424 270.470602 
L 484.360747 267.589702 
L 487.584744 264.476324 
L 490.58371 261.145635 
L 493.343033 257.613862 
L 495.849271 253.898211 
L 498.090213 250.016786 
L 500.054942 245.988495 
L 501.733885 241.832964 
L 503.118864 237.570439 
L 504.20313 233.221686 
L 504.981401 228.807892 
L 505.449885 224.35056 
L 505.606301 219.871406 
L 505.606301 219.871406 
" style="fill:none;stroke:#ffffff;stroke-linecap:round;"/>
     </g>
     <g id="text_11">
      <!-- 1.0 -->
      <g style="fill:#262626;" transform="translate(500.718506 193.112555)scale(0.11 -0.11)">
       <use xlink:href="#ArialMT-49"/>
       <use x="55.615234" xlink:href="#ArialMT-46"/>
       <use x="83.398438" xlink:href="#ArialMT-48"/>
      </g>
     </g>
    </g>
    <g id="ytick_4">
     <g id="line2d_12">
      <path clip-path="url(#pecd96c4a48)" d="M 533.792239 219.871406 
L 533.735953 216.646789 
L 533.567164 213.426101 
L 533.286077 210.213265 
L 532.893035 207.012196 
L 532.388517 203.826794 
L 531.773137 200.66094 
L 531.047646 197.518491 
L 530.212926 194.403276 
L 529.269996 191.319089 
L 528.220003 188.269689 
L 527.064228 185.258791 
L 525.804078 182.290064 
L 524.441088 179.367123 
L 522.97692 176.49353 
L 521.413356 173.672787 
L 519.752302 170.908329 
L 517.995783 168.203526 
L 516.145936 165.561672 
L 514.205018 162.985986 
L 512.175391 160.479606 
L 510.05953 158.045586 
L 507.860011 155.686891 
L 505.579515 153.406395 
L 503.22082 151.206876 
L 500.7868 149.091015 
L 498.28042 147.061388 
L 495.704734 145.12047 
L 493.06288 143.270624 
L 490.358077 141.514104 
L 487.593619 139.85305 
L 484.772876 138.289487 
L 481.899284 136.825318 
L 478.976343 135.462328 
L 476.007615 134.202178 
L 472.996717 133.046403 
L 469.947317 131.99641 
L 466.863131 131.05348 
L 463.747915 130.21876 
L 460.605466 129.493269 
L 457.439612 128.877889 
L 454.25421 128.373371 
L 451.053141 127.980329 
L 447.840306 127.699242 
L 444.619617 127.530453 
L 441.395 127.474167 
L 438.170383 127.530453 
L 434.949694 127.699242 
L 431.736859 127.980329 
L 428.53579 128.373371 
L 425.350388 128.877889 
L 422.184534 129.493269 
L 419.042085 130.21876 
L 415.926869 131.05348 
L 412.842683 131.99641 
L 409.793283 133.046403 
L 406.782385 134.202178 
L 403.813657 135.462328 
L 400.890716 136.825318 
L 398.017124 138.289487 
L 395.196381 139.85305 
L 392.431923 141.514104 
L 389.72712 143.270624 
L 387.085266 145.12047 
L 384.50958 147.061388 
L 382.0032 149.091015 
L 379.56918 151.206876 
L 377.210485 153.406395 
L 374.929989 155.686891 
L 372.73047 158.045586 
L 370.614609 160.479606 
L 368.584982 162.985986 
L 366.644064 165.561672 
L 364.794217 168.203526 
L 363.037698 170.908329 
L 361.376644 173.672787 
L 359.81308 176.49353 
L 358.348912 179.367123 
L 356.985922 182.290064 
L 355.725772 185.258791 
L 354.569997 188.269689 
L 353.520004 191.319089 
L 352.577074 194.403276 
L 351.742354 197.518491 
L 351.016863 200.66094 
L 350.401483 203.826794 
L 349.896965 207.012196 
L 349.503923 210.213265 
L 349.222836 213.426101 
L 349.054047 216.646789 
L 348.997761 219.871406 
L 349.054047 223.096023 
L 349.222836 226.316712 
L 349.503923 229.529548 
L 349.896965 232.730616 
L 350.401483 235.916018 
L 351.016863 239.081872 
L 351.742354 242.224321 
L 352.577074 245.339537 
L 353.520004 248.423723 
L 354.569997 251.473123 
L 355.725772 254.484021 
L 356.985922 257.452749 
L 358.348912 260.37569 
L 359.81308 263.249282 
L 361.376644 266.070026 
L 363.037698 268.834483 
L 364.794217 271.539286 
L 366.644064 274.181141 
L 368.584982 276.756827 
L 370.614609 279.263207 
L 372.73047 281.697227 
L 374.929989 284.055922 
L 377.210485 286.336418 
L 379.56918 288.535936 
L 382.0032 290.651798 
L 384.50958 292.681424 
L 387.085266 294.622343 
L 389.72712 296.472189 
L 392.431923 298.228709 
L 395.196381 299.889762 
L 398.017124 301.453326 
L 400.890716 302.917494 
L 403.813657 304.280484 
L 406.782385 305.540634 
L 409.793283 306.69641 
L 412.842683 307.746402 
L 415.926869 308.689333 
L 419.042085 309.524052 
L 422.184534 310.249544 
L 425.350388 310.864923 
L 428.53579 311.369441 
L 431.736859 311.762483 
L 434.949694 312.04357 
L 438.170383 312.212359 
L 441.395 312.268645 
L 444.619617 312.212359 
L 447.840306 312.04357 
L 451.053141 311.762483 
L 454.25421 311.369441 
L 457.439612 310.864923 
L 460.605466 310.249544 
L 463.747915 309.524052 
L 466.863131 308.689333 
L 469.947317 307.746402 
L 472.996717 306.69641 
L 476.007615 305.540634 
L 478.976343 304.280484 
L 481.899284 302.917494 
L 484.772876 301.453326 
L 487.593619 299.889762 
L 490.358077 298.228709 
L 493.06288 296.472189 
L 495.704734 294.622343 
L 498.28042 292.681424 
L 500.7868 290.651798 
L 503.22082 288.535936 
L 505.579515 286.336418 
L 507.860011 284.055922 
L 510.05953 281.697227 
L 512.175391 279.263207 
L 514.205018 276.756827 
L 516.145936 274.181141 
L 517.995783 271.539286 
L 519.752302 268.834483 
L 521.413356 266.070026 
L 522.97692 263.249282 
L 524.441088 260.37569 
L 525.804078 257.452749 
L 527.064228 254.484021 
L 528.220003 251.473123 
L 529.269996 248.423723 
L 530.212926 245.339537 
L 531.047646 242.224321 
L 531.773137 239.081872 
L 532.388517 235.916018 
L 532.893035 232.730616 
L 533.286077 229.529548 
L 533.567164 226.316712 
L 533.735953 223.096023 
L 533.792239 219.871406 
L 533.792239 219.871406 
" style="fill:none;stroke:#ffffff;stroke-linecap:round;"/>
     </g>
     <g id="text_12">
      <!-- 1.5 -->
      <g style="fill:#262626;" transform="translate(526.758918 182.326264)scale(0.11 -0.11)">
       <use xlink:href="#ArialMT-49"/>
       <use x="55.615234" xlink:href="#ArialMT-46"/>
       <use x="83.398438" xlink:href="#ArialMT-53"/>
      </g>
     </g>
    </g>
    <g id="ytick_5">
     <g id="line2d_13">
      <path clip-path="url(#pecd96c4a48)" d="M 561.978177 219.871406 
L 561.904721 215.663114 
L 561.684442 211.459949 
L 561.31761 207.267032 
L 560.80467 203.089472 
L 560.146248 198.932357 
L 559.343145 194.800754 
L 558.396341 190.699696 
L 557.306989 186.634178 
L 556.076416 182.609155 
L 554.706122 178.629531 
L 553.197775 174.700153 
L 551.553214 170.82581 
L 549.774442 167.011221 
L 547.863626 163.261034 
L 545.823095 159.579818 
L 543.655334 155.972058 
L 541.362984 152.442149 
L 538.948839 148.994393 
L 536.41584 145.63299 
L 533.767073 142.362034 
L 531.005764 139.185512 
L 528.135278 136.107293 
L 525.159113 133.131128 
L 522.080894 130.260642 
L 518.904372 127.499334 
L 515.633417 124.850566 
L 512.272013 122.317567 
L 508.824257 119.903422 
L 505.294348 117.611073 
L 501.686588 115.443312 
L 498.005373 113.40278 
L 494.255186 111.491965 
L 490.440597 109.713193 
L 486.566253 108.068631 
L 482.636875 106.560285 
L 478.657251 105.18999 
L 474.632228 103.959417 
L 470.566711 102.870065 
L 466.465652 101.923261 
L 462.334049 101.120159 
L 458.176935 100.461736 
L 453.999374 99.948797 
L 449.806457 99.581964 
L 445.603292 99.361685 
L 441.395 99.288229 
L 437.186708 99.361685 
L 432.983543 99.581964 
L 428.790626 99.948797 
L 424.613065 100.461736 
L 420.455951 101.120159 
L 416.324348 101.923261 
L 412.223289 102.870065 
L 408.157772 103.959417 
L 404.132749 105.18999 
L 400.153125 106.560285 
L 396.223747 108.068631 
L 392.349403 109.713193 
L 388.534814 111.491965 
L 384.784627 113.40278 
L 381.103412 115.443312 
L 377.495652 117.611073 
L 373.965743 119.903422 
L 370.517987 122.317567 
L 367.156583 124.850566 
L 363.885628 127.499334 
L 360.709106 130.260642 
L 357.630887 133.131128 
L 354.654722 136.107293 
L 351.784236 139.185512 
L 349.022927 142.362034 
L 346.37416 145.63299 
L 343.841161 148.994393 
L 341.427016 152.442149 
L 339.134666 155.972058 
L 336.966905 159.579818 
L 334.926374 163.261034 
L 333.015558 167.011221 
L 331.236786 170.82581 
L 329.592225 174.700153 
L 328.083878 178.629531 
L 326.713584 182.609155 
L 325.483011 186.634178 
L 324.393659 190.699696 
L 323.446855 194.800754 
L 322.643752 198.932357 
L 321.98533 203.089472 
L 321.47239 207.267032 
L 321.105558 211.459949 
L 320.885279 215.663114 
L 320.811823 219.871406 
L 320.885279 224.079698 
L 321.105558 228.282863 
L 321.47239 232.47578 
L 321.98533 236.653341 
L 322.643752 240.810455 
L 323.446855 244.942058 
L 324.393659 249.043117 
L 325.483011 253.108634 
L 326.713584 257.133657 
L 328.083878 261.113282 
L 329.592225 265.042659 
L 331.236786 268.917003 
L 333.015558 272.731592 
L 334.926374 276.481779 
L 336.966905 280.162995 
L 339.134666 283.770755 
L 341.427016 287.300663 
L 343.841161 290.748419 
L 346.37416 294.109823 
L 349.022927 297.380778 
L 351.784236 300.557301 
L 354.654722 303.635519 
L 357.630887 306.611685 
L 360.709106 309.48217 
L 363.885628 312.243479 
L 367.156583 314.892246 
L 370.517987 317.425246 
L 373.965743 319.839391 
L 377.495652 322.13174 
L 381.103412 324.299501 
L 384.784627 326.340032 
L 388.534814 328.250848 
L 392.349403 330.02962 
L 396.223747 331.674181 
L 400.153125 333.182528 
L 404.132749 334.552822 
L 408.157772 335.783395 
L 412.223289 336.872748 
L 416.324348 337.819551 
L 420.455951 338.622654 
L 424.613065 339.281076 
L 428.790626 339.794016 
L 432.983543 340.160849 
L 437.186708 340.381127 
L 441.395 340.454583 
L 445.603292 340.381127 
L 449.806457 340.160849 
L 453.999374 339.794016 
L 458.176935 339.281076 
L 462.334049 338.622654 
L 466.465652 337.819551 
L 470.566711 336.872748 
L 474.632228 335.783395 
L 478.657251 334.552822 
L 482.636875 333.182528 
L 486.566253 331.674181 
L 490.440597 330.02962 
L 494.255186 328.250848 
L 498.005373 326.340032 
L 501.686588 324.299501 
L 505.294348 322.13174 
L 508.824257 319.839391 
L 512.272013 317.425246 
L 515.633417 314.892246 
L 518.904372 312.243479 
L 522.080894 309.48217 
L 525.159113 306.611685 
L 528.135278 303.635519 
L 531.005764 300.557301 
L 533.767073 297.380778 
L 536.41584 294.109823 
L 538.948839 290.748419 
L 541.362984 287.300663 
L 543.655334 283.770755 
L 545.823095 280.162995 
L 547.863626 276.481779 
L 549.774442 272.731592 
L 551.553214 268.917003 
L 553.197775 265.042659 
L 554.706122 261.113282 
L 556.076416 257.133657 
L 557.306989 253.108634 
L 558.396341 249.043117 
L 559.343145 244.942058 
L 560.146248 240.810455 
L 560.80467 236.653341 
L 561.31761 232.47578 
L 561.684442 228.282863 
L 561.904721 224.079698 
L 561.978177 219.871406 
L 561.978177 219.871406 
" style="fill:none;stroke:#ffffff;stroke-linecap:round;"/>
     </g>
     <g id="text_13">
      <!-- 2.0 -->
      <g style="fill:#262626;" transform="translate(552.799329 171.539972)scale(0.11 -0.11)">
       <use xlink:href="#ArialMT-50"/>
       <use x="55.615234" xlink:href="#ArialMT-46"/>
       <use x="83.398438" xlink:href="#ArialMT-48"/>
      </g>
     </g>
    </g>
    <g id="ytick_6">
     <g id="line2d_14">
      <path clip-path="url(#pecd96c4a48)" d="M 590.164115 219.871406 
L 590.073489 214.679439 
L 589.801721 209.493797 
L 589.349142 204.320799 
L 588.716304 199.166747 
L 587.903978 194.037921 
L 586.913153 188.940568 
L 585.745037 183.8809 
L 584.401052 178.865081 
L 582.882836 173.899221 
L 581.19224 168.989372 
L 579.331322 164.141515 
L 577.302349 159.361556 
L 575.107795 154.655319 
L 572.750332 150.028537 
L 570.232833 145.486849 
L 567.558365 141.035786 
L 564.730186 136.680773 
L 561.751742 132.427114 
L 558.626663 128.279993 
L 555.358754 124.244462 
L 551.951998 120.325438 
L 548.410546 116.527695 
L 544.738711 112.855861 
L 540.940968 109.314408 
L 537.021944 105.907652 
L 532.986413 102.639744 
L 528.839292 99.514664 
L 524.585633 96.53622 
L 520.23062 93.708041 
L 515.779558 91.033573 
L 511.237869 88.516074 
L 506.611088 86.158611 
L 501.90485 83.964057 
L 497.124891 81.935085 
L 492.277034 80.074167 
L 487.367185 78.38357 
L 482.401326 76.865354 
L 477.385506 75.52137 
L 472.325838 74.353253 
L 467.228486 73.362428 
L 462.099659 72.550102 
L 456.945607 71.917264 
L 451.772609 71.464685 
L 446.586967 71.192917 
L 441.395 71.102291 
L 436.203033 71.192917 
L 431.017391 71.464685 
L 425.844393 71.917264 
L 420.690341 72.550102 
L 415.561514 73.362428 
L 410.464162 74.353253 
L 405.404494 75.52137 
L 400.388674 76.865354 
L 395.422815 78.38357 
L 390.512966 80.074167 
L 385.665109 81.935085 
L 380.88515 83.964057 
L 376.178912 86.158611 
L 371.552131 88.516074 
L 367.010442 91.033573 
L 362.55938 93.708041 
L 358.204367 96.53622 
L 353.950708 99.514664 
L 349.803587 102.639744 
L 345.768056 105.907652 
L 341.849032 109.314408 
L 338.051289 112.855861 
L 334.379454 116.527695 
L 330.838002 120.325438 
L 327.431246 124.244462 
L 324.163337 128.279993 
L 321.038258 132.427114 
L 318.059814 136.680773 
L 315.231635 141.035786 
L 312.557167 145.486849 
L 310.039668 150.028537 
L 307.682205 154.655319 
L 305.487651 159.361556 
L 303.458678 164.141515 
L 301.59776 168.989372 
L 299.907164 173.899221 
L 298.388948 178.865081 
L 297.044963 183.8809 
L 295.876847 188.940568 
L 294.886022 194.037921 
L 294.073696 199.166747 
L 293.440858 204.320799 
L 292.988279 209.493797 
L 292.716511 214.679439 
L 292.625885 219.871406 
L 292.716511 225.063373 
L 292.988279 230.249015 
L 293.440858 235.422013 
L 294.073696 240.576065 
L 294.886022 245.704892 
L 295.876847 250.802245 
L 297.044963 255.861913 
L 298.388948 260.877732 
L 299.907164 265.843591 
L 301.59776 270.75344 
L 303.458678 275.601298 
L 305.487651 280.381257 
L 307.682205 285.087494 
L 310.039668 289.714275 
L 312.557167 294.255964 
L 315.231635 298.707026 
L 318.059814 303.06204 
L 321.038258 307.315698 
L 324.163337 311.462819 
L 327.431246 315.49835 
L 330.838002 319.417374 
L 334.379454 323.215117 
L 338.051289 326.886952 
L 341.849032 330.428404 
L 345.768056 333.83516 
L 349.803587 337.103069 
L 353.950708 340.228149 
L 358.204367 343.206592 
L 362.55938 346.034771 
L 367.010442 348.709239 
L 371.552131 351.226738 
L 376.178912 353.584201 
L 380.88515 355.778756 
L 385.665109 357.807728 
L 390.512966 359.668646 
L 395.422815 361.359243 
L 400.388674 362.877458 
L 405.404494 364.221443 
L 410.464162 365.389559 
L 415.561514 366.380384 
L 420.690341 367.192711 
L 425.844393 367.825549 
L 431.017391 368.278127 
L 436.203033 368.549895 
L 441.395 368.640521 
L 446.586967 368.549895 
L 451.772609 368.278127 
L 456.945607 367.825549 
L 462.099659 367.192711 
L 467.228486 366.380384 
L 472.325838 365.389559 
L 477.385506 364.221443 
L 482.401326 362.877458 
L 487.367185 361.359243 
L 492.277034 359.668646 
L 497.124891 357.807728 
L 501.90485 355.778756 
L 506.611088 353.584201 
L 511.237869 351.226738 
L 515.779558 348.709239 
L 520.23062 346.034771 
L 524.585633 343.206592 
L 528.839292 340.228149 
L 532.986413 337.103069 
L 537.021944 333.83516 
L 540.940968 330.428404 
L 544.738711 326.886952 
L 548.410546 323.215117 
L 551.951998 319.417374 
L 555.358754 315.49835 
L 558.626663 311.462819 
L 561.751742 307.315698 
L 564.730186 303.06204 
L 567.558365 298.707026 
L 570.232833 294.255964 
L 572.750332 289.714275 
L 575.107795 285.087494 
L 577.302349 280.381257 
L 579.331322 275.601298 
L 581.19224 270.75344 
L 582.882836 265.843591 
L 584.401052 260.877732 
L 585.745037 255.861913 
L 586.913153 250.802245 
L 587.903978 245.704892 
L 588.716304 240.576065 
L 589.349142 235.422013 
L 589.801721 230.249015 
L 590.073489 225.063373 
L 590.164115 219.871406 
L 590.164115 219.871406 
" style="fill:none;stroke:#ffffff;stroke-linecap:round;"/>
     </g>
     <g id="text_14">
      <!-- 2.5 -->
      <g style="fill:#262626;" transform="translate(578.839741 160.753681)scale(0.11 -0.11)">
       <use xlink:href="#ArialMT-50"/>
       <use x="55.615234" xlink:href="#ArialMT-46"/>
       <use x="83.398438" xlink:href="#ArialMT-53"/>
      </g>
     </g>
    </g>
    <g id="ytick_7">
     <g id="line2d_15">
      <path clip-path="url(#pecd96c4a48)" d="M 618.350053 219.871406 
L 618.242257 213.695764 
L 617.919 207.527646 
L 617.380675 201.374566 
L 616.627939 195.244023 
L 615.661708 189.143484 
L 614.483161 183.080382 
L 613.093732 177.062104 
L 611.495115 171.095983 
L 609.689257 165.189288 
L 607.678358 159.349214 
L 605.464868 153.582877 
L 603.051485 147.897302 
L 600.441148 142.299417 
L 597.637038 136.796041 
L 594.642571 131.39388 
L 591.461396 126.099515 
L 588.097388 120.919396 
L 584.554645 115.859836 
L 580.837485 110.926997 
L 576.950435 106.126891 
L 572.898232 101.465364 
L 568.685813 96.948097 
L 564.318309 92.580594 
L 559.801042 88.368174 
L 555.139516 84.315971 
L 550.339409 80.428921 
L 545.406571 76.711761 
L 540.34701 73.169018 
L 535.166892 69.80501 
L 529.872527 66.623835 
L 524.470365 63.629368 
L 518.96699 60.825258 
L 513.369104 58.214921 
L 507.68353 55.801538 
L 501.917193 53.588048 
L 496.077119 51.57715 
L 490.170423 49.771292 
L 484.204302 48.172674 
L 478.186024 46.783245 
L 472.122923 45.604698 
L 466.022383 44.638467 
L 459.89184 43.885731 
L 453.738761 43.347407 
L 447.570642 43.024149 
L 441.395 42.916353 
L 435.219358 43.024149 
L 429.051239 43.347407 
L 422.89816 43.885731 
L 416.767617 44.638467 
L 410.667077 45.604698 
L 404.603976 46.783245 
L 398.585698 48.172674 
L 392.619577 49.771292 
L 386.712881 51.57715 
L 380.872807 53.588048 
L 375.10647 55.801538 
L 369.420896 58.214921 
L 363.82301 60.825258 
L 358.319635 63.629368 
L 352.917473 66.623835 
L 347.623108 69.80501 
L 342.44299 73.169018 
L 337.383429 76.711761 
L 332.450591 80.428921 
L 327.650484 84.315971 
L 322.988958 88.368174 
L 318.471691 92.580594 
L 314.104187 96.948097 
L 309.891768 101.465364 
L 305.839565 106.126891 
L 301.952515 110.926997 
L 298.235355 115.859836 
L 294.692612 120.919396 
L 291.328604 126.099515 
L 288.147429 131.39388 
L 285.152962 136.796041 
L 282.348852 142.299417 
L 279.738515 147.897302 
L 277.325132 153.582877 
L 275.111642 159.349214 
L 273.100743 165.189288 
L 271.294885 171.095983 
L 269.696268 177.062104 
L 268.306839 183.080382 
L 267.128292 189.143484 
L 266.162061 195.244023 
L 265.409325 201.374566 
L 264.871 207.527646 
L 264.547743 213.695764 
L 264.439947 219.871406 
L 264.547743 226.047049 
L 264.871 232.215167 
L 265.409325 238.368246 
L 266.162061 244.49879 
L 267.128292 250.599329 
L 268.306839 256.662431 
L 269.696268 262.680708 
L 271.294885 268.646829 
L 273.100743 274.553525 
L 275.111642 280.393599 
L 277.325132 286.159936 
L 279.738515 291.845511 
L 282.348852 297.443396 
L 285.152962 302.946772 
L 288.147429 308.348933 
L 291.328604 313.643298 
L 294.692612 318.823416 
L 298.235355 323.882977 
L 301.952515 328.815815 
L 305.839565 333.615922 
L 309.891768 338.277448 
L 314.104187 342.794715 
L 318.471691 347.162219 
L 322.988958 351.374638 
L 327.650484 355.426841 
L 332.450591 359.313891 
L 337.383429 363.031052 
L 342.44299 366.573794 
L 347.623108 369.937802 
L 352.917473 373.118978 
L 358.319635 376.113445 
L 363.82301 378.917555 
L 369.420896 381.527891 
L 375.10647 383.941275 
L 380.872807 386.154764 
L 386.712881 388.165663 
L 392.619577 389.971521 
L 398.585698 391.570138 
L 404.603976 392.959567 
L 410.667077 394.138115 
L 416.767617 395.104345 
L 422.89816 395.857081 
L 429.051239 396.395406 
L 435.219358 396.718663 
L 441.395 396.82646 
L 447.570642 396.718663 
L 453.738761 396.395406 
L 459.89184 395.857081 
L 466.022383 395.104345 
L 472.122923 394.138115 
L 478.186024 392.959567 
L 484.204302 391.570138 
L 490.170423 389.971521 
L 496.077119 388.165663 
L 501.917193 386.154764 
L 507.68353 383.941275 
L 513.369104 381.527891 
L 518.96699 378.917555 
L 524.470365 376.113445 
L 529.872527 373.118978 
L 535.166892 369.937802 
L 540.34701 366.573794 
L 545.406571 363.031052 
L 550.339409 359.313891 
L 555.139516 355.426841 
L 559.801042 351.374638 
L 564.318309 347.162219 
L 568.685813 342.794715 
L 572.898232 338.277448 
L 576.950435 333.615922 
L 580.837485 328.815815 
L 584.554645 323.882977 
L 588.097388 318.823416 
L 591.461396 313.643298 
L 594.642571 308.348933 
L 597.637038 302.946772 
L 600.441148 297.443396 
L 603.051485 291.845511 
L 605.464868 286.159936 
L 607.678358 280.393599 
L 609.689257 274.553525 
L 611.495115 268.646829 
L 613.093732 262.680708 
L 614.483161 256.662431 
L 615.661708 250.599329 
L 616.627939 244.49879 
L 617.380675 238.368246 
L 617.919 232.215167 
L 618.242257 226.047049 
L 618.350053 219.871406 
L 618.350053 219.871406 
" style="fill:none;stroke:#ffffff;stroke-linecap:round;"/>
     </g>
     <g id="text_15">
      <!-- 3.0 -->
      <g style="fill:#262626;" transform="translate(604.880152 149.967389)scale(0.11 -0.11)">
       <use xlink:href="#ArialMT-51"/>
       <use x="55.615234" xlink:href="#ArialMT-46"/>
       <use x="83.398438" xlink:href="#ArialMT-48"/>
      </g>
     </g>
    </g>
   </g>
   <g id="line2d_16">
    <defs>
     <path d="M 0 3 
C 0.795609 3 1.55874 2.683901 2.12132 2.12132 
C 2.683901 1.55874 3 0.795609 3 0 
C 3 -0.795609 2.683901 -1.55874 2.12132 -2.12132 
C 1.55874 -2.683901 0.795609 -3 0 -3 
C -0.795609 -3 -1.55874 -2.683901 -2.12132 -2.12132 
C -2.683901 -1.55874 -3 -0.795609 -3 0 
C -3 0.795609 -2.683901 1.55874 -2.12132 2.12132 
C -1.55874 2.683901 -0.795609 3 0 3 
z
" id="mafc2751599" style="stroke:#4c72b0;"/>
    </defs>
    <g clip-path="url(#pecd96c4a48)">
     <use style="fill:#4c72b0;stroke:#4c72b0;" x="441.395" xlink:href="#mafc2751599" y="42.916353"/>
     <use style="fill:#4c72b0;stroke:#4c72b0;" x="557.175384" xlink:href="#mafc2751599" y="253.564215"/>
    </g>
   </g>
   <g id="line2d_17">
    <path clip-path="url(#pecd96c4a48)" d="M 503.652442 219.871406 
L 502.489049 217.016351 
L 501.089371 214.316619 
L 499.493132 211.786629 
L 497.739501 209.434938 
L 495.86607 207.264737 
L 493.908019 205.274482 
L 491.220657 202.890604 
L 488.505767 200.794429 
L 485.154575 198.53405 
L 481.294916 196.262565 
L 477.11289 194.074687 
L 469.428075 190.376154 
L 456.044899 184.09603 
L 453.206385 183.080974 
L 450.42441 182.330761 
L 448.047118 181.913744 
L 445.740489 181.728133 
L 443.524394 181.770743 
L 441.418497 182.029357 
L 439.440009 182.484693 
L 437.602322 183.11258 
L 435.685771 184.006794 
L 433.970789 185.049466 
L 432.281086 186.349577 
L 430.835407 187.733502 
L 429.494891 189.314053 
L 428.309764 191.046237 
L 427.24328 193.017774 
L 426.375377 195.122662 
L 425.743848 197.233376 
L 425.300963 199.50125 
L 425.080532 201.798959 
L 425.080437 204.154122 
L 425.304977 206.516638 
L 425.742431 208.820949 
L 426.412372 211.151782 
L 427.280929 213.383325 
L 428.403859 215.64508 
L 429.790847 217.924696 
L 431.868416 220.859053 
L 434.104434 224.106123 
L 435.394223 226.344608 
L 436.453205 228.647333 
L 438.930575 234.244602 
L 440.275085 236.686855 
L 441.870115 239.145327 
L 443.612489 241.438191 
L 445.336794 243.40733 
L 447.40097 245.461939 
L 449.844142 247.55558 
L 451.944834 249.115007 
L 454.286311 250.630471 
L 456.873155 252.065621 
L 459.703932 253.37982 
L 462.770006 254.528871 
L 466.054453 255.466055 
L 469.531135 256.143496 
L 471.938359 256.427364 
L 474.402052 256.561202 
L 476.907034 256.53229 
L 479.436175 256.328982 
L 481.970498 255.941017 
L 484.489343 255.35983 
L 486.97058 254.578847 
L 489.390875 253.593775 
L 491.726023 252.402853 
L 493.951322 251.007074 
L 496.042004 249.410353 
L 497.973697 247.61964 
L 499.722925 245.644961 
L 501.267629 243.499386 
L 502.587682 241.19892 
L 503.665407 238.762297 
L 504.486065 236.210698 
L 505.038289 233.567374 
L 505.314477 230.857201 
L 505.311082 228.10615 
L 505.028828 225.340709 
L 504.472804 222.587255 
L 503.652442 219.871406 
L 503.652442 219.871406 
" style="fill:none;stroke:#dd8452;stroke-linecap:round;stroke-width:1.5;"/>
   </g>
   <g id="line2d_18">
    <defs>
     <path d="M -3 3 
L 3 -3 
M -3 -3 
L 3 3 
" id="m03f2057611" style="stroke:#55a868;"/>
    </defs>
    <g clip-path="url(#pecd96c4a48)">
     <use style="fill:#55a868;stroke:#55a868;" x="386.895835" xlink:href="#m03f2057611" y="253.826261"/>
    </g>
   </g>
   <g id="patch_3">
    <path d="M 626.776484 219.871406 
C 626.776484 195.527333 621.981233 171.419975 612.665159 148.928984 
C 603.349086 126.437992 589.693364 106.000761 572.479505 88.786902 
C 555.265645 71.573042 534.828414 57.917321 512.337423 48.601247 
C 489.846432 39.285174 465.739073 34.489922 441.395 34.489922 
C 417.050927 34.489922 392.943568 39.285174 370.452577 48.601247 
C 347.961586 57.917321 327.524355 71.573042 310.310495 88.786902 
C 293.096636 106.000761 279.440914 126.437992 270.124841 148.928984 
C 260.808767 171.419975 256.013516 195.527333 256.013516 219.871406 
C 256.013516 244.21548 260.808767 268.322838 270.124841 290.813829 
C 279.440914 313.30482 293.096636 333.742052 310.310495 350.955911 
C 327.524355 368.16977 347.961586 381.825492 370.452577 391.141565 
C 392.943568 400.457639 417.050927 405.252891 441.395 405.252891 
C 465.739073 405.252891 489.846432 400.457639 512.337423 391.141565 
C 534.828414 381.825492 555.265645 368.16977 572.479505 350.955911 
C 589.693364 333.742052 603.349086 313.30482 612.665159 290.813829 
C 621.981233 268.322838 626.776484 244.21548 626.776484 219.871406 
" style="fill:none;stroke:#ffffff;stroke-linecap:square;stroke-linejoin:miter;stroke-width:1.25;"/>
   </g>
  </g>
  <g id="axes_2">
   <g id="patch_4">
    <path d="M 37.75 816.505781 
L 845.04 816.505781 
L 845.04 445.742812 
L 37.75 445.742812 
z
" style="fill:#eaeaf2;"/>
   </g>
   <g id="matplotlib.axis_3">
    <g id="xtick_9">
     <g id="line2d_19">
      <path clip-path="url(#pc00711c786)" d="M 74.445 816.505781 
L 74.445 445.742812 
" style="fill:none;stroke:#ffffff;stroke-linecap:round;"/>
     </g>
     <g id="text_16">
      <!-- 0 -->
      <g style="fill:#262626;" transform="translate(71.386484 833.879375)scale(0.11 -0.11)">
       <use xlink:href="#ArialMT-48"/>
      </g>
     </g>
    </g>
    <g id="xtick_10">
     <g id="line2d_20">
      <path clip-path="url(#pc00711c786)" d="M 191.248813 816.505781 
L 191.248813 445.742812 
" style="fill:none;stroke:#ffffff;stroke-linecap:round;"/>
     </g>
     <g id="text_17">
      <!-- 1 -->
      <g style="fill:#262626;" transform="translate(188.190297 833.879375)scale(0.11 -0.11)">
       <use xlink:href="#ArialMT-49"/>
      </g>
     </g>
    </g>
    <g id="xtick_11">
     <g id="line2d_21">
      <path clip-path="url(#pc00711c786)" d="M 308.052625 816.505781 
L 308.052625 445.742812 
" style="fill:none;stroke:#ffffff;stroke-linecap:round;"/>
     </g>
     <g id="text_18">
      <!-- 2 -->
      <g style="fill:#262626;" transform="translate(304.99411 833.879375)scale(0.11 -0.11)">
       <use xlink:href="#ArialMT-50"/>
      </g>
     </g>
    </g>
    <g id="xtick_12">
     <g id="line2d_22">
      <path clip-path="url(#pc00711c786)" d="M 424.856438 816.505781 
L 424.856438 445.742812 
" style="fill:none;stroke:#ffffff;stroke-linecap:round;"/>
     </g>
     <g id="text_19">
      <!-- 3 -->
      <g style="fill:#262626;" transform="translate(421.797923 833.879375)scale(0.11 -0.11)">
       <use xlink:href="#ArialMT-51"/>
      </g>
     </g>
    </g>
    <g id="xtick_13">
     <g id="line2d_23">
      <path clip-path="url(#pc00711c786)" d="M 541.660251 816.505781 
L 541.660251 445.742812 
" style="fill:none;stroke:#ffffff;stroke-linecap:round;"/>
     </g>
     <g id="text_20">
      <!-- 4 -->
      <g style="fill:#262626;" transform="translate(538.601735 833.879375)scale(0.11 -0.11)">
       <use xlink:href="#ArialMT-52"/>
      </g>
     </g>
    </g>
    <g id="xtick_14">
     <g id="line2d_24">
      <path clip-path="url(#pc00711c786)" d="M 658.464064 816.505781 
L 658.464064 445.742812 
" style="fill:none;stroke:#ffffff;stroke-linecap:round;"/>
     </g>
     <g id="text_21">
      <!-- 5 -->
      <g style="fill:#262626;" transform="translate(655.405548 833.879375)scale(0.11 -0.11)">
       <use xlink:href="#ArialMT-53"/>
      </g>
     </g>
    </g>
    <g id="xtick_15">
     <g id="line2d_25">
      <path clip-path="url(#pc00711c786)" d="M 775.267876 816.505781 
L 775.267876 445.742812 
" style="fill:none;stroke:#ffffff;stroke-linecap:round;"/>
     </g>
     <g id="text_22">
      <!-- 6 -->
      <defs>
       <path d="M 49.75 54.046875 
L 41.015625 53.375 
Q 39.84375 58.546875 37.703125 60.890625 
Q 34.125 64.65625 28.90625 64.65625 
Q 24.703125 64.65625 21.53125 62.3125 
Q 17.390625 59.28125 14.984375 53.46875 
Q 12.59375 47.65625 12.5 36.921875 
Q 15.671875 41.75 20.265625 44.09375 
Q 24.859375 46.4375 29.890625 46.4375 
Q 38.671875 46.4375 44.84375 39.96875 
Q 51.03125 33.5 51.03125 23.25 
Q 51.03125 16.5 48.125 10.71875 
Q 45.21875 4.9375 40.140625 1.859375 
Q 35.0625 -1.21875 28.609375 -1.21875 
Q 17.625 -1.21875 10.6875 6.859375 
Q 3.765625 14.9375 3.765625 33.5 
Q 3.765625 54.25 11.421875 63.671875 
Q 18.109375 71.875 29.4375 71.875 
Q 37.890625 71.875 43.28125 67.140625 
Q 48.6875 62.40625 49.75 54.046875 
z
M 13.875 23.1875 
Q 13.875 18.65625 15.796875 14.5 
Q 17.71875 10.359375 21.1875 8.171875 
Q 24.65625 6 28.46875 6 
Q 34.03125 6 38.03125 10.484375 
Q 42.046875 14.984375 42.046875 22.703125 
Q 42.046875 30.125 38.078125 34.390625 
Q 34.125 38.671875 28.125 38.671875 
Q 22.171875 38.671875 18.015625 34.390625 
Q 13.875 30.125 13.875 23.1875 
z
" id="ArialMT-54"/>
      </defs>
      <g style="fill:#262626;" transform="translate(772.209361 833.879375)scale(0.11 -0.11)">
       <use xlink:href="#ArialMT-54"/>
      </g>
     </g>
    </g>
    <g id="text_23">
     <!-- $\theta$ -->
     <defs>
      <path d="M 45.515625 34.671875 
L 14.453125 34.671875 
Q 12.359375 20.0625 14.5 13.875 
Q 17.1875 6.25 24.46875 6.25 
Q 31.78125 6.25 37.359375 13.921875 
Q 42.234375 20.65625 45.515625 34.671875 
z
M 47.015625 42.96875 
Q 48.34375 56.84375 46.625 61.71875 
Q 43.953125 69.4375 36.765625 69.4375 
Q 29.296875 69.4375 23.828125 61.8125 
Q 19.53125 55.671875 16.15625 42.96875 
z
M 38.1875 76.765625 
Q 49.90625 76.765625 54.59375 66.40625 
Q 59.28125 56.109375 55.71875 37.84375 
Q 52.203125 19.625 43.453125 9.28125 
Q 34.765625 -1.125 23.046875 -1.125 
Q 11.28125 -1.125 6.640625 9.28125 
Q 2 19.625 5.515625 37.84375 
Q 9.078125 56.109375 17.71875 66.40625 
Q 26.421875 76.765625 38.1875 76.765625 
z
" id="DejaVuSans-Oblique-952"/>
     </defs>
     <g style="fill:#262626;" transform="translate(437.675 848.655)scale(0.12 -0.12)">
      <use transform="translate(0 0.234375)" xlink:href="#DejaVuSans-Oblique-952"/>
     </g>
    </g>
   </g>
   <g id="matplotlib.axis_4">
    <g id="ytick_8">
     <g id="line2d_26">
      <path clip-path="url(#pc00711c786)" d="M 37.75 800.826933 
L 845.04 800.826933 
" style="fill:none;stroke:#ffffff;stroke-linecap:round;"/>
     </g>
     <g id="text_24">
      <!-- 0.0 -->
      <g style="fill:#262626;" transform="translate(12.96 804.763729)scale(0.11 -0.11)">
       <use xlink:href="#ArialMT-48"/>
       <use x="55.615234" xlink:href="#ArialMT-46"/>
       <use x="83.398438" xlink:href="#ArialMT-48"/>
      </g>
     </g>
    </g>
    <g id="ytick_9">
     <g id="line2d_27">
      <path clip-path="url(#pc00711c786)" d="M 37.75 744.455056 
L 845.04 744.455056 
" style="fill:none;stroke:#ffffff;stroke-linecap:round;"/>
     </g>
     <g id="text_25">
      <!-- 0.5 -->
      <g style="fill:#262626;" transform="translate(12.96 748.391853)scale(0.11 -0.11)">
       <use xlink:href="#ArialMT-48"/>
       <use x="55.615234" xlink:href="#ArialMT-46"/>
       <use x="83.398438" xlink:href="#ArialMT-53"/>
      </g>
     </g>
    </g>
    <g id="ytick_10">
     <g id="line2d_28">
      <path clip-path="url(#pc00711c786)" d="M 37.75 688.08318 
L 845.04 688.08318 
" style="fill:none;stroke:#ffffff;stroke-linecap:round;"/>
     </g>
     <g id="text_26">
      <!-- 1.0 -->
      <g style="fill:#262626;" transform="translate(12.96 692.019977)scale(0.11 -0.11)">
       <use xlink:href="#ArialMT-49"/>
       <use x="55.615234" xlink:href="#ArialMT-46"/>
       <use x="83.398438" xlink:href="#ArialMT-48"/>
      </g>
     </g>
    </g>
    <g id="ytick_11">
     <g id="line2d_29">
      <path clip-path="url(#pc00711c786)" d="M 37.75 631.711304 
L 845.04 631.711304 
" style="fill:none;stroke:#ffffff;stroke-linecap:round;"/>
     </g>
     <g id="text_27">
      <!-- 1.5 -->
      <g style="fill:#262626;" transform="translate(12.96 635.648101)scale(0.11 -0.11)">
       <use xlink:href="#ArialMT-49"/>
       <use x="55.615234" xlink:href="#ArialMT-46"/>
       <use x="83.398438" xlink:href="#ArialMT-53"/>
      </g>
     </g>
    </g>
    <g id="ytick_12">
     <g id="line2d_30">
      <path clip-path="url(#pc00711c786)" d="M 37.75 575.339427 
L 845.04 575.339427 
" style="fill:none;stroke:#ffffff;stroke-linecap:round;"/>
     </g>
     <g id="text_28">
      <!-- 2.0 -->
      <g style="fill:#262626;" transform="translate(12.96 579.276224)scale(0.11 -0.11)">
       <use xlink:href="#ArialMT-50"/>
       <use x="55.615234" xlink:href="#ArialMT-46"/>
       <use x="83.398438" xlink:href="#ArialMT-48"/>
      </g>
     </g>
    </g>
    <g id="ytick_13">
     <g id="line2d_31">
      <path clip-path="url(#pc00711c786)" d="M 37.75 518.967551 
L 845.04 518.967551 
" style="fill:none;stroke:#ffffff;stroke-linecap:round;"/>
     </g>
     <g id="text_29">
      <!-- 2.5 -->
      <g style="fill:#262626;" transform="translate(12.96 522.904348)scale(0.11 -0.11)">
       <use xlink:href="#ArialMT-50"/>
       <use x="55.615234" xlink:href="#ArialMT-46"/>
       <use x="83.398438" xlink:href="#ArialMT-53"/>
      </g>
     </g>
    </g>
    <g id="ytick_14">
     <g id="line2d_32">
      <path clip-path="url(#pc00711c786)" d="M 37.75 462.595675 
L 845.04 462.595675 
" style="fill:none;stroke:#ffffff;stroke-linecap:round;"/>
     </g>
     <g id="text_30">
      <!-- 3.0 -->
      <g style="fill:#262626;" transform="translate(12.96 466.532472)scale(0.11 -0.11)">
       <use xlink:href="#ArialMT-51"/>
       <use x="55.615234" xlink:href="#ArialMT-46"/>
       <use x="83.398438" xlink:href="#ArialMT-48"/>
      </g>
     </g>
    </g>
   </g>
   <g id="line2d_33">
    <g clip-path="url(#pc00711c786)">
     <use style="fill:#4c72b0;stroke:#4c72b0;" x="257.92" xlink:href="#mafc2751599" y="462.595675"/>
     <use style="fill:#4c72b0;stroke:#4c72b0;" x="775.267876" xlink:href="#mafc2751599" y="575.339427"/>
    </g>
   </g>
   <g id="line2d_34">
    <path clip-path="url(#pc00711c786)" d="M 74.445 691.990896 
L 79.899523 694.184333 
L 85.282828 696.601259 
L 92.350592 700.082137 
L 101.010111 704.684039 
L 129.024576 719.951858 
L 135.301819 723.051057 
L 141.461603 725.869334 
L 147.505038 728.386808 
L 153.433234 730.595344 
L 159.247299 732.496996 
L 164.948342 734.102341 
L 170.537474 735.428799 
L 176.015803 736.499001 
L 181.384439 737.339265 
L 187.942667 738.109967 
L 194.333401 738.624194 
L 201.784237 738.983657 
L 211.35482 739.178113 
L 240.697352 739.539448 
L 248.549719 739.967082 
L 255.117637 740.527449 
L 261.409072 741.263251 
L 268.268363 742.306186 
L 274.783175 743.539252 
L 280.962383 744.928973 
L 287.52389 746.63411 
L 294.344834 748.644082 
L 301.296935 750.920283 
L 309.345697 753.804781 
L 318.45013 757.325771 
L 330.054171 762.079117 
L 361.040247 774.907483 
L 370.647493 778.576202 
L 379.46757 781.711203 
L 387.885344 784.463235 
L 395.95464 786.863832 
L 404.08054 789.038146 
L 411.933139 790.906856 
L 419.884068 792.57128 
L 427.791067 794.008928 
L 436.313588 795.330509 
L 445.4747 796.508748 
L 454.376547 797.436752 
L 463.842557 798.215441 
L 473.890062 798.835714 
L 485.634633 799.325869 
L 496.959699 799.585612 
L 508.919995 799.648165 
L 520.241709 799.50448 
L 530.759412 799.176942 
L 541.713614 798.604234 
L 551.663584 797.838492 
L 560.468036 796.926559 
L 568.002489 795.940504 
L 575.718715 794.703647 
L 582.02403 793.500395 
L 588.448177 792.076299 
L 594.992264 790.400146 
L 601.657402 788.438572 
L 608.444699 786.156746 
L 613.616006 784.213953 
L 618.85712 782.056494 
L 624.168509 779.670391 
L 629.550641 777.04281 
L 635.003983 774.162614 
L 640.529005 771.020991 
L 646.126173 767.612143 
L 651.795956 763.934039 
L 657.538821 759.989205 
L 665.310469 754.329027 
L 673.213982 748.245504 
L 683.280501 740.137443 
L 712.590558 716.105348 
L 719.089992 711.124838 
L 725.667657 706.372488 
L 730.096459 703.372687 
L 734.560378 700.53725 
L 739.059551 697.891444 
L 743.594117 695.460016 
L 748.164215 693.266789 
L 752.769984 691.334228 
L 757.411562 689.683007 
L 762.089088 688.331562 
L 766.8027 687.295654 
L 771.552538 686.587946 
L 776.33874 686.21761 
L 781.161445 686.189971 
L 786.02079 686.506206 
L 790.916916 687.163099 
L 795.84996 688.15288 
L 800.820062 689.463136 
L 805.827359 691.076828 
L 808.345 691.990896 
L 808.345 691.990896 
" style="fill:none;stroke:#dd8452;stroke-linecap:round;stroke-width:1.5;"/>
   </g>
   <g id="line2d_35">
    <g clip-path="url(#pc00711c786)">
     <use style="fill:#55a868;stroke:#55a868;" x="506.476285" xlink:href="#m03f2057611" y="688.08318"/>
    </g>
   </g>
   <g id="patch_5">
    <path d="M 37.75 816.505781 
L 37.75 445.742813 
" style="fill:none;stroke:#ffffff;stroke-linecap:square;stroke-linejoin:miter;stroke-width:1.25;"/>
   </g>
   <g id="patch_6">
    <path d="M 845.04 816.505781 
L 845.04 445.742813 
" style="fill:none;stroke:#ffffff;stroke-linecap:square;stroke-linejoin:miter;stroke-width:1.25;"/>
   </g>
   <g id="patch_7">
    <path d="M 37.75 816.505781 
L 845.04 816.505781 
" style="fill:none;stroke:#ffffff;stroke-linecap:square;stroke-linejoin:miter;stroke-width:1.25;"/>
   </g>
   <g id="patch_8">
    <path d="M 37.75 445.742812 
L 845.04 445.742812 
" style="fill:none;stroke:#ffffff;stroke-linecap:square;stroke-linejoin:miter;stroke-width:1.25;"/>
   </g>
  </g>
  <g id="legend_1">
   <g id="patch_9">
    <path d="M 733.075938 94.108438 
L 817.8 94.108438 
Q 820 94.108438 820 91.908437 
L 820 46.2 
Q 820 44 817.8 44 
L 733.075938 44 
Q 730.875937 44 730.875937 46.2 
L 730.875937 91.908437 
Q 730.875937 94.108438 733.075938 94.108438 
z
" style="fill:#eaeaf2;opacity:0.8;stroke:#cccccc;stroke-linejoin:miter;"/>
   </g>
   <g id="line2d_36"/>
   <g id="line2d_37">
    <g>
     <use style="fill:#4c72b0;stroke:#4c72b0;" x="746.275937" xlink:href="#mafc2751599" y="52.423594"/>
    </g>
   </g>
   <g id="text_31">
    <!-- Seeds -->
    <defs>
     <path d="M 4.5 23 
L 13.421875 23.78125 
Q 14.0625 18.40625 16.375 14.96875 
Q 18.703125 11.53125 23.578125 9.40625 
Q 28.46875 7.28125 34.578125 7.28125 
Q 39.984375 7.28125 44.140625 8.890625 
Q 48.296875 10.5 50.3125 13.296875 
Q 52.34375 16.109375 52.34375 19.4375 
Q 52.34375 22.796875 50.390625 25.3125 
Q 48.4375 27.828125 43.953125 29.546875 
Q 41.0625 30.671875 31.203125 33.03125 
Q 21.34375 35.40625 17.390625 37.5 
Q 12.25 40.1875 9.734375 44.15625 
Q 7.234375 48.140625 7.234375 53.078125 
Q 7.234375 58.5 10.296875 63.203125 
Q 13.375 67.921875 19.28125 70.359375 
Q 25.203125 72.796875 32.421875 72.796875 
Q 40.375 72.796875 46.453125 70.234375 
Q 52.546875 67.671875 55.8125 62.6875 
Q 59.078125 57.71875 59.328125 51.421875 
L 50.25 50.734375 
Q 49.515625 57.515625 45.28125 60.984375 
Q 41.0625 64.453125 32.8125 64.453125 
Q 24.21875 64.453125 20.28125 61.296875 
Q 16.359375 58.15625 16.359375 53.71875 
Q 16.359375 49.859375 19.140625 47.359375 
Q 21.875 44.875 33.421875 42.265625 
Q 44.96875 39.65625 49.265625 37.703125 
Q 55.515625 34.8125 58.484375 30.390625 
Q 61.46875 25.984375 61.46875 20.21875 
Q 61.46875 14.5 58.203125 9.4375 
Q 54.9375 4.390625 48.796875 1.578125 
Q 42.671875 -1.21875 35.015625 -1.21875 
Q 25.296875 -1.21875 18.71875 1.609375 
Q 12.15625 4.4375 8.421875 10.125 
Q 4.6875 15.828125 4.5 23 
z
" id="ArialMT-83"/>
     <path d="M 42.09375 16.703125 
L 51.171875 15.578125 
Q 49.03125 7.625 43.21875 3.21875 
Q 37.40625 -1.171875 28.375 -1.171875 
Q 17 -1.171875 10.328125 5.828125 
Q 3.65625 12.84375 3.65625 25.484375 
Q 3.65625 38.578125 10.390625 45.796875 
Q 17.140625 53.03125 27.875 53.03125 
Q 38.28125 53.03125 44.875 45.953125 
Q 51.46875 38.875 51.46875 26.03125 
Q 51.46875 25.25 51.421875 23.6875 
L 12.75 23.6875 
Q 13.234375 15.140625 17.578125 10.59375 
Q 21.921875 6.0625 28.421875 6.0625 
Q 33.25 6.0625 36.671875 8.59375 
Q 40.09375 11.140625 42.09375 16.703125 
z
M 13.234375 30.90625 
L 42.1875 30.90625 
Q 41.609375 37.453125 38.875 40.71875 
Q 34.671875 45.796875 27.984375 45.796875 
Q 21.921875 45.796875 17.796875 41.75 
Q 13.671875 37.703125 13.234375 30.90625 
z
" id="ArialMT-101"/>
     <path d="M 40.234375 0 
L 40.234375 6.546875 
Q 35.296875 -1.171875 25.734375 -1.171875 
Q 19.53125 -1.171875 14.328125 2.25 
Q 9.125 5.671875 6.265625 11.796875 
Q 3.421875 17.921875 3.421875 25.875 
Q 3.421875 33.640625 6 39.96875 
Q 8.59375 46.296875 13.765625 49.65625 
Q 18.953125 53.03125 25.34375 53.03125 
Q 30.03125 53.03125 33.6875 51.046875 
Q 37.359375 49.078125 39.65625 45.90625 
L 39.65625 71.578125 
L 48.390625 71.578125 
L 48.390625 0 
z
M 12.453125 25.875 
Q 12.453125 15.921875 16.640625 10.984375 
Q 20.84375 6.0625 26.5625 6.0625 
Q 32.328125 6.0625 36.34375 10.765625 
Q 40.375 15.484375 40.375 25.140625 
Q 40.375 35.796875 36.265625 40.765625 
Q 32.171875 45.75 26.171875 45.75 
Q 20.3125 45.75 16.375 40.96875 
Q 12.453125 36.1875 12.453125 25.875 
z
" id="ArialMT-100"/>
     <path d="M 3.078125 15.484375 
L 11.765625 16.84375 
Q 12.5 11.625 15.84375 8.84375 
Q 19.1875 6.0625 25.203125 6.0625 
Q 31.25 6.0625 34.171875 8.515625 
Q 37.109375 10.984375 37.109375 14.3125 
Q 37.109375 17.28125 34.515625 19 
Q 32.71875 20.171875 25.53125 21.96875 
Q 15.875 24.421875 12.140625 26.203125 
Q 8.40625 27.984375 6.46875 31.125 
Q 4.546875 34.28125 4.546875 38.09375 
Q 4.546875 41.546875 6.125 44.5 
Q 7.71875 47.46875 10.453125 49.421875 
Q 12.5 50.921875 16.03125 51.96875 
Q 19.578125 53.03125 23.640625 53.03125 
Q 29.734375 53.03125 34.34375 51.265625 
Q 38.96875 49.515625 41.15625 46.5 
Q 43.359375 43.5 44.1875 38.484375 
L 35.59375 37.3125 
Q 35.015625 41.3125 32.203125 43.546875 
Q 29.390625 45.796875 24.265625 45.796875 
Q 18.21875 45.796875 15.625 43.796875 
Q 13.03125 41.796875 13.03125 39.109375 
Q 13.03125 37.40625 14.109375 36.03125 
Q 15.1875 34.625 17.484375 33.6875 
Q 18.796875 33.203125 25.25 31.453125 
Q 34.578125 28.953125 38.25 27.359375 
Q 41.9375 25.78125 44.03125 22.75 
Q 46.140625 19.734375 46.140625 15.234375 
Q 46.140625 10.84375 43.578125 6.953125 
Q 41.015625 3.078125 36.171875 0.953125 
Q 31.34375 -1.171875 25.25 -1.171875 
Q 15.140625 -1.171875 9.84375 3.03125 
Q 4.546875 7.234375 3.078125 15.484375 
z
" id="ArialMT-115"/>
    </defs>
    <g style="fill:#262626;" transform="translate(766.075937 56.273594)scale(0.11 -0.11)">
     <use xlink:href="#ArialMT-83"/>
     <use x="66.699219" xlink:href="#ArialMT-101"/>
     <use x="122.314453" xlink:href="#ArialMT-101"/>
     <use x="177.929688" xlink:href="#ArialMT-100"/>
     <use x="233.544922" xlink:href="#ArialMT-115"/>
    </g>
   </g>
   <g id="line2d_38">
    <path d="M 735.275937 67.983438 
L 757.275937 67.983438 
" style="fill:none;stroke:#dd8452;stroke-linecap:round;stroke-width:1.5;"/>
   </g>
   <g id="line2d_39"/>
   <g id="text_32">
    <!-- Energy -->
    <defs>
     <path d="M 7.90625 0 
L 7.90625 71.578125 
L 59.671875 71.578125 
L 59.671875 63.140625 
L 17.390625 63.140625 
L 17.390625 41.21875 
L 56.984375 41.21875 
L 56.984375 32.8125 
L 17.390625 32.8125 
L 17.390625 8.453125 
L 61.328125 8.453125 
L 61.328125 0 
z
" id="ArialMT-69"/>
     <path d="M 6.59375 0 
L 6.59375 51.859375 
L 14.5 51.859375 
L 14.5 44.484375 
Q 20.21875 53.03125 31 53.03125 
Q 35.6875 53.03125 39.625 51.34375 
Q 43.5625 49.65625 45.515625 46.921875 
Q 47.46875 44.1875 48.25 40.4375 
Q 48.734375 37.984375 48.734375 31.890625 
L 48.734375 0 
L 39.9375 0 
L 39.9375 31.546875 
Q 39.9375 36.921875 38.90625 39.578125 
Q 37.890625 42.234375 35.28125 43.8125 
Q 32.671875 45.40625 29.15625 45.40625 
Q 23.53125 45.40625 19.453125 41.84375 
Q 15.375 38.28125 15.375 28.328125 
L 15.375 0 
z
" id="ArialMT-110"/>
     <path d="M 6.5 0 
L 6.5 51.859375 
L 14.40625 51.859375 
L 14.40625 44 
Q 17.4375 49.515625 20 51.265625 
Q 22.5625 53.03125 25.640625 53.03125 
Q 30.078125 53.03125 34.671875 50.203125 
L 31.640625 42.046875 
Q 28.421875 43.953125 25.203125 43.953125 
Q 22.3125 43.953125 20.015625 42.21875 
Q 17.71875 40.484375 16.75 37.40625 
Q 15.28125 32.71875 15.28125 27.15625 
L 15.28125 0 
z
" id="ArialMT-114"/>
     <path d="M 4.984375 -4.296875 
L 13.53125 -5.5625 
Q 14.0625 -9.515625 16.5 -11.328125 
Q 19.78125 -13.765625 25.4375 -13.765625 
Q 31.546875 -13.765625 34.859375 -11.328125 
Q 38.1875 -8.890625 39.359375 -4.5 
Q 40.046875 -1.8125 39.984375 6.78125 
Q 34.234375 0 25.640625 0 
Q 14.9375 0 9.078125 7.71875 
Q 3.21875 15.4375 3.21875 26.21875 
Q 3.21875 33.640625 5.90625 39.90625 
Q 8.59375 46.1875 13.6875 49.609375 
Q 18.796875 53.03125 25.6875 53.03125 
Q 34.859375 53.03125 40.828125 45.609375 
L 40.828125 51.859375 
L 48.921875 51.859375 
L 48.921875 7.03125 
Q 48.921875 -5.078125 46.453125 -10.125 
Q 44 -15.1875 38.640625 -18.109375 
Q 33.296875 -21.046875 25.484375 -21.046875 
Q 16.21875 -21.046875 10.5 -16.875 
Q 4.78125 -12.703125 4.984375 -4.296875 
z
M 12.25 26.859375 
Q 12.25 16.65625 16.296875 11.96875 
Q 20.359375 7.28125 26.46875 7.28125 
Q 32.515625 7.28125 36.609375 11.9375 
Q 40.71875 16.609375 40.71875 26.5625 
Q 40.71875 36.078125 36.5 40.90625 
Q 32.28125 45.75 26.3125 45.75 
Q 20.453125 45.75 16.34375 40.984375 
Q 12.25 36.234375 12.25 26.859375 
z
" id="ArialMT-103"/>
     <path d="M 6.203125 -19.96875 
L 5.21875 -11.71875 
Q 8.109375 -12.5 10.25 -12.5 
Q 13.1875 -12.5 14.9375 -11.515625 
Q 16.703125 -10.546875 17.828125 -8.796875 
Q 18.65625 -7.46875 20.515625 -2.25 
Q 20.75 -1.515625 21.296875 -0.09375 
L 1.609375 51.859375 
L 11.078125 51.859375 
L 21.875 21.828125 
Q 23.96875 16.109375 25.640625 9.8125 
Q 27.15625 15.875 29.25 21.625 
L 40.328125 51.859375 
L 49.125 51.859375 
L 29.390625 -0.875 
Q 26.21875 -9.421875 24.46875 -12.640625 
Q 22.125 -17 19.09375 -19.015625 
Q 16.0625 -21.046875 11.859375 -21.046875 
Q 9.328125 -21.046875 6.203125 -19.96875 
z
" id="ArialMT-121"/>
    </defs>
    <g style="fill:#262626;" transform="translate(766.075937 71.833438)scale(0.11 -0.11)">
     <use xlink:href="#ArialMT-69"/>
     <use x="66.699219" xlink:href="#ArialMT-110"/>
     <use x="122.314453" xlink:href="#ArialMT-101"/>
     <use x="177.929688" xlink:href="#ArialMT-114"/>
     <use x="211.230469" xlink:href="#ArialMT-103"/>
     <use x="266.845703" xlink:href="#ArialMT-121"/>
    </g>
   </g>
   <g id="line2d_40"/>
   <g id="line2d_41">
    <g>
     <use style="fill:#55a868;stroke:#55a868;" x="746.275937" xlink:href="#m03f2057611" y="83.672187"/>
    </g>
   </g>
   <g id="text_33">
    <!-- Next seed -->
    <defs>
     <path d="M 7.625 0 
L 7.625 71.578125 
L 17.328125 71.578125 
L 54.9375 15.375 
L 54.9375 71.578125 
L 64.015625 71.578125 
L 64.015625 0 
L 54.296875 0 
L 16.703125 56.25 
L 16.703125 0 
z
" id="ArialMT-78"/>
     <path d="M 0.734375 0 
L 19.671875 26.953125 
L 2.15625 51.859375 
L 13.140625 51.859375 
L 21.09375 39.703125 
Q 23.34375 36.234375 24.703125 33.890625 
Q 26.859375 37.109375 28.65625 39.59375 
L 37.40625 51.859375 
L 47.90625 51.859375 
L 29.984375 27.4375 
L 49.265625 0 
L 38.484375 0 
L 27.828125 16.109375 
L 25 20.453125 
L 11.375 0 
z
" id="ArialMT-120"/>
     <path d="M 25.78125 7.859375 
L 27.046875 0.09375 
Q 23.34375 -0.6875 20.40625 -0.6875 
Q 15.625 -0.6875 12.984375 0.828125 
Q 10.359375 2.34375 9.28125 4.8125 
Q 8.203125 7.28125 8.203125 15.1875 
L 8.203125 45.015625 
L 1.765625 45.015625 
L 1.765625 51.859375 
L 8.203125 51.859375 
L 8.203125 64.703125 
L 16.9375 69.96875 
L 16.9375 51.859375 
L 25.78125 51.859375 
L 25.78125 45.015625 
L 16.9375 45.015625 
L 16.9375 14.703125 
Q 16.9375 10.9375 17.40625 9.859375 
Q 17.875 8.796875 18.921875 8.15625 
Q 19.96875 7.515625 21.921875 7.515625 
Q 23.390625 7.515625 25.78125 7.859375 
z
" id="ArialMT-116"/>
     <path id="ArialMT-32"/>
    </defs>
    <g style="fill:#262626;" transform="translate(766.075937 87.522187)scale(0.11 -0.11)">
     <use xlink:href="#ArialMT-78"/>
     <use x="72.216797" xlink:href="#ArialMT-101"/>
     <use x="127.832031" xlink:href="#ArialMT-120"/>
     <use x="177.832031" xlink:href="#ArialMT-116"/>
     <use x="205.615234" xlink:href="#ArialMT-32"/>
     <use x="233.398438" xlink:href="#ArialMT-115"/>
     <use x="283.398438" xlink:href="#ArialMT-101"/>
     <use x="339.013672" xlink:href="#ArialMT-101"/>
     <use x="394.628906" xlink:href="#ArialMT-100"/>
    </g>
   </g>
  </g>
 </g>
 <defs>
  <clipPath id="pecd96c4a48">
   <path d="M 626.776484 219.871406 
C 626.776484 195.527333 621.981233 171.419975 612.665159 148.928984 
C 603.349086 126.437992 589.693364 106.000761 572.479505 88.786902 
C 555.265645 71.573042 534.828414 57.917321 512.337423 48.601247 
C 489.846432 39.285174 465.739073 34.489922 441.395 34.489922 
C 417.050927 34.489922 392.943568 39.285174 370.452577 48.601247 
C 347.961586 57.917321 327.524355 71.573042 310.310495 88.786902 
C 293.096636 106.000761 279.440914 126.437992 270.124841 148.928984 
C 260.808767 171.419975 256.013516 195.527333 256.013516 219.871406 
C 256.013516 244.21548 260.808767 268.322838 270.124841 290.813829 
C 279.440914 313.30482 293.096636 333.742052 310.310495 350.955911 
C 327.524355 368.16977 347.961586 381.825492 370.452577 391.141565 
C 392.943568 400.457639 417.050927 405.252891 441.395 405.252891 
C 465.739073 405.252891 489.846432 400.457639 512.337423 391.141565 
C 534.828414 381.825492 555.265645 368.16977 572.479505 350.955911 
C 589.693364 333.742052 603.349086 313.30482 612.665159 290.813829 
C 621.981233 268.322838 626.776484 244.21548 626.776484 219.871406 
M 441.395 219.871406 
C 441.395 219.871406 441.395 219.871406 441.395 219.871406 
C 441.395 219.871406 441.395 219.871406 441.395 219.871406 
C 441.395 219.871406 441.395 219.871406 441.395 219.871406 
C 441.395 219.871406 441.395 219.871406 441.395 219.871406 
C 441.395 219.871406 441.395 219.871406 441.395 219.871406 
C 441.395 219.871406 441.395 219.871406 441.395 219.871406 
C 441.395 219.871406 441.395 219.871406 441.395 219.871406 
C 441.395 219.871406 441.395 219.871406 441.395 219.871406 
C 441.395 219.871406 441.395 219.871406 441.395 219.871406 
C 441.395 219.871406 441.395 219.871406 441.395 219.871406 
C 441.395 219.871406 441.395 219.871406 441.395 219.871406 
C 441.395 219.871406 441.395 219.871406 441.395 219.871406 
C 441.395 219.871406 441.395 219.871406 441.395 219.871406 
C 441.395 219.871406 441.395 219.871406 441.395 219.871406 
C 441.395 219.871406 441.395 219.871406 441.395 219.871406 
C 441.395 219.871406 441.395 219.871406 441.395 219.871406 
M 626.776484 219.871406 
z
"/>
  </clipPath>
  <clipPath id="pc00711c786">
   <rect height="370.762969" width="807.29" x="37.75" y="445.742813"/>
  </clipPath>
 </defs>
</svg>
