<?xml version="1.0" encoding="utf-8" standalone="no"?>
<!DOCTYPE svg PUBLIC "-//W3C//DTD SVG 1.1//EN"
  "http://www.w3.org/Graphics/SVG/1.1/DTD/svg11.dtd">
<!-- Created with matplotlib (https://matplotlib.org/) -->
<svg height="864pt" version="1.1" viewBox="0 0 864 864" width="864pt" xmlns="http://www.w3.org/2000/svg" xmlns:xlink="http://www.w3.org/1999/xlink">
 <defs>
  <style type="text/css">
*{stroke-linecap:butt;stroke-linejoin:round;}
  </style>
 </defs>
 <g id="figure_1">
  <g id="patch_1">
   <path d="M 0 864 
L 864 864 
L 864 0 
L 0 0 
z
" style="fill:#ffffff;"/>
  </g>
  <g id="axes_1">
   <g id="patch_2">
    <path d="M 626.776484 219.871406 
C 626.776484 195.527333 621.981233 171.419975 612.665159 148.928984 
C 603.349086 126.437992 589.693364 106.000761 572.479505 88.786902 
C 555.265645 71.573042 534.828414 57.917321 512.337423 48.601247 
C 489.846432 39.285174 465.739073 34.489922 441.395 34.489922 
C 417.050927 34.489922 392.943568 39.285174 370.452577 48.601247 
C 347.961586 57.917321 327.524355 71.573042 310.310495 88.786902 
C 293.096636 106.000761 279.440914 126.437992 270.124841 148.928984 
C 260.808767 171.419975 256.013516 195.527333 256.013516 219.871406 
C 256.013516 244.21548 260.808767 268.322838 270.124841 290.813829 
C 279.440914 313.30482 293.096636 333.742052 310.310495 350.955911 
C 327.524355 368.16977 347.961586 381.825492 370.452577 391.141565 
C 392.943568 400.457639 417.050927 405.252891 441.395 405.252891 
C 465.739073 405.252891 489.846432 400.457639 512.337423 391.141565 
C 534.828414 381.825492 555.265645 368.16977 572.479505 350.955911 
C 589.693364 333.742052 603.349086 313.30482 612.665159 290.813829 
C 621.981233 268.322838 626.776484 244.21548 626.776484 219.871406 
M 441.395 219.871406 
C 441.395 219.871406 441.395 219.871406 441.395 219.871406 
C 441.395 219.871406 441.395 219.871406 441.395 219.871406 
C 441.395 219.871406 441.395 219.871406 441.395 219.871406 
C 441.395 219.871406 441.395 219.871406 441.395 219.871406 
C 441.395 219.871406 441.395 219.871406 441.395 219.871406 
C 441.395 219.871406 441.395 219.871406 441.395 219.871406 
C 441.395 219.871406 441.395 219.871406 441.395 219.871406 
C 441.395 219.871406 441.395 219.871406 441.395 219.871406 
C 441.395 219.871406 441.395 219.871406 441.395 219.871406 
C 441.395 219.871406 441.395 219.871406 441.395 219.871406 
C 441.395 219.871406 441.395 219.871406 441.395 219.871406 
C 441.395 219.871406 441.395 219.871406 441.395 219.871406 
C 441.395 219.871406 441.395 219.871406 441.395 219.871406 
C 441.395 219.871406 441.395 219.871406 441.395 219.871406 
C 441.395 219.871406 441.395 219.871406 441.395 219.871406 
C 441.395 219.871406 441.395 219.871406 441.395 219.871406 
M 626.776484 219.871406 
z
" style="fill:#eaeaf2;"/>
   </g>
   <g id="matplotlib.axis_1">
    <g id="xtick_1">
     <g id="line2d_1">
      <path clip-path="url(#p8e7d203cd9)" d="M 441.395 219.871406 
L 626.776484 219.871406 
" style="fill:none;stroke:#ffffff;stroke-linecap:round;"/>
     </g>
     <g id="text_1">
      <!-- 0° -->
      <defs>
       <path d="M 4.15625 35.296875 
Q 4.15625 48 6.765625 55.734375 
Q 9.375 63.484375 14.515625 67.671875 
Q 19.671875 71.875 27.484375 71.875 
Q 33.25 71.875 37.59375 69.546875 
Q 41.9375 67.234375 44.765625 62.859375 
Q 47.609375 58.5 49.21875 52.21875 
Q 50.828125 45.953125 50.828125 35.296875 
Q 50.828125 22.703125 48.234375 14.96875 
Q 45.65625 7.234375 40.5 3 
Q 35.359375 -1.21875 27.484375 -1.21875 
Q 17.140625 -1.21875 11.234375 6.203125 
Q 4.15625 15.140625 4.15625 35.296875 
z
M 13.1875 35.296875 
Q 13.1875 17.671875 17.3125 11.828125 
Q 21.4375 6 27.484375 6 
Q 33.546875 6 37.671875 11.859375 
Q 41.796875 17.71875 41.796875 35.296875 
Q 41.796875 52.984375 37.671875 58.78125 
Q 33.546875 64.59375 27.390625 64.59375 
Q 21.34375 64.59375 17.71875 59.46875 
Q 13.1875 52.9375 13.1875 35.296875 
z
" id="ArialMT-48"/>
       <path d="M 6.25 59.28125 
Q 6.25 64.890625 10.21875 68.84375 
Q 14.203125 72.796875 19.78125 72.796875 
Q 25.4375 72.796875 29.390625 68.84375 
Q 33.34375 64.890625 33.34375 59.28125 
Q 33.34375 53.65625 29.359375 49.671875 
Q 25.390625 45.703125 19.78125 45.703125 
Q 14.203125 45.703125 10.21875 49.65625 
Q 6.25 53.609375 6.25 59.28125 
z
M 11.578125 59.28125 
Q 11.578125 55.859375 13.984375 53.4375 
Q 16.40625 51.03125 19.828125 51.03125 
Q 23.1875 51.03125 25.609375 53.4375 
Q 28.03125 55.859375 28.03125 59.28125 
Q 28.03125 62.703125 25.609375 65.109375 
Q 23.1875 67.53125 19.828125 67.53125 
Q 16.40625 67.53125 13.984375 65.109375 
Q 11.578125 62.703125 11.578125 59.28125 
z
" id="ArialMT-176"/>
      </defs>
      <g style="fill:#262626;" transform="translate(638.018828 222.715078)scale(0.11 -0.11)">
       <use xlink:href="#ArialMT-48"/>
       <use x="55.615234" xlink:href="#ArialMT-176"/>
      </g>
     </g>
    </g>
    <g id="xtick_2">
     <g id="line2d_2">
      <path clip-path="url(#p8e7d203cd9)" d="M 441.395 219.871406 
L 572.479505 88.786902 
" style="fill:none;stroke:#ffffff;stroke-linecap:round;"/>
     </g>
     <g id="text_2">
      <!-- 45° -->
      <defs>
       <path d="M 32.328125 0 
L 32.328125 17.140625 
L 1.265625 17.140625 
L 1.265625 25.203125 
L 33.9375 71.578125 
L 41.109375 71.578125 
L 41.109375 25.203125 
L 50.78125 25.203125 
L 50.78125 17.140625 
L 41.109375 17.140625 
L 41.109375 0 
z
M 32.328125 25.203125 
L 32.328125 57.46875 
L 9.90625 25.203125 
z
" id="ArialMT-52"/>
       <path d="M 4.15625 18.75 
L 13.375 19.53125 
Q 14.40625 12.796875 18.140625 9.390625 
Q 21.875 6 27.15625 6 
Q 33.5 6 37.890625 10.78125 
Q 42.28125 15.578125 42.28125 23.484375 
Q 42.28125 31 38.0625 35.34375 
Q 33.84375 39.703125 27 39.703125 
Q 22.75 39.703125 19.328125 37.765625 
Q 15.921875 35.84375 13.96875 32.765625 
L 5.71875 33.84375 
L 12.640625 70.609375 
L 48.25 70.609375 
L 48.25 62.203125 
L 19.671875 62.203125 
L 15.828125 42.96875 
Q 22.265625 47.46875 29.34375 47.46875 
Q 38.71875 47.46875 45.15625 40.96875 
Q 51.609375 34.46875 51.609375 24.265625 
Q 51.609375 14.546875 45.953125 7.46875 
Q 39.0625 -1.21875 27.15625 -1.21875 
Q 17.390625 -1.21875 11.203125 4.25 
Q 5.03125 9.71875 4.15625 18.75 
z
" id="ArialMT-53"/>
      </defs>
      <g style="fill:#262626;" transform="translate(575.830595 79.963312)scale(0.11 -0.11)">
       <use xlink:href="#ArialMT-52"/>
       <use x="55.615234" xlink:href="#ArialMT-53"/>
       <use x="111.230469" xlink:href="#ArialMT-176"/>
      </g>
     </g>
    </g>
    <g id="xtick_3">
     <g id="line2d_3">
      <path clip-path="url(#p8e7d203cd9)" d="M 441.395 219.871406 
L 441.395 34.489922 
" style="fill:none;stroke:#ffffff;stroke-linecap:round;"/>
     </g>
     <g id="text_3">
      <!-- 90° -->
      <defs>
       <path d="M 5.46875 16.546875 
L 13.921875 17.328125 
Q 14.984375 11.375 18.015625 8.6875 
Q 21.046875 6 25.78125 6 
Q 29.828125 6 32.875 7.859375 
Q 35.9375 9.71875 37.890625 12.8125 
Q 39.84375 15.921875 41.15625 21.1875 
Q 42.484375 26.46875 42.484375 31.9375 
Q 42.484375 32.515625 42.4375 33.6875 
Q 39.796875 29.5 35.234375 26.875 
Q 30.671875 24.265625 25.34375 24.265625 
Q 16.453125 24.265625 10.296875 30.703125 
Q 4.15625 37.15625 4.15625 47.703125 
Q 4.15625 58.59375 10.578125 65.234375 
Q 17 71.875 26.65625 71.875 
Q 33.640625 71.875 39.421875 68.109375 
Q 45.21875 64.359375 48.21875 57.390625 
Q 51.21875 50.4375 51.21875 37.25 
Q 51.21875 23.53125 48.234375 15.40625 
Q 45.265625 7.28125 39.375 3.03125 
Q 33.5 -1.21875 25.59375 -1.21875 
Q 17.1875 -1.21875 11.859375 3.4375 
Q 6.546875 8.109375 5.46875 16.546875 
z
M 41.453125 48.140625 
Q 41.453125 55.71875 37.421875 60.15625 
Q 33.40625 64.59375 27.734375 64.59375 
Q 21.875 64.59375 17.53125 59.8125 
Q 13.1875 55.03125 13.1875 47.40625 
Q 13.1875 40.578125 17.3125 36.296875 
Q 21.4375 32.03125 27.484375 32.03125 
Q 33.59375 32.03125 37.515625 36.296875 
Q 41.453125 40.578125 41.453125 48.140625 
z
" id="ArialMT-57"/>
      </defs>
      <g style="fill:#262626;" transform="translate(433.078828 20.833594)scale(0.11 -0.11)">
       <use xlink:href="#ArialMT-57"/>
       <use x="55.615234" xlink:href="#ArialMT-48"/>
       <use x="111.230469" xlink:href="#ArialMT-176"/>
      </g>
     </g>
    </g>
    <g id="xtick_4">
     <g id="line2d_4">
      <path clip-path="url(#p8e7d203cd9)" d="M 441.395 219.871406 
L 310.310495 88.786902 
" style="fill:none;stroke:#ffffff;stroke-linecap:round;"/>
     </g>
     <g id="text_4">
      <!-- 135° -->
      <defs>
       <path d="M 37.25 0 
L 28.46875 0 
L 28.46875 56 
Q 25.296875 52.984375 20.140625 49.953125 
Q 14.984375 46.921875 10.890625 45.40625 
L 10.890625 53.90625 
Q 18.265625 57.375 23.78125 62.296875 
Q 29.296875 67.234375 31.59375 71.875 
L 37.25 71.875 
z
" id="ArialMT-49"/>
       <path d="M 4.203125 18.890625 
L 12.984375 20.0625 
Q 14.5 12.59375 18.140625 9.296875 
Q 21.78125 6 27 6 
Q 33.203125 6 37.46875 10.296875 
Q 41.75 14.59375 41.75 20.953125 
Q 41.75 27 37.796875 30.921875 
Q 33.84375 34.859375 27.734375 34.859375 
Q 25.25 34.859375 21.53125 33.890625 
L 22.515625 41.609375 
Q 23.390625 41.5 23.921875 41.5 
Q 29.546875 41.5 34.03125 44.421875 
Q 38.53125 47.359375 38.53125 53.46875 
Q 38.53125 58.296875 35.25 61.46875 
Q 31.984375 64.65625 26.8125 64.65625 
Q 21.6875 64.65625 18.265625 61.421875 
Q 14.84375 58.203125 13.875 51.765625 
L 5.078125 53.328125 
Q 6.6875 62.15625 12.390625 67.015625 
Q 18.109375 71.875 26.609375 71.875 
Q 32.46875 71.875 37.390625 69.359375 
Q 42.328125 66.84375 44.9375 62.5 
Q 47.5625 58.15625 47.5625 53.265625 
Q 47.5625 48.640625 45.0625 44.828125 
Q 42.578125 41.015625 37.703125 38.765625 
Q 44.046875 37.3125 47.5625 32.6875 
Q 51.078125 28.078125 51.078125 21.140625 
Q 51.078125 11.765625 44.234375 5.25 
Q 37.40625 -1.265625 26.953125 -1.265625 
Q 17.53125 -1.265625 11.296875 4.34375 
Q 5.078125 9.96875 4.203125 18.890625 
z
" id="ArialMT-51"/>
      </defs>
      <g style="fill:#262626;" transform="translate(287.268546 79.963312)scale(0.11 -0.11)">
       <use xlink:href="#ArialMT-49"/>
       <use x="55.615234" xlink:href="#ArialMT-51"/>
       <use x="111.230469" xlink:href="#ArialMT-53"/>
       <use x="166.845703" xlink:href="#ArialMT-176"/>
      </g>
     </g>
    </g>
    <g id="xtick_5">
     <g id="line2d_5">
      <path clip-path="url(#p8e7d203cd9)" d="M 441.395 219.871406 
L 256.013516 219.871406 
" style="fill:none;stroke:#ffffff;stroke-linecap:round;"/>
     </g>
     <g id="text_5">
      <!-- 180° -->
      <defs>
       <path d="M 17.671875 38.8125 
Q 12.203125 40.828125 9.5625 44.53125 
Q 6.9375 48.25 6.9375 53.421875 
Q 6.9375 61.234375 12.546875 66.546875 
Q 18.171875 71.875 27.484375 71.875 
Q 36.859375 71.875 42.578125 66.421875 
Q 48.296875 60.984375 48.296875 53.171875 
Q 48.296875 48.1875 45.671875 44.5 
Q 43.0625 40.828125 37.75 38.8125 
Q 44.34375 36.671875 47.78125 31.875 
Q 51.21875 27.09375 51.21875 20.453125 
Q 51.21875 11.28125 44.71875 5.03125 
Q 38.234375 -1.21875 27.640625 -1.21875 
Q 17.046875 -1.21875 10.546875 5.046875 
Q 4.046875 11.328125 4.046875 20.703125 
Q 4.046875 27.6875 7.59375 32.390625 
Q 11.140625 37.109375 17.671875 38.8125 
z
M 15.921875 53.71875 
Q 15.921875 48.640625 19.1875 45.40625 
Q 22.46875 42.1875 27.6875 42.1875 
Q 32.765625 42.1875 36.015625 45.375 
Q 39.265625 48.578125 39.265625 53.21875 
Q 39.265625 58.0625 35.90625 61.359375 
Q 32.5625 64.65625 27.59375 64.65625 
Q 22.5625 64.65625 19.234375 61.421875 
Q 15.921875 58.203125 15.921875 53.71875 
z
M 13.09375 20.65625 
Q 13.09375 16.890625 14.875 13.375 
Q 16.65625 9.859375 20.171875 7.921875 
Q 23.6875 6 27.734375 6 
Q 34.03125 6 38.125 10.046875 
Q 42.234375 14.109375 42.234375 20.359375 
Q 42.234375 26.703125 38.015625 30.859375 
Q 33.796875 35.015625 27.4375 35.015625 
Q 21.234375 35.015625 17.15625 30.90625 
Q 13.09375 26.8125 13.09375 20.65625 
z
" id="ArialMT-56"/>
      </defs>
      <g style="fill:#262626;" transform="translate(228.138828 222.715078)scale(0.11 -0.11)">
       <use xlink:href="#ArialMT-49"/>
       <use x="55.615234" xlink:href="#ArialMT-56"/>
       <use x="111.230469" xlink:href="#ArialMT-48"/>
       <use x="166.845703" xlink:href="#ArialMT-176"/>
      </g>
     </g>
    </g>
    <g id="xtick_6">
     <g id="line2d_6">
      <path clip-path="url(#p8e7d203cd9)" d="M 441.395 219.871406 
L 310.310495 350.955911 
" style="fill:none;stroke:#ffffff;stroke-linecap:round;"/>
     </g>
     <g id="text_6">
      <!-- 225° -->
      <defs>
       <path d="M 50.34375 8.453125 
L 50.34375 0 
L 3.03125 0 
Q 2.9375 3.171875 4.046875 6.109375 
Q 5.859375 10.9375 9.828125 15.625 
Q 13.8125 20.3125 21.34375 26.46875 
Q 33.015625 36.03125 37.109375 41.625 
Q 41.21875 47.21875 41.21875 52.203125 
Q 41.21875 57.421875 37.46875 61 
Q 33.734375 64.59375 27.734375 64.59375 
Q 21.390625 64.59375 17.578125 60.78125 
Q 13.765625 56.984375 13.71875 50.25 
L 4.6875 51.171875 
Q 5.609375 61.28125 11.65625 66.578125 
Q 17.71875 71.875 27.9375 71.875 
Q 38.234375 71.875 44.234375 66.15625 
Q 50.25 60.453125 50.25 52 
Q 50.25 47.703125 48.484375 43.546875 
Q 46.734375 39.40625 42.65625 34.8125 
Q 38.578125 30.21875 29.109375 22.21875 
Q 21.1875 15.578125 18.9375 13.203125 
Q 16.703125 10.84375 15.234375 8.453125 
z
" id="ArialMT-50"/>
      </defs>
      <g style="fill:#262626;" transform="translate(287.268546 365.466845)scale(0.11 -0.11)">
       <use xlink:href="#ArialMT-50"/>
       <use x="55.615234" xlink:href="#ArialMT-50"/>
       <use x="111.230469" xlink:href="#ArialMT-53"/>
       <use x="166.845703" xlink:href="#ArialMT-176"/>
      </g>
     </g>
    </g>
    <g id="xtick_7">
     <g id="line2d_7">
      <path clip-path="url(#p8e7d203cd9)" d="M 441.395 219.871406 
L 441.395 405.252891 
" style="fill:none;stroke:#ffffff;stroke-linecap:round;"/>
     </g>
     <g id="text_7">
      <!-- 270° -->
      <defs>
       <path d="M 4.734375 62.203125 
L 4.734375 70.65625 
L 51.078125 70.65625 
L 51.078125 63.8125 
Q 44.234375 56.546875 37.515625 44.484375 
Q 30.8125 32.421875 27.15625 19.671875 
Q 24.515625 10.6875 23.78125 0 
L 14.75 0 
Q 14.890625 8.453125 18.0625 20.40625 
Q 21.234375 32.375 27.171875 43.484375 
Q 33.109375 54.59375 39.796875 62.203125 
z
" id="ArialMT-55"/>
      </defs>
      <g style="fill:#262626;" transform="translate(430.020312 424.596563)scale(0.11 -0.11)">
       <use xlink:href="#ArialMT-50"/>
       <use x="55.615234" xlink:href="#ArialMT-55"/>
       <use x="111.230469" xlink:href="#ArialMT-48"/>
       <use x="166.845703" xlink:href="#ArialMT-176"/>
      </g>
     </g>
    </g>
    <g id="xtick_8">
     <g id="line2d_8">
      <path clip-path="url(#p8e7d203cd9)" d="M 441.395 219.871406 
L 572.479505 350.955911 
" style="fill:none;stroke:#ffffff;stroke-linecap:round;"/>
     </g>
     <g id="text_8">
      <!-- 315° -->
      <g style="fill:#262626;" transform="translate(572.772079 365.466845)scale(0.11 -0.11)">
       <use xlink:href="#ArialMT-51"/>
       <use x="55.615234" xlink:href="#ArialMT-49"/>
       <use x="111.230469" xlink:href="#ArialMT-53"/>
       <use x="166.845703" xlink:href="#ArialMT-176"/>
      </g>
     </g>
    </g>
   </g>
   <g id="matplotlib.axis_2">
    <g id="ytick_1">
     <g id="line2d_9">
      <path clip-path="url(#p8e7d203cd9)" d="M 449.722339 219.871406 
L 449.595828 218.425379 
L 449.220139 217.023289 
L 448.606687 215.707737 
L 447.774111 214.518696 
L 446.74771 213.492295 
L 445.558669 212.659719 
L 444.243118 212.046268 
L 442.841027 211.670579 
L 441.395 211.544068 
L 439.948973 211.670579 
L 438.546882 212.046268 
L 437.231331 212.659719 
L 436.04229 213.492295 
L 435.015889 214.518696 
L 434.183313 215.707737 
L 433.569861 217.023289 
L 433.194172 218.425379 
L 433.067661 219.871406 
L 433.194172 221.317433 
L 433.569861 222.719524 
L 434.183313 224.035076 
L 435.015889 225.224116 
L 436.04229 226.250518 
L 437.231331 227.083093 
L 438.546882 227.696545 
L 439.948973 228.072234 
L 441.395 228.198745 
L 442.841027 228.072234 
L 444.243118 227.696545 
L 445.558669 227.083093 
L 446.74771 226.250518 
L 447.774111 225.224116 
L 448.606687 224.035076 
L 449.220139 222.719524 
L 449.595828 221.317433 
L 449.722339 219.871406 
L 449.722339 219.871406 
" style="fill:none;stroke:#ffffff;stroke-linecap:round;"/>
     </g>
     <g id="text_9">
      <!-- 0.0 -->
      <defs>
       <path d="M 9.078125 0 
L 9.078125 10.015625 
L 19.09375 10.015625 
L 19.09375 0 
z
" id="ArialMT-46"/>
      </defs>
      <g style="fill:#262626;" transform="translate(449.088458 214.498422)scale(0.11 -0.11)">
       <use xlink:href="#ArialMT-48"/>
       <use x="55.615234" xlink:href="#ArialMT-46"/>
       <use x="83.398438" xlink:href="#ArialMT-48"/>
      </g>
     </g>
    </g>
    <g id="ytick_2">
     <g id="line2d_10">
      <path clip-path="url(#p8e7d203cd9)" d="M 477.826958 219.871406 
L 477.738211 217.330041 
L 477.472404 214.801058 
L 477.030832 212.296776 
L 476.415645 209.829398 
L 475.629842 207.410943 
L 474.677249 205.053194 
L 473.562509 202.767638 
L 472.291052 200.56541 
L 470.869073 198.457239 
L 469.303499 196.453395 
L 467.601957 194.563642 
L 465.772738 192.797185 
L 463.824753 191.162632 
L 461.767492 189.667944 
L 459.610979 188.320405 
L 457.365719 187.12658 
L 455.042652 186.092283 
L 452.653094 185.222555 
L 450.208688 184.521633 
L 447.721343 183.992932 
L 445.203177 183.639027 
L 442.666457 183.461642 
L 440.123543 183.461642 
L 437.586823 183.639027 
L 435.068657 183.992932 
L 432.581312 184.521633 
L 430.136906 185.222555 
L 427.747348 186.092283 
L 425.424281 187.12658 
L 423.179021 188.320405 
L 421.022508 189.667944 
L 418.965247 191.162632 
L 417.017262 192.797185 
L 415.188043 194.563642 
L 413.486501 196.453395 
L 411.920927 198.457239 
L 410.498948 200.56541 
L 409.227491 202.767638 
L 408.112751 205.053194 
L 407.160158 207.410943 
L 406.374355 209.829398 
L 405.759168 212.296776 
L 405.317596 214.801058 
L 405.051789 217.330041 
L 404.963042 219.871406 
L 405.051789 222.412771 
L 405.317596 224.941755 
L 405.759168 227.446036 
L 406.374355 229.913415 
L 407.160158 232.33187 
L 408.112751 234.689618 
L 409.227491 236.975174 
L 410.498948 239.177402 
L 411.920927 241.285574 
L 413.486501 243.289417 
L 415.188043 245.179171 
L 417.017262 246.945627 
L 418.965247 248.580181 
L 421.022508 250.074868 
L 423.179021 251.422407 
L 425.424281 252.616233 
L 427.747348 253.650529 
L 430.136906 254.520257 
L 432.581312 255.221179 
L 435.068657 255.749881 
L 437.586823 256.103786 
L 440.123543 256.281171 
L 442.666457 256.281171 
L 445.203177 256.103786 
L 447.721343 255.749881 
L 450.208688 255.221179 
L 452.653094 254.520257 
L 455.042652 253.650529 
L 457.365719 252.616233 
L 459.610979 251.422407 
L 461.767492 250.074868 
L 463.824753 248.580181 
L 465.772738 246.945627 
L 467.601957 245.179171 
L 469.303499 243.289417 
L 470.869073 241.285574 
L 472.291052 239.177402 
L 473.562509 236.975174 
L 474.677249 234.689618 
L 475.629842 232.33187 
L 476.415645 229.913415 
L 477.030832 227.446036 
L 477.472404 224.941755 
L 477.738211 222.412771 
L 477.826958 219.871406 
L 477.826958 219.871406 
" style="fill:none;stroke:#ffffff;stroke-linecap:round;"/>
     </g>
     <g id="text_10">
      <!-- 0.5 -->
      <g style="fill:#262626;" transform="translate(475.05374 203.74325)scale(0.11 -0.11)">
       <use xlink:href="#ArialMT-48"/>
       <use x="55.615234" xlink:href="#ArialMT-46"/>
       <use x="83.398438" xlink:href="#ArialMT-53"/>
      </g>
     </g>
    </g>
    <g id="ytick_3">
     <g id="line2d_11">
      <path clip-path="url(#p8e7d203cd9)" d="M 505.931577 219.871406 
L 505.774369 215.369562 
L 505.303511 210.889651 
L 504.521298 206.453497 
L 503.431539 202.082715 
L 502.039545 197.798597 
L 500.352097 193.622016 
L 498.377415 189.573319 
L 496.125121 185.672231 
L 493.606187 181.937758 
L 490.832886 178.388094 
L 487.818728 175.040533 
L 484.578399 171.911383 
L 481.127684 169.01589 
L 477.483396 166.368159 
L 473.663288 163.981091 
L 469.685973 161.866315 
L 465.570827 160.034134 
L 461.337899 158.493474 
L 457.007811 157.251842 
L 452.601659 156.315285 
L 448.140909 155.688368 
L 443.647294 155.374143 
L 439.142706 155.374143 
L 434.649091 155.688368 
L 430.188341 156.315285 
L 425.782189 157.251842 
L 421.452101 158.493474 
L 417.219173 160.034134 
L 413.104027 161.866315 
L 409.126712 163.981091 
L 405.306604 166.368159 
L 401.662316 169.01589 
L 398.211601 171.911383 
L 394.971272 175.040533 
L 391.957114 178.388094 
L 389.183813 181.937758 
L 386.664879 185.672231 
L 384.412585 189.573319 
L 382.437903 193.622016 
L 380.750455 197.798597 
L 379.358461 202.082715 
L 378.268702 206.453497 
L 377.486489 210.889651 
L 377.015631 215.369562 
L 376.858423 219.871406 
L 377.015631 224.37325 
L 377.486489 228.853162 
L 378.268702 233.289315 
L 379.358461 237.660098 
L 380.750455 241.944215 
L 382.437903 246.120797 
L 384.412585 250.169494 
L 386.664879 254.070582 
L 389.183813 257.805054 
L 391.957114 261.354718 
L 394.971272 264.70228 
L 398.211601 267.831429 
L 401.662316 270.726923 
L 405.306604 273.374653 
L 409.126712 275.761721 
L 413.104027 277.876497 
L 417.219173 279.708678 
L 421.452101 281.249338 
L 425.782189 282.490971 
L 430.188341 283.427527 
L 434.649091 284.054445 
L 439.142706 284.368669 
L 443.647294 284.368669 
L 448.140909 284.054445 
L 452.601659 283.427527 
L 457.007811 282.490971 
L 461.337899 281.249338 
L 465.570827 279.708678 
L 469.685973 277.876497 
L 473.663288 275.761721 
L 477.483396 273.374653 
L 481.127684 270.726923 
L 484.578399 267.831429 
L 487.818728 264.70228 
L 490.832886 261.354718 
L 493.606187 257.805054 
L 496.125121 254.070582 
L 498.377415 250.169494 
L 500.352097 246.120797 
L 502.039545 241.944215 
L 503.431539 237.660098 
L 504.521298 233.289315 
L 505.303511 228.853162 
L 505.774369 224.37325 
L 505.931577 219.871406 
L 505.931577 219.871406 
" style="fill:none;stroke:#ffffff;stroke-linecap:round;"/>
     </g>
     <g id="text_11">
      <!-- 1.0 -->
      <g style="fill:#262626;" transform="translate(501.019022 192.988078)scale(0.11 -0.11)">
       <use xlink:href="#ArialMT-49"/>
       <use x="55.615234" xlink:href="#ArialMT-46"/>
       <use x="83.398438" xlink:href="#ArialMT-48"/>
      </g>
     </g>
    </g>
    <g id="ytick_4">
     <g id="line2d_12">
      <path clip-path="url(#p8e7d203cd9)" d="M 534.036196 219.871406 
L 533.979761 216.638275 
L 533.810527 213.409083 
L 533.528698 210.187764 
L 533.134618 206.978244 
L 532.628768 203.784431 
L 532.011764 200.610219 
L 531.284356 197.459473 
L 530.447433 194.336032 
L 529.502013 191.243702 
L 528.449248 188.186251 
L 527.290421 185.167403 
L 526.026944 182.190837 
L 524.660355 179.260179 
L 523.192321 176.378999 
L 521.624629 173.550808 
L 519.95919 170.779052 
L 518.198032 168.067107 
L 516.343302 165.418278 
L 514.397259 162.835791 
L 512.362273 160.322793 
L 510.240825 157.882347 
L 508.035499 155.517424 
L 505.748982 153.230907 
L 503.38406 151.025581 
L 500.943613 148.904133 
L 498.430615 146.869148 
L 495.848129 144.923104 
L 493.199299 143.068374 
L 490.487354 141.307216 
L 487.715598 139.641777 
L 484.887407 138.074085 
L 482.006227 136.606051 
L 479.075569 135.239463 
L 476.099003 133.975985 
L 473.080155 132.817158 
L 470.022704 131.764393 
L 466.930374 130.818973 
L 463.806934 129.98205 
L 460.656188 129.254643 
L 457.481975 128.637638 
L 454.288163 128.131788 
L 451.078642 127.737708 
L 447.857323 127.45588 
L 444.628131 127.286645 
L 441.395 127.23021 
L 438.161869 127.286645 
L 434.932677 127.45588 
L 431.711358 127.737708 
L 428.501837 128.131788 
L 425.308025 128.637638 
L 422.133812 129.254643 
L 418.983066 129.98205 
L 415.859626 130.818973 
L 412.767296 131.764393 
L 409.709845 132.817158 
L 406.690997 133.975985 
L 403.714431 135.239463 
L 400.783773 136.606051 
L 397.902593 138.074085 
L 395.074402 139.641777 
L 392.302646 141.307216 
L 389.590701 143.068374 
L 386.941871 144.923104 
L 384.359385 146.869148 
L 381.846387 148.904133 
L 379.40594 151.025581 
L 377.041018 153.230907 
L 374.754501 155.517424 
L 372.549175 157.882347 
L 370.427727 160.322793 
L 368.392741 162.835791 
L 366.446698 165.418278 
L 364.591968 168.067107 
L 362.83081 170.779052 
L 361.165371 173.550808 
L 359.597679 176.378999 
L 358.129645 179.260179 
L 356.763056 182.190837 
L 355.499579 185.167403 
L 354.340752 188.186251 
L 353.287987 191.243702 
L 352.342567 194.336032 
L 351.505644 197.459473 
L 350.778236 200.610219 
L 350.161232 203.784431 
L 349.655382 206.978244 
L 349.261302 210.187764 
L 348.979473 213.409083 
L 348.810239 216.638275 
L 348.753804 219.871406 
L 348.810239 223.104537 
L 348.979473 226.333729 
L 349.261302 229.555048 
L 349.655382 232.764569 
L 350.161232 235.958381 
L 350.778236 239.132594 
L 351.505644 242.28334 
L 352.342567 245.406781 
L 353.287987 248.49911 
L 354.340752 251.556561 
L 355.499579 254.575409 
L 356.763056 257.551975 
L 358.129645 260.482634 
L 359.597679 263.363813 
L 361.165371 266.192004 
L 362.83081 268.963761 
L 364.591968 271.675706 
L 366.446698 274.324535 
L 368.392741 276.907022 
L 370.427727 279.420019 
L 372.549175 281.860466 
L 374.754501 284.225388 
L 377.041018 286.511906 
L 379.40594 288.717232 
L 381.846387 290.83868 
L 384.359385 292.873665 
L 386.941871 294.819708 
L 389.590701 296.674438 
L 392.302646 298.435596 
L 395.074402 300.101035 
L 397.902593 301.668727 
L 400.783773 303.136762 
L 403.714431 304.50335 
L 406.690997 305.766827 
L 409.709845 306.925654 
L 412.767296 307.978419 
L 415.859626 308.923839 
L 418.983066 309.760763 
L 422.133812 310.48817 
L 425.308025 311.105174 
L 428.501837 311.611024 
L 431.711358 312.005104 
L 434.932677 312.286933 
L 438.161869 312.456168 
L 441.395 312.512602 
L 444.628131 312.456168 
L 447.857323 312.286933 
L 451.078642 312.005104 
L 454.288163 311.611024 
L 457.481975 311.105174 
L 460.656188 310.48817 
L 463.806934 309.760763 
L 466.930374 308.923839 
L 470.022704 307.978419 
L 473.080155 306.925654 
L 476.099003 305.766827 
L 479.075569 304.50335 
L 482.006227 303.136762 
L 484.887407 301.668727 
L 487.715598 300.101035 
L 490.487354 298.435596 
L 493.199299 296.674438 
L 495.848129 294.819708 
L 498.430615 292.873665 
L 500.943613 290.83868 
L 503.38406 288.717232 
L 505.748982 286.511906 
L 508.035499 284.225388 
L 510.240825 281.860466 
L 512.362273 279.420019 
L 514.397259 276.907022 
L 516.343302 274.324535 
L 518.198032 271.675706 
L 519.95919 268.963761 
L 521.624629 266.192004 
L 523.192321 263.363813 
L 524.660355 260.482634 
L 526.026944 257.551975 
L 527.290421 254.575409 
L 528.449248 251.556561 
L 529.502013 248.49911 
L 530.447433 245.406781 
L 531.284356 242.28334 
L 532.011764 239.132594 
L 532.628768 235.958381 
L 533.134618 232.764569 
L 533.528698 229.555048 
L 533.810527 226.333729 
L 533.979761 223.104537 
L 534.036196 219.871406 
L 534.036196 219.871406 
" style="fill:none;stroke:#ffffff;stroke-linecap:round;"/>
     </g>
     <g id="text_12">
      <!-- 1.5 -->
      <g style="fill:#262626;" transform="translate(526.984305 182.232905)scale(0.11 -0.11)">
       <use xlink:href="#ArialMT-49"/>
       <use x="55.615234" xlink:href="#ArialMT-46"/>
       <use x="83.398438" xlink:href="#ArialMT-53"/>
      </g>
     </g>
    </g>
    <g id="ytick_5">
     <g id="line2d_13">
      <path clip-path="url(#p8e7d203cd9)" d="M 562.140815 219.871406 
L 562.06726 215.657438 
L 561.846684 211.448604 
L 561.479357 207.250032 
L 560.965725 203.066837 
L 560.306415 198.904116 
L 559.502229 194.76694 
L 558.554148 190.66035 
L 557.463327 186.589349 
L 556.231094 182.558897 
L 554.858951 178.573905 
L 553.34857 174.639228 
L 551.701791 170.759659 
L 549.92062 166.939925 
L 548.007227 163.18468 
L 545.963943 159.498499 
L 543.793259 155.885873 
L 541.497817 152.351203 
L 539.080416 148.898797 
L 536.544001 145.53286 
L 533.891661 142.257492 
L 531.126628 139.076686 
L 528.25227 135.994315 
L 525.272091 133.014136 
L 522.18972 130.139779 
L 519.008914 127.374746 
L 515.733547 124.722406 
L 512.367609 122.18599 
L 508.915203 119.768589 
L 505.380533 117.473148 
L 501.767908 115.302463 
L 498.081726 113.25918 
L 494.326481 111.345787 
L 490.506747 109.564615 
L 486.627178 107.917836 
L 482.692501 106.407455 
L 478.707509 105.035312 
L 474.677057 103.803079 
L 470.606056 102.712258 
L 466.499467 101.764177 
L 462.362291 100.959991 
L 458.19957 100.300681 
L 454.016374 99.787049 
L 449.817802 99.419722 
L 445.608968 99.199146 
L 441.395 99.125591 
L 437.181032 99.199146 
L 432.972198 99.419722 
L 428.773626 99.787049 
L 424.59043 100.300681 
L 420.427709 100.959991 
L 416.290533 101.764177 
L 412.183944 102.712258 
L 408.112943 103.803079 
L 404.082491 105.035312 
L 400.097499 106.407455 
L 396.162822 107.917836 
L 392.283253 109.564615 
L 388.463519 111.345787 
L 384.708274 113.25918 
L 381.022092 115.302463 
L 377.409467 117.473148 
L 373.874797 119.768589 
L 370.422391 122.18599 
L 367.056453 124.722406 
L 363.781086 127.374746 
L 360.60028 130.139779 
L 357.517909 133.014136 
L 354.53773 135.994315 
L 351.663372 139.076686 
L 348.898339 142.257492 
L 346.245999 145.53286 
L 343.709584 148.898797 
L 341.292183 152.351203 
L 338.996741 155.885873 
L 336.826057 159.498499 
L 334.782773 163.18468 
L 332.86938 166.939925 
L 331.088209 170.759659 
L 329.44143 174.639228 
L 327.931049 178.573905 
L 326.558906 182.558897 
L 325.326673 186.589349 
L 324.235852 190.66035 
L 323.287771 194.76694 
L 322.483585 198.904116 
L 321.824275 203.066837 
L 321.310643 207.250032 
L 320.943316 211.448604 
L 320.72274 215.657438 
L 320.649185 219.871406 
L 320.72274 224.085374 
L 320.943316 228.294209 
L 321.310643 232.492781 
L 321.824275 236.675976 
L 322.483585 240.838697 
L 323.287771 244.975873 
L 324.235852 249.082463 
L 325.326673 253.153463 
L 326.558906 257.183915 
L 327.931049 261.168907 
L 329.44143 265.103585 
L 331.088209 268.983154 
L 332.86938 272.802888 
L 334.782773 276.558133 
L 336.826057 280.244314 
L 338.996741 283.85694 
L 341.292183 287.391609 
L 343.709584 290.844016 
L 346.245999 294.209953 
L 348.898339 297.48532 
L 351.663372 300.666127 
L 354.53773 303.748497 
L 357.517909 306.728677 
L 360.60028 309.603034 
L 363.781086 312.368067 
L 367.056453 315.020407 
L 370.422391 317.556823 
L 373.874797 319.974224 
L 377.409467 322.269665 
L 381.022092 324.440349 
L 384.708274 326.483633 
L 388.463519 328.397026 
L 392.283253 330.178197 
L 396.162822 331.824976 
L 400.097499 333.335358 
L 404.082491 334.7075 
L 408.112943 335.939733 
L 412.183944 337.030555 
L 416.290533 337.978636 
L 420.427709 338.782821 
L 424.59043 339.442131 
L 428.773626 339.955763 
L 432.972198 340.323091 
L 437.181032 340.543666 
L 441.395 340.617221 
L 445.608968 340.543666 
L 449.817802 340.323091 
L 454.016374 339.955763 
L 458.19957 339.442131 
L 462.362291 338.782821 
L 466.499467 337.978636 
L 470.606056 337.030555 
L 474.677057 335.939733 
L 478.707509 334.7075 
L 482.692501 333.335358 
L 486.627178 331.824976 
L 490.506747 330.178197 
L 494.326481 328.397026 
L 498.081726 326.483633 
L 501.767908 324.440349 
L 505.380533 322.269665 
L 508.915203 319.974224 
L 512.367609 317.556823 
L 515.733547 315.020407 
L 519.008914 312.368067 
L 522.18972 309.603034 
L 525.272091 306.728677 
L 528.25227 303.748497 
L 531.126628 300.666127 
L 533.891661 297.48532 
L 536.544001 294.209953 
L 539.080416 290.844016 
L 541.497817 287.391609 
L 543.793259 283.85694 
L 545.963943 280.244314 
L 548.007227 276.558133 
L 549.92062 272.802888 
L 551.701791 268.983154 
L 553.34857 265.103585 
L 554.858951 261.168907 
L 556.231094 257.183915 
L 557.463327 253.153463 
L 558.554148 249.082463 
L 559.502229 244.975873 
L 560.306415 240.838697 
L 560.965725 236.675976 
L 561.479357 232.492781 
L 561.846684 228.294209 
L 562.06726 224.085374 
L 562.140815 219.871406 
L 562.140815 219.871406 
" style="fill:none;stroke:#ffffff;stroke-linecap:round;"/>
     </g>
     <g id="text_13">
      <!-- 2.0 -->
      <g style="fill:#262626;" transform="translate(552.949587 171.477733)scale(0.11 -0.11)">
       <use xlink:href="#ArialMT-50"/>
       <use x="55.615234" xlink:href="#ArialMT-46"/>
       <use x="83.398438" xlink:href="#ArialMT-48"/>
      </g>
     </g>
    </g>
    <g id="ytick_6">
     <g id="line2d_14">
      <path clip-path="url(#p8e7d203cd9)" d="M 590.245434 219.871406 
L 590.154758 214.676601 
L 589.882842 209.488125 
L 589.430016 204.312299 
L 588.796832 199.15543 
L 587.984062 194.0238 
L 586.992695 188.923661 
L 585.82394 183.861227 
L 584.479221 178.842666 
L 582.960175 173.874092 
L 581.268655 168.961559 
L 579.406719 164.111052 
L 577.376638 159.32848 
L 575.180884 154.619671 
L 572.822133 149.99036 
L 570.303257 145.446189 
L 567.627327 140.992694 
L 564.797603 136.6353 
L 561.817531 132.379316 
L 558.690743 128.229928 
L 555.421048 124.192191 
L 552.01243 120.271025 
L 548.469042 116.471206 
L 544.7952 112.797365 
L 540.995381 109.253976 
L 537.074215 105.845358 
L 533.036478 102.575663 
L 528.88709 99.448875 
L 524.631106 96.468804 
L 520.273713 93.639079 
L 515.820217 90.963149 
L 511.276046 88.444274 
L 506.646736 86.085522 
L 501.937926 83.889768 
L 497.155354 81.859687 
L 492.304847 79.997752 
L 487.392314 78.306231 
L 482.42374 76.787185 
L 477.405179 75.442466 
L 472.342745 74.273711 
L 467.242607 73.282345 
L 462.110977 72.469574 
L 456.954107 71.83639 
L 451.778281 71.383564 
L 446.589805 71.111648 
L 441.395 71.020972 
L 436.200195 71.111648 
L 431.011719 71.383564 
L 425.835893 71.83639 
L 420.679023 72.469574 
L 415.547393 73.282345 
L 410.447255 74.273711 
L 405.384821 75.442466 
L 400.36626 76.787185 
L 395.397686 78.306231 
L 390.485153 79.997752 
L 385.634646 81.859687 
L 380.852074 83.889768 
L 376.143264 86.085522 
L 371.513954 88.444274 
L 366.969783 90.963149 
L 362.516287 93.639079 
L 358.158894 96.468804 
L 353.90291 99.448875 
L 349.753522 102.575663 
L 345.715785 105.845358 
L 341.794619 109.253976 
L 337.9948 112.797365 
L 334.320958 116.471206 
L 330.77757 120.271025 
L 327.368952 124.192191 
L 324.099257 128.229928 
L 320.972469 132.379316 
L 317.992397 136.6353 
L 315.162673 140.992694 
L 312.486743 145.446189 
L 309.967867 149.99036 
L 307.609116 154.619671 
L 305.413362 159.32848 
L 303.383281 164.111052 
L 301.521345 168.961559 
L 299.829825 173.874092 
L 298.310779 178.842666 
L 296.96606 183.861227 
L 295.797305 188.923661 
L 294.805938 194.0238 
L 293.993168 199.15543 
L 293.359984 204.312299 
L 292.907158 209.488125 
L 292.635242 214.676601 
L 292.544566 219.871406 
L 292.635242 225.066211 
L 292.907158 230.254688 
L 293.359984 235.430513 
L 293.993168 240.587383 
L 294.805938 245.719013 
L 295.797305 250.819152 
L 296.96606 255.881585 
L 298.310779 260.900146 
L 299.829825 265.86872 
L 301.521345 270.781253 
L 303.383281 275.63176 
L 305.413362 280.414332 
L 307.609116 285.123142 
L 309.967867 289.752452 
L 312.486743 294.296623 
L 315.162673 298.750119 
L 317.992397 303.107513 
L 320.972469 307.363496 
L 324.099257 311.512884 
L 327.368952 315.550621 
L 330.77757 319.471788 
L 334.320958 323.271606 
L 337.9948 326.945448 
L 341.794619 330.488836 
L 345.715785 333.897454 
L 349.753522 337.167149 
L 353.90291 340.293937 
L 358.158894 343.274009 
L 362.516287 346.103734 
L 366.969783 348.779664 
L 371.513954 351.298539 
L 376.143264 353.65729 
L 380.852074 355.853044 
L 385.634646 357.883126 
L 390.485153 359.745061 
L 395.397686 361.436582 
L 400.36626 362.955627 
L 405.384821 364.300346 
L 410.447255 365.469101 
L 415.547393 366.460468 
L 420.679023 367.273238 
L 425.835893 367.906422 
L 431.011719 368.359248 
L 436.200195 368.631165 
L 441.395 368.72184 
L 446.589805 368.631165 
L 451.778281 368.359248 
L 456.954107 367.906422 
L 462.110977 367.273238 
L 467.242607 366.460468 
L 472.342745 365.469101 
L 477.405179 364.300346 
L 482.42374 362.955627 
L 487.392314 361.436582 
L 492.304847 359.745061 
L 497.155354 357.883126 
L 501.937926 355.853044 
L 506.646736 353.65729 
L 511.276046 351.298539 
L 515.820217 348.779664 
L 520.273713 346.103734 
L 524.631106 343.274009 
L 528.88709 340.293937 
L 533.036478 337.167149 
L 537.074215 333.897454 
L 540.995381 330.488836 
L 544.7952 326.945448 
L 548.469042 323.271606 
L 552.01243 319.471788 
L 555.421048 315.550621 
L 558.690743 311.512884 
L 561.817531 307.363496 
L 564.797603 303.107513 
L 567.627327 298.750119 
L 570.303257 294.296623 
L 572.822133 289.752452 
L 575.180884 285.123142 
L 577.376638 280.414332 
L 579.406719 275.63176 
L 581.268655 270.781253 
L 582.960175 265.86872 
L 584.479221 260.900146 
L 585.82394 255.881585 
L 586.992695 250.819152 
L 587.984062 245.719013 
L 588.796832 240.587383 
L 589.430016 235.430513 
L 589.882842 230.254688 
L 590.154758 225.066211 
L 590.245434 219.871406 
L 590.245434 219.871406 
" style="fill:none;stroke:#ffffff;stroke-linecap:round;"/>
     </g>
     <g id="text_14">
      <!-- 2.5 -->
      <g style="fill:#262626;" transform="translate(578.91487 160.722561)scale(0.11 -0.11)">
       <use xlink:href="#ArialMT-50"/>
       <use x="55.615234" xlink:href="#ArialMT-46"/>
       <use x="83.398438" xlink:href="#ArialMT-53"/>
      </g>
     </g>
    </g>
    <g id="ytick_7">
     <g id="line2d_15">
      <path clip-path="url(#p8e7d203cd9)" d="M 618.350053 219.871406 
L 618.242257 213.695764 
L 617.919 207.527646 
L 617.380675 201.374566 
L 616.627939 195.244023 
L 615.661708 189.143484 
L 614.483161 183.080382 
L 613.093732 177.062104 
L 611.495115 171.095983 
L 609.689257 165.189288 
L 607.678358 159.349214 
L 605.464868 153.582877 
L 603.051485 147.897302 
L 600.441148 142.299417 
L 597.637038 136.796041 
L 594.642571 131.39388 
L 591.461396 126.099515 
L 588.097388 120.919396 
L 584.554645 115.859836 
L 580.837485 110.926997 
L 576.950435 106.126891 
L 572.898232 101.465364 
L 568.685813 96.948097 
L 564.318309 92.580594 
L 559.801042 88.368174 
L 555.139516 84.315971 
L 550.339409 80.428921 
L 545.406571 76.711761 
L 540.34701 73.169018 
L 535.166892 69.80501 
L 529.872527 66.623835 
L 524.470365 63.629368 
L 518.96699 60.825258 
L 513.369104 58.214921 
L 507.68353 55.801538 
L 501.917193 53.588048 
L 496.077119 51.57715 
L 490.170423 49.771292 
L 484.204302 48.172674 
L 478.186024 46.783245 
L 472.122923 45.604698 
L 466.022383 44.638467 
L 459.89184 43.885731 
L 453.738761 43.347407 
L 447.570642 43.024149 
L 441.395 42.916353 
L 435.219358 43.024149 
L 429.051239 43.347407 
L 422.89816 43.885731 
L 416.767617 44.638467 
L 410.667077 45.604698 
L 404.603976 46.783245 
L 398.585698 48.172674 
L 392.619577 49.771292 
L 386.712881 51.57715 
L 380.872807 53.588048 
L 375.10647 55.801538 
L 369.420896 58.214921 
L 363.82301 60.825258 
L 358.319635 63.629368 
L 352.917473 66.623835 
L 347.623108 69.80501 
L 342.44299 73.169018 
L 337.383429 76.711761 
L 332.450591 80.428921 
L 327.650484 84.315971 
L 322.988958 88.368174 
L 318.471691 92.580594 
L 314.104187 96.948097 
L 309.891768 101.465364 
L 305.839565 106.126891 
L 301.952515 110.926997 
L 298.235355 115.859836 
L 294.692612 120.919396 
L 291.328604 126.099515 
L 288.147429 131.39388 
L 285.152962 136.796041 
L 282.348852 142.299417 
L 279.738515 147.897302 
L 277.325132 153.582877 
L 275.111642 159.349214 
L 273.100743 165.189288 
L 271.294885 171.095983 
L 269.696268 177.062104 
L 268.306839 183.080382 
L 267.128292 189.143484 
L 266.162061 195.244023 
L 265.409325 201.374566 
L 264.871 207.527646 
L 264.547743 213.695764 
L 264.439947 219.871406 
L 264.547743 226.047049 
L 264.871 232.215167 
L 265.409325 238.368246 
L 266.162061 244.49879 
L 267.128292 250.599329 
L 268.306839 256.662431 
L 269.696268 262.680708 
L 271.294885 268.646829 
L 273.100743 274.553525 
L 275.111642 280.393599 
L 277.325132 286.159936 
L 279.738515 291.845511 
L 282.348852 297.443396 
L 285.152962 302.946772 
L 288.147429 308.348933 
L 291.328604 313.643298 
L 294.692612 318.823416 
L 298.235355 323.882977 
L 301.952515 328.815815 
L 305.839565 333.615922 
L 309.891768 338.277448 
L 314.104187 342.794715 
L 318.471691 347.162219 
L 322.988958 351.374638 
L 327.650484 355.426841 
L 332.450591 359.313891 
L 337.383429 363.031052 
L 342.44299 366.573794 
L 347.623108 369.937802 
L 352.917473 373.118978 
L 358.319635 376.113445 
L 363.82301 378.917555 
L 369.420896 381.527891 
L 375.10647 383.941275 
L 380.872807 386.154764 
L 386.712881 388.165663 
L 392.619577 389.971521 
L 398.585698 391.570138 
L 404.603976 392.959567 
L 410.667077 394.138115 
L 416.767617 395.104345 
L 422.89816 395.857081 
L 429.051239 396.395406 
L 435.219358 396.718663 
L 441.395 396.82646 
L 447.570642 396.718663 
L 453.738761 396.395406 
L 459.89184 395.857081 
L 466.022383 395.104345 
L 472.122923 394.138115 
L 478.186024 392.959567 
L 484.204302 391.570138 
L 490.170423 389.971521 
L 496.077119 388.165663 
L 501.917193 386.154764 
L 507.68353 383.941275 
L 513.369104 381.527891 
L 518.96699 378.917555 
L 524.470365 376.113445 
L 529.872527 373.118978 
L 535.166892 369.937802 
L 540.34701 366.573794 
L 545.406571 363.031052 
L 550.339409 359.313891 
L 555.139516 355.426841 
L 559.801042 351.374638 
L 564.318309 347.162219 
L 568.685813 342.794715 
L 572.898232 338.277448 
L 576.950435 333.615922 
L 580.837485 328.815815 
L 584.554645 323.882977 
L 588.097388 318.823416 
L 591.461396 313.643298 
L 594.642571 308.348933 
L 597.637038 302.946772 
L 600.441148 297.443396 
L 603.051485 291.845511 
L 605.464868 286.159936 
L 607.678358 280.393599 
L 609.689257 274.553525 
L 611.495115 268.646829 
L 613.093732 262.680708 
L 614.483161 256.662431 
L 615.661708 250.599329 
L 616.627939 244.49879 
L 617.380675 238.368246 
L 617.919 232.215167 
L 618.242257 226.047049 
L 618.350053 219.871406 
L 618.350053 219.871406 
" style="fill:none;stroke:#ffffff;stroke-linecap:round;"/>
     </g>
     <g id="text_15">
      <!-- 3.0 -->
      <g style="fill:#262626;" transform="translate(604.880152 149.967389)scale(0.11 -0.11)">
       <use xlink:href="#ArialMT-51"/>
       <use x="55.615234" xlink:href="#ArialMT-46"/>
       <use x="83.398438" xlink:href="#ArialMT-48"/>
      </g>
     </g>
    </g>
   </g>
   <g id="line2d_16">
    <defs>
     <path d="M 0 3 
C 0.795609 3 1.55874 2.683901 2.12132 2.12132 
C 2.683901 1.55874 3 0.795609 3 0 
C 3 -0.795609 2.683901 -1.55874 2.12132 -2.12132 
C 1.55874 -2.683901 0.795609 -3 0 -3 
C -0.795609 -3 -1.55874 -2.683901 -2.12132 -2.12132 
C -2.683901 -1.55874 -3 -0.795609 -3 0 
C -3 0.795609 -2.683901 1.55874 -2.12132 2.12132 
C -1.55874 2.683901 -0.795609 3 0 3 
z
" id="m60172481dd" style="stroke:#4c72b0;"/>
    </defs>
    <g clip-path="url(#p8e7d203cd9)">
     <use style="fill:#4c72b0;stroke:#4c72b0;" x="441.395" xlink:href="#m60172481dd" y="42.916353"/>
     <use style="fill:#4c72b0;stroke:#4c72b0;" x="557.331544" xlink:href="#m60172481dd" y="253.609658"/>
    </g>
   </g>
   <g id="line2d_17">
    <path clip-path="url(#p8e7d203cd9)" d="M 501.802069 219.871406 
L 500.643932 217.634476 
L 499.302534 215.492593 
L 497.796243 213.458771 
L 495.857242 211.236656 
L 493.754956 209.188642 
L 491.524831 207.32239 
L 488.865955 205.415193 
L 486.140915 203.744399 
L 483.060279 202.131397 
L 479.697799 200.635018 
L 475.854707 199.173299 
L 465.732172 195.495937 
L 463.565831 194.358681 
L 461.791951 193.181127 
L 459.980941 191.709405 
L 457.587746 189.440371 
L 454.00387 186.058338 
L 452.089382 184.554292 
L 450.228141 183.369624 
L 448.468275 182.511218 
L 446.858539 181.948623 
L 445.199554 181.590256 
L 443.511155 181.457697 
L 441.816626 181.566222 
L 440.141533 181.924076 
L 438.512447 182.532092 
L 436.95563 183.383674 
L 435.495773 184.465138 
L 434.15484 185.756384 
L 432.951101 187.231858 
L 431.898393 188.86173 
L 430.891461 190.871372 
L 430.098474 192.988566 
L 429.516131 195.162099 
L 429.098758 197.614176 
L 428.908299 200.013791 
L 428.922168 202.5556 
L 429.15102 205.139022 
L 429.61448 207.847588 
L 430.31878 210.636554 
L 431.447903 214.107574 
L 432.40683 217.226658 
L 432.76399 219.246043 
L 433.266001 222.097585 
L 433.812781 223.769344 
L 434.77418 225.904839 
L 436.778724 230.301463 
L 438.623511 234.262327 
L 440.17841 237.036725 
L 441.859621 239.567159 
L 443.731486 241.967889 
L 445.668588 244.108126 
L 447.741693 246.098274 
L 450.132161 248.084048 
L 452.564049 249.823323 
L 455.262441 251.471769 
L 457.87888 252.822594 
L 460.688921 254.029667 
L 463.675484 255.058047 
L 466.415489 255.784348 
L 469.253742 256.325757 
L 472.167577 256.662062 
L 475.131174 256.775258 
L 478.115904 256.650095 
L 481.090759 256.274584 
L 483.60791 255.74708 
L 486.072248 255.026658 
L 488.461973 254.112814 
L 490.755259 253.007463 
L 492.930592 251.714991 
L 494.96713 250.242248 
L 496.845045 248.598495 
L 498.54587 246.795303 
L 500.052821 244.846405 
L 501.351101 242.767495 
L 502.428169 240.575998 
L 503.273974 238.290788 
L 503.881148 235.93188 
L 504.245151 233.520099 
L 504.364365 231.076722 
L 504.240137 228.623114 
L 503.876768 226.180357 
L 503.281451 223.768879 
L 502.464151 221.408102 
L 501.802069 219.871406 
L 501.802069 219.871406 
" style="fill:none;stroke:#dd8452;stroke-linecap:round;stroke-width:1.5;"/>
   </g>
   <g id="line2d_18">
    <defs>
     <path d="M -3 3 
L 3 -3 
M -3 -3 
L 3 3 
" id="ma6753632c8" style="stroke:#55a868;"/>
    </defs>
    <g clip-path="url(#p8e7d203cd9)">
     <use style="fill:#55a868;stroke:#55a868;" x="378.645129" xlink:href="#ma6753632c8" y="234.951971"/>
    </g>
   </g>
   <g id="patch_3">
    <path d="M 626.776484 219.871406 
C 626.776484 195.527333 621.981233 171.419975 612.665159 148.928984 
C 603.349086 126.437992 589.693364 106.000761 572.479505 88.786902 
C 555.265645 71.573042 534.828414 57.917321 512.337423 48.601247 
C 489.846432 39.285174 465.739073 34.489922 441.395 34.489922 
C 417.050927 34.489922 392.943568 39.285174 370.452577 48.601247 
C 347.961586 57.917321 327.524355 71.573042 310.310495 88.786902 
C 293.096636 106.000761 279.440914 126.437992 270.124841 148.928984 
C 260.808767 171.419975 256.013516 195.527333 256.013516 219.871406 
C 256.013516 244.21548 260.808767 268.322838 270.124841 290.813829 
C 279.440914 313.30482 293.096636 333.742052 310.310495 350.955911 
C 327.524355 368.16977 347.961586 381.825492 370.452577 391.141565 
C 392.943568 400.457639 417.050927 405.252891 441.395 405.252891 
C 465.739073 405.252891 489.846432 400.457639 512.337423 391.141565 
C 534.828414 381.825492 555.265645 368.16977 572.479505 350.955911 
C 589.693364 333.742052 603.349086 313.30482 612.665159 290.813829 
C 621.981233 268.322838 626.776484 244.21548 626.776484 219.871406 
" style="fill:none;stroke:#ffffff;stroke-linecap:square;stroke-linejoin:miter;stroke-width:1.25;"/>
   </g>
  </g>
  <g id="axes_2">
   <g id="patch_4">
    <path d="M 37.75 816.505781 
L 845.04 816.505781 
L 845.04 445.742812 
L 37.75 445.742812 
z
" style="fill:#eaeaf2;"/>
   </g>
   <g id="matplotlib.axis_3">
    <g id="xtick_9">
     <g id="line2d_19">
      <path clip-path="url(#pca41bac381)" d="M 74.445 816.505781 
L 74.445 445.742812 
" style="fill:none;stroke:#ffffff;stroke-linecap:round;"/>
     </g>
     <g id="text_16">
      <!-- 0 -->
      <g style="fill:#262626;" transform="translate(71.386484 833.879375)scale(0.11 -0.11)">
       <use xlink:href="#ArialMT-48"/>
      </g>
     </g>
    </g>
    <g id="xtick_10">
     <g id="line2d_20">
      <path clip-path="url(#pca41bac381)" d="M 191.248813 816.505781 
L 191.248813 445.742812 
" style="fill:none;stroke:#ffffff;stroke-linecap:round;"/>
     </g>
     <g id="text_17">
      <!-- 1 -->
      <g style="fill:#262626;" transform="translate(188.190297 833.879375)scale(0.11 -0.11)">
       <use xlink:href="#ArialMT-49"/>
      </g>
     </g>
    </g>
    <g id="xtick_11">
     <g id="line2d_21">
      <path clip-path="url(#pca41bac381)" d="M 308.052625 816.505781 
L 308.052625 445.742812 
" style="fill:none;stroke:#ffffff;stroke-linecap:round;"/>
     </g>
     <g id="text_18">
      <!-- 2 -->
      <g style="fill:#262626;" transform="translate(304.99411 833.879375)scale(0.11 -0.11)">
       <use xlink:href="#ArialMT-50"/>
      </g>
     </g>
    </g>
    <g id="xtick_12">
     <g id="line2d_22">
      <path clip-path="url(#pca41bac381)" d="M 424.856438 816.505781 
L 424.856438 445.742812 
" style="fill:none;stroke:#ffffff;stroke-linecap:round;"/>
     </g>
     <g id="text_19">
      <!-- 3 -->
      <g style="fill:#262626;" transform="translate(421.797923 833.879375)scale(0.11 -0.11)">
       <use xlink:href="#ArialMT-51"/>
      </g>
     </g>
    </g>
    <g id="xtick_13">
     <g id="line2d_23">
      <path clip-path="url(#pca41bac381)" d="M 541.660251 816.505781 
L 541.660251 445.742812 
" style="fill:none;stroke:#ffffff;stroke-linecap:round;"/>
     </g>
     <g id="text_20">
      <!-- 4 -->
      <g style="fill:#262626;" transform="translate(538.601735 833.879375)scale(0.11 -0.11)">
       <use xlink:href="#ArialMT-52"/>
      </g>
     </g>
    </g>
    <g id="xtick_14">
     <g id="line2d_24">
      <path clip-path="url(#pca41bac381)" d="M 658.464064 816.505781 
L 658.464064 445.742812 
" style="fill:none;stroke:#ffffff;stroke-linecap:round;"/>
     </g>
     <g id="text_21">
      <!-- 5 -->
      <g style="fill:#262626;" transform="translate(655.405548 833.879375)scale(0.11 -0.11)">
       <use xlink:href="#ArialMT-53"/>
      </g>
     </g>
    </g>
    <g id="xtick_15">
     <g id="line2d_25">
      <path clip-path="url(#pca41bac381)" d="M 775.267876 816.505781 
L 775.267876 445.742812 
" style="fill:none;stroke:#ffffff;stroke-linecap:round;"/>
     </g>
     <g id="text_22">
      <!-- 6 -->
      <defs>
       <path d="M 49.75 54.046875 
L 41.015625 53.375 
Q 39.84375 58.546875 37.703125 60.890625 
Q 34.125 64.65625 28.90625 64.65625 
Q 24.703125 64.65625 21.53125 62.3125 
Q 17.390625 59.28125 14.984375 53.46875 
Q 12.59375 47.65625 12.5 36.921875 
Q 15.671875 41.75 20.265625 44.09375 
Q 24.859375 46.4375 29.890625 46.4375 
Q 38.671875 46.4375 44.84375 39.96875 
Q 51.03125 33.5 51.03125 23.25 
Q 51.03125 16.5 48.125 10.71875 
Q 45.21875 4.9375 40.140625 1.859375 
Q 35.0625 -1.21875 28.609375 -1.21875 
Q 17.625 -1.21875 10.6875 6.859375 
Q 3.765625 14.9375 3.765625 33.5 
Q 3.765625 54.25 11.421875 63.671875 
Q 18.109375 71.875 29.4375 71.875 
Q 37.890625 71.875 43.28125 67.140625 
Q 48.6875 62.40625 49.75 54.046875 
z
M 13.875 23.1875 
Q 13.875 18.65625 15.796875 14.5 
Q 17.71875 10.359375 21.1875 8.171875 
Q 24.65625 6 28.46875 6 
Q 34.03125 6 38.03125 10.484375 
Q 42.046875 14.984375 42.046875 22.703125 
Q 42.046875 30.125 38.078125 34.390625 
Q 34.125 38.671875 28.125 38.671875 
Q 22.171875 38.671875 18.015625 34.390625 
Q 13.875 30.125 13.875 23.1875 
z
" id="ArialMT-54"/>
      </defs>
      <g style="fill:#262626;" transform="translate(772.209361 833.879375)scale(0.11 -0.11)">
       <use xlink:href="#ArialMT-54"/>
      </g>
     </g>
    </g>
    <g id="text_23">
     <!-- $\theta$ -->
     <defs>
      <path d="M 45.515625 34.671875 
L 14.453125 34.671875 
Q 12.359375 20.0625 14.5 13.875 
Q 17.1875 6.25 24.46875 6.25 
Q 31.78125 6.25 37.359375 13.921875 
Q 42.234375 20.65625 45.515625 34.671875 
z
M 47.015625 42.96875 
Q 48.34375 56.84375 46.625 61.71875 
Q 43.953125 69.4375 36.765625 69.4375 
Q 29.296875 69.4375 23.828125 61.8125 
Q 19.53125 55.671875 16.15625 42.96875 
z
M 38.1875 76.765625 
Q 49.90625 76.765625 54.59375 66.40625 
Q 59.28125 56.109375 55.71875 37.84375 
Q 52.203125 19.625 43.453125 9.28125 
Q 34.765625 -1.125 23.046875 -1.125 
Q 11.28125 -1.125 6.640625 9.28125 
Q 2 19.625 5.515625 37.84375 
Q 9.078125 56.109375 17.71875 66.40625 
Q 26.421875 76.765625 38.1875 76.765625 
z
" id="DejaVuSans-Oblique-952"/>
     </defs>
     <g style="fill:#262626;" transform="translate(437.675 848.655)scale(0.12 -0.12)">
      <use transform="translate(0 0.234375)" xlink:href="#DejaVuSans-Oblique-952"/>
     </g>
    </g>
   </g>
   <g id="matplotlib.axis_4">
    <g id="ytick_8">
     <g id="line2d_26">
      <path clip-path="url(#pca41bac381)" d="M 37.75 799.851104 
L 845.04 799.851104 
" style="fill:none;stroke:#ffffff;stroke-linecap:round;"/>
     </g>
     <g id="text_24">
      <!-- 0.0 -->
      <g style="fill:#262626;" transform="translate(12.96 803.787901)scale(0.11 -0.11)">
       <use xlink:href="#ArialMT-48"/>
       <use x="55.615234" xlink:href="#ArialMT-46"/>
       <use x="83.398438" xlink:href="#ArialMT-48"/>
      </g>
     </g>
    </g>
    <g id="ytick_9">
     <g id="line2d_27">
      <path clip-path="url(#pca41bac381)" d="M 37.75 743.641866 
L 845.04 743.641866 
" style="fill:none;stroke:#ffffff;stroke-linecap:round;"/>
     </g>
     <g id="text_25">
      <!-- 0.5 -->
      <g style="fill:#262626;" transform="translate(12.96 747.578663)scale(0.11 -0.11)">
       <use xlink:href="#ArialMT-48"/>
       <use x="55.615234" xlink:href="#ArialMT-46"/>
       <use x="83.398438" xlink:href="#ArialMT-53"/>
      </g>
     </g>
    </g>
    <g id="ytick_10">
     <g id="line2d_28">
      <path clip-path="url(#pca41bac381)" d="M 37.75 687.432628 
L 845.04 687.432628 
" style="fill:none;stroke:#ffffff;stroke-linecap:round;"/>
     </g>
     <g id="text_26">
      <!-- 1.0 -->
      <g style="fill:#262626;" transform="translate(12.96 691.369425)scale(0.11 -0.11)">
       <use xlink:href="#ArialMT-49"/>
       <use x="55.615234" xlink:href="#ArialMT-46"/>
       <use x="83.398438" xlink:href="#ArialMT-48"/>
      </g>
     </g>
    </g>
    <g id="ytick_11">
     <g id="line2d_29">
      <path clip-path="url(#pca41bac381)" d="M 37.75 631.223389 
L 845.04 631.223389 
" style="fill:none;stroke:#ffffff;stroke-linecap:round;"/>
     </g>
     <g id="text_27">
      <!-- 1.5 -->
      <g style="fill:#262626;" transform="translate(12.96 635.160186)scale(0.11 -0.11)">
       <use xlink:href="#ArialMT-49"/>
       <use x="55.615234" xlink:href="#ArialMT-46"/>
       <use x="83.398438" xlink:href="#ArialMT-53"/>
      </g>
     </g>
    </g>
    <g id="ytick_12">
     <g id="line2d_30">
      <path clip-path="url(#pca41bac381)" d="M 37.75 575.014151 
L 845.04 575.014151 
" style="fill:none;stroke:#ffffff;stroke-linecap:round;"/>
     </g>
     <g id="text_28">
      <!-- 2.0 -->
      <g style="fill:#262626;" transform="translate(12.96 578.950948)scale(0.11 -0.11)">
       <use xlink:href="#ArialMT-50"/>
       <use x="55.615234" xlink:href="#ArialMT-46"/>
       <use x="83.398438" xlink:href="#ArialMT-48"/>
      </g>
     </g>
    </g>
    <g id="ytick_13">
     <g id="line2d_31">
      <path clip-path="url(#pca41bac381)" d="M 37.75 518.804913 
L 845.04 518.804913 
" style="fill:none;stroke:#ffffff;stroke-linecap:round;"/>
     </g>
     <g id="text_29">
      <!-- 2.5 -->
      <g style="fill:#262626;" transform="translate(12.96 522.74171)scale(0.11 -0.11)">
       <use xlink:href="#ArialMT-50"/>
       <use x="55.615234" xlink:href="#ArialMT-46"/>
       <use x="83.398438" xlink:href="#ArialMT-53"/>
      </g>
     </g>
    </g>
    <g id="ytick_14">
     <g id="line2d_32">
      <path clip-path="url(#pca41bac381)" d="M 37.75 462.595675 
L 845.04 462.595675 
" style="fill:none;stroke:#ffffff;stroke-linecap:round;"/>
     </g>
     <g id="text_30">
      <!-- 3.0 -->
      <g style="fill:#262626;" transform="translate(12.96 466.532472)scale(0.11 -0.11)">
       <use xlink:href="#ArialMT-51"/>
       <use x="55.615234" xlink:href="#ArialMT-46"/>
       <use x="83.398438" xlink:href="#ArialMT-48"/>
      </g>
     </g>
    </g>
   </g>
   <g id="line2d_33">
    <g clip-path="url(#pca41bac381)">
     <use style="fill:#4c72b0;stroke:#4c72b0;" x="257.92" xlink:href="#m60172481dd" y="462.595675"/>
     <use style="fill:#4c72b0;stroke:#4c72b0;" x="775.267876" xlink:href="#m60172481dd" y="575.014151"/>
    </g>
   </g>
   <g id="line2d_34">
    <path clip-path="url(#pca41bac381)" d="M 74.445 695.691643 
L 78.852808 697.923493 
L 83.99525 700.784356 
L 89.872327 704.343968 
L 96.484039 708.640934 
L 104.56502 714.173796 
L 125.13479 728.396017 
L 131.746502 732.626463 
L 137.623579 736.109687 
L 142.766021 738.893618 
L 147.173829 741.055223 
L 151.581637 742.989079 
L 155.989444 744.679346 
L 160.397252 746.113924 
L 164.80506 747.284774 
L 169.212868 748.188202 
L 173.620676 748.825082 
L 178.028483 749.201 
L 182.436291 749.326319 
L 186.844099 749.216138 
L 191.251907 748.89016 
L 196.394349 748.269423 
L 202.271426 747.298645 
L 208.883138 745.966171 
L 231.656812 741.137294 
L 236.799254 740.360122 
L 241.941697 739.815241 
L 246.349505 739.566296 
L 250.757312 739.542619 
L 255.16512 739.761617 
L 259.572928 740.23524 
L 263.980736 740.969783 
L 268.388544 741.965828 
L 272.796351 743.218368 
L 277.204159 744.717072 
L 281.611967 746.446694 
L 286.754409 748.73006 
L 291.896852 751.26342 
L 297.773929 754.409731 
L 305.120275 758.616847 
L 317.609064 766.091191 
L 328.628584 772.576965 
L 335.97493 776.646519 
L 342.586642 780.052545 
L 348.463719 782.839605 
L 354.340796 785.379957 
L 360.217873 787.663787 
L 366.09495 789.689706 
L 371.972027 791.463522 
L 377.849104 792.99687 
L 383.726181 794.305799 
L 390.337893 795.533942 
L 396.949605 796.532042 
L 404.295951 797.408534 
L 412.376932 798.137221 
L 421.192548 798.707907 
L 431.477432 799.150734 
L 443.966221 799.462587 
L 460.128183 799.633108 
L 480.697953 799.617712 
L 501.267723 799.383418 
L 517.429685 798.988 
L 530.653108 798.450165 
L 541.672628 797.790793 
L 551.222878 797.013192 
L 560.038493 796.081892 
L 568.119474 795.010543 
L 575.465821 793.824678 
L 582.812167 792.407397 
L 589.423879 790.909642 
L 596.035591 789.179125 
L 601.912668 787.428644 
L 607.789745 785.464069 
L 613.666822 783.272955 
L 619.543899 780.84462 
L 625.420976 778.170641 
L 631.298053 775.24537 
L 637.17513 772.066442 
L 643.052207 768.635272 
L 648.929284 764.957507 
L 655.540996 760.538262 
L 662.152708 755.842251 
L 669.499054 750.337261 
L 677.580035 743.995927 
L 688.599555 735.027689 
L 708.43469 718.819442 
L 715.781036 713.115657 
L 722.392748 708.261217 
L 728.269825 704.23407 
L 733.412267 700.976559 
L 738.55471 698.003254 
L 742.962518 695.705025 
L 747.370325 693.657244 
L 751.778133 691.876386 
L 755.451306 690.606705 
L 759.124479 689.539581 
L 762.797653 688.680982 
L 766.470826 688.035628 
L 770.143999 687.60694 
L 773.817172 687.396987 
L 777.490345 687.406452 
L 781.163519 687.634609 
L 784.836692 688.079307 
L 788.509865 688.736971 
L 792.183038 689.602612 
L 795.856211 690.669848 
L 800.264019 692.205645 
L 804.671827 694.004652 
L 808.345 695.691643 
L 808.345 695.691643 
" style="fill:none;stroke:#dd8452;stroke-linecap:round;stroke-width:1.5;"/>
   </g>
   <g id="line2d_35">
    <g clip-path="url(#pca41bac381)">
     <use style="fill:#55a868;stroke:#55a868;" x="468.943799" xlink:href="#ma6753632c8" y="687.432628"/>
    </g>
   </g>
   <g id="patch_5">
    <path d="M 37.75 816.505781 
L 37.75 445.742813 
" style="fill:none;stroke:#ffffff;stroke-linecap:square;stroke-linejoin:miter;stroke-width:1.25;"/>
   </g>
   <g id="patch_6">
    <path d="M 845.04 816.505781 
L 845.04 445.742813 
" style="fill:none;stroke:#ffffff;stroke-linecap:square;stroke-linejoin:miter;stroke-width:1.25;"/>
   </g>
   <g id="patch_7">
    <path d="M 37.75 816.505781 
L 845.04 816.505781 
" style="fill:none;stroke:#ffffff;stroke-linecap:square;stroke-linejoin:miter;stroke-width:1.25;"/>
   </g>
   <g id="patch_8">
    <path d="M 37.75 445.742812 
L 845.04 445.742812 
" style="fill:none;stroke:#ffffff;stroke-linecap:square;stroke-linejoin:miter;stroke-width:1.25;"/>
   </g>
  </g>
  <g id="legend_1">
   <g id="patch_9">
    <path d="M 733.075938 94.108438 
L 817.8 94.108438 
Q 820 94.108438 820 91.908437 
L 820 46.2 
Q 820 44 817.8 44 
L 733.075938 44 
Q 730.875937 44 730.875937 46.2 
L 730.875937 91.908437 
Q 730.875937 94.108438 733.075938 94.108438 
z
" style="fill:#eaeaf2;opacity:0.8;stroke:#cccccc;stroke-linejoin:miter;"/>
   </g>
   <g id="line2d_36"/>
   <g id="line2d_37">
    <g>
     <use style="fill:#4c72b0;stroke:#4c72b0;" x="746.275937" xlink:href="#m60172481dd" y="52.423594"/>
    </g>
   </g>
   <g id="text_31">
    <!-- Seeds -->
    <defs>
     <path d="M 4.5 23 
L 13.421875 23.78125 
Q 14.0625 18.40625 16.375 14.96875 
Q 18.703125 11.53125 23.578125 9.40625 
Q 28.46875 7.28125 34.578125 7.28125 
Q 39.984375 7.28125 44.140625 8.890625 
Q 48.296875 10.5 50.3125 13.296875 
Q 52.34375 16.109375 52.34375 19.4375 
Q 52.34375 22.796875 50.390625 25.3125 
Q 48.4375 27.828125 43.953125 29.546875 
Q 41.0625 30.671875 31.203125 33.03125 
Q 21.34375 35.40625 17.390625 37.5 
Q 12.25 40.1875 9.734375 44.15625 
Q 7.234375 48.140625 7.234375 53.078125 
Q 7.234375 58.5 10.296875 63.203125 
Q 13.375 67.921875 19.28125 70.359375 
Q 25.203125 72.796875 32.421875 72.796875 
Q 40.375 72.796875 46.453125 70.234375 
Q 52.546875 67.671875 55.8125 62.6875 
Q 59.078125 57.71875 59.328125 51.421875 
L 50.25 50.734375 
Q 49.515625 57.515625 45.28125 60.984375 
Q 41.0625 64.453125 32.8125 64.453125 
Q 24.21875 64.453125 20.28125 61.296875 
Q 16.359375 58.15625 16.359375 53.71875 
Q 16.359375 49.859375 19.140625 47.359375 
Q 21.875 44.875 33.421875 42.265625 
Q 44.96875 39.65625 49.265625 37.703125 
Q 55.515625 34.8125 58.484375 30.390625 
Q 61.46875 25.984375 61.46875 20.21875 
Q 61.46875 14.5 58.203125 9.4375 
Q 54.9375 4.390625 48.796875 1.578125 
Q 42.671875 -1.21875 35.015625 -1.21875 
Q 25.296875 -1.21875 18.71875 1.609375 
Q 12.15625 4.4375 8.421875 10.125 
Q 4.6875 15.828125 4.5 23 
z
" id="ArialMT-83"/>
     <path d="M 42.09375 16.703125 
L 51.171875 15.578125 
Q 49.03125 7.625 43.21875 3.21875 
Q 37.40625 -1.171875 28.375 -1.171875 
Q 17 -1.171875 10.328125 5.828125 
Q 3.65625 12.84375 3.65625 25.484375 
Q 3.65625 38.578125 10.390625 45.796875 
Q 17.140625 53.03125 27.875 53.03125 
Q 38.28125 53.03125 44.875 45.953125 
Q 51.46875 38.875 51.46875 26.03125 
Q 51.46875 25.25 51.421875 23.6875 
L 12.75 23.6875 
Q 13.234375 15.140625 17.578125 10.59375 
Q 21.921875 6.0625 28.421875 6.0625 
Q 33.25 6.0625 36.671875 8.59375 
Q 40.09375 11.140625 42.09375 16.703125 
z
M 13.234375 30.90625 
L 42.1875 30.90625 
Q 41.609375 37.453125 38.875 40.71875 
Q 34.671875 45.796875 27.984375 45.796875 
Q 21.921875 45.796875 17.796875 41.75 
Q 13.671875 37.703125 13.234375 30.90625 
z
" id="ArialMT-101"/>
     <path d="M 40.234375 0 
L 40.234375 6.546875 
Q 35.296875 -1.171875 25.734375 -1.171875 
Q 19.53125 -1.171875 14.328125 2.25 
Q 9.125 5.671875 6.265625 11.796875 
Q 3.421875 17.921875 3.421875 25.875 
Q 3.421875 33.640625 6 39.96875 
Q 8.59375 46.296875 13.765625 49.65625 
Q 18.953125 53.03125 25.34375 53.03125 
Q 30.03125 53.03125 33.6875 51.046875 
Q 37.359375 49.078125 39.65625 45.90625 
L 39.65625 71.578125 
L 48.390625 71.578125 
L 48.390625 0 
z
M 12.453125 25.875 
Q 12.453125 15.921875 16.640625 10.984375 
Q 20.84375 6.0625 26.5625 6.0625 
Q 32.328125 6.0625 36.34375 10.765625 
Q 40.375 15.484375 40.375 25.140625 
Q 40.375 35.796875 36.265625 40.765625 
Q 32.171875 45.75 26.171875 45.75 
Q 20.3125 45.75 16.375 40.96875 
Q 12.453125 36.1875 12.453125 25.875 
z
" id="ArialMT-100"/>
     <path d="M 3.078125 15.484375 
L 11.765625 16.84375 
Q 12.5 11.625 15.84375 8.84375 
Q 19.1875 6.0625 25.203125 6.0625 
Q 31.25 6.0625 34.171875 8.515625 
Q 37.109375 10.984375 37.109375 14.3125 
Q 37.109375 17.28125 34.515625 19 
Q 32.71875 20.171875 25.53125 21.96875 
Q 15.875 24.421875 12.140625 26.203125 
Q 8.40625 27.984375 6.46875 31.125 
Q 4.546875 34.28125 4.546875 38.09375 
Q 4.546875 41.546875 6.125 44.5 
Q 7.71875 47.46875 10.453125 49.421875 
Q 12.5 50.921875 16.03125 51.96875 
Q 19.578125 53.03125 23.640625 53.03125 
Q 29.734375 53.03125 34.34375 51.265625 
Q 38.96875 49.515625 41.15625 46.5 
Q 43.359375 43.5 44.1875 38.484375 
L 35.59375 37.3125 
Q 35.015625 41.3125 32.203125 43.546875 
Q 29.390625 45.796875 24.265625 45.796875 
Q 18.21875 45.796875 15.625 43.796875 
Q 13.03125 41.796875 13.03125 39.109375 
Q 13.03125 37.40625 14.109375 36.03125 
Q 15.1875 34.625 17.484375 33.6875 
Q 18.796875 33.203125 25.25 31.453125 
Q 34.578125 28.953125 38.25 27.359375 
Q 41.9375 25.78125 44.03125 22.75 
Q 46.140625 19.734375 46.140625 15.234375 
Q 46.140625 10.84375 43.578125 6.953125 
Q 41.015625 3.078125 36.171875 0.953125 
Q 31.34375 -1.171875 25.25 -1.171875 
Q 15.140625 -1.171875 9.84375 3.03125 
Q 4.546875 7.234375 3.078125 15.484375 
z
" id="ArialMT-115"/>
    </defs>
    <g style="fill:#262626;" transform="translate(766.075937 56.273594)scale(0.11 -0.11)">
     <use xlink:href="#ArialMT-83"/>
     <use x="66.699219" xlink:href="#ArialMT-101"/>
     <use x="122.314453" xlink:href="#ArialMT-101"/>
     <use x="177.929688" xlink:href="#ArialMT-100"/>
     <use x="233.544922" xlink:href="#ArialMT-115"/>
    </g>
   </g>
   <g id="line2d_38">
    <path d="M 735.275937 67.983438 
L 757.275937 67.983438 
" style="fill:none;stroke:#dd8452;stroke-linecap:round;stroke-width:1.5;"/>
   </g>
   <g id="line2d_39"/>
   <g id="text_32">
    <!-- Energy -->
    <defs>
     <path d="M 7.90625 0 
L 7.90625 71.578125 
L 59.671875 71.578125 
L 59.671875 63.140625 
L 17.390625 63.140625 
L 17.390625 41.21875 
L 56.984375 41.21875 
L 56.984375 32.8125 
L 17.390625 32.8125 
L 17.390625 8.453125 
L 61.328125 8.453125 
L 61.328125 0 
z
" id="ArialMT-69"/>
     <path d="M 6.59375 0 
L 6.59375 51.859375 
L 14.5 51.859375 
L 14.5 44.484375 
Q 20.21875 53.03125 31 53.03125 
Q 35.6875 53.03125 39.625 51.34375 
Q 43.5625 49.65625 45.515625 46.921875 
Q 47.46875 44.1875 48.25 40.4375 
Q 48.734375 37.984375 48.734375 31.890625 
L 48.734375 0 
L 39.9375 0 
L 39.9375 31.546875 
Q 39.9375 36.921875 38.90625 39.578125 
Q 37.890625 42.234375 35.28125 43.8125 
Q 32.671875 45.40625 29.15625 45.40625 
Q 23.53125 45.40625 19.453125 41.84375 
Q 15.375 38.28125 15.375 28.328125 
L 15.375 0 
z
" id="ArialMT-110"/>
     <path d="M 6.5 0 
L 6.5 51.859375 
L 14.40625 51.859375 
L 14.40625 44 
Q 17.4375 49.515625 20 51.265625 
Q 22.5625 53.03125 25.640625 53.03125 
Q 30.078125 53.03125 34.671875 50.203125 
L 31.640625 42.046875 
Q 28.421875 43.953125 25.203125 43.953125 
Q 22.3125 43.953125 20.015625 42.21875 
Q 17.71875 40.484375 16.75 37.40625 
Q 15.28125 32.71875 15.28125 27.15625 
L 15.28125 0 
z
" id="ArialMT-114"/>
     <path d="M 4.984375 -4.296875 
L 13.53125 -5.5625 
Q 14.0625 -9.515625 16.5 -11.328125 
Q 19.78125 -13.765625 25.4375 -13.765625 
Q 31.546875 -13.765625 34.859375 -11.328125 
Q 38.1875 -8.890625 39.359375 -4.5 
Q 40.046875 -1.8125 39.984375 6.78125 
Q 34.234375 0 25.640625 0 
Q 14.9375 0 9.078125 7.71875 
Q 3.21875 15.4375 3.21875 26.21875 
Q 3.21875 33.640625 5.90625 39.90625 
Q 8.59375 46.1875 13.6875 49.609375 
Q 18.796875 53.03125 25.6875 53.03125 
Q 34.859375 53.03125 40.828125 45.609375 
L 40.828125 51.859375 
L 48.921875 51.859375 
L 48.921875 7.03125 
Q 48.921875 -5.078125 46.453125 -10.125 
Q 44 -15.1875 38.640625 -18.109375 
Q 33.296875 -21.046875 25.484375 -21.046875 
Q 16.21875 -21.046875 10.5 -16.875 
Q 4.78125 -12.703125 4.984375 -4.296875 
z
M 12.25 26.859375 
Q 12.25 16.65625 16.296875 11.96875 
Q 20.359375 7.28125 26.46875 7.28125 
Q 32.515625 7.28125 36.609375 11.9375 
Q 40.71875 16.609375 40.71875 26.5625 
Q 40.71875 36.078125 36.5 40.90625 
Q 32.28125 45.75 26.3125 45.75 
Q 20.453125 45.75 16.34375 40.984375 
Q 12.25 36.234375 12.25 26.859375 
z
" id="ArialMT-103"/>
     <path d="M 6.203125 -19.96875 
L 5.21875 -11.71875 
Q 8.109375 -12.5 10.25 -12.5 
Q 13.1875 -12.5 14.9375 -11.515625 
Q 16.703125 -10.546875 17.828125 -8.796875 
Q 18.65625 -7.46875 20.515625 -2.25 
Q 20.75 -1.515625 21.296875 -0.09375 
L 1.609375 51.859375 
L 11.078125 51.859375 
L 21.875 21.828125 
Q 23.96875 16.109375 25.640625 9.8125 
Q 27.15625 15.875 29.25 21.625 
L 40.328125 51.859375 
L 49.125 51.859375 
L 29.390625 -0.875 
Q 26.21875 -9.421875 24.46875 -12.640625 
Q 22.125 -17 19.09375 -19.015625 
Q 16.0625 -21.046875 11.859375 -21.046875 
Q 9.328125 -21.046875 6.203125 -19.96875 
z
" id="ArialMT-121"/>
    </defs>
    <g style="fill:#262626;" transform="translate(766.075937 71.833438)scale(0.11 -0.11)">
     <use xlink:href="#ArialMT-69"/>
     <use x="66.699219" xlink:href="#ArialMT-110"/>
     <use x="122.314453" xlink:href="#ArialMT-101"/>
     <use x="177.929688" xlink:href="#ArialMT-114"/>
     <use x="211.230469" xlink:href="#ArialMT-103"/>
     <use x="266.845703" xlink:href="#ArialMT-121"/>
    </g>
   </g>
   <g id="line2d_40"/>
   <g id="line2d_41">
    <g>
     <use style="fill:#55a868;stroke:#55a868;" x="746.275937" xlink:href="#ma6753632c8" y="83.672187"/>
    </g>
   </g>
   <g id="text_33">
    <!-- Next seed -->
    <defs>
     <path d="M 7.625 0 
L 7.625 71.578125 
L 17.328125 71.578125 
L 54.9375 15.375 
L 54.9375 71.578125 
L 64.015625 71.578125 
L 64.015625 0 
L 54.296875 0 
L 16.703125 56.25 
L 16.703125 0 
z
" id="ArialMT-78"/>
     <path d="M 0.734375 0 
L 19.671875 26.953125 
L 2.15625 51.859375 
L 13.140625 51.859375 
L 21.09375 39.703125 
Q 23.34375 36.234375 24.703125 33.890625 
Q 26.859375 37.109375 28.65625 39.59375 
L 37.40625 51.859375 
L 47.90625 51.859375 
L 29.984375 27.4375 
L 49.265625 0 
L 38.484375 0 
L 27.828125 16.109375 
L 25 20.453125 
L 11.375 0 
z
" id="ArialMT-120"/>
     <path d="M 25.78125 7.859375 
L 27.046875 0.09375 
Q 23.34375 -0.6875 20.40625 -0.6875 
Q 15.625 -0.6875 12.984375 0.828125 
Q 10.359375 2.34375 9.28125 4.8125 
Q 8.203125 7.28125 8.203125 15.1875 
L 8.203125 45.015625 
L 1.765625 45.015625 
L 1.765625 51.859375 
L 8.203125 51.859375 
L 8.203125 64.703125 
L 16.9375 69.96875 
L 16.9375 51.859375 
L 25.78125 51.859375 
L 25.78125 45.015625 
L 16.9375 45.015625 
L 16.9375 14.703125 
Q 16.9375 10.9375 17.40625 9.859375 
Q 17.875 8.796875 18.921875 8.15625 
Q 19.96875 7.515625 21.921875 7.515625 
Q 23.390625 7.515625 25.78125 7.859375 
z
" id="ArialMT-116"/>
     <path id="ArialMT-32"/>
    </defs>
    <g style="fill:#262626;" transform="translate(766.075937 87.522187)scale(0.11 -0.11)">
     <use xlink:href="#ArialMT-78"/>
     <use x="72.216797" xlink:href="#ArialMT-101"/>
     <use x="127.832031" xlink:href="#ArialMT-120"/>
     <use x="177.832031" xlink:href="#ArialMT-116"/>
     <use x="205.615234" xlink:href="#ArialMT-32"/>
     <use x="233.398438" xlink:href="#ArialMT-115"/>
     <use x="283.398438" xlink:href="#ArialMT-101"/>
     <use x="339.013672" xlink:href="#ArialMT-101"/>
     <use x="394.628906" xlink:href="#ArialMT-100"/>
    </g>
   </g>
  </g>
 </g>
 <defs>
  <clipPath id="p8e7d203cd9">
   <path d="M 626.776484 219.871406 
C 626.776484 195.527333 621.981233 171.419975 612.665159 148.928984 
C 603.349086 126.437992 589.693364 106.000761 572.479505 88.786902 
C 555.265645 71.573042 534.828414 57.917321 512.337423 48.601247 
C 489.846432 39.285174 465.739073 34.489922 441.395 34.489922 
C 417.050927 34.489922 392.943568 39.285174 370.452577 48.601247 
C 347.961586 57.917321 327.524355 71.573042 310.310495 88.786902 
C 293.096636 106.000761 279.440914 126.437992 270.124841 148.928984 
C 260.808767 171.419975 256.013516 195.527333 256.013516 219.871406 
C 256.013516 244.21548 260.808767 268.322838 270.124841 290.813829 
C 279.440914 313.30482 293.096636 333.742052 310.310495 350.955911 
C 327.524355 368.16977 347.961586 381.825492 370.452577 391.141565 
C 392.943568 400.457639 417.050927 405.252891 441.395 405.252891 
C 465.739073 405.252891 489.846432 400.457639 512.337423 391.141565 
C 534.828414 381.825492 555.265645 368.16977 572.479505 350.955911 
C 589.693364 333.742052 603.349086 313.30482 612.665159 290.813829 
C 621.981233 268.322838 626.776484 244.21548 626.776484 219.871406 
M 441.395 219.871406 
C 441.395 219.871406 441.395 219.871406 441.395 219.871406 
C 441.395 219.871406 441.395 219.871406 441.395 219.871406 
C 441.395 219.871406 441.395 219.871406 441.395 219.871406 
C 441.395 219.871406 441.395 219.871406 441.395 219.871406 
C 441.395 219.871406 441.395 219.871406 441.395 219.871406 
C 441.395 219.871406 441.395 219.871406 441.395 219.871406 
C 441.395 219.871406 441.395 219.871406 441.395 219.871406 
C 441.395 219.871406 441.395 219.871406 441.395 219.871406 
C 441.395 219.871406 441.395 219.871406 441.395 219.871406 
C 441.395 219.871406 441.395 219.871406 441.395 219.871406 
C 441.395 219.871406 441.395 219.871406 441.395 219.871406 
C 441.395 219.871406 441.395 219.871406 441.395 219.871406 
C 441.395 219.871406 441.395 219.871406 441.395 219.871406 
C 441.395 219.871406 441.395 219.871406 441.395 219.871406 
C 441.395 219.871406 441.395 219.871406 441.395 219.871406 
C 441.395 219.871406 441.395 219.871406 441.395 219.871406 
M 626.776484 219.871406 
z
"/>
  </clipPath>
  <clipPath id="pca41bac381">
   <rect height="370.762969" width="807.29" x="37.75" y="445.742813"/>
  </clipPath>
 </defs>
</svg>
