<?xml version="1.0" encoding="utf-8" standalone="no"?>
<!DOCTYPE svg PUBLIC "-//W3C//DTD SVG 1.1//EN"
  "http://www.w3.org/Graphics/SVG/1.1/DTD/svg11.dtd">
<!-- Created with matplotlib (https://matplotlib.org/) -->
<svg height="576pt" version="1.1" viewBox="0 0 576 576" width="576pt" xmlns="http://www.w3.org/2000/svg" xmlns:xlink="http://www.w3.org/1999/xlink">
 <defs>
  <style type="text/css">
*{stroke-linecap:butt;stroke-linejoin:round;}
  </style>
 </defs>
 <g id="figure_1">
  <g id="patch_1">
   <path d="M 0 576 
L 576 576 
L 576 0 
L 0 0 
z
" style="fill:#ffffff;"/>
  </g>
  <g id="axes_1">
   <g id="patch_2">
    <path d="M 544.568594 288 
C 544.568594 254.709362 538.011064 221.742433 525.271288 190.985893 
C 512.531512 160.229354 493.857247 132.281341 470.317211 108.741305 
C 446.777175 85.201268 418.829162 66.527003 388.072622 53.787228 
C 357.316083 41.047452 324.349154 34.489922 291.058516 34.489922 
C 257.767877 34.489922 224.800948 41.047452 194.044409 53.787228 
C 163.287869 66.527003 135.339856 85.201268 111.79982 108.741305 
C 88.259784 132.281341 69.585519 160.229354 56.845743 190.985893 
C 44.105967 221.742433 37.548437 254.709362 37.548437 288 
C 37.548437 321.290638 44.105967 354.257567 56.845743 385.014107 
C 69.585519 415.770646 88.259784 443.718659 111.79982 467.258695 
C 135.339856 490.798732 163.287869 509.472997 194.044409 522.212772 
C 224.800948 534.952548 257.767877 541.510078 291.058516 541.510078 
C 324.349154 541.510078 357.316083 534.952548 388.072622 522.212772 
C 418.829162 509.472997 446.777175 490.798732 470.317211 467.258695 
C 493.857247 443.718659 512.531512 415.770646 525.271288 385.014107 
C 538.011064 354.257567 544.568594 321.290638 544.568594 288 
M 291.058516 288 
C 291.058516 288 291.058516 288 291.058516 288 
C 291.058516 288 291.058516 288 291.058516 288 
C 291.058516 288 291.058516 288 291.058516 288 
C 291.058516 288 291.058516 288 291.058516 288 
C 291.058516 288 291.058516 288 291.058516 288 
C 291.058516 288 291.058516 288 291.058516 288 
C 291.058516 288 291.058516 288 291.058516 288 
C 291.058516 288 291.058516 288 291.058516 288 
C 291.058516 288 291.058516 288 291.058516 288 
C 291.058516 288 291.058516 288 291.058516 288 
C 291.058516 288 291.058516 288 291.058516 288 
C 291.058516 288 291.058516 288 291.058516 288 
C 291.058516 288 291.058516 288 291.058516 288 
C 291.058516 288 291.058516 288 291.058516 288 
C 291.058516 288 291.058516 288 291.058516 288 
C 291.058516 288 291.058516 288 291.058516 288 
M 544.568594 288 
z
" style="fill:#eaeaf2;"/>
   </g>
   <g id="matplotlib.axis_1">
    <g id="xtick_1">
     <g id="line2d_1">
      <path clip-path="url(#pc2f1ee4e52)" d="M 291.058516 288 
L 544.568594 288 
" style="fill:none;stroke:#ffffff;stroke-linecap:round;"/>
     </g>
     <g id="text_1">
      <!-- 0° -->
      <defs>
       <path d="M 4.15625 35.296875 
Q 4.15625 48 6.765625 55.734375 
Q 9.375 63.484375 14.515625 67.671875 
Q 19.671875 71.875 27.484375 71.875 
Q 33.25 71.875 37.59375 69.546875 
Q 41.9375 67.234375 44.765625 62.859375 
Q 47.609375 58.5 49.21875 52.21875 
Q 50.828125 45.953125 50.828125 35.296875 
Q 50.828125 22.703125 48.234375 14.96875 
Q 45.65625 7.234375 40.5 3 
Q 35.359375 -1.21875 27.484375 -1.21875 
Q 17.140625 -1.21875 11.234375 6.203125 
Q 4.15625 15.140625 4.15625 35.296875 
z
M 13.1875 35.296875 
Q 13.1875 17.671875 17.3125 11.828125 
Q 21.4375 6 27.484375 6 
Q 33.546875 6 37.671875 11.859375 
Q 41.796875 17.71875 41.796875 35.296875 
Q 41.796875 52.984375 37.671875 58.78125 
Q 33.546875 64.59375 27.390625 64.59375 
Q 21.34375 64.59375 17.71875 59.46875 
Q 13.1875 52.9375 13.1875 35.296875 
z
" id="ArialMT-48"/>
       <path d="M 6.25 59.28125 
Q 6.25 64.890625 10.21875 68.84375 
Q 14.203125 72.796875 19.78125 72.796875 
Q 25.4375 72.796875 29.390625 68.84375 
Q 33.34375 64.890625 33.34375 59.28125 
Q 33.34375 53.65625 29.359375 49.671875 
Q 25.390625 45.703125 19.78125 45.703125 
Q 14.203125 45.703125 10.21875 49.65625 
Q 6.25 53.609375 6.25 59.28125 
z
M 11.578125 59.28125 
Q 11.578125 55.859375 13.984375 53.4375 
Q 16.40625 51.03125 19.828125 51.03125 
Q 23.1875 51.03125 25.609375 53.4375 
Q 28.03125 55.859375 28.03125 59.28125 
Q 28.03125 62.703125 25.609375 65.109375 
Q 23.1875 67.53125 19.828125 67.53125 
Q 16.40625 67.53125 13.984375 65.109375 
Q 11.578125 62.703125 11.578125 59.28125 
z
" id="ArialMT-176"/>
      </defs>
      <g style="fill:#262626;" transform="translate(555.810938 290.843672)scale(0.11 -0.11)">
       <use xlink:href="#ArialMT-48"/>
       <use x="55.615234" xlink:href="#ArialMT-176"/>
      </g>
     </g>
    </g>
    <g id="xtick_2">
     <g id="line2d_2">
      <path clip-path="url(#pc2f1ee4e52)" d="M 291.058516 288 
L 470.317211 108.741305 
" style="fill:none;stroke:#ffffff;stroke-linecap:round;"/>
     </g>
     <g id="text_2">
      <!-- 45° -->
      <defs>
       <path d="M 32.328125 0 
L 32.328125 17.140625 
L 1.265625 17.140625 
L 1.265625 25.203125 
L 33.9375 71.578125 
L 41.109375 71.578125 
L 41.109375 25.203125 
L 50.78125 25.203125 
L 50.78125 17.140625 
L 41.109375 17.140625 
L 41.109375 0 
z
M 32.328125 25.203125 
L 32.328125 57.46875 
L 9.90625 25.203125 
z
" id="ArialMT-52"/>
       <path d="M 4.15625 18.75 
L 13.375 19.53125 
Q 14.40625 12.796875 18.140625 9.390625 
Q 21.875 6 27.15625 6 
Q 33.5 6 37.890625 10.78125 
Q 42.28125 15.578125 42.28125 23.484375 
Q 42.28125 31 38.0625 35.34375 
Q 33.84375 39.703125 27 39.703125 
Q 22.75 39.703125 19.328125 37.765625 
Q 15.921875 35.84375 13.96875 32.765625 
L 5.71875 33.84375 
L 12.640625 70.609375 
L 48.25 70.609375 
L 48.25 62.203125 
L 19.671875 62.203125 
L 15.828125 42.96875 
Q 22.265625 47.46875 29.34375 47.46875 
Q 38.71875 47.46875 45.15625 40.96875 
Q 51.609375 34.46875 51.609375 24.265625 
Q 51.609375 14.546875 45.953125 7.46875 
Q 39.0625 -1.21875 27.15625 -1.21875 
Q 17.390625 -1.21875 11.203125 4.25 
Q 5.03125 9.71875 4.15625 18.75 
z
" id="ArialMT-53"/>
      </defs>
      <g style="fill:#262626;" transform="translate(473.668301 99.917715)scale(0.11 -0.11)">
       <use xlink:href="#ArialMT-52"/>
       <use x="55.615234" xlink:href="#ArialMT-53"/>
       <use x="111.230469" xlink:href="#ArialMT-176"/>
      </g>
     </g>
    </g>
    <g id="xtick_3">
     <g id="line2d_3">
      <path clip-path="url(#pc2f1ee4e52)" d="M 291.058516 288 
L 291.058516 34.489922 
" style="fill:none;stroke:#ffffff;stroke-linecap:round;"/>
     </g>
     <g id="text_3">
      <!-- 90° -->
      <defs>
       <path d="M 5.46875 16.546875 
L 13.921875 17.328125 
Q 14.984375 11.375 18.015625 8.6875 
Q 21.046875 6 25.78125 6 
Q 29.828125 6 32.875 7.859375 
Q 35.9375 9.71875 37.890625 12.8125 
Q 39.84375 15.921875 41.15625 21.1875 
Q 42.484375 26.46875 42.484375 31.9375 
Q 42.484375 32.515625 42.4375 33.6875 
Q 39.796875 29.5 35.234375 26.875 
Q 30.671875 24.265625 25.34375 24.265625 
Q 16.453125 24.265625 10.296875 30.703125 
Q 4.15625 37.15625 4.15625 47.703125 
Q 4.15625 58.59375 10.578125 65.234375 
Q 17 71.875 26.65625 71.875 
Q 33.640625 71.875 39.421875 68.109375 
Q 45.21875 64.359375 48.21875 57.390625 
Q 51.21875 50.4375 51.21875 37.25 
Q 51.21875 23.53125 48.234375 15.40625 
Q 45.265625 7.28125 39.375 3.03125 
Q 33.5 -1.21875 25.59375 -1.21875 
Q 17.1875 -1.21875 11.859375 3.4375 
Q 6.546875 8.109375 5.46875 16.546875 
z
M 41.453125 48.140625 
Q 41.453125 55.71875 37.421875 60.15625 
Q 33.40625 64.59375 27.734375 64.59375 
Q 21.875 64.59375 17.53125 59.8125 
Q 13.1875 55.03125 13.1875 47.40625 
Q 13.1875 40.578125 17.3125 36.296875 
Q 21.4375 32.03125 27.484375 32.03125 
Q 33.59375 32.03125 37.515625 36.296875 
Q 41.453125 40.578125 41.453125 48.140625 
z
" id="ArialMT-57"/>
      </defs>
      <g style="fill:#262626;" transform="translate(282.742344 20.833594)scale(0.11 -0.11)">
       <use xlink:href="#ArialMT-57"/>
       <use x="55.615234" xlink:href="#ArialMT-48"/>
       <use x="111.230469" xlink:href="#ArialMT-176"/>
      </g>
     </g>
    </g>
    <g id="xtick_4">
     <g id="line2d_4">
      <path clip-path="url(#pc2f1ee4e52)" d="M 291.058516 288 
L 111.79982 108.741305 
" style="fill:none;stroke:#ffffff;stroke-linecap:round;"/>
     </g>
     <g id="text_4">
      <!-- 135° -->
      <defs>
       <path d="M 37.25 0 
L 28.46875 0 
L 28.46875 56 
Q 25.296875 52.984375 20.140625 49.953125 
Q 14.984375 46.921875 10.890625 45.40625 
L 10.890625 53.90625 
Q 18.265625 57.375 23.78125 62.296875 
Q 29.296875 67.234375 31.59375 71.875 
L 37.25 71.875 
z
" id="ArialMT-49"/>
       <path d="M 4.203125 18.890625 
L 12.984375 20.0625 
Q 14.5 12.59375 18.140625 9.296875 
Q 21.78125 6 27 6 
Q 33.203125 6 37.46875 10.296875 
Q 41.75 14.59375 41.75 20.953125 
Q 41.75 27 37.796875 30.921875 
Q 33.84375 34.859375 27.734375 34.859375 
Q 25.25 34.859375 21.53125 33.890625 
L 22.515625 41.609375 
Q 23.390625 41.5 23.921875 41.5 
Q 29.546875 41.5 34.03125 44.421875 
Q 38.53125 47.359375 38.53125 53.46875 
Q 38.53125 58.296875 35.25 61.46875 
Q 31.984375 64.65625 26.8125 64.65625 
Q 21.6875 64.65625 18.265625 61.421875 
Q 14.84375 58.203125 13.875 51.765625 
L 5.078125 53.328125 
Q 6.6875 62.15625 12.390625 67.015625 
Q 18.109375 71.875 26.609375 71.875 
Q 32.46875 71.875 37.390625 69.359375 
Q 42.328125 66.84375 44.9375 62.5 
Q 47.5625 58.15625 47.5625 53.265625 
Q 47.5625 48.640625 45.0625 44.828125 
Q 42.578125 41.015625 37.703125 38.765625 
Q 44.046875 37.3125 47.5625 32.6875 
Q 51.078125 28.078125 51.078125 21.140625 
Q 51.078125 11.765625 44.234375 5.25 
Q 37.40625 -1.265625 26.953125 -1.265625 
Q 17.53125 -1.265625 11.296875 4.34375 
Q 5.078125 9.96875 4.203125 18.890625 
z
" id="ArialMT-51"/>
      </defs>
      <g style="fill:#262626;" transform="translate(88.757871 99.917715)scale(0.11 -0.11)">
       <use xlink:href="#ArialMT-49"/>
       <use x="55.615234" xlink:href="#ArialMT-51"/>
       <use x="111.230469" xlink:href="#ArialMT-53"/>
       <use x="166.845703" xlink:href="#ArialMT-176"/>
      </g>
     </g>
    </g>
    <g id="xtick_5">
     <g id="line2d_5">
      <path clip-path="url(#pc2f1ee4e52)" d="M 291.058516 288 
L 37.548438 288 
" style="fill:none;stroke:#ffffff;stroke-linecap:round;"/>
     </g>
     <g id="text_5">
      <!-- 180° -->
      <defs>
       <path d="M 17.671875 38.8125 
Q 12.203125 40.828125 9.5625 44.53125 
Q 6.9375 48.25 6.9375 53.421875 
Q 6.9375 61.234375 12.546875 66.546875 
Q 18.171875 71.875 27.484375 71.875 
Q 36.859375 71.875 42.578125 66.421875 
Q 48.296875 60.984375 48.296875 53.171875 
Q 48.296875 48.1875 45.671875 44.5 
Q 43.0625 40.828125 37.75 38.8125 
Q 44.34375 36.671875 47.78125 31.875 
Q 51.21875 27.09375 51.21875 20.453125 
Q 51.21875 11.28125 44.71875 5.03125 
Q 38.234375 -1.21875 27.640625 -1.21875 
Q 17.046875 -1.21875 10.546875 5.046875 
Q 4.046875 11.328125 4.046875 20.703125 
Q 4.046875 27.6875 7.59375 32.390625 
Q 11.140625 37.109375 17.671875 38.8125 
z
M 15.921875 53.71875 
Q 15.921875 48.640625 19.1875 45.40625 
Q 22.46875 42.1875 27.6875 42.1875 
Q 32.765625 42.1875 36.015625 45.375 
Q 39.265625 48.578125 39.265625 53.21875 
Q 39.265625 58.0625 35.90625 61.359375 
Q 32.5625 64.65625 27.59375 64.65625 
Q 22.5625 64.65625 19.234375 61.421875 
Q 15.921875 58.203125 15.921875 53.71875 
z
M 13.09375 20.65625 
Q 13.09375 16.890625 14.875 13.375 
Q 16.65625 9.859375 20.171875 7.921875 
Q 23.6875 6 27.734375 6 
Q 34.03125 6 38.125 10.046875 
Q 42.234375 14.109375 42.234375 20.359375 
Q 42.234375 26.703125 38.015625 30.859375 
Q 33.796875 35.015625 27.4375 35.015625 
Q 21.234375 35.015625 17.15625 30.90625 
Q 13.09375 26.8125 13.09375 20.65625 
z
" id="ArialMT-56"/>
      </defs>
      <g style="fill:#262626;" transform="translate(9.67375 290.843672)scale(0.11 -0.11)">
       <use xlink:href="#ArialMT-49"/>
       <use x="55.615234" xlink:href="#ArialMT-56"/>
       <use x="111.230469" xlink:href="#ArialMT-48"/>
       <use x="166.845703" xlink:href="#ArialMT-176"/>
      </g>
     </g>
    </g>
    <g id="xtick_6">
     <g id="line2d_6">
      <path clip-path="url(#pc2f1ee4e52)" d="M 291.058516 288 
L 111.79982 467.258695 
" style="fill:none;stroke:#ffffff;stroke-linecap:round;"/>
     </g>
     <g id="text_6">
      <!-- 225° -->
      <defs>
       <path d="M 50.34375 8.453125 
L 50.34375 0 
L 3.03125 0 
Q 2.9375 3.171875 4.046875 6.109375 
Q 5.859375 10.9375 9.828125 15.625 
Q 13.8125 20.3125 21.34375 26.46875 
Q 33.015625 36.03125 37.109375 41.625 
Q 41.21875 47.21875 41.21875 52.203125 
Q 41.21875 57.421875 37.46875 61 
Q 33.734375 64.59375 27.734375 64.59375 
Q 21.390625 64.59375 17.578125 60.78125 
Q 13.765625 56.984375 13.71875 50.25 
L 4.6875 51.171875 
Q 5.609375 61.28125 11.65625 66.578125 
Q 17.71875 71.875 27.9375 71.875 
Q 38.234375 71.875 44.234375 66.15625 
Q 50.25 60.453125 50.25 52 
Q 50.25 47.703125 48.484375 43.546875 
Q 46.734375 39.40625 42.65625 34.8125 
Q 38.578125 30.21875 29.109375 22.21875 
Q 21.1875 15.578125 18.9375 13.203125 
Q 16.703125 10.84375 15.234375 8.453125 
z
" id="ArialMT-50"/>
      </defs>
      <g style="fill:#262626;" transform="translate(88.757871 481.769629)scale(0.11 -0.11)">
       <use xlink:href="#ArialMT-50"/>
       <use x="55.615234" xlink:href="#ArialMT-50"/>
       <use x="111.230469" xlink:href="#ArialMT-53"/>
       <use x="166.845703" xlink:href="#ArialMT-176"/>
      </g>
     </g>
    </g>
    <g id="xtick_7">
     <g id="line2d_7">
      <path clip-path="url(#pc2f1ee4e52)" d="M 291.058516 288 
L 291.058516 541.510078 
" style="fill:none;stroke:#ffffff;stroke-linecap:round;"/>
     </g>
     <g id="text_7">
      <!-- 270° -->
      <defs>
       <path d="M 4.734375 62.203125 
L 4.734375 70.65625 
L 51.078125 70.65625 
L 51.078125 63.8125 
Q 44.234375 56.546875 37.515625 44.484375 
Q 30.8125 32.421875 27.15625 19.671875 
Q 24.515625 10.6875 23.78125 0 
L 14.75 0 
Q 14.890625 8.453125 18.0625 20.40625 
Q 21.234375 32.375 27.171875 43.484375 
Q 33.109375 54.59375 39.796875 62.203125 
z
" id="ArialMT-55"/>
      </defs>
      <g style="fill:#262626;" transform="translate(279.683828 560.85375)scale(0.11 -0.11)">
       <use xlink:href="#ArialMT-50"/>
       <use x="55.615234" xlink:href="#ArialMT-55"/>
       <use x="111.230469" xlink:href="#ArialMT-48"/>
       <use x="166.845703" xlink:href="#ArialMT-176"/>
      </g>
     </g>
    </g>
    <g id="xtick_8">
     <g id="line2d_8">
      <path clip-path="url(#pc2f1ee4e52)" d="M 291.058516 288 
L 470.317211 467.258695 
" style="fill:none;stroke:#ffffff;stroke-linecap:round;"/>
     </g>
     <g id="text_8">
      <!-- 315° -->
      <g style="fill:#262626;" transform="translate(470.609785 481.769629)scale(0.11 -0.11)">
       <use xlink:href="#ArialMT-51"/>
       <use x="55.615234" xlink:href="#ArialMT-49"/>
       <use x="111.230469" xlink:href="#ArialMT-53"/>
       <use x="166.845703" xlink:href="#ArialMT-176"/>
      </g>
     </g>
    </g>
   </g>
   <g id="matplotlib.axis_2">
    <g id="ytick_1">
     <g id="line2d_9">
      <path clip-path="url(#pc2f1ee4e52)" d="M 302.11985 288 
L 302.012202 286.46056 
L 301.691353 284.951083 
L 301.163547 283.50095 
L 300.439059 282.138386 
L 299.531989 280.889911 
L 298.459993 279.779827 
L 297.243935 278.829738 
L 295.907485 278.058139 
L 294.476656 277.480046 
L 292.979296 277.106712 
L 291.444551 276.945404 
L 289.902291 276.999261 
L 288.382537 277.267235 
L 286.914867 277.744109 
L 285.527848 278.420604 
L 284.248478 279.28355 
L 283.101658 280.316152 
L 282.109708 281.498311 
L 281.291937 282.807018 
L 280.664261 284.216801 
L 280.238898 285.700219 
L 280.024126 287.2284 
L 280.024126 288.7716 
L 280.238898 290.299781 
L 280.664261 291.783199 
L 281.291937 293.192982 
L 282.109708 294.501689 
L 283.101658 295.683848 
L 284.248478 296.71645 
L 285.527848 297.579396 
L 286.914867 298.255891 
L 288.382537 298.732765 
L 289.902291 299.000739 
L 291.444551 299.054596 
L 292.979296 298.893288 
L 294.476656 298.519954 
L 295.907485 297.941861 
L 297.243935 297.170262 
L 298.459993 296.220173 
L 299.531989 295.110089 
L 300.439059 293.861614 
L 301.163547 292.49905 
L 301.691353 291.048917 
L 302.012202 289.53944 
L 302.11985 288 
L 302.11985 288 
" style="fill:none;stroke:#ffffff;stroke-linecap:round;"/>
     </g>
     <g id="text_9">
      <!-- 0 -->
      <g style="fill:#262626;" transform="translate(301.277856 281.580761)scale(0.11 -0.11)">
       <use xlink:href="#ArialMT-48"/>
      </g>
     </g>
    </g>
    <g id="ytick_2">
     <g id="line2d_10">
      <path clip-path="url(#pc2f1ee4e52)" d="M 348.304962 288 
L 348.165512 284.00669 
L 347.747843 280.032835 
L 347.053989 276.097795 
L 346.087331 272.220741 
L 344.852578 268.420562 
L 343.355746 264.715773 
L 341.604127 261.124422 
L 339.606255 257.664005 
L 337.371863 254.351383 
L 334.911837 251.202694 
L 332.238163 248.233277 
L 329.363865 245.4576 
L 326.302947 242.889185 
L 323.070322 240.540545 
L 319.681739 238.423124 
L 316.153706 236.547235 
L 312.503412 234.92202 
L 308.74864 233.555395 
L 304.907684 232.454018 
L 300.999257 231.623256 
L 297.042399 231.067156 
L 293.056388 230.788427 
L 289.060643 230.788427 
L 285.074633 231.067156 
L 281.117775 231.623256 
L 277.209347 232.454018 
L 273.368391 233.555395 
L 269.61362 234.92202 
L 265.963325 236.547235 
L 262.435293 238.423124 
L 259.046709 240.540545 
L 255.814084 242.889185 
L 252.753167 245.4576 
L 249.878869 248.233277 
L 247.205194 251.202694 
L 244.745168 254.351383 
L 242.510776 257.664005 
L 240.512904 261.124422 
L 238.761285 264.715773 
L 237.264453 268.420562 
L 236.0297 272.220741 
L 235.063042 276.097795 
L 234.369188 280.032835 
L 233.951519 284.00669 
L 233.81207 288 
L 233.951519 291.99331 
L 234.369188 295.967165 
L 235.063042 299.902205 
L 236.0297 303.779259 
L 237.264453 307.579438 
L 238.761285 311.284227 
L 240.512904 314.875578 
L 242.510776 318.335995 
L 244.745168 321.648617 
L 247.205194 324.797306 
L 249.878869 327.766723 
L 252.753167 330.5424 
L 255.814084 333.110815 
L 259.046709 335.459455 
L 262.435293 337.576876 
L 265.963325 339.452765 
L 269.61362 341.07798 
L 273.368391 342.444605 
L 277.209347 343.545982 
L 281.117775 344.376744 
L 285.074633 344.932844 
L 289.060643 345.211573 
L 293.056388 345.211573 
L 297.042399 344.932844 
L 300.999257 344.376744 
L 304.907684 343.545982 
L 308.74864 342.444605 
L 312.503412 341.07798 
L 316.153706 339.452765 
L 319.681739 337.576876 
L 323.070322 335.459455 
L 326.302947 333.110815 
L 329.363865 330.5424 
L 332.238163 327.766723 
L 334.911837 324.797306 
L 337.371863 321.648617 
L 339.606255 318.335995 
L 341.604127 314.875578 
L 343.355746 311.284227 
L 344.852578 307.579438 
L 346.087331 303.779259 
L 347.053989 299.902205 
L 347.747843 295.967165 
L 348.165512 291.99331 
L 348.304962 288 
L 348.304962 288 
" style="fill:none;stroke:#ffffff;stroke-linecap:round;"/>
     </g>
     <g id="text_10">
      <!-- 100 -->
      <g style="fill:#262626;" transform="translate(343.947335 263.906484)scale(0.11 -0.11)">
       <use xlink:href="#ArialMT-49"/>
       <use x="55.615234" xlink:href="#ArialMT-48"/>
       <use x="111.230469" xlink:href="#ArialMT-48"/>
      </g>
     </g>
    </g>
    <g id="ytick_3">
     <g id="line2d_11">
      <path clip-path="url(#pc2f1ee4e52)" d="M 394.490073 288 
L 394.427066 284.390291 
L 394.238119 280.784979 
L 393.923464 277.188458 
L 393.483484 273.605109 
L 392.918716 270.039299 
L 392.229846 266.49537 
L 391.417714 262.977642 
L 390.48331 259.490399 
L 389.427773 256.037891 
L 388.252387 252.624324 
L 386.958586 249.253857 
L 385.547945 245.930595 
L 384.022184 242.658589 
L 382.38316 239.441825 
L 380.632872 236.284221 
L 378.773451 233.189625 
L 376.807163 230.161807 
L 374.736404 227.204456 
L 372.563695 224.321175 
L 370.291686 221.515476 
L 367.923142 218.790779 
L 365.460952 216.150403 
L 362.908113 213.597564 
L 360.267737 211.135373 
L 357.543039 208.76683 
L 354.737341 206.49482 
L 351.85406 204.322112 
L 348.896709 202.251353 
L 345.868891 200.285064 
L 342.774294 198.425644 
L 339.616691 196.675355 
L 336.399926 195.036332 
L 333.12792 193.51057 
L 329.804659 192.09993 
L 326.434192 190.806129 
L 323.020625 189.630743 
L 319.568117 188.575205 
L 316.080874 187.640802 
L 312.563146 186.82867 
L 309.019217 186.1398 
L 305.453406 185.575031 
L 301.870057 185.135051 
L 298.273536 184.820396 
L 294.668225 184.63145 
L 291.058516 184.568442 
L 287.448806 184.63145 
L 283.843495 184.820396 
L 280.246974 185.135051 
L 276.663625 185.575031 
L 273.097814 186.1398 
L 269.553886 186.82867 
L 266.036157 187.640802 
L 262.548915 188.575205 
L 259.096407 189.630743 
L 255.682839 190.806129 
L 252.312372 192.09993 
L 248.989111 193.51057 
L 245.717105 195.036332 
L 242.500341 196.675355 
L 239.342737 198.425644 
L 236.248141 200.285064 
L 233.220323 202.251353 
L 230.262971 204.322112 
L 227.37969 206.49482 
L 224.573992 208.76683 
L 221.849295 211.135373 
L 219.208918 213.597564 
L 216.65608 216.150403 
L 214.193889 218.790779 
L 211.825346 221.515476 
L 209.553336 224.321175 
L 207.380628 227.204456 
L 205.309868 230.161807 
L 203.34358 233.189625 
L 201.484159 236.284221 
L 199.733871 239.441825 
L 198.094847 242.658589 
L 196.569086 245.930595 
L 195.158445 249.253857 
L 193.864644 252.624324 
L 192.689259 256.037891 
L 191.633721 259.490399 
L 190.699317 262.977642 
L 189.887186 266.49537 
L 189.198316 270.039299 
L 188.633547 273.605109 
L 188.193567 277.188458 
L 187.878912 280.784979 
L 187.689966 284.390291 
L 187.626958 288 
L 187.689966 291.609709 
L 187.878912 295.215021 
L 188.193567 298.811542 
L 188.633547 302.394891 
L 189.198316 305.960701 
L 189.887186 309.50463 
L 190.699317 313.022358 
L 191.633721 316.509601 
L 192.689259 319.962109 
L 193.864644 323.375676 
L 195.158445 326.746143 
L 196.569086 330.069405 
L 198.094847 333.341411 
L 199.733871 336.558175 
L 201.484159 339.715779 
L 203.34358 342.810375 
L 205.309868 345.838193 
L 207.380628 348.795544 
L 209.553336 351.678825 
L 211.825346 354.484524 
L 214.193889 357.209221 
L 216.65608 359.849597 
L 219.208918 362.402436 
L 221.849295 364.864627 
L 224.573992 367.23317 
L 227.37969 369.50518 
L 230.262971 371.677888 
L 233.220323 373.748647 
L 236.248141 375.714936 
L 239.342737 377.574356 
L 242.500341 379.324645 
L 245.717105 380.963668 
L 248.989111 382.48943 
L 252.312372 383.90007 
L 255.682839 385.193871 
L 259.096407 386.369257 
L 262.548915 387.424795 
L 266.036157 388.359198 
L 269.553886 389.17133 
L 273.097814 389.8602 
L 276.663625 390.424969 
L 280.246974 390.864949 
L 283.843495 391.179604 
L 287.448806 391.36855 
L 291.058516 391.431558 
L 294.668225 391.36855 
L 298.273536 391.179604 
L 301.870057 390.864949 
L 305.453406 390.424969 
L 309.019217 389.8602 
L 312.563146 389.17133 
L 316.080874 388.359198 
L 319.568117 387.424795 
L 323.020625 386.369257 
L 326.434192 385.193871 
L 329.804659 383.90007 
L 333.12792 382.48943 
L 336.399926 380.963668 
L 339.616691 379.324645 
L 342.774294 377.574356 
L 345.868891 375.714936 
L 348.896709 373.748647 
L 351.85406 371.677888 
L 354.737341 369.50518 
L 357.543039 367.23317 
L 360.267737 364.864627 
L 362.908113 362.402436 
L 365.460952 359.849597 
L 367.923142 357.209221 
L 370.291686 354.484524 
L 372.563695 351.678825 
L 374.736404 348.795544 
L 376.807163 345.838193 
L 378.773451 342.810375 
L 380.632872 339.715779 
L 382.38316 336.558175 
L 384.022184 333.341411 
L 385.547945 330.069405 
L 386.958586 326.746143 
L 388.252387 323.375676 
L 389.427773 319.962109 
L 390.48331 316.509601 
L 391.417714 313.022358 
L 392.229846 309.50463 
L 392.918716 305.960701 
L 393.483484 302.394891 
L 393.923464 298.811542 
L 394.238119 295.215021 
L 394.427066 291.609709 
L 394.490073 288 
L 394.490073 288 
" style="fill:none;stroke:#ffffff;stroke-linecap:round;"/>
     </g>
     <g id="text_11">
      <!-- 200 -->
      <g style="fill:#262626;" transform="translate(386.616815 246.232207)scale(0.11 -0.11)">
       <use xlink:href="#ArialMT-50"/>
       <use x="55.615234" xlink:href="#ArialMT-48"/>
       <use x="111.230469" xlink:href="#ArialMT-48"/>
      </g>
     </g>
    </g>
    <g id="ytick_4">
     <g id="line2d_12">
      <path clip-path="url(#pc2f1ee4e52)" d="M 440.675185 288 
L 440.584043 282.778454 
L 440.310726 277.563269 
L 439.855569 272.360799 
L 439.219126 267.177384 
L 438.402172 262.019338 
L 437.405702 256.892945 
L 436.23093 251.804452 
L 434.879289 246.760057 
L 433.352424 241.765907 
L 431.652196 236.828085 
L 429.780676 231.952609 
L 427.740144 227.145418 
L 425.533087 222.412369 
L 423.162194 217.759228 
L 420.630352 213.191665 
L 417.940647 208.715245 
L 415.096356 204.33542 
L 412.100944 200.057528 
L 408.95806 195.886781 
L 405.671534 191.828259 
L 402.245369 187.886907 
L 398.683741 184.067528 
L 394.990987 180.374775 
L 391.171608 176.813146 
L 387.230257 173.386982 
L 383.171735 170.100456 
L 379.000987 166.957572 
L 374.723095 163.96216 
L 370.343271 161.117868 
L 365.86685 158.428164 
L 361.299287 155.896322 
L 356.646147 153.525428 
L 351.913097 151.318371 
L 347.105906 149.27784 
L 342.23043 147.40632 
L 337.292609 145.706092 
L 332.298459 144.179227 
L 327.254064 142.827585 
L 322.16557 141.652814 
L 317.039178 140.656344 
L 311.881131 139.83939 
L 306.697716 139.202946 
L 301.495247 138.747789 
L 296.280062 138.474473 
L 291.058516 138.383331 
L 285.836969 138.474473 
L 280.621784 138.747789 
L 275.419315 139.202946 
L 270.2359 139.83939 
L 265.077854 140.656344 
L 259.951461 141.652814 
L 254.862967 142.827585 
L 249.818572 144.179227 
L 244.824422 145.706092 
L 239.886601 147.40632 
L 235.011125 149.27784 
L 230.203934 151.318371 
L 225.470885 153.525428 
L 220.817744 155.896322 
L 216.250181 158.428164 
L 211.77376 161.117868 
L 207.393936 163.96216 
L 203.116044 166.957572 
L 198.945296 170.100456 
L 194.886774 173.386982 
L 190.945423 176.813146 
L 187.126044 180.374775 
L 183.433291 184.067528 
L 179.871662 187.886907 
L 176.445497 191.828259 
L 173.158971 195.886781 
L 170.016087 200.057528 
L 167.020675 204.33542 
L 164.176384 208.715245 
L 161.486679 213.191665 
L 158.954838 217.759228 
L 156.583944 222.412369 
L 154.376887 227.145418 
L 152.336355 231.952609 
L 150.464835 236.828085 
L 148.764607 241.765907 
L 147.237742 246.760057 
L 145.886101 251.804452 
L 144.711329 256.892945 
L 143.71486 262.019338 
L 142.897905 267.177384 
L 142.261462 272.360799 
L 141.806305 277.563269 
L 141.532989 282.778454 
L 141.441846 288 
L 141.532989 293.221546 
L 141.806305 298.436731 
L 142.261462 303.639201 
L 142.897905 308.822616 
L 143.71486 313.980662 
L 144.711329 319.107055 
L 145.886101 324.195548 
L 147.237742 329.239943 
L 148.764607 334.234093 
L 150.464835 339.171915 
L 152.336355 344.047391 
L 154.376887 348.854582 
L 156.583944 353.587631 
L 158.954838 358.240772 
L 161.486679 362.808335 
L 164.176384 367.284755 
L 167.020675 371.66458 
L 170.016087 375.942472 
L 173.158971 380.113219 
L 176.445497 384.171741 
L 179.871662 388.113093 
L 183.433291 391.932472 
L 187.126044 395.625225 
L 190.945423 399.186854 
L 194.886774 402.613018 
L 198.945296 405.899544 
L 203.116044 409.042428 
L 207.393936 412.03784 
L 211.77376 414.882132 
L 216.250181 417.571836 
L 220.817744 420.103678 
L 225.470885 422.474572 
L 230.203934 424.681629 
L 235.011125 426.72216 
L 239.886601 428.59368 
L 244.824422 430.293908 
L 249.818572 431.820773 
L 254.862967 433.172415 
L 259.951461 434.347186 
L 265.077854 435.343656 
L 270.2359 436.16061 
L 275.419315 436.797054 
L 280.621784 437.252211 
L 285.836969 437.525527 
L 291.058516 437.616669 
L 296.280062 437.525527 
L 301.495247 437.252211 
L 306.697716 436.797054 
L 311.881131 436.16061 
L 317.039178 435.343656 
L 322.16557 434.347186 
L 327.254064 433.172415 
L 332.298459 431.820773 
L 337.292609 430.293908 
L 342.23043 428.59368 
L 347.105906 426.72216 
L 351.913097 424.681629 
L 356.646147 422.474572 
L 361.299287 420.103678 
L 365.86685 417.571836 
L 370.343271 414.882132 
L 374.723095 412.03784 
L 379.000987 409.042428 
L 383.171735 405.899544 
L 387.230257 402.613018 
L 391.171608 399.186854 
L 394.990987 395.625225 
L 398.683741 391.932472 
L 402.245369 388.113093 
L 405.671534 384.171741 
L 408.95806 380.113219 
L 412.100944 375.942472 
L 415.096356 371.66458 
L 417.940647 367.284755 
L 420.630352 362.808335 
L 423.162194 358.240772 
L 425.533087 353.587631 
L 427.740144 348.854582 
L 429.780676 344.047391 
L 431.652196 339.171915 
L 433.352424 334.234093 
L 434.879289 329.239943 
L 436.23093 324.195548 
L 437.405702 319.107055 
L 438.402172 313.980662 
L 439.219126 308.822616 
L 439.855569 303.639201 
L 440.310726 298.436731 
L 440.584043 293.221546 
L 440.675185 288 
L 440.675185 288 
" style="fill:none;stroke:#ffffff;stroke-linecap:round;"/>
     </g>
     <g id="text_12">
      <!-- 300 -->
      <g style="fill:#262626;" transform="translate(429.286294 228.557929)scale(0.11 -0.11)">
       <use xlink:href="#ArialMT-51"/>
       <use x="55.615234" xlink:href="#ArialMT-48"/>
       <use x="111.230469" xlink:href="#ArialMT-48"/>
      </g>
     </g>
    </g>
    <g id="ytick_5">
     <g id="line2d_13">
      <path clip-path="url(#pc2f1ee4e52)" d="M 486.860297 288 
L 486.74102 281.166616 
L 486.383333 274.341558 
L 485.787674 267.533141 
L 484.954767 260.749659 
L 483.885628 253.999378 
L 482.581558 247.290521 
L 481.044147 240.631262 
L 479.275268 234.029715 
L 477.277075 227.493922 
L 475.052004 221.031847 
L 472.602766 214.651362 
L 469.932343 208.360241 
L 467.043991 202.166149 
L 463.941227 196.076632 
L 460.627832 190.099109 
L 457.107843 184.240864 
L 453.385549 178.509034 
L 449.465484 172.910601 
L 445.352425 167.452387 
L 441.051382 162.141041 
L 436.567596 156.983036 
L 431.90653 151.984654 
L 427.073862 147.151986 
L 422.07548 142.49092 
L 416.917474 138.007134 
L 411.606129 133.706091 
L 406.147915 129.593032 
L 400.549482 125.672967 
L 394.817651 121.950672 
L 388.959406 118.430684 
L 382.981884 115.117289 
L 376.892367 112.014525 
L 370.698275 109.126172 
L 364.407154 106.45575 
L 358.026669 104.006511 
L 351.564593 101.78144 
L 345.028801 99.783248 
L 338.427254 98.014369 
L 331.767995 96.476958 
L 325.059138 95.172888 
L 318.308857 94.103748 
L 311.525375 93.270842 
L 304.716957 92.675182 
L 297.891899 92.317496 
L 291.058516 92.198219 
L 284.225132 92.317496 
L 277.400074 92.675182 
L 270.591656 93.270842 
L 263.808175 94.103748 
L 257.057893 95.172888 
L 250.349036 96.476958 
L 243.689778 98.014369 
L 237.08823 99.783248 
L 230.552438 101.78144 
L 224.090362 104.006511 
L 217.709877 106.45575 
L 211.418756 109.126172 
L 205.224664 112.014525 
L 199.135147 115.117289 
L 193.157625 118.430684 
L 187.29938 121.950672 
L 181.567549 125.672967 
L 175.969116 129.593032 
L 170.510902 133.706091 
L 165.199557 138.007134 
L 160.041551 142.49092 
L 155.043169 147.151986 
L 150.210502 151.984654 
L 145.549435 156.983036 
L 141.065649 162.141041 
L 136.764607 167.452387 
L 132.651547 172.910601 
L 128.731482 178.509034 
L 125.009188 184.240864 
L 121.489199 190.099109 
L 118.175804 196.076632 
L 115.073041 202.166149 
L 112.184688 208.360241 
L 109.514266 214.651362 
L 107.065027 221.031847 
L 104.839956 227.493922 
L 102.841764 234.029715 
L 101.072884 240.631262 
L 99.535473 247.290521 
L 98.231404 253.999378 
L 97.162264 260.749659 
L 96.329357 267.533141 
L 95.733698 274.341558 
L 95.376012 281.166616 
L 95.256735 288 
L 95.376012 294.833384 
L 95.733698 301.658442 
L 96.329357 308.466859 
L 97.162264 315.250341 
L 98.231404 322.000622 
L 99.535473 328.709479 
L 101.072884 335.368738 
L 102.841764 341.970285 
L 104.839956 348.506078 
L 107.065027 354.968153 
L 109.514266 361.348638 
L 112.184688 367.639759 
L 115.073041 373.833851 
L 118.175804 379.923368 
L 121.489199 385.900891 
L 125.009188 391.759136 
L 128.731482 397.490966 
L 132.651547 403.089399 
L 136.764607 408.547613 
L 141.065649 413.858959 
L 145.549435 419.016964 
L 150.210502 424.015346 
L 155.043169 428.848014 
L 160.041551 433.50908 
L 165.199557 437.992866 
L 170.510902 442.293909 
L 175.969116 446.406968 
L 181.567549 450.327033 
L 187.29938 454.049328 
L 193.157625 457.569316 
L 199.135147 460.882711 
L 205.224664 463.985475 
L 211.418756 466.873828 
L 217.709877 469.54425 
L 224.090362 471.993489 
L 230.552438 474.21856 
L 237.08823 476.216752 
L 243.689778 477.985631 
L 250.349036 479.523042 
L 257.057893 480.827112 
L 263.808175 481.896252 
L 270.591656 482.729158 
L 277.400074 483.324818 
L 284.225132 483.682504 
L 291.058516 483.801781 
L 297.891899 483.682504 
L 304.716957 483.324818 
L 311.525375 482.729158 
L 318.308857 481.896252 
L 325.059138 480.827112 
L 331.767995 479.523042 
L 338.427254 477.985631 
L 345.028801 476.216752 
L 351.564593 474.21856 
L 358.026669 471.993489 
L 364.407154 469.54425 
L 370.698275 466.873828 
L 376.892367 463.985475 
L 382.981884 460.882711 
L 388.959406 457.569316 
L 394.817651 454.049328 
L 400.549482 450.327033 
L 406.147915 446.406968 
L 411.606129 442.293909 
L 416.917474 437.992866 
L 422.07548 433.50908 
L 427.073862 428.848014 
L 431.90653 424.015346 
L 436.567596 419.016964 
L 441.051382 413.858959 
L 445.352425 408.547613 
L 449.465484 403.089399 
L 453.385549 397.490966 
L 457.107843 391.759136 
L 460.627832 385.900891 
L 463.941227 379.923368 
L 467.043991 373.833851 
L 469.932343 367.639759 
L 472.602766 361.348638 
L 475.052004 354.968153 
L 477.277075 348.506078 
L 479.275268 341.970285 
L 481.044147 335.368738 
L 482.581558 328.709479 
L 483.885628 322.000622 
L 484.954767 315.250341 
L 485.787674 308.466859 
L 486.383333 301.658442 
L 486.74102 294.833384 
L 486.860297 288 
L 486.860297 288 
" style="fill:none;stroke:#ffffff;stroke-linecap:round;"/>
     </g>
     <g id="text_13">
      <!-- 400 -->
      <g style="fill:#262626;" transform="translate(471.955774 210.883652)scale(0.11 -0.11)">
       <use xlink:href="#ArialMT-52"/>
       <use x="55.615234" xlink:href="#ArialMT-48"/>
       <use x="111.230469" xlink:href="#ArialMT-48"/>
      </g>
     </g>
    </g>
    <g id="ytick_6">
     <g id="line2d_14">
      <path clip-path="url(#pc2f1ee4e52)" d="M 533.045408 288 
L 532.897997 279.554779 
L 532.45594 271.119848 
L 531.719779 262.705482 
L 530.690409 254.321934 
L 529.369084 245.979417 
L 527.757414 237.688096 
L 525.857363 229.458072 
L 523.671247 221.299373 
L 521.201727 213.221938 
L 518.451813 205.235608 
L 515.424856 197.350114 
L 512.124542 189.575064 
L 508.554894 181.919928 
L 504.72026 174.394035 
L 500.625312 167.006554 
L 496.275039 159.766484 
L 491.674742 152.682647 
L 486.830024 145.763673 
L 481.746789 139.017993 
L 476.43123 132.453824 
L 470.889823 126.079164 
L 465.129319 119.901779 
L 459.156736 113.929197 
L 452.979352 108.168693 
L 446.604692 102.627285 
L 440.040523 97.311726 
L 433.294842 92.228491 
L 426.375869 87.383774 
L 419.292032 82.783476 
L 412.051962 78.433203 
L 404.66448 74.338256 
L 397.138587 70.503622 
L 389.483452 66.933973 
L 381.708401 63.63366 
L 373.822907 60.606703 
L 365.836578 57.856789 
L 357.759143 55.387269 
L 349.600443 53.201152 
L 341.37042 51.301101 
L 333.079099 49.689432 
L 324.736582 48.368107 
L 316.353034 47.338737 
L 307.938668 46.602575 
L 299.503736 46.160519 
L 291.058516 46.013107 
L 282.613295 46.160519 
L 274.178363 46.602575 
L 265.763998 47.338737 
L 257.380449 48.368107 
L 249.037933 49.689432 
L 240.746612 51.301101 
L 232.516588 53.201152 
L 224.357888 55.387269 
L 216.280453 57.856789 
L 208.294124 60.606703 
L 200.40863 63.63366 
L 192.633579 66.933973 
L 184.978444 70.503622 
L 177.452551 74.338256 
L 170.065069 78.433203 
L 162.824999 82.783476 
L 155.741162 87.383774 
L 148.822189 92.228491 
L 142.076508 97.311726 
L 135.512339 102.627285 
L 129.137679 108.168693 
L 122.960295 113.929197 
L 116.987713 119.901779 
L 111.227208 126.079164 
L 105.685801 132.453824 
L 100.370242 139.017993 
L 95.287007 145.763673 
L 90.442289 152.682647 
L 85.841992 159.766484 
L 81.491719 167.006554 
L 77.396771 174.394035 
L 73.562137 181.919928 
L 69.992489 189.575064 
L 66.692176 197.350114 
L 63.665218 205.235608 
L 60.915304 213.221938 
L 58.445785 221.299373 
L 56.259668 229.458072 
L 54.359617 237.688096 
L 52.747948 245.979417 
L 51.426623 254.321934 
L 50.397252 262.705482 
L 49.661091 271.119848 
L 49.219035 279.554779 
L 49.071623 288 
L 49.219035 296.445221 
L 49.661091 304.880152 
L 50.397252 313.294518 
L 51.426623 321.678066 
L 52.747948 330.020583 
L 54.359617 338.311904 
L 56.259668 346.541928 
L 58.445785 354.700627 
L 60.915304 362.778062 
L 63.665218 370.764392 
L 66.692176 378.649886 
L 69.992489 386.424936 
L 73.562137 394.080072 
L 77.396771 401.605965 
L 81.491719 408.993446 
L 85.841992 416.233516 
L 90.442289 423.317353 
L 95.287007 430.236327 
L 100.370242 436.982007 
L 105.685801 443.546176 
L 111.227208 449.920836 
L 116.987713 456.098221 
L 122.960295 462.070803 
L 129.137679 467.831307 
L 135.512339 473.372715 
L 142.076508 478.688274 
L 148.822189 483.771509 
L 155.741162 488.616226 
L 162.824999 493.216524 
L 170.065069 497.566797 
L 177.452551 501.661744 
L 184.978444 505.496378 
L 192.633579 509.066027 
L 200.40863 512.36634 
L 208.294124 515.393297 
L 216.280453 518.143211 
L 224.357888 520.612731 
L 232.516588 522.798848 
L 240.746612 524.698899 
L 249.037933 526.310568 
L 257.380449 527.631893 
L 265.763998 528.661263 
L 274.178363 529.397425 
L 282.613295 529.839481 
L 291.058516 529.986893 
L 299.503736 529.839481 
L 307.938668 529.397425 
L 316.353034 528.661263 
L 324.736582 527.631893 
L 333.079099 526.310568 
L 341.37042 524.698899 
L 349.600443 522.798848 
L 357.759143 520.612731 
L 365.836578 518.143211 
L 373.822907 515.393297 
L 381.708401 512.36634 
L 389.483452 509.066027 
L 397.138587 505.496378 
L 404.66448 501.661744 
L 412.051962 497.566797 
L 419.292032 493.216524 
L 426.375869 488.616226 
L 433.294842 483.771509 
L 440.040523 478.688274 
L 446.604692 473.372715 
L 452.979352 467.831307 
L 459.156736 462.070803 
L 465.129319 456.098221 
L 470.889823 449.920836 
L 476.43123 443.546176 
L 481.746789 436.982007 
L 486.830024 430.236327 
L 491.674742 423.317353 
L 496.275039 416.233516 
L 500.625312 408.993446 
L 504.72026 401.605965 
L 508.554894 394.080072 
L 512.124542 386.424936 
L 515.424856 378.649886 
L 518.451813 370.764392 
L 521.201727 362.778062 
L 523.671247 354.700627 
L 525.857363 346.541928 
L 527.757414 338.311904 
L 529.369084 330.020583 
L 530.690409 321.678066 
L 531.719779 313.294518 
L 532.45594 304.880152 
L 532.897997 296.445221 
L 533.045408 288 
L 533.045408 288 
" style="fill:none;stroke:#ffffff;stroke-linecap:round;"/>
     </g>
     <g id="text_14">
      <!-- 500 -->
      <g style="fill:#262626;" transform="translate(514.625253 193.209375)scale(0.11 -0.11)">
       <use xlink:href="#ArialMT-53"/>
       <use x="55.615234" xlink:href="#ArialMT-48"/>
       <use x="111.230469" xlink:href="#ArialMT-48"/>
      </g>
     </g>
    </g>
   </g>
   <g id="line2d_15">
    <defs>
     <path d="M 0 3 
C 0.795609 3 1.55874 2.683901 2.12132 2.12132 
C 2.683901 1.55874 3 0.795609 3 0 
C 3 -0.795609 2.683901 -1.55874 2.12132 -2.12132 
C 1.55874 -2.683901 0.795609 -3 0 -3 
C -0.795609 -3 -1.55874 -2.683901 -2.12132 -2.12132 
C -2.683901 -1.55874 -3 -0.795609 -3 0 
C -3 0.795609 -2.683901 1.55874 -2.12132 2.12132 
C -1.55874 2.683901 -0.795609 3 0 3 
z
" id="mc7283950e2" style="stroke:#4c72b0;"/>
    </defs>
    <g clip-path="url(#pc2f1ee4e52)">
     <use style="fill:#4c72b0;stroke:#4c72b0;" x="533.045408" xlink:href="#mc7283950e2" y="288"/>
     <use style="fill:#4c72b0;stroke:#4c72b0;" x="49.533474" xlink:href="#mc7283950e2" y="288"/>
     <use style="fill:#4c72b0;stroke:#4c72b0;" x="49.995325" xlink:href="#mc7283950e2" y="288"/>
     <use style="fill:#4c72b0;stroke:#4c72b0;" x="50.457176" xlink:href="#mc7283950e2" y="288"/>
     <use style="fill:#4c72b0;stroke:#4c72b0;" x="291.058516" xlink:href="#mc7283950e2" y="528.139488"/>
     <use style="fill:#4c72b0;stroke:#4c72b0;" x="523.579978" xlink:href="#mc7283950e2" y="229.869634"/>
     <use style="fill:#4c72b0;stroke:#4c72b0;" x="519.84465" xlink:href="#mc7283950e2" y="218.135153"/>
     <use style="fill:#4c72b0;stroke:#4c72b0;" x="516.24036" xlink:href="#mc7283950e2" y="208.649017"/>
     <use style="fill:#4c72b0;stroke:#4c72b0;" x="512.350581" xlink:href="#mc7283950e2" y="199.609169"/>
     <use style="fill:#4c72b0;stroke:#4c72b0;" x="507.575809" xlink:href="#mc7283950e2" y="189.595318"/>
     <use style="fill:#4c72b0;stroke:#4c72b0;" x="500.619239" xlink:href="#mc7283950e2" y="176.518828"/>
     <use style="fill:#4c72b0;stroke:#4c72b0;" x="487.320162" xlink:href="#mc7283950e2" y="155.312132"/>
     <use style="fill:#4c72b0;stroke:#4c72b0;" x="443.538705" xlink:href="#mc7283950e2" y="107.290625"/>
     <use style="fill:#4c72b0;stroke:#4c72b0;" x="142.668187" xlink:href="#mc7283950e2" y="104.51102"/>
     <use style="fill:#4c72b0;stroke:#4c72b0;" x="55.704587" xlink:href="#mc7283950e2" y="296.868986"/>
     <use style="fill:#4c72b0;stroke:#4c72b0;" x="63.08263" xlink:href="#mc7283950e2" y="345.269437"/>
     <use style="fill:#4c72b0;stroke:#4c72b0;" x="70.141768" xlink:href="#mc7283950e2" y="366.940939"/>
     <use style="fill:#4c72b0;stroke:#4c72b0;" x="75.947174" xlink:href="#mc7283950e2" y="380.447321"/>
     <use style="fill:#4c72b0;stroke:#4c72b0;" x="81.013346" xlink:href="#mc7283950e2" y="390.39319"/>
     <use style="fill:#4c72b0;stroke:#4c72b0;" x="85.676485" xlink:href="#mc7283950e2" y="398.480443"/>
     <use style="fill:#4c72b0;stroke:#4c72b0;" x="90.150407" xlink:href="#mc7283950e2" y="405.509293"/>
     <use style="fill:#4c72b0;stroke:#4c72b0;" x="94.589747" xlink:href="#mc7283950e2" y="411.926376"/>
     <use style="fill:#4c72b0;stroke:#4c72b0;" x="99.125264" xlink:href="#mc7283950e2" y="418.019227"/>
     <use style="fill:#4c72b0;stroke:#4c72b0;" x="103.885946" xlink:href="#mc7283950e2" y="423.999546"/>
     <use style="fill:#4c72b0;stroke:#4c72b0;" x="109.017092" xlink:href="#mc7283950e2" y="430.045305"/>
     <use style="fill:#4c72b0;stroke:#4c72b0;" x="114.70034" xlink:href="#mc7283950e2" y="436.326231"/>
     <use style="fill:#4c72b0;stroke:#4c72b0;" x="121.181568" xlink:href="#mc7283950e2" y="443.022755"/>
     <use style="fill:#4c72b0;stroke:#4c72b0;" x="128.815464" xlink:href="#mc7283950e2" y="450.342864"/>
     <use style="fill:#4c72b0;stroke:#4c72b0;" x="138.142952" xlink:href="#mc7283950e2" y="458.537537"/>
     <use style="fill:#4c72b0;stroke:#4c72b0;" x="150.033888" xlink:href="#mc7283950e2" y="467.90806"/>
     <use style="fill:#4c72b0;stroke:#4c72b0;" x="165.961934" xlink:href="#mc7283950e2" y="478.774113"/>
     <use style="fill:#4c72b0;stroke:#4c72b0;" x="188.542367" xlink:href="#mc7283950e2" y="491.282671"/>
     <use style="fill:#4c72b0;stroke:#4c72b0;" x="222.499893" xlink:href="#mc7283950e2" y="504.617254"/>
     <use style="fill:#4c72b0;stroke:#4c72b0;" x="275.557767" xlink:href="#mc7283950e2" y="514.215356"/>
     <use style="fill:#4c72b0;stroke:#4c72b0;" x="353.813151" xlink:href="#mc7283950e2" y="505.408105"/>
     <use style="fill:#4c72b0;stroke:#4c72b0;" x="439.856988" xlink:href="#mc7283950e2" y="457.866528"/>
     <use style="fill:#4c72b0;stroke:#4c72b0;" x="494.444924" xlink:href="#mc7283950e2" y="385.062929"/>
     <use style="fill:#4c72b0;stroke:#4c72b0;" x="513.392879" xlink:href="#mc7283950e2" y="321.86328"/>
     <use style="fill:#4c72b0;stroke:#4c72b0;" x="515.248947" xlink:href="#mc7283950e2" y="277.492115"/>
     <use style="fill:#4c72b0;stroke:#4c72b0;" x="511.263459" xlink:href="#mc7283950e2" y="247.079968"/>
     <use style="fill:#4c72b0;stroke:#4c72b0;" x="505.649749" xlink:href="#mc7283950e2" y="225.481235"/>
     <use style="fill:#4c72b0;stroke:#4c72b0;" x="499.812149" xlink:href="#mc7283950e2" y="209.427308"/>
     <use style="fill:#4c72b0;stroke:#4c72b0;" x="494.190317" xlink:href="#mc7283950e2" y="196.986818"/>
     <use style="fill:#4c72b0;stroke:#4c72b0;" x="488.896251" xlink:href="#mc7283950e2" y="187.001161"/>
     <use style="fill:#4c72b0;stroke:#4c72b0;" x="483.93121" xlink:href="#mc7283950e2" y="178.749404"/>
     <use style="fill:#4c72b0;stroke:#4c72b0;" x="479.261593" xlink:href="#mc7283950e2" y="171.76476"/>
     <use style="fill:#4c72b0;stroke:#4c72b0;" x="474.845926" xlink:href="#mc7283950e2" y="165.73347"/>
     <use style="fill:#4c72b0;stroke:#4c72b0;" x="470.644191" xlink:href="#mc7283950e2" y="160.437406"/>
     <use style="fill:#4c72b0;stroke:#4c72b0;" x="466.620639" xlink:href="#mc7283950e2" y="155.720329"/>
     <use style="fill:#4c72b0;stroke:#4c72b0;" x="462.744186" xlink:href="#mc7283950e2" y="151.467339"/>
     <use style="fill:#4c72b0;stroke:#4c72b0;" x="458.987989" xlink:href="#mc7283950e2" y="147.591942"/>
     <use style="fill:#4c72b0;stroke:#4c72b0;" x="455.32878" xlink:href="#mc7283950e2" y="144.027673"/>
     <use style="fill:#4c72b0;stroke:#4c72b0;" x="451.74621" xlink:href="#mc7283950e2" y="140.722498"/>
     <use style="fill:#4c72b0;stroke:#4c72b0;" x="448.222255" xlink:href="#mc7283950e2" y="137.635011"/>
     <use style="fill:#4c72b0;stroke:#4c72b0;" x="444.740715" xlink:href="#mc7283950e2" y="134.731763"/>
     <use style="fill:#4c72b0;stroke:#4c72b0;" x="441.286791" xlink:href="#mc7283950e2" y="131.985376"/>
     <use style="fill:#4c72b0;stroke:#4c72b0;" x="437.846727" xlink:href="#mc7283950e2" y="129.373168"/>
     <use style="fill:#4c72b0;stroke:#4c72b0;" x="434.40751" xlink:href="#mc7283950e2" y="126.876146"/>
     <use style="fill:#4c72b0;stroke:#4c72b0;" x="430.956609" xlink:href="#mc7283950e2" y="124.478258"/>
     <use style="fill:#4c72b0;stroke:#4c72b0;" x="427.481743" xlink:href="#mc7283950e2" y="122.165827"/>
     <use style="fill:#4c72b0;stroke:#4c72b0;" x="423.970668" xlink:href="#mc7283950e2" y="119.927131"/>
     <use style="fill:#4c72b0;stroke:#4c72b0;" x="420.410986" xlink:href="#mc7283950e2" y="117.75208"/>
     <use style="fill:#4c72b0;stroke:#4c72b0;" x="416.789948" xlink:href="#mc7283950e2" y="115.631977"/>
     <use style="fill:#4c72b0;stroke:#4c72b0;" x="413.094268" xlink:href="#mc7283950e2" y="113.559342"/>
     <use style="fill:#4c72b0;stroke:#4c72b0;" x="409.309925" xlink:href="#mc7283950e2" y="111.527797"/>
     <use style="fill:#4c72b0;stroke:#4c72b0;" x="405.421958" xlink:href="#mc7283950e2" y="109.531992"/>
     <use style="fill:#4c72b0;stroke:#4c72b0;" x="401.414248" xlink:href="#mc7283950e2" y="107.567579"/>
     <use style="fill:#4c72b0;stroke:#4c72b0;" x="397.269276" xlink:href="#mc7283950e2" y="105.631235"/>
     <use style="fill:#4c72b0;stroke:#4c72b0;" x="392.967857" xlink:href="#mc7283950e2" y="103.720726"/>
     <use style="fill:#4c72b0;stroke:#4c72b0;" x="388.488852" xlink:href="#mc7283950e2" y="101.835037"/>
     <use style="fill:#4c72b0;stroke:#4c72b0;" x="383.808835" xlink:href="#mc7283950e2" y="99.974555"/>
     <use style="fill:#4c72b0;stroke:#4c72b0;" x="378.90173" xlink:href="#mc7283950e2" y="98.141338"/>
     <use style="fill:#4c72b0;stroke:#4c72b0;" x="373.738415" xlink:href="#mc7283950e2" y="96.339479"/>
     <use style="fill:#4c72b0;stroke:#4c72b0;" x="368.286274" xlink:href="#mc7283950e2" y="94.575597"/>
     <use style="fill:#4c72b0;stroke:#4c72b0;" x="362.508738" xlink:href="#mc7283950e2" y="92.859475"/>
     <use style="fill:#4c72b0;stroke:#4c72b0;" x="356.364792" xlink:href="#mc7283950e2" y="91.204909"/>
     <use style="fill:#4c72b0;stroke:#4c72b0;" x="349.808519" xlink:href="#mc7283950e2" y="89.630799"/>
     <use style="fill:#4c72b0;stroke:#4c72b0;" x="342.788693" xlink:href="#mc7283950e2" y="88.162557"/>
     <use style="fill:#4c72b0;stroke:#4c72b0;" x="335.248542" xlink:href="#mc7283950e2" y="86.833911"/>
     <use style="fill:#4c72b0;stroke:#4c72b0;" x="327.125797" xlink:href="#mc7283950e2" y="85.689174"/>
     <use style="fill:#4c72b0;stroke:#4c72b0;" x="318.353251" xlink:href="#mc7283950e2" y="84.786053"/>
     <use style="fill:#4c72b0;stroke:#4c72b0;" x="308.860155" xlink:href="#mc7283950e2" y="84.199041"/>
     <use style="fill:#4c72b0;stroke:#4c72b0;" x="298.574882" xlink:href="#mc7283950e2" y="84.023338"/>
     <use style="fill:#4c72b0;stroke:#4c72b0;" x="287.429506" xlink:href="#mc7283950e2" y="84.379086"/>
     <use style="fill:#4c72b0;stroke:#4c72b0;" x="275.367043" xlink:href="#mc7283950e2" y="85.415395"/>
     <use style="fill:#4c72b0;stroke:#4c72b0;" x="262.352196" xlink:href="#mc7283950e2" y="87.313138"/>
     <use style="fill:#4c72b0;stroke:#4c72b0;" x="248.386216" xlink:href="#mc7283950e2" y="90.284811"/>
     <use style="fill:#4c72b0;stroke:#4c72b0;" x="233.525825" xlink:href="#mc7283950e2" y="94.568904"/>
     <use style="fill:#4c72b0;stroke:#4c72b0;" x="217.904542" xlink:href="#mc7283950e2" y="100.415618"/>
     <use style="fill:#4c72b0;stroke:#4c72b0;" x="201.752317" xlink:href="#mc7283950e2" y="108.061015"/>
     <use style="fill:#4c72b0;stroke:#4c72b0;" x="185.406255" xlink:href="#mc7283950e2" y="117.688834"/>
     <use style="fill:#4c72b0;stroke:#4c72b0;" x="169.303268" xlink:href="#mc7283950e2" y="129.383992"/>
     <use style="fill:#4c72b0;stroke:#4c72b0;" x="153.947069" xlink:href="#mc7283950e2" y="143.088508"/>
     <use style="fill:#4c72b0;stroke:#4c72b0;" x="139.849336" xlink:href="#mc7283950e2" y="158.575848"/>
     <use style="fill:#4c72b0;stroke:#4c72b0;" x="127.456576" xlink:href="#mc7283950e2" y="175.458466"/>
     <use style="fill:#4c72b0;stroke:#4c72b0;" x="117.083919" xlink:href="#mc7283950e2" y="193.232798"/>
     <use style="fill:#4c72b0;stroke:#4c72b0;" x="108.877152" xlink:href="#mc7283950e2" y="211.350466"/>
     <use style="fill:#4c72b0;stroke:#4c72b0;" x="102.81297" xlink:href="#mc7283950e2" y="229.293448"/>
     <use style="fill:#4c72b0;stroke:#4c72b0;" x="98.731767" xlink:href="#mc7283950e2" y="246.631685"/>
     <use style="fill:#4c72b0;stroke:#4c72b0;" x="96.386958" xlink:href="#mc7283950e2" y="263.052094"/>
     <use style="fill:#4c72b0;stroke:#4c72b0;" x="95.494164" xlink:href="#mc7283950e2" y="278.360409"/>
     <use style="fill:#4c72b0;stroke:#4c72b0;" x="95.769617" xlink:href="#mc7283950e2" y="292.464781"/>
     <use style="fill:#4c72b0;stroke:#4c72b0;" x="96.954435" xlink:href="#mc7283950e2" y="305.351407"/>
     <use style="fill:#4c72b0;stroke:#4c72b0;" x="98.826374" xlink:href="#mc7283950e2" y="317.059824"/>
     <use style="fill:#4c72b0;stroke:#4c72b0;" x="101.202715" xlink:href="#mc7283950e2" y="327.662011"/>
     <use style="fill:#4c72b0;stroke:#4c72b0;" x="103.9379" xlink:href="#mc7283950e2" y="337.246649"/>
     <use style="fill:#4c72b0;stroke:#4c72b0;" x="106.918692" xlink:href="#mc7283950e2" y="345.90826"/>
     <use style="fill:#4c72b0;stroke:#4c72b0;" x="110.058611" xlink:href="#mc7283950e2" y="353.740295"/>
     <use style="fill:#4c72b0;stroke:#4c72b0;" x="113.292606" xlink:href="#mc7283950e2" y="360.831108"/>
     <use style="fill:#4c72b0;stroke:#4c72b0;" x="116.572402" xlink:href="#mc7283950e2" y="367.261899"/>
     <use style="fill:#4c72b0;stroke:#4c72b0;" x="119.86265" xlink:href="#mc7283950e2" y="373.105923"/>
     <use style="fill:#4c72b0;stroke:#4c72b0;" x="123.137844" xlink:href="#mc7283950e2" y="378.428467"/>
     <use style="fill:#4c72b0;stroke:#4c72b0;" x="126.379911" xlink:href="#mc7283950e2" y="383.287252"/>
     <use style="fill:#4c72b0;stroke:#4c72b0;" x="129.576352" xlink:href="#mc7283950e2" y="387.733064"/>
     <use style="fill:#4c72b0;stroke:#4c72b0;" x="132.718819" xlink:href="#mc7283950e2" y="391.810454"/>
     <use style="fill:#4c72b0;stroke:#4c72b0;" x="135.802046" xlink:href="#mc7283950e2" y="395.558459"/>
     <use style="fill:#4c72b0;stroke:#4c72b0;" x="138.823035" xlink:href="#mc7283950e2" y="399.011268"/>
     <use style="fill:#4c72b0;stroke:#4c72b0;" x="141.780445" xlink:href="#mc7283950e2" y="402.19885"/>
     <use style="fill:#4c72b0;stroke:#4c72b0;" x="144.674139" xlink:href="#mc7283950e2" y="405.147502"/>
     <use style="fill:#4c72b0;stroke:#4c72b0;" x="147.504838" xlink:href="#mc7283950e2" y="407.880334"/>
     <use style="fill:#4c72b0;stroke:#4c72b0;" x="150.273871" xlink:href="#mc7283950e2" y="410.417699"/>
     <use style="fill:#4c72b0;stroke:#4c72b0;" x="152.982978" xlink:href="#mc7283950e2" y="412.777555"/>
     <use style="fill:#4c72b0;stroke:#4c72b0;" x="155.634176" xlink:href="#mc7283950e2" y="414.975786"/>
     <use style="fill:#4c72b0;stroke:#4c72b0;" x="158.229649" xlink:href="#mc7283950e2" y="417.026471"/>
     <use style="fill:#4c72b0;stroke:#4c72b0;" x="160.771674" xlink:href="#mc7283950e2" y="418.942125"/>
     <use style="fill:#4c72b0;stroke:#4c72b0;" x="163.262566" xlink:href="#mc7283950e2" y="420.73389"/>
     <use style="fill:#4c72b0;stroke:#4c72b0;" x="165.704632" xlink:href="#mc7283950e2" y="422.41172"/>
     <use style="fill:#4c72b0;stroke:#4c72b0;" x="168.10015" xlink:href="#mc7283950e2" y="423.98452"/>
     <use style="fill:#4c72b0;stroke:#4c72b0;" x="170.451344" xlink:href="#mc7283950e2" y="425.46028"/>
     <use style="fill:#4c72b0;stroke:#4c72b0;" x="172.760371" xlink:href="#mc7283950e2" y="426.846187"/>
     <use style="fill:#4c72b0;stroke:#4c72b0;" x="175.029314" xlink:href="#mc7283950e2" y="428.148712"/>
     <use style="fill:#4c72b0;stroke:#4c72b0;" x="177.260176" xlink:href="#mc7283950e2" y="429.373703"/>
     <use style="fill:#4c72b0;stroke:#4c72b0;" x="179.454876" xlink:href="#mc7283950e2" y="430.526452"/>
     <use style="fill:#4c72b0;stroke:#4c72b0;" x="181.615253" xlink:href="#mc7283950e2" y="431.611756"/>
     <use style="fill:#4c72b0;stroke:#4c72b0;" x="183.743063" xlink:href="#mc7283950e2" y="432.633975"/>
     <use style="fill:#4c72b0;stroke:#4c72b0;" x="185.839981" xlink:href="#mc7283950e2" y="433.597077"/>
     <use style="fill:#4c72b0;stroke:#4c72b0;" x="187.907608" xlink:href="#mc7283950e2" y="434.504681"/>
     <use style="fill:#4c72b0;stroke:#4c72b0;" x="189.947469" xlink:href="#mc7283950e2" y="435.36009"/>
     <use style="fill:#4c72b0;stroke:#4c72b0;" x="191.961019" xlink:href="#mc7283950e2" y="436.16633"/>
     <use style="fill:#4c72b0;stroke:#4c72b0;" x="193.949645" xlink:href="#mc7283950e2" y="436.926172"/>
     <use style="fill:#4c72b0;stroke:#4c72b0;" x="195.914672" xlink:href="#mc7283950e2" y="437.642157"/>
     <use style="fill:#4c72b0;stroke:#4c72b0;" x="197.857364" xlink:href="#mc7283950e2" y="438.316621"/>
     <use style="fill:#4c72b0;stroke:#4c72b0;" x="199.778929" xlink:href="#mc7283950e2" y="438.951715"/>
     <use style="fill:#4c72b0;stroke:#4c72b0;" x="201.680522" xlink:href="#mc7283950e2" y="439.549418"/>
     <use style="fill:#4c72b0;stroke:#4c72b0;" x="203.563249" xlink:href="#mc7283950e2" y="440.111555"/>
     <use style="fill:#4c72b0;stroke:#4c72b0;" x="205.428167" xlink:href="#mc7283950e2" y="440.639812"/>
     <use style="fill:#4c72b0;stroke:#4c72b0;" x="207.276292" xlink:href="#mc7283950e2" y="441.135744"/>
     <use style="fill:#4c72b0;stroke:#4c72b0;" x="209.108598" xlink:href="#mc7283950e2" y="441.600791"/>
     <use style="fill:#4c72b0;stroke:#4c72b0;" x="210.92602" xlink:href="#mc7283950e2" y="442.036283"/>
     <use style="fill:#4c72b0;stroke:#4c72b0;" x="212.729458" xlink:href="#mc7283950e2" y="442.443454"/>
     <use style="fill:#4c72b0;stroke:#4c72b0;" x="214.51978" xlink:href="#mc7283950e2" y="442.823443"/>
     <use style="fill:#4c72b0;stroke:#4c72b0;" x="216.297821" xlink:href="#mc7283950e2" y="443.177306"/>
     <use style="fill:#4c72b0;stroke:#4c72b0;" x="218.064388" xlink:href="#mc7283950e2" y="443.506023"/>
     <use style="fill:#4c72b0;stroke:#4c72b0;" x="219.820262" xlink:href="#mc7283950e2" y="443.8105"/>
     <use style="fill:#4c72b0;stroke:#4c72b0;" x="221.566198" xlink:href="#mc7283950e2" y="444.091574"/>
     <use style="fill:#4c72b0;stroke:#4c72b0;" x="223.302929" xlink:href="#mc7283950e2" y="444.350024"/>
     <use style="fill:#4c72b0;stroke:#4c72b0;" x="225.031163" xlink:href="#mc7283950e2" y="444.586567"/>
     <use style="fill:#4c72b0;stroke:#4c72b0;" x="226.751593" xlink:href="#mc7283950e2" y="444.801865"/>
     <use style="fill:#4c72b0;stroke:#4c72b0;" x="228.46489" xlink:href="#mc7283950e2" y="444.996532"/>
     <use style="fill:#4c72b0;stroke:#4c72b0;" x="230.171709" xlink:href="#mc7283950e2" y="445.17113"/>
     <use style="fill:#4c72b0;stroke:#4c72b0;" x="231.872689" xlink:href="#mc7283950e2" y="445.326177"/>
     <use style="fill:#4c72b0;stroke:#4c72b0;" x="233.568454" xlink:href="#mc7283950e2" y="445.46215"/>
     <use style="fill:#4c72b0;stroke:#4c72b0;" x="235.259616" xlink:href="#mc7283950e2" y="445.57948"/>
     <use style="fill:#4c72b0;stroke:#4c72b0;" x="236.946773" xlink:href="#mc7283950e2" y="445.678565"/>
     <use style="fill:#4c72b0;stroke:#4c72b0;" x="238.630512" xlink:href="#mc7283950e2" y="445.759762"/>
     <use style="fill:#4c72b0;stroke:#4c72b0;" x="240.311409" xlink:href="#mc7283950e2" y="445.823392"/>
     <use style="fill:#4c72b0;stroke:#4c72b0;" x="241.990033" xlink:href="#mc7283950e2" y="445.869746"/>
     <use style="fill:#4c72b0;stroke:#4c72b0;" x="243.66694" xlink:href="#mc7283950e2" y="445.899077"/>
     <use style="fill:#4c72b0;stroke:#4c72b0;" x="245.342683" xlink:href="#mc7283950e2" y="445.911609"/>
     <use style="fill:#4c72b0;stroke:#4c72b0;" x="247.017803" xlink:href="#mc7283950e2" y="445.907535"/>
     <use style="fill:#4c72b0;stroke:#4c72b0;" x="248.692838" xlink:href="#mc7283950e2" y="445.887018"/>
     <use style="fill:#4c72b0;stroke:#4c72b0;" x="250.368319" xlink:href="#mc7283950e2" y="445.850191"/>
     <use style="fill:#4c72b0;stroke:#4c72b0;" x="252.04477" xlink:href="#mc7283950e2" y="445.797157"/>
     <use style="fill:#4c72b0;stroke:#4c72b0;" x="253.722712" xlink:href="#mc7283950e2" y="445.727993"/>
     <use style="fill:#4c72b0;stroke:#4c72b0;" x="255.402662" xlink:href="#mc7283950e2" y="445.642747"/>
     <use style="fill:#4c72b0;stroke:#4c72b0;" x="257.085132" xlink:href="#mc7283950e2" y="445.541438"/>
     <use style="fill:#4c72b0;stroke:#4c72b0;" x="258.770631" xlink:href="#mc7283950e2" y="445.42406"/>
     <use style="fill:#4c72b0;stroke:#4c72b0;" x="260.459664" xlink:href="#mc7283950e2" y="445.290578"/>
     <use style="fill:#4c72b0;stroke:#4c72b0;" x="262.152733" xlink:href="#mc7283950e2" y="445.140928"/>
     <use style="fill:#4c72b0;stroke:#4c72b0;" x="263.85034" xlink:href="#mc7283950e2" y="444.975021"/>
     <use style="fill:#4c72b0;stroke:#4c72b0;" x="265.552982" xlink:href="#mc7283950e2" y="444.792739"/>
     <use style="fill:#4c72b0;stroke:#4c72b0;" x="267.261153" xlink:href="#mc7283950e2" y="444.593936"/>
     <use style="fill:#4c72b0;stroke:#4c72b0;" x="268.975347" xlink:href="#mc7283950e2" y="444.378436"/>
     <use style="fill:#4c72b0;stroke:#4c72b0;" x="270.696054" xlink:href="#mc7283950e2" y="444.146037"/>
     <use style="fill:#4c72b0;stroke:#4c72b0;" x="272.423762" xlink:href="#mc7283950e2" y="443.896505"/>
     <use style="fill:#4c72b0;stroke:#4c72b0;" x="274.158958" xlink:href="#mc7283950e2" y="443.629578"/>
     <use style="fill:#4c72b0;stroke:#4c72b0;" x="275.902125" xlink:href="#mc7283950e2" y="443.344962"/>
     <use style="fill:#4c72b0;stroke:#4c72b0;" x="277.653741" xlink:href="#mc7283950e2" y="443.042332"/>
     <use style="fill:#4c72b0;stroke:#4c72b0;" x="279.414285" xlink:href="#mc7283950e2" y="442.721333"/>
     <use style="fill:#4c72b0;stroke:#4c72b0;" x="281.184228" xlink:href="#mc7283950e2" y="442.381573"/>
     <use style="fill:#4c72b0;stroke:#4c72b0;" x="282.964039" xlink:href="#mc7283950e2" y="442.022629"/>
     <use style="fill:#4c72b0;stroke:#4c72b0;" x="284.75418" xlink:href="#mc7283950e2" y="441.644044"/>
     <use style="fill:#4c72b0;stroke:#4c72b0;" x="286.55511" xlink:href="#mc7283950e2" y="441.245322"/>
     <use style="fill:#4c72b0;stroke:#4c72b0;" x="288.367279" xlink:href="#mc7283950e2" y="440.825933"/>
     <use style="fill:#4c72b0;stroke:#4c72b0;" x="290.191127" xlink:href="#mc7283950e2" y="440.385307"/>
     <use style="fill:#4c72b0;stroke:#4c72b0;" x="292.027089" xlink:href="#mc7283950e2" y="439.922837"/>
     <use style="fill:#4c72b0;stroke:#4c72b0;" x="293.875587" xlink:href="#mc7283950e2" y="439.437874"/>
     <use style="fill:#4c72b0;stroke:#4c72b0;" x="295.73703" xlink:href="#mc7283950e2" y="438.929728"/>
     <use style="fill:#4c72b0;stroke:#4c72b0;" x="297.611814" xlink:href="#mc7283950e2" y="438.397665"/>
     <use style="fill:#4c72b0;stroke:#4c72b0;" x="299.500319" xlink:href="#mc7283950e2" y="437.84091"/>
     <use style="fill:#4c72b0;stroke:#4c72b0;" x="301.402906" xlink:href="#mc7283950e2" y="437.258639"/>
     <use style="fill:#4c72b0;stroke:#4c72b0;" x="303.319918" xlink:href="#mc7283950e2" y="436.649984"/>
     <use style="fill:#4c72b0;stroke:#4c72b0;" x="305.251669" xlink:href="#mc7283950e2" y="436.014029"/>
     <use style="fill:#4c72b0;stroke:#4c72b0;" x="307.198453" xlink:href="#mc7283950e2" y="435.349809"/>
     <use style="fill:#4c72b0;stroke:#4c72b0;" x="309.16053" xlink:href="#mc7283950e2" y="434.656308"/>
     <use style="fill:#4c72b0;stroke:#4c72b0;" x="311.138128" xlink:href="#mc7283950e2" y="433.932462"/>
     <use style="fill:#4c72b0;stroke:#4c72b0;" x="313.131437" xlink:href="#mc7283950e2" y="433.177152"/>
     <use style="fill:#4c72b0;stroke:#4c72b0;" x="315.140608" xlink:href="#mc7283950e2" y="432.38921"/>
     <use style="fill:#4c72b0;stroke:#4c72b0;" x="317.165742" xlink:href="#mc7283950e2" y="431.567413"/>
     <use style="fill:#4c72b0;stroke:#4c72b0;" x="319.206893" xlink:href="#mc7283950e2" y="430.710487"/>
     <use style="fill:#4c72b0;stroke:#4c72b0;" x="321.264056" xlink:href="#mc7283950e2" y="429.817105"/>
     <use style="fill:#4c72b0;stroke:#4c72b0;" x="323.337164" xlink:href="#mc7283950e2" y="428.885886"/>
     <use style="fill:#4c72b0;stroke:#4c72b0;" x="325.426082" xlink:href="#mc7283950e2" y="427.9154"/>
     <use style="fill:#4c72b0;stroke:#4c72b0;" x="327.530599" xlink:href="#mc7283950e2" y="426.904166"/>
     <use style="fill:#4c72b0;stroke:#4c72b0;" x="329.650424" xlink:href="#mc7283950e2" y="425.850654"/>
     <use style="fill:#4c72b0;stroke:#4c72b0;" x="331.785174" xlink:href="#mc7283950e2" y="424.75329"/>
     <use style="fill:#4c72b0;stroke:#4c72b0;" x="333.934371" xlink:href="#mc7283950e2" y="423.610454"/>
     <use style="fill:#4c72b0;stroke:#4c72b0;" x="336.09743" xlink:href="#mc7283950e2" y="422.42049"/>
     <use style="fill:#4c72b0;stroke:#4c72b0;" x="338.273653" xlink:href="#mc7283950e2" y="421.181708"/>
     <use style="fill:#4c72b0;stroke:#4c72b0;" x="340.46222" xlink:href="#mc7283950e2" y="419.892386"/>
     <use style="fill:#4c72b0;stroke:#4c72b0;" x="342.662179" xlink:href="#mc7283950e2" y="418.550784"/>
     <use style="fill:#4c72b0;stroke:#4c72b0;" x="344.872436" xlink:href="#mc7283950e2" y="417.155145"/>
     <use style="fill:#4c72b0;stroke:#4c72b0;" x="347.091752" xlink:href="#mc7283950e2" y="415.703708"/>
     <use style="fill:#4c72b0;stroke:#4c72b0;" x="349.318725" xlink:href="#mc7283950e2" y="414.194715"/>
     <use style="fill:#4c72b0;stroke:#4c72b0;" x="351.55179" xlink:href="#mc7283950e2" y="412.626426"/>
     <use style="fill:#4c72b0;stroke:#4c72b0;" x="353.789204" xlink:href="#mc7283950e2" y="410.997129"/>
     <use style="fill:#4c72b0;stroke:#4c72b0;" x="356.029043" xlink:href="#mc7283950e2" y="409.305156"/>
     <use style="fill:#4c72b0;stroke:#4c72b0;" x="358.269191" xlink:href="#mc7283950e2" y="407.5489"/>
     <use style="fill:#4c72b0;stroke:#4c72b0;" x="360.50734" xlink:href="#mc7283950e2" y="405.726827"/>
     <use style="fill:#4c72b0;stroke:#4c72b0;" x="362.740978" xlink:href="#mc7283950e2" y="403.837502"/>
     <use style="fill:#4c72b0;stroke:#4c72b0;" x="364.967391" xlink:href="#mc7283950e2" y="401.879604"/>
     <use style="fill:#4c72b0;stroke:#4c72b0;" x="367.183661" xlink:href="#mc7283950e2" y="399.85195"/>
     <use style="fill:#4c72b0;stroke:#4c72b0;" x="369.386665" xlink:href="#mc7283950e2" y="397.753517"/>
     <use style="fill:#4c72b0;stroke:#4c72b0;" x="371.57308" xlink:href="#mc7283950e2" y="395.583465"/>
     <use style="fill:#4c72b0;stroke:#4c72b0;" x="373.739388" xlink:href="#mc7283950e2" y="393.341164"/>
     <use style="fill:#4c72b0;stroke:#4c72b0;" x="375.881883" xlink:href="#mc7283950e2" y="391.026214"/>
     <use style="fill:#4c72b0;stroke:#4c72b0;" x="377.996686" xlink:href="#mc7283950e2" y="388.638474"/>
     <use style="fill:#4c72b0;stroke:#4c72b0;" x="380.079758" xlink:href="#mc7283950e2" y="386.178085"/>
     <use style="fill:#4c72b0;stroke:#4c72b0;" x="382.12692" xlink:href="#mc7283950e2" y="383.645494"/>
     <use style="fill:#4c72b0;stroke:#4c72b0;" x="384.133874" xlink:href="#mc7283950e2" y="381.041473"/>
     <use style="fill:#4c72b0;stroke:#4c72b0;" x="386.096229" xlink:href="#mc7283950e2" y="378.367146"/>
     <use style="fill:#4c72b0;stroke:#4c72b0;" x="388.009533" xlink:href="#mc7283950e2" y="375.623997"/>
     <use style="fill:#4c72b0;stroke:#4c72b0;" x="389.869301" xlink:href="#mc7283950e2" y="372.813894"/>
     <use style="fill:#4c72b0;stroke:#4c72b0;" x="391.671054" xlink:href="#mc7283950e2" y="369.939092"/>
     <use style="fill:#4c72b0;stroke:#4c72b0;" x="393.410357" xlink:href="#mc7283950e2" y="367.002244"/>
     <use style="fill:#4c72b0;stroke:#4c72b0;" x="395.082858" xlink:href="#mc7283950e2" y="364.006402"/>
     <use style="fill:#4c72b0;stroke:#4c72b0;" x="396.684332" xlink:href="#mc7283950e2" y="360.95501"/>
     <use style="fill:#4c72b0;stroke:#4c72b0;" x="398.210721" xlink:href="#mc7283950e2" y="357.851899"/>
     <use style="fill:#4c72b0;stroke:#4c72b0;" x="399.658177" xlink:href="#mc7283950e2" y="354.701268"/>
     <use style="fill:#4c72b0;stroke:#4c72b0;" x="401.023107" xlink:href="#mc7283950e2" y="351.507668"/>
     <use style="fill:#4c72b0;stroke:#4c72b0;" x="402.302207" xlink:href="#mc7283950e2" y="348.275969"/>
     <use style="fill:#4c72b0;stroke:#4c72b0;" x="403.492504" xlink:href="#mc7283950e2" y="345.011334"/>
     <use style="fill:#4c72b0;stroke:#4c72b0;" x="404.591388" xlink:href="#mc7283950e2" y="341.71918"/>
     <use style="fill:#4c72b0;stroke:#4c72b0;" x="405.596639" xlink:href="#mc7283950e2" y="338.405134"/>
     <use style="fill:#4c72b0;stroke:#4c72b0;" x="406.506456" xlink:href="#mc7283950e2" y="335.074992"/>
     <use style="fill:#4c72b0;stroke:#4c72b0;" x="407.319472" xlink:href="#mc7283950e2" y="331.734667"/>
     <use style="fill:#4c72b0;stroke:#4c72b0;" x="408.034766" xlink:href="#mc7283950e2" y="328.390142"/>
     <use style="fill:#4c72b0;stroke:#4c72b0;" x="408.651874" xlink:href="#mc7283950e2" y="325.047419"/>
     <use style="fill:#4c72b0;stroke:#4c72b0;" x="409.170783" xlink:href="#mc7283950e2" y="321.712465"/>
     <use style="fill:#4c72b0;stroke:#4c72b0;" x="409.591932" xlink:href="#mc7283950e2" y="318.391165"/>
     <use style="fill:#4c72b0;stroke:#4c72b0;" x="409.916191" xlink:href="#mc7283950e2" y="315.089275"/>
     <use style="fill:#4c72b0;stroke:#4c72b0;" x="410.144852" xlink:href="#mc7283950e2" y="311.812374"/>
     <use style="fill:#4c72b0;stroke:#4c72b0;" x="410.2796" xlink:href="#mc7283950e2" y="308.565825"/>
     <use style="fill:#4c72b0;stroke:#4c72b0;" x="410.322489" xlink:href="#mc7283950e2" y="305.354738"/>
     <use style="fill:#4c72b0;stroke:#4c72b0;" x="410.275909" xlink:href="#mc7283950e2" y="302.183936"/>
     <use style="fill:#4c72b0;stroke:#4c72b0;" x="410.142554" xlink:href="#mc7283950e2" y="299.057932"/>
     <use style="fill:#4c72b0;stroke:#4c72b0;" x="409.925388" xlink:href="#mc7283950e2" y="295.980902"/>
     <use style="fill:#4c72b0;stroke:#4c72b0;" x="409.627601" xlink:href="#mc7283950e2" y="292.956674"/>
     <use style="fill:#4c72b0;stroke:#4c72b0;" x="409.252579" xlink:href="#mc7283950e2" y="289.988715"/>
     <use style="fill:#4c72b0;stroke:#4c72b0;" x="408.803865" xlink:href="#mc7283950e2" y="287.080124"/>
     <use style="fill:#4c72b0;stroke:#4c72b0;" x="408.285118" xlink:href="#mc7283950e2" y="284.233631"/>
     <use style="fill:#4c72b0;stroke:#4c72b0;" x="407.700083" xlink:href="#mc7283950e2" y="281.451603"/>
     <use style="fill:#4c72b0;stroke:#4c72b0;" x="407.052556" xlink:href="#mc7283950e2" y="278.73605"/>
     <use style="fill:#4c72b0;stroke:#4c72b0;" x="406.346355" xlink:href="#mc7283950e2" y="276.088633"/>
     <use style="fill:#4c72b0;stroke:#4c72b0;" x="405.585285" xlink:href="#mc7283950e2" y="273.510681"/>
     <use style="fill:#4c72b0;stroke:#4c72b0;" x="404.773122" xlink:href="#mc7283950e2" y="271.003206"/>
     <use style="fill:#4c72b0;stroke:#4c72b0;" x="403.913582" xlink:href="#mc7283950e2" y="268.56692"/>
     <use style="fill:#4c72b0;stroke:#4c72b0;" x="403.010307" xlink:href="#mc7283950e2" y="266.202254"/>
     <use style="fill:#4c72b0;stroke:#4c72b0;" x="402.066843" xlink:href="#mc7283950e2" y="263.909381"/>
     <use style="fill:#4c72b0;stroke:#4c72b0;" x="401.086627" xlink:href="#mc7283950e2" y="261.688232"/>
     <use style="fill:#4c72b0;stroke:#4c72b0;" x="400.072979" xlink:href="#mc7283950e2" y="259.538522"/>
     <use style="fill:#4c72b0;stroke:#4c72b0;" x="399.029086" xlink:href="#mc7283950e2" y="257.459765"/>
     <use style="fill:#4c72b0;stroke:#4c72b0;" x="397.958001" xlink:href="#mc7283950e2" y="255.451302"/>
     <use style="fill:#4c72b0;stroke:#4c72b0;" x="396.862634" xlink:href="#mc7283950e2" y="253.512314"/>
     <use style="fill:#4c72b0;stroke:#4c72b0;" x="395.745751" xlink:href="#mc7283950e2" y="251.641842"/>
     <use style="fill:#4c72b0;stroke:#4c72b0;" x="394.609971" xlink:href="#mc7283950e2" y="249.838809"/>
     <use style="fill:#4c72b0;stroke:#4c72b0;" x="393.457768" xlink:href="#mc7283950e2" y="248.102033"/>
     <use style="fill:#4c72b0;stroke:#4c72b0;" x="392.291469" xlink:href="#mc7283950e2" y="246.430245"/>
     <use style="fill:#4c72b0;stroke:#4c72b0;" x="391.11326" xlink:href="#mc7283950e2" y="244.822103"/>
     <use style="fill:#4c72b0;stroke:#4c72b0;" x="389.925188" xlink:href="#mc7283950e2" y="243.276204"/>
     <use style="fill:#4c72b0;stroke:#4c72b0;" x="388.729161" xlink:href="#mc7283950e2" y="241.791101"/>
     <use style="fill:#4c72b0;stroke:#4c72b0;" x="387.52696" xlink:href="#mc7283950e2" y="240.365308"/>
     <use style="fill:#4c72b0;stroke:#4c72b0;" x="386.320236" xlink:href="#mc7283950e2" y="238.997317"/>
     <use style="fill:#4c72b0;stroke:#4c72b0;" x="385.110523" xlink:href="#mc7283950e2" y="237.6856"/>
     <use style="fill:#4c72b0;stroke:#4c72b0;" x="383.899235" xlink:href="#mc7283950e2" y="236.428625"/>
     <use style="fill:#4c72b0;stroke:#4c72b0;" x="382.68768" xlink:href="#mc7283950e2" y="235.224856"/>
     <use style="fill:#4c72b0;stroke:#4c72b0;" x="381.47706" xlink:href="#mc7283950e2" y="234.072765"/>
     <use style="fill:#4c72b0;stroke:#4c72b0;" x="380.268478" xlink:href="#mc7283950e2" y="232.970832"/>
     <use style="fill:#4c72b0;stroke:#4c72b0;" x="379.062946" xlink:href="#mc7283950e2" y="231.917557"/>
     <use style="fill:#4c72b0;stroke:#4c72b0;" x="377.861387" xlink:href="#mc7283950e2" y="230.911456"/>
     <use style="fill:#4c72b0;stroke:#4c72b0;" x="376.664643" xlink:href="#mc7283950e2" y="229.951072"/>
     <use style="fill:#4c72b0;stroke:#4c72b0;" x="375.473478" xlink:href="#mc7283950e2" y="229.034972"/>
     <use style="fill:#4c72b0;stroke:#4c72b0;" x="374.288587" xlink:href="#mc7283950e2" y="228.161754"/>
     <use style="fill:#4c72b0;stroke:#4c72b0;" x="373.110595" xlink:href="#mc7283950e2" y="227.330046"/>
     <use style="fill:#4c72b0;stroke:#4c72b0;" x="371.940066" xlink:href="#mc7283950e2" y="226.538508"/>
     <use style="fill:#4c72b0;stroke:#4c72b0;" x="370.777508" xlink:href="#mc7283950e2" y="225.785836"/>
     <use style="fill:#4c72b0;stroke:#4c72b0;" x="369.623373" xlink:href="#mc7283950e2" y="225.070758"/>
     <use style="fill:#4c72b0;stroke:#4c72b0;" x="368.478065" xlink:href="#mc7283950e2" y="224.392038"/>
     <use style="fill:#4c72b0;stroke:#4c72b0;" x="367.341939" xlink:href="#mc7283950e2" y="223.748476"/>
     <use style="fill:#4c72b0;stroke:#4c72b0;" x="366.215313" xlink:href="#mc7283950e2" y="223.138909"/>
     <use style="fill:#4c72b0;stroke:#4c72b0;" x="365.09846" xlink:href="#mc7283950e2" y="222.562207"/>
     <use style="fill:#4c72b0;stroke:#4c72b0;" x="363.991621" xlink:href="#mc7283950e2" y="222.017277"/>
     <use style="fill:#4c72b0;stroke:#4c72b0;" x="362.895002" xlink:href="#mc7283950e2" y="221.503061"/>
     <use style="fill:#4c72b0;stroke:#4c72b0;" x="361.80878" xlink:href="#mc7283950e2" y="221.018536"/>
     <use style="fill:#4c72b0;stroke:#4c72b0;" x="360.733102" xlink:href="#mc7283950e2" y="220.562712"/>
     <use style="fill:#4c72b0;stroke:#4c72b0;" x="359.668091" xlink:href="#mc7283950e2" y="220.134635"/>
     <use style="fill:#4c72b0;stroke:#4c72b0;" x="358.613847" xlink:href="#mc7283950e2" y="219.73338"/>
     <use style="fill:#4c72b0;stroke:#4c72b0;" x="357.570446" xlink:href="#mc7283950e2" y="219.358056"/>
     <use style="fill:#4c72b0;stroke:#4c72b0;" x="356.537948" xlink:href="#mc7283950e2" y="219.007805"/>
     <use style="fill:#4c72b0;stroke:#4c72b0;" x="355.516393" xlink:href="#mc7283950e2" y="218.681795"/>
     <use style="fill:#4c72b0;stroke:#4c72b0;" x="354.505806" xlink:href="#mc7283950e2" y="218.379228"/>
     <use style="fill:#4c72b0;stroke:#4c72b0;" x="353.506195" xlink:href="#mc7283950e2" y="218.099332"/>
     <use style="fill:#4c72b0;stroke:#4c72b0;" x="352.517559" xlink:href="#mc7283950e2" y="217.841363"/>
     <use style="fill:#4c72b0;stroke:#4c72b0;" x="351.53988" xlink:href="#mc7283950e2" y="217.604605"/>
     <use style="fill:#4c72b0;stroke:#4c72b0;" x="350.573134" xlink:href="#mc7283950e2" y="217.388366"/>
     <use style="fill:#4c72b0;stroke:#4c72b0;" x="349.617283" xlink:href="#mc7283950e2" y="217.191983"/>
     <use style="fill:#4c72b0;stroke:#4c72b0;" x="348.672284" xlink:href="#mc7283950e2" y="217.014812"/>
     <use style="fill:#4c72b0;stroke:#4c72b0;" x="347.738083" xlink:href="#mc7283950e2" y="216.856236"/>
     <use style="fill:#4c72b0;stroke:#4c72b0;" x="346.814622" xlink:href="#mc7283950e2" y="216.71566"/>
     <use style="fill:#4c72b0;stroke:#4c72b0;" x="345.901833" xlink:href="#mc7283950e2" y="216.59251"/>
     <use style="fill:#4c72b0;stroke:#4c72b0;" x="344.999645" xlink:href="#mc7283950e2" y="216.486235"/>
     <use style="fill:#4c72b0;stroke:#4c72b0;" x="344.107983" xlink:href="#mc7283950e2" y="216.3963"/>
     <use style="fill:#4c72b0;stroke:#4c72b0;" x="343.226766" xlink:href="#mc7283950e2" y="216.322195"/>
     <use style="fill:#4c72b0;stroke:#4c72b0;" x="342.35591" xlink:href="#mc7283950e2" y="216.263423"/>
     <use style="fill:#4c72b0;stroke:#4c72b0;" x="341.495327" xlink:href="#mc7283950e2" y="216.21951"/>
     <use style="fill:#4c72b0;stroke:#4c72b0;" x="340.644927" xlink:href="#mc7283950e2" y="216.189996"/>
     <use style="fill:#4c72b0;stroke:#4c72b0;" x="339.804617" xlink:href="#mc7283950e2" y="216.174438"/>
     <use style="fill:#4c72b0;stroke:#4c72b0;" x="338.974303" xlink:href="#mc7283950e2" y="216.172412"/>
     <use style="fill:#4c72b0;stroke:#4c72b0;" x="338.153888" xlink:href="#mc7283950e2" y="216.183505"/>
     <use style="fill:#4c72b0;stroke:#4c72b0;" x="337.343276" xlink:href="#mc7283950e2" y="216.207321"/>
     <use style="fill:#4c72b0;stroke:#4c72b0;" x="336.542368" xlink:href="#mc7283950e2" y="216.24348"/>
     <use style="fill:#4c72b0;stroke:#4c72b0;" x="335.751064" xlink:href="#mc7283950e2" y="216.291611"/>
     <use style="fill:#4c72b0;stroke:#4c72b0;" x="334.969265" xlink:href="#mc7283950e2" y="216.351361"/>
     <use style="fill:#4c72b0;stroke:#4c72b0;" x="334.19687" xlink:href="#mc7283950e2" y="216.422386"/>
     <use style="fill:#4c72b0;stroke:#4c72b0;" x="333.43378" xlink:href="#mc7283950e2" y="216.504356"/>
     <use style="fill:#4c72b0;stroke:#4c72b0;" x="332.679894" xlink:href="#mc7283950e2" y="216.596952"/>
     <use style="fill:#4c72b0;stroke:#4c72b0;" x="331.935113" xlink:href="#mc7283950e2" y="216.699866"/>
     <use style="fill:#4c72b0;stroke:#4c72b0;" x="331.199337" xlink:href="#mc7283950e2" y="216.8128"/>
     <use style="fill:#4c72b0;stroke:#4c72b0;" x="330.472466" xlink:href="#mc7283950e2" y="216.935469"/>
     <use style="fill:#4c72b0;stroke:#4c72b0;" x="329.754403" xlink:href="#mc7283950e2" y="217.067595"/>
     <use style="fill:#4c72b0;stroke:#4c72b0;" x="329.04505" xlink:href="#mc7283950e2" y="217.20891"/>
     <use style="fill:#4c72b0;stroke:#4c72b0;" x="328.34431" xlink:href="#mc7283950e2" y="217.359157"/>
     <use style="fill:#4c72b0;stroke:#4c72b0;" x="327.652086" xlink:href="#mc7283950e2" y="217.518085"/>
     <use style="fill:#4c72b0;stroke:#4c72b0;" x="326.968285" xlink:href="#mc7283950e2" y="217.685453"/>
     <use style="fill:#4c72b0;stroke:#4c72b0;" x="326.292811" xlink:href="#mc7283950e2" y="217.861029"/>
     <use style="fill:#4c72b0;stroke:#4c72b0;" x="325.625572" xlink:href="#mc7283950e2" y="218.044586"/>
     <use style="fill:#4c72b0;stroke:#4c72b0;" x="324.966475" xlink:href="#mc7283950e2" y="218.235907"/>
     <use style="fill:#4c72b0;stroke:#4c72b0;" x="324.315431" xlink:href="#mc7283950e2" y="218.434782"/>
     <use style="fill:#4c72b0;stroke:#4c72b0;" x="323.67235" xlink:href="#mc7283950e2" y="218.641006"/>
     <use style="fill:#4c72b0;stroke:#4c72b0;" x="323.037143" xlink:href="#mc7283950e2" y="218.854381"/>
     <use style="fill:#4c72b0;stroke:#4c72b0;" x="322.409724" xlink:href="#mc7283950e2" y="219.074719"/>
     <use style="fill:#4c72b0;stroke:#4c72b0;" x="321.790007" xlink:href="#mc7283950e2" y="219.301832"/>
     <use style="fill:#4c72b0;stroke:#4c72b0;" x="321.177907" xlink:href="#mc7283950e2" y="219.535543"/>
     <use style="fill:#4c72b0;stroke:#4c72b0;" x="320.573341" xlink:href="#mc7283950e2" y="219.775679"/>
     <use style="fill:#4c72b0;stroke:#4c72b0;" x="319.976228" xlink:href="#mc7283950e2" y="220.022072"/>
     <use style="fill:#4c72b0;stroke:#4c72b0;" x="319.386487" xlink:href="#mc7283950e2" y="220.274558"/>
     <use style="fill:#4c72b0;stroke:#4c72b0;" x="318.804039" xlink:href="#mc7283950e2" y="220.532982"/>
     <use style="fill:#4c72b0;stroke:#4c72b0;" x="318.228806" xlink:href="#mc7283950e2" y="220.79719"/>
     <use style="fill:#4c72b0;stroke:#4c72b0;" x="317.660712" xlink:href="#mc7283950e2" y="221.067034"/>
     <use style="fill:#4c72b0;stroke:#4c72b0;" x="317.099681" xlink:href="#mc7283950e2" y="221.342371"/>
     <use style="fill:#4c72b0;stroke:#4c72b0;" x="316.54564" xlink:href="#mc7283950e2" y="221.623061"/>
     <use style="fill:#4c72b0;stroke:#4c72b0;" x="315.998516" xlink:href="#mc7283950e2" y="221.908971"/>
     <use style="fill:#4c72b0;stroke:#4c72b0;" x="315.458238" xlink:href="#mc7283950e2" y="222.199969"/>
     <use style="fill:#4c72b0;stroke:#4c72b0;" x="314.924736" xlink:href="#mc7283950e2" y="222.495927"/>
     <use style="fill:#4c72b0;stroke:#4c72b0;" x="314.397942" xlink:href="#mc7283950e2" y="222.796723"/>
     <use style="fill:#4c72b0;stroke:#4c72b0;" x="313.877787" xlink:href="#mc7283950e2" y="223.102237"/>
     <use style="fill:#4c72b0;stroke:#4c72b0;" x="313.364207" xlink:href="#mc7283950e2" y="223.412352"/>
     <use style="fill:#4c72b0;stroke:#4c72b0;" x="312.857135" xlink:href="#mc7283950e2" y="223.726955"/>
     <use style="fill:#4c72b0;stroke:#4c72b0;" x="312.35651" xlink:href="#mc7283950e2" y="224.045938"/>
     <use style="fill:#4c72b0;stroke:#4c72b0;" x="311.862267" xlink:href="#mc7283950e2" y="224.369192"/>
     <use style="fill:#4c72b0;stroke:#4c72b0;" x="311.374347" xlink:href="#mc7283950e2" y="224.696615"/>
     <use style="fill:#4c72b0;stroke:#4c72b0;" x="310.892688" xlink:href="#mc7283950e2" y="225.028105"/>
     <use style="fill:#4c72b0;stroke:#4c72b0;" x="310.417233" xlink:href="#mc7283950e2" y="225.363565"/>
     <use style="fill:#4c72b0;stroke:#4c72b0;" x="309.947924" xlink:href="#mc7283950e2" y="225.702899"/>
     <use style="fill:#4c72b0;stroke:#4c72b0;" x="309.484704" xlink:href="#mc7283950e2" y="226.046014"/>
     <use style="fill:#4c72b0;stroke:#4c72b0;" x="309.027517" xlink:href="#mc7283950e2" y="226.392821"/>
     <use style="fill:#4c72b0;stroke:#4c72b0;" x="308.57631" xlink:href="#mc7283950e2" y="226.74323"/>
     <use style="fill:#4c72b0;stroke:#4c72b0;" x="308.13103" xlink:href="#mc7283950e2" y="227.097157"/>
     <use style="fill:#4c72b0;stroke:#4c72b0;" x="307.691624" xlink:href="#mc7283950e2" y="227.454517"/>
     <use style="fill:#4c72b0;stroke:#4c72b0;" x="307.258041" xlink:href="#mc7283950e2" y="227.815231"/>
     <use style="fill:#4c72b0;stroke:#4c72b0;" x="306.830232" xlink:href="#mc7283950e2" y="228.179219"/>
     <use style="fill:#4c72b0;stroke:#4c72b0;" x="306.408147" xlink:href="#mc7283950e2" y="228.546403"/>
     <use style="fill:#4c72b0;stroke:#4c72b0;" x="305.991739" xlink:href="#mc7283950e2" y="228.916708"/>
     <use style="fill:#4c72b0;stroke:#4c72b0;" x="305.58096" xlink:href="#mc7283950e2" y="229.290061"/>
     <use style="fill:#4c72b0;stroke:#4c72b0;" x="305.175766" xlink:href="#mc7283950e2" y="229.666391"/>
     <use style="fill:#4c72b0;stroke:#4c72b0;" x="304.77611" xlink:href="#mc7283950e2" y="230.045628"/>
     <use style="fill:#4c72b0;stroke:#4c72b0;" x="304.381948" xlink:href="#mc7283950e2" y="230.427704"/>
     <use style="fill:#4c72b0;stroke:#4c72b0;" x="303.993239" xlink:href="#mc7283950e2" y="230.812551"/>
     <use style="fill:#4c72b0;stroke:#4c72b0;" x="303.609939" xlink:href="#mc7283950e2" y="231.200106"/>
     <use style="fill:#4c72b0;stroke:#4c72b0;" x="303.232007" xlink:href="#mc7283950e2" y="231.590305"/>
     <use style="fill:#4c72b0;stroke:#4c72b0;" x="302.859403" xlink:href="#mc7283950e2" y="231.983086"/>
     <use style="fill:#4c72b0;stroke:#4c72b0;" x="302.492087" xlink:href="#mc7283950e2" y="232.378389"/>
     <use style="fill:#4c72b0;stroke:#4c72b0;" x="302.130021" xlink:href="#mc7283950e2" y="232.776153"/>
     <use style="fill:#4c72b0;stroke:#4c72b0;" x="301.773167" xlink:href="#mc7283950e2" y="233.176323"/>
     <use style="fill:#4c72b0;stroke:#4c72b0;" x="301.421488" xlink:href="#mc7283950e2" y="233.57884"/>
     <use style="fill:#4c72b0;stroke:#4c72b0;" x="301.074947" xlink:href="#mc7283950e2" y="233.983651"/>
     <use style="fill:#4c72b0;stroke:#4c72b0;" x="300.73351" xlink:href="#mc7283950e2" y="234.3907"/>
     <use style="fill:#4c72b0;stroke:#4c72b0;" x="300.397141" xlink:href="#mc7283950e2" y="234.799934"/>
     <use style="fill:#4c72b0;stroke:#4c72b0;" x="300.065808" xlink:href="#mc7283950e2" y="235.211303"/>
     <use style="fill:#4c72b0;stroke:#4c72b0;" x="299.739476" xlink:href="#mc7283950e2" y="235.624755"/>
     <use style="fill:#4c72b0;stroke:#4c72b0;" x="299.418114" xlink:href="#mc7283950e2" y="236.04024"/>
     <use style="fill:#4c72b0;stroke:#4c72b0;" x="299.10169" xlink:href="#mc7283950e2" y="236.45771"/>
     <use style="fill:#4c72b0;stroke:#4c72b0;" x="298.790173" xlink:href="#mc7283950e2" y="236.877117"/>
     <use style="fill:#4c72b0;stroke:#4c72b0;" x="298.483533" xlink:href="#mc7283950e2" y="237.298415"/>
     <use style="fill:#4c72b0;stroke:#4c72b0;" x="298.181741" xlink:href="#mc7283950e2" y="237.721556"/>
     <use style="fill:#4c72b0;stroke:#4c72b0;" x="297.884767" xlink:href="#mc7283950e2" y="238.146497"/>
     <use style="fill:#4c72b0;stroke:#4c72b0;" x="297.592584" xlink:href="#mc7283950e2" y="238.573193"/>
     <use style="fill:#4c72b0;stroke:#4c72b0;" x="297.305165" xlink:href="#mc7283950e2" y="239.001601"/>
     <use style="fill:#4c72b0;stroke:#4c72b0;" x="297.022481" xlink:href="#mc7283950e2" y="239.431678"/>
     <use style="fill:#4c72b0;stroke:#4c72b0;" x="296.744508" xlink:href="#mc7283950e2" y="239.863382"/>
     <use style="fill:#4c72b0;stroke:#4c72b0;" x="296.47122" xlink:href="#mc7283950e2" y="240.296673"/>
     <use style="fill:#4c72b0;stroke:#4c72b0;" x="296.202591" xlink:href="#mc7283950e2" y="240.73151"/>
     <use style="fill:#4c72b0;stroke:#4c72b0;" x="295.938598" xlink:href="#mc7283950e2" y="241.167853"/>
     <use style="fill:#4c72b0;stroke:#4c72b0;" x="295.679217" xlink:href="#mc7283950e2" y="241.605664"/>
     <use style="fill:#4c72b0;stroke:#4c72b0;" x="295.424425" xlink:href="#mc7283950e2" y="242.044904"/>
     <use style="fill:#4c72b0;stroke:#4c72b0;" x="295.174199" xlink:href="#mc7283950e2" y="242.485535"/>
     <use style="fill:#4c72b0;stroke:#4c72b0;" x="294.928517" xlink:href="#mc7283950e2" y="242.927521"/>
     <use style="fill:#4c72b0;stroke:#4c72b0;" x="294.687358" xlink:href="#mc7283950e2" y="243.370824"/>
     <use style="fill:#4c72b0;stroke:#4c72b0;" x="294.4507" xlink:href="#mc7283950e2" y="243.815408"/>
     <use style="fill:#4c72b0;stroke:#4c72b0;" x="294.218525" xlink:href="#mc7283950e2" y="244.261239"/>
     <use style="fill:#4c72b0;stroke:#4c72b0;" x="293.990811" xlink:href="#mc7283950e2" y="244.708281"/>
     <use style="fill:#4c72b0;stroke:#4c72b0;" x="293.767539" xlink:href="#mc7283950e2" y="245.1565"/>
     <use style="fill:#4c72b0;stroke:#4c72b0;" x="293.548692" xlink:href="#mc7283950e2" y="245.605862"/>
     <use style="fill:#4c72b0;stroke:#4c72b0;" x="293.334249" xlink:href="#mc7283950e2" y="246.056333"/>
     <use style="fill:#4c72b0;stroke:#4c72b0;" x="293.124195" xlink:href="#mc7283950e2" y="246.50788"/>
     <use style="fill:#4c72b0;stroke:#4c72b0;" x="292.918511" xlink:href="#mc7283950e2" y="246.960471"/>
     <use style="fill:#4c72b0;stroke:#4c72b0;" x="292.71718" xlink:href="#mc7283950e2" y="247.414073"/>
     <use style="fill:#4c72b0;stroke:#4c72b0;" x="292.520187" xlink:href="#mc7283950e2" y="247.868655"/>
     <use style="fill:#4c72b0;stroke:#4c72b0;" x="292.327516" xlink:href="#mc7283950e2" y="248.324185"/>
     <use style="fill:#4c72b0;stroke:#4c72b0;" x="292.13915" xlink:href="#mc7283950e2" y="248.780632"/>
     <use style="fill:#4c72b0;stroke:#4c72b0;" x="291.955076" xlink:href="#mc7283950e2" y="249.237966"/>
     <use style="fill:#4c72b0;stroke:#4c72b0;" x="291.775278" xlink:href="#mc7283950e2" y="249.696155"/>
     <use style="fill:#4c72b0;stroke:#4c72b0;" x="291.599743" xlink:href="#mc7283950e2" y="250.155171"/>
     <use style="fill:#4c72b0;stroke:#4c72b0;" x="291.428457" xlink:href="#mc7283950e2" y="250.614982"/>
     <use style="fill:#4c72b0;stroke:#4c72b0;" x="291.261407" xlink:href="#mc7283950e2" y="251.075561"/>
     <use style="fill:#4c72b0;stroke:#4c72b0;" x="291.09858" xlink:href="#mc7283950e2" y="251.536876"/>
     <use style="fill:#4c72b0;stroke:#4c72b0;" x="290.939963" xlink:href="#mc7283950e2" y="251.998901"/>
     <use style="fill:#4c72b0;stroke:#4c72b0;" x="290.785545" xlink:href="#mc7283950e2" y="252.461605"/>
     <use style="fill:#4c72b0;stroke:#4c72b0;" x="290.635315" xlink:href="#mc7283950e2" y="252.924961"/>
     <use style="fill:#4c72b0;stroke:#4c72b0;" x="290.48926" xlink:href="#mc7283950e2" y="253.38894"/>
     <use style="fill:#4c72b0;stroke:#4c72b0;" x="290.34737" xlink:href="#mc7283950e2" y="253.853514"/>
     <use style="fill:#4c72b0;stroke:#4c72b0;" x="290.209635" xlink:href="#mc7283950e2" y="254.318657"/>
     <use style="fill:#4c72b0;stroke:#4c72b0;" x="290.076045" xlink:href="#mc7283950e2" y="254.784339"/>
     <use style="fill:#4c72b0;stroke:#4c72b0;" x="289.946589" xlink:href="#mc7283950e2" y="255.250534"/>
     <use style="fill:#4c72b0;stroke:#4c72b0;" x="289.82126" xlink:href="#mc7283950e2" y="255.717215"/>
     <use style="fill:#4c72b0;stroke:#4c72b0;" x="289.700047" xlink:href="#mc7283950e2" y="256.184354"/>
     <use style="fill:#4c72b0;stroke:#4c72b0;" x="289.582942" xlink:href="#mc7283950e2" y="256.651925"/>
     <use style="fill:#4c72b0;stroke:#4c72b0;" x="289.469938" xlink:href="#mc7283950e2" y="257.119902"/>
     <use style="fill:#4c72b0;stroke:#4c72b0;" x="289.361026" xlink:href="#mc7283950e2" y="257.588256"/>
     <use style="fill:#4c72b0;stroke:#4c72b0;" x="289.256198" xlink:href="#mc7283950e2" y="258.056963"/>
     <use style="fill:#4c72b0;stroke:#4c72b0;" x="289.155447" xlink:href="#mc7283950e2" y="258.525996"/>
     <use style="fill:#4c72b0;stroke:#4c72b0;" x="289.058767" xlink:href="#mc7283950e2" y="258.995328"/>
     <use style="fill:#4c72b0;stroke:#4c72b0;" x="288.966151" xlink:href="#mc7283950e2" y="259.464933"/>
     <use style="fill:#4c72b0;stroke:#4c72b0;" x="288.877593" xlink:href="#mc7283950e2" y="259.934786"/>
     <use style="fill:#4c72b0;stroke:#4c72b0;" x="288.793086" xlink:href="#mc7283950e2" y="260.40486"/>
     <use style="fill:#4c72b0;stroke:#4c72b0;" x="288.712625" xlink:href="#mc7283950e2" y="260.87513"/>
     <use style="fill:#4c72b0;stroke:#4c72b0;" x="288.636205" xlink:href="#mc7283950e2" y="261.345569"/>
     <use style="fill:#4c72b0;stroke:#4c72b0;" x="288.563821" xlink:href="#mc7283950e2" y="261.816153"/>
     <use style="fill:#4c72b0;stroke:#4c72b0;" x="288.495468" xlink:href="#mc7283950e2" y="262.286855"/>
     <use style="fill:#4c72b0;stroke:#4c72b0;" x="288.431142" xlink:href="#mc7283950e2" y="262.757649"/>
     <use style="fill:#4c72b0;stroke:#4c72b0;" x="288.370837" xlink:href="#mc7283950e2" y="263.228511"/>
     <use style="fill:#4c72b0;stroke:#4c72b0;" x="288.314552" xlink:href="#mc7283950e2" y="263.699414"/>
     <use style="fill:#4c72b0;stroke:#4c72b0;" x="288.262281" xlink:href="#mc7283950e2" y="264.170332"/>
     <use style="fill:#4c72b0;stroke:#4c72b0;" x="288.214022" xlink:href="#mc7283950e2" y="264.641241"/>
     <use style="fill:#4c72b0;stroke:#4c72b0;" x="288.169772" xlink:href="#mc7283950e2" y="265.112115"/>
     <use style="fill:#4c72b0;stroke:#4c72b0;" x="288.129528" xlink:href="#mc7283950e2" y="265.582927"/>
     <use style="fill:#4c72b0;stroke:#4c72b0;" x="288.093287" xlink:href="#mc7283950e2" y="266.053653"/>
     <use style="fill:#4c72b0;stroke:#4c72b0;" x="288.061047" xlink:href="#mc7283950e2" y="266.524266"/>
     <use style="fill:#4c72b0;stroke:#4c72b0;" x="288.032806" xlink:href="#mc7283950e2" y="266.994742"/>
     <use style="fill:#4c72b0;stroke:#4c72b0;" x="288.008562" xlink:href="#mc7283950e2" y="267.465054"/>
     <use style="fill:#4c72b0;stroke:#4c72b0;" x="287.988314" xlink:href="#mc7283950e2" y="267.935177"/>
     <use style="fill:#4c72b0;stroke:#4c72b0;" x="287.972061" xlink:href="#mc7283950e2" y="268.405084"/>
     <use style="fill:#4c72b0;stroke:#4c72b0;" x="287.959801" xlink:href="#mc7283950e2" y="268.87475"/>
     <use style="fill:#4c72b0;stroke:#4c72b0;" x="287.951533" xlink:href="#mc7283950e2" y="269.344149"/>
     <use style="fill:#4c72b0;stroke:#4c72b0;" x="287.947258" xlink:href="#mc7283950e2" y="269.813255"/>
     <use style="fill:#4c72b0;stroke:#4c72b0;" x="287.946974" xlink:href="#mc7283950e2" y="270.282041"/>
     <use style="fill:#4c72b0;stroke:#4c72b0;" x="287.950682" xlink:href="#mc7283950e2" y="270.750482"/>
     <use style="fill:#4c72b0;stroke:#4c72b0;" x="287.958382" xlink:href="#mc7283950e2" y="271.218552"/>
     <use style="fill:#4c72b0;stroke:#4c72b0;" x="287.970073" xlink:href="#mc7283950e2" y="271.686223"/>
     <use style="fill:#4c72b0;stroke:#4c72b0;" x="287.985757" xlink:href="#mc7283950e2" y="272.15347"/>
     <use style="fill:#4c72b0;stroke:#4c72b0;" x="288.005434" xlink:href="#mc7283950e2" y="272.620265"/>
     <use style="fill:#4c72b0;stroke:#4c72b0;" x="288.029105" xlink:href="#mc7283950e2" y="273.086583"/>
     <use style="fill:#4c72b0;stroke:#4c72b0;" x="288.056771" xlink:href="#mc7283950e2" y="273.552395"/>
     <use style="fill:#4c72b0;stroke:#4c72b0;" x="288.088433" xlink:href="#mc7283950e2" y="274.017676"/>
     <use style="fill:#4c72b0;stroke:#4c72b0;" x="288.124093" xlink:href="#mc7283950e2" y="274.482397"/>
     <use style="fill:#4c72b0;stroke:#4c72b0;" x="288.163752" xlink:href="#mc7283950e2" y="274.946532"/>
     <use style="fill:#4c72b0;stroke:#4c72b0;" x="288.207413" xlink:href="#mc7283950e2" y="275.410054"/>
     <use style="fill:#4c72b0;stroke:#4c72b0;" x="288.255077" xlink:href="#mc7283950e2" y="275.872933"/>
     <use style="fill:#4c72b0;stroke:#4c72b0;" x="288.306746" xlink:href="#mc7283950e2" y="276.335144"/>
     <use style="fill:#4c72b0;stroke:#4c72b0;" x="288.362424" xlink:href="#mc7283950e2" y="276.796657"/>
    </g>
   </g>
   <g id="patch_3">
    <path d="M 544.568594 288 
C 544.568594 254.709362 538.011064 221.742433 525.271288 190.985893 
C 512.531512 160.229354 493.857247 132.281341 470.317211 108.741305 
C 446.777175 85.201268 418.829162 66.527003 388.072622 53.787228 
C 357.316083 41.047452 324.349154 34.489922 291.058516 34.489922 
C 257.767877 34.489922 224.800948 41.047452 194.044409 53.787228 
C 163.287869 66.527003 135.339856 85.201268 111.79982 108.741305 
C 88.259784 132.281341 69.585519 160.229354 56.845743 190.985893 
C 44.105967 221.742433 37.548437 254.709362 37.548437 288 
C 37.548437 321.290638 44.105967 354.257567 56.845743 385.014107 
C 69.585519 415.770646 88.259784 443.718659 111.79982 467.258695 
C 135.339856 490.798732 163.287869 509.472997 194.044409 522.212772 
C 224.800948 534.952548 257.767877 541.510078 291.058516 541.510078 
C 324.349154 541.510078 357.316083 534.952548 388.072622 522.212772 
C 418.829162 509.472997 446.777175 490.798732 470.317211 467.258695 
C 493.857247 443.718659 512.531512 415.770646 525.271288 385.014107 
C 538.011064 354.257567 544.568594 321.290638 544.568594 288 
" style="fill:none;stroke:#ffffff;stroke-linecap:square;stroke-linejoin:miter;stroke-width:1.25;"/>
   </g>
  </g>
 </g>
 <defs>
  <clipPath id="pc2f1ee4e52">
   <path d="M 544.568594 288 
C 544.568594 254.709362 538.011064 221.742433 525.271288 190.985893 
C 512.531512 160.229354 493.857247 132.281341 470.317211 108.741305 
C 446.777175 85.201268 418.829162 66.527003 388.072622 53.787228 
C 357.316083 41.047452 324.349154 34.489922 291.058516 34.489922 
C 257.767877 34.489922 224.800948 41.047452 194.044409 53.787228 
C 163.287869 66.527003 135.339856 85.201268 111.79982 108.741305 
C 88.259784 132.281341 69.585519 160.229354 56.845743 190.985893 
C 44.105967 221.742433 37.548437 254.709362 37.548437 288 
C 37.548437 321.290638 44.105967 354.257567 56.845743 385.014107 
C 69.585519 415.770646 88.259784 443.718659 111.79982 467.258695 
C 135.339856 490.798732 163.287869 509.472997 194.044409 522.212772 
C 224.800948 534.952548 257.767877 541.510078 291.058516 541.510078 
C 324.349154 541.510078 357.316083 534.952548 388.072622 522.212772 
C 418.829162 509.472997 446.777175 490.798732 470.317211 467.258695 
C 493.857247 443.718659 512.531512 415.770646 525.271288 385.014107 
C 538.011064 354.257567 544.568594 321.290638 544.568594 288 
M 291.058516 288 
C 291.058516 288 291.058516 288 291.058516 288 
C 291.058516 288 291.058516 288 291.058516 288 
C 291.058516 288 291.058516 288 291.058516 288 
C 291.058516 288 291.058516 288 291.058516 288 
C 291.058516 288 291.058516 288 291.058516 288 
C 291.058516 288 291.058516 288 291.058516 288 
C 291.058516 288 291.058516 288 291.058516 288 
C 291.058516 288 291.058516 288 291.058516 288 
C 291.058516 288 291.058516 288 291.058516 288 
C 291.058516 288 291.058516 288 291.058516 288 
C 291.058516 288 291.058516 288 291.058516 288 
C 291.058516 288 291.058516 288 291.058516 288 
C 291.058516 288 291.058516 288 291.058516 288 
C 291.058516 288 291.058516 288 291.058516 288 
C 291.058516 288 291.058516 288 291.058516 288 
C 291.058516 288 291.058516 288 291.058516 288 
M 544.568594 288 
z
"/>
  </clipPath>
 </defs>
</svg>
