<?xml version="1.0" encoding="utf-8" standalone="no"?>
<!DOCTYPE svg PUBLIC "-//W3C//DTD SVG 1.1//EN"
  "http://www.w3.org/Graphics/SVG/1.1/DTD/svg11.dtd">
<!-- Created with matplotlib (https://matplotlib.org/) -->
<svg height="576pt" version="1.1" viewBox="0 0 576 576" width="576pt" xmlns="http://www.w3.org/2000/svg" xmlns:xlink="http://www.w3.org/1999/xlink">
 <defs>
  <style type="text/css">
*{stroke-linecap:butt;stroke-linejoin:round;}
  </style>
 </defs>
 <g id="figure_1">
  <g id="patch_1">
   <path d="M 0 576 
L 576 576 
L 576 0 
L 0 0 
z
" style="fill:#ffffff;"/>
  </g>
  <g id="axes_1">
   <g id="patch_2">
    <path d="M 544.568594 288 
C 544.568594 254.709362 538.011064 221.742433 525.271288 190.985893 
C 512.531512 160.229354 493.857247 132.281341 470.317211 108.741305 
C 446.777175 85.201268 418.829162 66.527003 388.072622 53.787228 
C 357.316083 41.047452 324.349154 34.489922 291.058516 34.489922 
C 257.767877 34.489922 224.800948 41.047452 194.044409 53.787228 
C 163.287869 66.527003 135.339856 85.201268 111.79982 108.741305 
C 88.259784 132.281341 69.585519 160.229354 56.845743 190.985893 
C 44.105967 221.742433 37.548437 254.709362 37.548437 288 
C 37.548437 321.290638 44.105967 354.257567 56.845743 385.014107 
C 69.585519 415.770646 88.259784 443.718659 111.79982 467.258695 
C 135.339856 490.798732 163.287869 509.472997 194.044409 522.212772 
C 224.800948 534.952548 257.767877 541.510078 291.058516 541.510078 
C 324.349154 541.510078 357.316083 534.952548 388.072622 522.212772 
C 418.829162 509.472997 446.777175 490.798732 470.317211 467.258695 
C 493.857247 443.718659 512.531512 415.770646 525.271288 385.014107 
C 538.011064 354.257567 544.568594 321.290638 544.568594 288 
M 291.058516 288 
C 291.058516 288 291.058516 288 291.058516 288 
C 291.058516 288 291.058516 288 291.058516 288 
C 291.058516 288 291.058516 288 291.058516 288 
C 291.058516 288 291.058516 288 291.058516 288 
C 291.058516 288 291.058516 288 291.058516 288 
C 291.058516 288 291.058516 288 291.058516 288 
C 291.058516 288 291.058516 288 291.058516 288 
C 291.058516 288 291.058516 288 291.058516 288 
C 291.058516 288 291.058516 288 291.058516 288 
C 291.058516 288 291.058516 288 291.058516 288 
C 291.058516 288 291.058516 288 291.058516 288 
C 291.058516 288 291.058516 288 291.058516 288 
C 291.058516 288 291.058516 288 291.058516 288 
C 291.058516 288 291.058516 288 291.058516 288 
C 291.058516 288 291.058516 288 291.058516 288 
C 291.058516 288 291.058516 288 291.058516 288 
M 544.568594 288 
z
" style="fill:#eaeaf2;"/>
   </g>
   <g id="matplotlib.axis_1">
    <g id="xtick_1">
     <g id="line2d_1">
      <path clip-path="url(#peb3a035ce2)" d="M 291.058516 288 
L 544.568594 288 
" style="fill:none;stroke:#ffffff;stroke-linecap:round;"/>
     </g>
     <g id="text_1">
      <!-- 0° -->
      <defs>
       <path d="M 4.15625 35.296875 
Q 4.15625 48 6.765625 55.734375 
Q 9.375 63.484375 14.515625 67.671875 
Q 19.671875 71.875 27.484375 71.875 
Q 33.25 71.875 37.59375 69.546875 
Q 41.9375 67.234375 44.765625 62.859375 
Q 47.609375 58.5 49.21875 52.21875 
Q 50.828125 45.953125 50.828125 35.296875 
Q 50.828125 22.703125 48.234375 14.96875 
Q 45.65625 7.234375 40.5 3 
Q 35.359375 -1.21875 27.484375 -1.21875 
Q 17.140625 -1.21875 11.234375 6.203125 
Q 4.15625 15.140625 4.15625 35.296875 
z
M 13.1875 35.296875 
Q 13.1875 17.671875 17.3125 11.828125 
Q 21.4375 6 27.484375 6 
Q 33.546875 6 37.671875 11.859375 
Q 41.796875 17.71875 41.796875 35.296875 
Q 41.796875 52.984375 37.671875 58.78125 
Q 33.546875 64.59375 27.390625 64.59375 
Q 21.34375 64.59375 17.71875 59.46875 
Q 13.1875 52.9375 13.1875 35.296875 
z
" id="ArialMT-48"/>
       <path d="M 6.25 59.28125 
Q 6.25 64.890625 10.21875 68.84375 
Q 14.203125 72.796875 19.78125 72.796875 
Q 25.4375 72.796875 29.390625 68.84375 
Q 33.34375 64.890625 33.34375 59.28125 
Q 33.34375 53.65625 29.359375 49.671875 
Q 25.390625 45.703125 19.78125 45.703125 
Q 14.203125 45.703125 10.21875 49.65625 
Q 6.25 53.609375 6.25 59.28125 
z
M 11.578125 59.28125 
Q 11.578125 55.859375 13.984375 53.4375 
Q 16.40625 51.03125 19.828125 51.03125 
Q 23.1875 51.03125 25.609375 53.4375 
Q 28.03125 55.859375 28.03125 59.28125 
Q 28.03125 62.703125 25.609375 65.109375 
Q 23.1875 67.53125 19.828125 67.53125 
Q 16.40625 67.53125 13.984375 65.109375 
Q 11.578125 62.703125 11.578125 59.28125 
z
" id="ArialMT-176"/>
      </defs>
      <g style="fill:#262626;" transform="translate(555.810938 290.843672)scale(0.11 -0.11)">
       <use xlink:href="#ArialMT-48"/>
       <use x="55.615234" xlink:href="#ArialMT-176"/>
      </g>
     </g>
    </g>
    <g id="xtick_2">
     <g id="line2d_2">
      <path clip-path="url(#peb3a035ce2)" d="M 291.058516 288 
L 470.317211 108.741305 
" style="fill:none;stroke:#ffffff;stroke-linecap:round;"/>
     </g>
     <g id="text_2">
      <!-- 45° -->
      <defs>
       <path d="M 32.328125 0 
L 32.328125 17.140625 
L 1.265625 17.140625 
L 1.265625 25.203125 
L 33.9375 71.578125 
L 41.109375 71.578125 
L 41.109375 25.203125 
L 50.78125 25.203125 
L 50.78125 17.140625 
L 41.109375 17.140625 
L 41.109375 0 
z
M 32.328125 25.203125 
L 32.328125 57.46875 
L 9.90625 25.203125 
z
" id="ArialMT-52"/>
       <path d="M 4.15625 18.75 
L 13.375 19.53125 
Q 14.40625 12.796875 18.140625 9.390625 
Q 21.875 6 27.15625 6 
Q 33.5 6 37.890625 10.78125 
Q 42.28125 15.578125 42.28125 23.484375 
Q 42.28125 31 38.0625 35.34375 
Q 33.84375 39.703125 27 39.703125 
Q 22.75 39.703125 19.328125 37.765625 
Q 15.921875 35.84375 13.96875 32.765625 
L 5.71875 33.84375 
L 12.640625 70.609375 
L 48.25 70.609375 
L 48.25 62.203125 
L 19.671875 62.203125 
L 15.828125 42.96875 
Q 22.265625 47.46875 29.34375 47.46875 
Q 38.71875 47.46875 45.15625 40.96875 
Q 51.609375 34.46875 51.609375 24.265625 
Q 51.609375 14.546875 45.953125 7.46875 
Q 39.0625 -1.21875 27.15625 -1.21875 
Q 17.390625 -1.21875 11.203125 4.25 
Q 5.03125 9.71875 4.15625 18.75 
z
" id="ArialMT-53"/>
      </defs>
      <g style="fill:#262626;" transform="translate(473.668301 99.917715)scale(0.11 -0.11)">
       <use xlink:href="#ArialMT-52"/>
       <use x="55.615234" xlink:href="#ArialMT-53"/>
       <use x="111.230469" xlink:href="#ArialMT-176"/>
      </g>
     </g>
    </g>
    <g id="xtick_3">
     <g id="line2d_3">
      <path clip-path="url(#peb3a035ce2)" d="M 291.058516 288 
L 291.058516 34.489922 
" style="fill:none;stroke:#ffffff;stroke-linecap:round;"/>
     </g>
     <g id="text_3">
      <!-- 90° -->
      <defs>
       <path d="M 5.46875 16.546875 
L 13.921875 17.328125 
Q 14.984375 11.375 18.015625 8.6875 
Q 21.046875 6 25.78125 6 
Q 29.828125 6 32.875 7.859375 
Q 35.9375 9.71875 37.890625 12.8125 
Q 39.84375 15.921875 41.15625 21.1875 
Q 42.484375 26.46875 42.484375 31.9375 
Q 42.484375 32.515625 42.4375 33.6875 
Q 39.796875 29.5 35.234375 26.875 
Q 30.671875 24.265625 25.34375 24.265625 
Q 16.453125 24.265625 10.296875 30.703125 
Q 4.15625 37.15625 4.15625 47.703125 
Q 4.15625 58.59375 10.578125 65.234375 
Q 17 71.875 26.65625 71.875 
Q 33.640625 71.875 39.421875 68.109375 
Q 45.21875 64.359375 48.21875 57.390625 
Q 51.21875 50.4375 51.21875 37.25 
Q 51.21875 23.53125 48.234375 15.40625 
Q 45.265625 7.28125 39.375 3.03125 
Q 33.5 -1.21875 25.59375 -1.21875 
Q 17.1875 -1.21875 11.859375 3.4375 
Q 6.546875 8.109375 5.46875 16.546875 
z
M 41.453125 48.140625 
Q 41.453125 55.71875 37.421875 60.15625 
Q 33.40625 64.59375 27.734375 64.59375 
Q 21.875 64.59375 17.53125 59.8125 
Q 13.1875 55.03125 13.1875 47.40625 
Q 13.1875 40.578125 17.3125 36.296875 
Q 21.4375 32.03125 27.484375 32.03125 
Q 33.59375 32.03125 37.515625 36.296875 
Q 41.453125 40.578125 41.453125 48.140625 
z
" id="ArialMT-57"/>
      </defs>
      <g style="fill:#262626;" transform="translate(282.742344 20.833594)scale(0.11 -0.11)">
       <use xlink:href="#ArialMT-57"/>
       <use x="55.615234" xlink:href="#ArialMT-48"/>
       <use x="111.230469" xlink:href="#ArialMT-176"/>
      </g>
     </g>
    </g>
    <g id="xtick_4">
     <g id="line2d_4">
      <path clip-path="url(#peb3a035ce2)" d="M 291.058516 288 
L 111.79982 108.741305 
" style="fill:none;stroke:#ffffff;stroke-linecap:round;"/>
     </g>
     <g id="text_4">
      <!-- 135° -->
      <defs>
       <path d="M 37.25 0 
L 28.46875 0 
L 28.46875 56 
Q 25.296875 52.984375 20.140625 49.953125 
Q 14.984375 46.921875 10.890625 45.40625 
L 10.890625 53.90625 
Q 18.265625 57.375 23.78125 62.296875 
Q 29.296875 67.234375 31.59375 71.875 
L 37.25 71.875 
z
" id="ArialMT-49"/>
       <path d="M 4.203125 18.890625 
L 12.984375 20.0625 
Q 14.5 12.59375 18.140625 9.296875 
Q 21.78125 6 27 6 
Q 33.203125 6 37.46875 10.296875 
Q 41.75 14.59375 41.75 20.953125 
Q 41.75 27 37.796875 30.921875 
Q 33.84375 34.859375 27.734375 34.859375 
Q 25.25 34.859375 21.53125 33.890625 
L 22.515625 41.609375 
Q 23.390625 41.5 23.921875 41.5 
Q 29.546875 41.5 34.03125 44.421875 
Q 38.53125 47.359375 38.53125 53.46875 
Q 38.53125 58.296875 35.25 61.46875 
Q 31.984375 64.65625 26.8125 64.65625 
Q 21.6875 64.65625 18.265625 61.421875 
Q 14.84375 58.203125 13.875 51.765625 
L 5.078125 53.328125 
Q 6.6875 62.15625 12.390625 67.015625 
Q 18.109375 71.875 26.609375 71.875 
Q 32.46875 71.875 37.390625 69.359375 
Q 42.328125 66.84375 44.9375 62.5 
Q 47.5625 58.15625 47.5625 53.265625 
Q 47.5625 48.640625 45.0625 44.828125 
Q 42.578125 41.015625 37.703125 38.765625 
Q 44.046875 37.3125 47.5625 32.6875 
Q 51.078125 28.078125 51.078125 21.140625 
Q 51.078125 11.765625 44.234375 5.25 
Q 37.40625 -1.265625 26.953125 -1.265625 
Q 17.53125 -1.265625 11.296875 4.34375 
Q 5.078125 9.96875 4.203125 18.890625 
z
" id="ArialMT-51"/>
      </defs>
      <g style="fill:#262626;" transform="translate(88.757871 99.917715)scale(0.11 -0.11)">
       <use xlink:href="#ArialMT-49"/>
       <use x="55.615234" xlink:href="#ArialMT-51"/>
       <use x="111.230469" xlink:href="#ArialMT-53"/>
       <use x="166.845703" xlink:href="#ArialMT-176"/>
      </g>
     </g>
    </g>
    <g id="xtick_5">
     <g id="line2d_5">
      <path clip-path="url(#peb3a035ce2)" d="M 291.058516 288 
L 37.548438 288 
" style="fill:none;stroke:#ffffff;stroke-linecap:round;"/>
     </g>
     <g id="text_5">
      <!-- 180° -->
      <defs>
       <path d="M 17.671875 38.8125 
Q 12.203125 40.828125 9.5625 44.53125 
Q 6.9375 48.25 6.9375 53.421875 
Q 6.9375 61.234375 12.546875 66.546875 
Q 18.171875 71.875 27.484375 71.875 
Q 36.859375 71.875 42.578125 66.421875 
Q 48.296875 60.984375 48.296875 53.171875 
Q 48.296875 48.1875 45.671875 44.5 
Q 43.0625 40.828125 37.75 38.8125 
Q 44.34375 36.671875 47.78125 31.875 
Q 51.21875 27.09375 51.21875 20.453125 
Q 51.21875 11.28125 44.71875 5.03125 
Q 38.234375 -1.21875 27.640625 -1.21875 
Q 17.046875 -1.21875 10.546875 5.046875 
Q 4.046875 11.328125 4.046875 20.703125 
Q 4.046875 27.6875 7.59375 32.390625 
Q 11.140625 37.109375 17.671875 38.8125 
z
M 15.921875 53.71875 
Q 15.921875 48.640625 19.1875 45.40625 
Q 22.46875 42.1875 27.6875 42.1875 
Q 32.765625 42.1875 36.015625 45.375 
Q 39.265625 48.578125 39.265625 53.21875 
Q 39.265625 58.0625 35.90625 61.359375 
Q 32.5625 64.65625 27.59375 64.65625 
Q 22.5625 64.65625 19.234375 61.421875 
Q 15.921875 58.203125 15.921875 53.71875 
z
M 13.09375 20.65625 
Q 13.09375 16.890625 14.875 13.375 
Q 16.65625 9.859375 20.171875 7.921875 
Q 23.6875 6 27.734375 6 
Q 34.03125 6 38.125 10.046875 
Q 42.234375 14.109375 42.234375 20.359375 
Q 42.234375 26.703125 38.015625 30.859375 
Q 33.796875 35.015625 27.4375 35.015625 
Q 21.234375 35.015625 17.15625 30.90625 
Q 13.09375 26.8125 13.09375 20.65625 
z
" id="ArialMT-56"/>
      </defs>
      <g style="fill:#262626;" transform="translate(9.67375 290.843672)scale(0.11 -0.11)">
       <use xlink:href="#ArialMT-49"/>
       <use x="55.615234" xlink:href="#ArialMT-56"/>
       <use x="111.230469" xlink:href="#ArialMT-48"/>
       <use x="166.845703" xlink:href="#ArialMT-176"/>
      </g>
     </g>
    </g>
    <g id="xtick_6">
     <g id="line2d_6">
      <path clip-path="url(#peb3a035ce2)" d="M 291.058516 288 
L 111.79982 467.258695 
" style="fill:none;stroke:#ffffff;stroke-linecap:round;"/>
     </g>
     <g id="text_6">
      <!-- 225° -->
      <defs>
       <path d="M 50.34375 8.453125 
L 50.34375 0 
L 3.03125 0 
Q 2.9375 3.171875 4.046875 6.109375 
Q 5.859375 10.9375 9.828125 15.625 
Q 13.8125 20.3125 21.34375 26.46875 
Q 33.015625 36.03125 37.109375 41.625 
Q 41.21875 47.21875 41.21875 52.203125 
Q 41.21875 57.421875 37.46875 61 
Q 33.734375 64.59375 27.734375 64.59375 
Q 21.390625 64.59375 17.578125 60.78125 
Q 13.765625 56.984375 13.71875 50.25 
L 4.6875 51.171875 
Q 5.609375 61.28125 11.65625 66.578125 
Q 17.71875 71.875 27.9375 71.875 
Q 38.234375 71.875 44.234375 66.15625 
Q 50.25 60.453125 50.25 52 
Q 50.25 47.703125 48.484375 43.546875 
Q 46.734375 39.40625 42.65625 34.8125 
Q 38.578125 30.21875 29.109375 22.21875 
Q 21.1875 15.578125 18.9375 13.203125 
Q 16.703125 10.84375 15.234375 8.453125 
z
" id="ArialMT-50"/>
      </defs>
      <g style="fill:#262626;" transform="translate(88.757871 481.769629)scale(0.11 -0.11)">
       <use xlink:href="#ArialMT-50"/>
       <use x="55.615234" xlink:href="#ArialMT-50"/>
       <use x="111.230469" xlink:href="#ArialMT-53"/>
       <use x="166.845703" xlink:href="#ArialMT-176"/>
      </g>
     </g>
    </g>
    <g id="xtick_7">
     <g id="line2d_7">
      <path clip-path="url(#peb3a035ce2)" d="M 291.058516 288 
L 291.058516 541.510078 
" style="fill:none;stroke:#ffffff;stroke-linecap:round;"/>
     </g>
     <g id="text_7">
      <!-- 270° -->
      <defs>
       <path d="M 4.734375 62.203125 
L 4.734375 70.65625 
L 51.078125 70.65625 
L 51.078125 63.8125 
Q 44.234375 56.546875 37.515625 44.484375 
Q 30.8125 32.421875 27.15625 19.671875 
Q 24.515625 10.6875 23.78125 0 
L 14.75 0 
Q 14.890625 8.453125 18.0625 20.40625 
Q 21.234375 32.375 27.171875 43.484375 
Q 33.109375 54.59375 39.796875 62.203125 
z
" id="ArialMT-55"/>
      </defs>
      <g style="fill:#262626;" transform="translate(279.683828 560.85375)scale(0.11 -0.11)">
       <use xlink:href="#ArialMT-50"/>
       <use x="55.615234" xlink:href="#ArialMT-55"/>
       <use x="111.230469" xlink:href="#ArialMT-48"/>
       <use x="166.845703" xlink:href="#ArialMT-176"/>
      </g>
     </g>
    </g>
    <g id="xtick_8">
     <g id="line2d_8">
      <path clip-path="url(#peb3a035ce2)" d="M 291.058516 288 
L 470.317211 467.258695 
" style="fill:none;stroke:#ffffff;stroke-linecap:round;"/>
     </g>
     <g id="text_8">
      <!-- 315° -->
      <g style="fill:#262626;" transform="translate(470.609785 481.769629)scale(0.11 -0.11)">
       <use xlink:href="#ArialMT-51"/>
       <use x="55.615234" xlink:href="#ArialMT-49"/>
       <use x="111.230469" xlink:href="#ArialMT-53"/>
       <use x="166.845703" xlink:href="#ArialMT-176"/>
      </g>
     </g>
    </g>
   </g>
   <g id="matplotlib.axis_2">
    <g id="ytick_1">
     <g id="line2d_9">
      <path clip-path="url(#peb3a035ce2)" d="M 339.810454 288 
L 339.691696 284.599237 
L 339.336003 281.215042 
L 338.745107 277.863902 
L 337.921886 274.562145 
L 336.870352 271.325855 
L 335.595627 268.1708 
L 334.103922 265.112351 
L 332.402504 262.165409 
L 330.499662 259.34433 
L 328.404667 256.662858 
L 326.127725 254.134058 
L 323.67993 251.770249 
L 321.073206 249.582949 
L 318.320253 247.582812 
L 315.434485 245.779583 
L 312.429959 244.182048 
L 309.321313 242.79799 
L 306.123693 241.634152 
L 302.852677 240.696203 
L 299.524201 239.988713 
L 296.154481 239.51513 
L 292.759934 239.27776 
L 289.357098 239.27776 
L 285.96255 239.51513 
L 282.59283 239.988713 
L 279.264354 240.696203 
L 275.993338 241.634152 
L 272.795718 242.79799 
L 269.687073 244.182048 
L 266.682547 245.779583 
L 263.796778 247.582812 
L 261.043825 249.582949 
L 258.437102 251.770249 
L 255.989306 254.134058 
L 253.712364 256.662858 
L 251.617369 259.34433 
L 249.714527 262.165409 
L 248.013109 265.112351 
L 246.521404 268.1708 
L 245.246679 271.325855 
L 244.195145 274.562145 
L 243.371924 277.863902 
L 242.781028 281.215042 
L 242.425335 284.599237 
L 242.306578 288 
L 242.425335 291.400763 
L 242.781028 294.784958 
L 243.371924 298.136098 
L 244.195145 301.437855 
L 245.246679 304.674145 
L 246.521404 307.8292 
L 248.013109 310.887649 
L 249.714527 313.834591 
L 251.617369 316.65567 
L 253.712364 319.337142 
L 255.989306 321.865942 
L 258.437102 324.229751 
L 261.043825 326.417051 
L 263.796778 328.417188 
L 266.682547 330.220417 
L 269.687073 331.817952 
L 272.795718 333.20201 
L 275.993338 334.365848 
L 279.264354 335.303797 
L 282.59283 336.011287 
L 285.96255 336.48487 
L 289.357098 336.72224 
L 292.759934 336.72224 
L 296.154481 336.48487 
L 299.524201 336.011287 
L 302.852677 335.303797 
L 306.123693 334.365848 
L 309.321313 333.20201 
L 312.429959 331.817952 
L 315.434485 330.220417 
L 318.320253 328.417188 
L 321.073206 326.417051 
L 323.67993 324.229751 
L 326.127725 321.865942 
L 328.404667 319.337142 
L 330.499662 316.65567 
L 332.402504 313.834591 
L 334.103922 310.887649 
L 335.595627 307.8292 
L 336.870352 304.674145 
L 337.921886 301.437855 
L 338.745107 298.136098 
L 339.336003 294.784958 
L 339.691696 291.400763 
L 339.810454 288 
L 339.810454 288 
" style="fill:none;stroke:#ffffff;stroke-linecap:round;"/>
     </g>
     <g id="text_9">
      <!-- 1 -->
      <g style="fill:#262626;" transform="translate(336.099433 267.157191)scale(0.11 -0.11)">
       <use xlink:href="#ArialMT-49"/>
      </g>
     </g>
    </g>
    <g id="ytick_2">
     <g id="line2d_10">
      <path clip-path="url(#peb3a035ce2)" d="M 388.562392 288 
L 388.502995 284.597164 
L 388.324877 281.198473 
L 388.028255 277.80807 
L 387.613491 274.430083 
L 387.081089 271.06863 
L 386.431698 267.727804 
L 385.66611 264.411677 
L 384.785257 261.124289 
L 383.790212 257.869645 
L 382.682189 254.65171 
L 381.462535 251.474405 
L 380.132739 248.341601 
L 378.694419 245.257114 
L 377.149328 242.224703 
L 375.499349 239.248062 
L 373.746492 236.330818 
L 371.892892 233.476524 
L 369.940808 230.68866 
L 367.892619 227.97062 
L 365.750818 225.325716 
L 363.518017 222.757172 
L 361.196934 220.268116 
L 358.790399 217.861581 
L 356.301343 215.540499 
L 353.732799 213.307697 
L 351.087896 211.165897 
L 348.369856 209.117707 
L 345.581991 207.165623 
L 342.727698 205.312023 
L 339.810454 203.559166 
L 336.833813 201.909187 
L 333.801402 200.364097 
L 330.716915 198.925777 
L 327.584111 197.59598 
L 324.406805 196.376327 
L 321.18887 195.268303 
L 317.934226 194.273259 
L 314.646838 193.392406 
L 311.330711 192.626817 
L 307.989886 191.977427 
L 304.628432 191.445025 
L 301.250446 191.03026 
L 297.860042 190.733638 
L 294.461352 190.555521 
L 291.058516 190.496124 
L 287.655679 190.555521 
L 284.256989 190.733638 
L 280.866585 191.03026 
L 277.488599 191.445025 
L 274.127145 191.977427 
L 270.78632 192.626817 
L 267.470193 193.392406 
L 264.182805 194.273259 
L 260.928161 195.268303 
L 257.710226 196.376327 
L 254.532921 197.59598 
L 251.400116 198.925777 
L 248.31563 200.364097 
L 245.283218 201.909187 
L 242.306578 203.559166 
L 239.389333 205.312023 
L 236.53504 207.165623 
L 233.747175 209.117707 
L 231.029135 211.165897 
L 228.384232 213.307697 
L 225.815688 215.540499 
L 223.326632 217.861581 
L 220.920097 220.268116 
L 218.599015 222.757172 
L 216.366213 225.325716 
L 214.224413 227.97062 
L 212.176223 230.68866 
L 210.224139 233.476524 
L 208.370539 236.330818 
L 206.617682 239.248062 
L 204.967703 242.224703 
L 203.422612 245.257114 
L 201.984292 248.341601 
L 200.654496 251.474405 
L 199.434843 254.65171 
L 198.326819 257.869645 
L 197.331774 261.124289 
L 196.450921 264.411677 
L 195.685333 267.727804 
L 195.035942 271.06863 
L 194.50354 274.430083 
L 194.088776 277.80807 
L 193.792154 281.198473 
L 193.614036 284.597164 
L 193.554639 288 
L 193.614036 291.402836 
L 193.792154 294.801527 
L 194.088776 298.19193 
L 194.50354 301.569917 
L 195.035942 304.93137 
L 195.685333 308.272196 
L 196.450921 311.588323 
L 197.331774 314.875711 
L 198.326819 318.130355 
L 199.434843 321.34829 
L 200.654496 324.525595 
L 201.984292 327.658399 
L 203.422612 330.742886 
L 204.967703 333.775297 
L 206.617682 336.751938 
L 208.370539 339.669182 
L 210.224139 342.523476 
L 212.176223 345.31134 
L 214.224413 348.02938 
L 216.366213 350.674284 
L 218.599015 353.242828 
L 220.920097 355.731884 
L 223.326632 358.138419 
L 225.815688 360.459501 
L 228.384232 362.692303 
L 231.029135 364.834103 
L 233.747175 366.882293 
L 236.53504 368.834377 
L 239.389333 370.687977 
L 242.306578 372.440834 
L 245.283218 374.090813 
L 248.31563 375.635903 
L 251.400116 377.074223 
L 254.532921 378.40402 
L 257.710226 379.623673 
L 260.928161 380.731697 
L 264.182805 381.726741 
L 267.470193 382.607594 
L 270.78632 383.373183 
L 274.127145 384.022573 
L 277.488599 384.554975 
L 280.866585 384.96974 
L 284.256989 385.266362 
L 287.655679 385.444479 
L 291.058516 385.503876 
L 294.461352 385.444479 
L 297.860042 385.266362 
L 301.250446 384.96974 
L 304.628432 384.554975 
L 307.989886 384.022573 
L 311.330711 383.373183 
L 314.646838 382.607594 
L 317.934226 381.726741 
L 321.18887 380.731697 
L 324.406805 379.623673 
L 327.584111 378.40402 
L 330.716915 377.074223 
L 333.801402 375.635903 
L 336.833813 374.090813 
L 339.810454 372.440834 
L 342.727698 370.687977 
L 345.581991 368.834377 
L 348.369856 366.882293 
L 351.087896 364.834103 
L 353.732799 362.692303 
L 356.301343 360.459501 
L 358.790399 358.138419 
L 361.196934 355.731884 
L 363.518017 353.242828 
L 365.750818 350.674284 
L 367.892619 348.02938 
L 369.940808 345.31134 
L 371.892892 342.523476 
L 373.746492 339.669182 
L 375.499349 336.751938 
L 377.149328 333.775297 
L 378.694419 330.742886 
L 380.132739 327.658399 
L 381.462535 324.525595 
L 382.682189 321.34829 
L 383.790212 318.130355 
L 384.785257 314.875711 
L 385.66611 311.588323 
L 386.431698 308.272196 
L 387.081089 304.93137 
L 387.613491 301.569917 
L 388.028255 298.19193 
L 388.324877 294.801527 
L 388.502995 291.402836 
L 388.562392 288 
L 388.562392 288 
" style="fill:none;stroke:#ffffff;stroke-linecap:round;"/>
     </g>
     <g id="text_10">
      <!-- 2 -->
      <g style="fill:#262626;" transform="translate(381.140351 248.500632)scale(0.11 -0.11)">
       <use xlink:href="#ArialMT-50"/>
      </g>
     </g>
    </g>
    <g id="ytick_3">
     <g id="line2d_11">
      <path clip-path="url(#peb3a035ce2)" d="M 437.31433 288 
L 437.225235 282.895746 
L 436.958058 277.79771 
L 436.513125 272.712104 
L 435.890978 267.645125 
L 435.092375 262.602944 
L 434.118289 257.591706 
L 432.969907 252.617516 
L 431.648628 247.686434 
L 430.156061 242.804468 
L 428.494025 237.977565 
L 426.664545 233.211608 
L 424.66985 228.512401 
L 422.512371 223.885671 
L 420.194735 219.337054 
L 417.719766 214.872093 
L 415.09048 210.496226 
L 412.310081 206.214787 
L 409.381955 202.032989 
L 406.30967 197.95593 
L 403.096969 193.988575 
L 399.747767 190.135758 
L 396.266144 186.402174 
L 392.656341 182.792372 
L 388.922757 179.310748 
L 385.069941 175.961546 
L 381.102586 172.748846 
L 377.025526 169.676561 
L 372.843729 166.748435 
L 368.562289 163.968035 
L 364.186423 161.338749 
L 359.721461 158.863781 
L 355.172845 156.546145 
L 350.546115 154.388665 
L 345.846908 152.39397 
L 341.08095 150.564491 
L 336.254048 148.902455 
L 331.372082 147.409888 
L 326.440999 146.088608 
L 321.466809 144.940226 
L 316.455571 143.96614 
L 311.413391 143.167537 
L 306.346411 142.54539 
L 301.260805 142.100458 
L 296.16277 141.833281 
L 291.058516 141.744186 
L 285.954261 141.833281 
L 280.856226 142.100458 
L 275.77062 142.54539 
L 270.70364 143.167537 
L 265.66146 143.96614 
L 260.650222 144.940226 
L 255.676032 146.088608 
L 250.74495 147.409888 
L 245.862983 148.902455 
L 241.036081 150.564491 
L 236.270123 152.39397 
L 231.570917 154.388665 
L 226.944187 156.546145 
L 222.39557 158.863781 
L 217.930608 161.338749 
L 213.554742 163.968035 
L 209.273302 166.748435 
L 205.091505 169.676561 
L 201.014445 172.748846 
L 197.04709 175.961546 
L 193.194274 179.310748 
L 189.46069 182.792372 
L 185.850887 186.402174 
L 182.369264 190.135758 
L 179.020062 193.988575 
L 175.807361 197.95593 
L 172.735076 202.032989 
L 169.80695 206.214787 
L 167.026551 210.496226 
L 164.397265 214.872093 
L 161.922296 219.337054 
L 159.60466 223.885671 
L 157.447181 228.512401 
L 155.452486 233.211608 
L 153.623006 237.977565 
L 151.96097 242.804468 
L 150.468404 247.686434 
L 149.147124 252.617516 
L 147.998742 257.591706 
L 147.024656 262.602944 
L 146.226053 267.645125 
L 145.603906 272.712104 
L 145.158973 277.79771 
L 144.891796 282.895746 
L 144.802701 288 
L 144.891796 293.104254 
L 145.158973 298.20229 
L 145.603906 303.287896 
L 146.226053 308.354875 
L 147.024656 313.397056 
L 147.998742 318.408294 
L 149.147124 323.382484 
L 150.468404 328.313566 
L 151.96097 333.195532 
L 153.623006 338.022435 
L 155.452486 342.788392 
L 157.447181 347.487599 
L 159.60466 352.114329 
L 161.922296 356.662946 
L 164.397265 361.127907 
L 167.026551 365.503774 
L 169.80695 369.785213 
L 172.735076 373.967011 
L 175.807361 378.04407 
L 179.020062 382.011425 
L 182.369264 385.864242 
L 185.850887 389.597826 
L 189.46069 393.207628 
L 193.194274 396.689252 
L 197.04709 400.038454 
L 201.014445 403.251154 
L 205.091505 406.323439 
L 209.273302 409.251565 
L 213.554742 412.031965 
L 217.930608 414.661251 
L 222.39557 417.136219 
L 226.944187 419.453855 
L 231.570917 421.611335 
L 236.270123 423.60603 
L 241.036081 425.435509 
L 245.862983 427.097545 
L 250.74495 428.590112 
L 255.676032 429.911392 
L 260.650222 431.059774 
L 265.66146 432.03386 
L 270.70364 432.832463 
L 275.77062 433.45461 
L 280.856226 433.899542 
L 285.954261 434.166719 
L 291.058516 434.255814 
L 296.16277 434.166719 
L 301.260805 433.899542 
L 306.346411 433.45461 
L 311.413391 432.832463 
L 316.455571 432.03386 
L 321.466809 431.059774 
L 326.440999 429.911392 
L 331.372082 428.590112 
L 336.254048 427.097545 
L 341.08095 425.435509 
L 345.846908 423.60603 
L 350.546115 421.611335 
L 355.172845 419.453855 
L 359.721461 417.136219 
L 364.186423 414.661251 
L 368.562289 412.031965 
L 372.843729 409.251565 
L 377.025526 406.323439 
L 381.102586 403.251154 
L 385.069941 400.038454 
L 388.922757 396.689252 
L 392.656341 393.207628 
L 396.266144 389.597826 
L 399.747767 385.864242 
L 403.096969 382.011425 
L 406.30967 378.04407 
L 409.381955 373.967011 
L 412.310081 369.785213 
L 415.09048 365.503774 
L 417.719766 361.127907 
L 420.194735 356.662946 
L 422.512371 352.114329 
L 424.66985 347.487599 
L 426.664545 342.788392 
L 428.494025 338.022435 
L 430.156061 333.195532 
L 431.648628 328.313566 
L 432.969907 323.382484 
L 434.118289 318.408294 
L 435.092375 313.397056 
L 435.890978 308.354875 
L 436.513125 303.287896 
L 436.958058 298.20229 
L 437.225235 293.104254 
L 437.31433 288 
L 437.31433 288 
" style="fill:none;stroke:#ffffff;stroke-linecap:round;"/>
     </g>
     <g id="text_11">
      <!-- 3 -->
      <g style="fill:#262626;" transform="translate(426.181269 229.844073)scale(0.11 -0.11)">
       <use xlink:href="#ArialMT-51"/>
      </g>
     </g>
    </g>
    <g id="ytick_4">
     <g id="line2d_12">
      <path clip-path="url(#peb3a035ce2)" d="M 486.066268 288 
L 485.947475 281.194328 
L 485.591239 274.396947 
L 484.997995 267.616139 
L 484.168466 260.860166 
L 483.103662 254.137259 
L 481.804881 247.455608 
L 480.273704 240.823355 
L 478.511998 234.248579 
L 476.521909 227.73929 
L 474.305862 221.303421 
L 471.866555 214.94881 
L 469.206962 208.683201 
L 466.330322 202.514228 
L 463.240141 196.449406 
L 459.940183 190.496124 
L 456.434469 184.661635 
L 452.727269 178.953049 
L 448.823101 173.377319 
L 444.726722 167.941239 
L 440.443121 162.651433 
L 435.977518 157.514344 
L 431.335353 152.536232 
L 426.522283 147.723162 
L 421.544171 143.080998 
L 416.407083 138.615395 
L 411.117276 134.331794 
L 405.681197 130.235414 
L 400.105467 126.331246 
L 394.39688 122.624047 
L 388.562392 119.118332 
L 382.60911 115.818374 
L 376.544288 112.728193 
L 370.375314 109.851554 
L 364.109705 107.19196 
L 357.755095 104.752654 
L 351.319225 102.536606 
L 344.809937 100.546517 
L 338.235161 98.784811 
L 331.602907 97.253635 
L 324.921256 95.954854 
L 318.198349 94.89005 
L 311.442376 94.06052 
L 304.661569 93.467277 
L 297.864188 93.111041 
L 291.058516 92.992248 
L 284.252843 93.111041 
L 277.455462 93.467277 
L 270.674655 94.06052 
L 263.918682 94.89005 
L 257.195775 95.954854 
L 250.514124 97.253635 
L 243.881871 98.784811 
L 237.307094 100.546517 
L 230.797806 102.536606 
L 224.361936 104.752654 
L 218.007326 107.19196 
L 211.741717 109.851554 
L 205.572744 112.728193 
L 199.507921 115.818374 
L 193.554639 119.118332 
L 187.720151 122.624047 
L 182.011564 126.331246 
L 176.435835 130.235414 
L 170.999755 134.331794 
L 165.709949 138.615395 
L 160.57286 143.080998 
L 155.594748 147.723162 
L 150.781678 152.536232 
L 146.139513 157.514344 
L 141.673911 162.651433 
L 137.39031 167.941239 
L 133.29393 173.377319 
L 129.389762 178.953049 
L 125.682562 184.661635 
L 122.176848 190.496124 
L 118.87689 196.449406 
L 115.786709 202.514228 
L 112.910069 208.683201 
L 110.250476 214.94881 
L 107.81117 221.303421 
L 105.595122 227.73929 
L 103.605033 234.248579 
L 101.843327 240.823355 
L 100.31215 247.455608 
L 99.013369 254.137259 
L 97.948565 260.860166 
L 97.119036 267.616139 
L 96.525792 274.396947 
L 96.169557 281.194328 
L 96.050763 288 
L 96.169557 294.805672 
L 96.525792 301.603053 
L 97.119036 308.383861 
L 97.948565 315.139834 
L 99.013369 321.862741 
L 100.31215 328.544392 
L 101.843327 335.176645 
L 103.605033 341.751421 
L 105.595122 348.26071 
L 107.81117 354.696579 
L 110.250476 361.05119 
L 112.910069 367.316799 
L 115.786709 373.485772 
L 118.87689 379.550594 
L 122.176848 385.503876 
L 125.682562 391.338365 
L 129.389762 397.046951 
L 133.29393 402.622681 
L 137.39031 408.058761 
L 141.673911 413.348567 
L 146.139513 418.485656 
L 150.781678 423.463768 
L 155.594748 428.276838 
L 160.57286 432.919002 
L 165.709949 437.384605 
L 170.999755 441.668206 
L 176.435835 445.764586 
L 182.011564 449.668754 
L 187.720151 453.375953 
L 193.554639 456.881668 
L 199.507921 460.181626 
L 205.572744 463.271807 
L 211.741717 466.148446 
L 218.007326 468.80804 
L 224.361936 471.247346 
L 230.797806 473.463394 
L 237.307094 475.453483 
L 243.881871 477.215189 
L 250.514124 478.746365 
L 257.195775 480.045146 
L 263.918682 481.10995 
L 270.674655 481.93948 
L 277.455462 482.532723 
L 284.252843 482.888959 
L 291.058516 483.007752 
L 297.864188 482.888959 
L 304.661569 482.532723 
L 311.442376 481.93948 
L 318.198349 481.10995 
L 324.921256 480.045146 
L 331.602907 478.746365 
L 338.235161 477.215189 
L 344.809937 475.453483 
L 351.319225 473.463394 
L 357.755095 471.247346 
L 364.109705 468.80804 
L 370.375314 466.148446 
L 376.544288 463.271807 
L 382.60911 460.181626 
L 388.562392 456.881668 
L 394.39688 453.375953 
L 400.105467 449.668754 
L 405.681197 445.764586 
L 411.117276 441.668206 
L 416.407083 437.384605 
L 421.544171 432.919002 
L 426.522283 428.276838 
L 431.335353 423.463768 
L 435.977518 418.485656 
L 440.443121 413.348567 
L 444.726722 408.058761 
L 448.823101 402.622681 
L 452.727269 397.046951 
L 456.434469 391.338365 
L 459.940183 385.503876 
L 463.240141 379.550594 
L 466.330322 373.485772 
L 469.206962 367.316799 
L 471.866555 361.05119 
L 474.305862 354.696579 
L 476.521909 348.26071 
L 478.511998 341.751421 
L 480.273704 335.176645 
L 481.804881 328.544392 
L 483.103662 321.862741 
L 484.168466 315.139834 
L 484.997995 308.383861 
L 485.591239 301.603053 
L 485.947475 294.805672 
L 486.066268 288 
L 486.066268 288 
" style="fill:none;stroke:#ffffff;stroke-linecap:round;"/>
     </g>
     <g id="text_12">
      <!-- 4 -->
      <g style="fill:#262626;" transform="translate(471.222187 211.187514)scale(0.11 -0.11)">
       <use xlink:href="#ArialMT-52"/>
      </g>
     </g>
    </g>
    <g id="ytick_5">
     <g id="line2d_13">
      <path clip-path="url(#peb3a035ce2)" d="M 534.818206 288 
L 534.669714 279.492909 
L 534.22442 270.996184 
L 533.482865 262.520174 
L 532.445954 254.075208 
L 531.114949 245.671574 
L 529.491472 237.319511 
L 527.577502 229.029194 
L 525.375369 220.810723 
L 522.887758 212.674113 
L 520.117698 204.629276 
L 517.068565 196.686013 
L 513.744074 188.854002 
L 510.148274 181.142785 
L 506.285548 173.561757 
L 502.1606 166.120155 
L 497.778457 158.827044 
L 493.144458 151.691311 
L 488.264248 144.721649 
L 483.143773 137.926549 
L 477.789272 131.314291 
L 472.207268 124.89293 
L 466.404563 118.670291 
L 460.388225 112.653953 
L 454.165585 106.851247 
L 447.744224 101.269244 
L 441.131966 95.914743 
L 434.336867 90.794268 
L 427.367205 85.914058 
L 420.231471 81.280059 
L 412.938361 76.897916 
L 405.496758 72.772968 
L 397.915731 68.910241 
L 390.204514 65.314442 
L 382.372503 61.989951 
L 374.42924 58.940818 
L 366.384403 56.170758 
L 358.247792 53.683147 
L 350.029322 51.481014 
L 341.739005 49.567044 
L 333.386942 47.943567 
L 324.983308 46.612562 
L 316.538341 45.575651 
L 308.062332 44.834096 
L 299.565606 44.388801 
L 291.058516 44.240309 
L 282.551425 44.388801 
L 274.054699 44.834096 
L 265.57869 45.575651 
L 257.133724 46.612562 
L 248.73009 47.943567 
L 240.378026 49.567044 
L 232.087709 51.481014 
L 223.869239 53.683147 
L 215.732629 56.170758 
L 207.687791 58.940818 
L 199.744528 61.989951 
L 191.912517 65.314442 
L 184.201301 68.910241 
L 176.620273 72.772968 
L 169.17867 76.897916 
L 161.88556 81.280059 
L 154.749827 85.914058 
L 147.780164 90.794268 
L 140.985065 95.914743 
L 134.372807 101.269244 
L 127.951446 106.851247 
L 121.728806 112.653953 
L 115.712469 118.670291 
L 109.909763 124.89293 
L 104.327759 131.314291 
L 98.973258 137.926549 
L 93.852783 144.721649 
L 88.972574 151.691311 
L 84.338574 158.827044 
L 79.956431 166.120155 
L 75.831484 173.561757 
L 71.968757 181.142785 
L 68.372958 188.854002 
L 65.048466 196.686013 
L 61.999333 204.629276 
L 59.229274 212.674113 
L 56.741662 220.810723 
L 54.53953 229.029194 
L 52.625559 237.319511 
L 51.002083 245.671574 
L 49.671078 254.075208 
L 48.634166 262.520174 
L 47.892611 270.996184 
L 47.447317 279.492909 
L 47.298825 288 
L 47.447317 296.507091 
L 47.892611 305.003816 
L 48.634166 313.479826 
L 49.671078 321.924792 
L 51.002083 330.328426 
L 52.625559 338.680489 
L 54.53953 346.970806 
L 56.741662 355.189277 
L 59.229274 363.325887 
L 61.999333 371.370724 
L 65.048466 379.313987 
L 68.372958 387.145998 
L 71.968757 394.857215 
L 75.831484 402.438243 
L 79.956431 409.879845 
L 84.338574 417.172956 
L 88.972574 424.308689 
L 93.852783 431.278351 
L 98.973258 438.073451 
L 104.327759 444.685709 
L 109.909763 451.10707 
L 115.712469 457.329709 
L 121.728806 463.346047 
L 127.951446 469.148753 
L 134.372807 474.730756 
L 140.985065 480.085257 
L 147.780164 485.205732 
L 154.749827 490.085942 
L 161.88556 494.719941 
L 169.17867 499.102084 
L 176.620273 503.227032 
L 184.201301 507.089759 
L 191.912517 510.685558 
L 199.744528 514.010049 
L 207.687791 517.059182 
L 215.732629 519.829242 
L 223.869239 522.316853 
L 232.087709 524.518986 
L 240.378026 526.432956 
L 248.73009 528.056433 
L 257.133724 529.387438 
L 265.57869 530.424349 
L 274.054699 531.165904 
L 282.551425 531.611199 
L 291.058516 531.759691 
L 299.565606 531.611199 
L 308.062332 531.165904 
L 316.538341 530.424349 
L 324.983308 529.387438 
L 333.386942 528.056433 
L 341.739005 526.432956 
L 350.029322 524.518986 
L 358.247792 522.316853 
L 366.384403 519.829242 
L 374.42924 517.059182 
L 382.372503 514.010049 
L 390.204514 510.685558 
L 397.915731 507.089759 
L 405.496758 503.227032 
L 412.938361 499.102084 
L 420.231471 494.719941 
L 427.367205 490.085942 
L 434.336867 485.205732 
L 441.131966 480.085257 
L 447.744224 474.730756 
L 454.165585 469.148753 
L 460.388225 463.346047 
L 466.404563 457.329709 
L 472.207268 451.10707 
L 477.789272 444.685709 
L 483.143773 438.073451 
L 488.264248 431.278351 
L 493.144458 424.308689 
L 497.778457 417.172956 
L 502.1606 409.879845 
L 506.285548 402.438243 
L 510.148274 394.857215 
L 513.744074 387.145998 
L 517.068565 379.313987 
L 520.117698 371.370724 
L 522.887758 363.325887 
L 525.375369 355.189277 
L 527.577502 346.970806 
L 529.491472 338.680489 
L 531.114949 330.328426 
L 532.445954 321.924792 
L 533.482865 313.479826 
L 534.22442 305.003816 
L 534.669714 296.507091 
L 534.818206 288 
L 534.818206 288 
" style="fill:none;stroke:#ffffff;stroke-linecap:round;"/>
     </g>
     <g id="text_13">
      <!-- 5 -->
      <g style="fill:#262626;" transform="translate(516.263105 192.530955)scale(0.11 -0.11)">
       <use xlink:href="#ArialMT-53"/>
      </g>
     </g>
    </g>
   </g>
   <g id="line2d_14">
    <defs>
     <path d="M 0 3 
C 0.795609 3 1.55874 2.683901 2.12132 2.12132 
C 2.683901 1.55874 3 0.795609 3 0 
C 3 -0.795609 2.683901 -1.55874 2.12132 -2.12132 
C 1.55874 -2.683901 0.795609 -3 0 -3 
C -0.795609 -3 -1.55874 -2.683901 -2.12132 -2.12132 
C -2.683901 -1.55874 -3 -0.795609 -3 0 
C -3 0.795609 -2.683901 1.55874 -2.12132 2.12132 
C -1.55874 2.683901 -0.795609 3 0 3 
z
" id="m90d295eb1d" style="stroke:#4c72b0;"/>
    </defs>
    <g clip-path="url(#peb3a035ce2)">
     <use style="fill:#4c72b0;stroke:#4c72b0;" x="534.818206" xlink:href="#m90d295eb1d" y="288"/>
     <use style="fill:#4c72b0;stroke:#4c72b0;" x="96.050763" xlink:href="#m90d295eb1d" y="288"/>
     <use style="fill:#4c72b0;stroke:#4c72b0;" x="364.186423" xlink:href="#m90d295eb1d" y="414.661251"/>
     <use style="fill:#4c72b0;stroke:#4c72b0;" x="375.499349" xlink:href="#m90d295eb1d" y="239.248062"/>
    </g>
   </g>
   <g id="line2d_15">
    <defs>
     <path d="M -3 3 
L 3 -3 
M -3 -3 
L 3 3 
" id="mf13cdc60e2" style="stroke:#c44e52;"/>
    </defs>
    <g clip-path="url(#peb3a035ce2)">
     <use style="fill:#c44e52;stroke:#c44e52;" x="327.288266" xlink:href="#mf13cdc60e2" y="320.621414"/>
    </g>
   </g>
   <g id="patch_3">
    <path d="M 544.568594 288 
C 544.568594 254.709362 538.011064 221.742433 525.271288 190.985893 
C 512.531512 160.229354 493.857247 132.281341 470.317211 108.741305 
C 446.777175 85.201268 418.829162 66.527003 388.072622 53.787228 
C 357.316083 41.047452 324.349154 34.489922 291.058516 34.489922 
C 257.767877 34.489922 224.800948 41.047452 194.044409 53.787228 
C 163.287869 66.527003 135.339856 85.201268 111.79982 108.741305 
C 88.259784 132.281341 69.585519 160.229354 56.845743 190.985893 
C 44.105967 221.742433 37.548437 254.709362 37.548437 288 
C 37.548437 321.290638 44.105967 354.257567 56.845743 385.014107 
C 69.585519 415.770646 88.259784 443.718659 111.79982 467.258695 
C 135.339856 490.798732 163.287869 509.472997 194.044409 522.212772 
C 224.800948 534.952548 257.767877 541.510078 291.058516 541.510078 
C 324.349154 541.510078 357.316083 534.952548 388.072622 522.212772 
C 418.829162 509.472997 446.777175 490.798732 470.317211 467.258695 
C 493.857247 443.718659 512.531512 415.770646 525.271288 385.014107 
C 538.011064 354.257567 544.568594 321.290638 544.568594 288 
" style="fill:none;stroke:#ffffff;stroke-linecap:square;stroke-linejoin:miter;stroke-width:1.25;"/>
   </g>
   <g id="legend_1">
    <g id="patch_4">
     <path d="M 450.307188 74.409609 
L 536.868594 74.409609 
Q 539.068594 74.409609 539.068594 72.209609 
L 539.068594 42.189922 
Q 539.068594 39.989922 536.868594 39.989922 
L 450.307188 39.989922 
Q 448.107188 39.989922 448.107188 42.189922 
L 448.107188 72.209609 
Q 448.107188 74.409609 450.307188 74.409609 
z
" style="fill:#eaeaf2;opacity:0.8;stroke:#cccccc;stroke-linejoin:miter;"/>
    </g>
    <g id="line2d_16"/>
    <g id="line2d_17">
     <g>
      <use style="fill:#4c72b0;stroke:#4c72b0;" x="463.507188" xlink:href="#m90d295eb1d" y="48.413516"/>
     </g>
    </g>
    <g id="text_14">
     <!-- Seeds -->
     <defs>
      <path d="M 4.5 23 
L 13.421875 23.78125 
Q 14.0625 18.40625 16.375 14.96875 
Q 18.703125 11.53125 23.578125 9.40625 
Q 28.46875 7.28125 34.578125 7.28125 
Q 39.984375 7.28125 44.140625 8.890625 
Q 48.296875 10.5 50.3125 13.296875 
Q 52.34375 16.109375 52.34375 19.4375 
Q 52.34375 22.796875 50.390625 25.3125 
Q 48.4375 27.828125 43.953125 29.546875 
Q 41.0625 30.671875 31.203125 33.03125 
Q 21.34375 35.40625 17.390625 37.5 
Q 12.25 40.1875 9.734375 44.15625 
Q 7.234375 48.140625 7.234375 53.078125 
Q 7.234375 58.5 10.296875 63.203125 
Q 13.375 67.921875 19.28125 70.359375 
Q 25.203125 72.796875 32.421875 72.796875 
Q 40.375 72.796875 46.453125 70.234375 
Q 52.546875 67.671875 55.8125 62.6875 
Q 59.078125 57.71875 59.328125 51.421875 
L 50.25 50.734375 
Q 49.515625 57.515625 45.28125 60.984375 
Q 41.0625 64.453125 32.8125 64.453125 
Q 24.21875 64.453125 20.28125 61.296875 
Q 16.359375 58.15625 16.359375 53.71875 
Q 16.359375 49.859375 19.140625 47.359375 
Q 21.875 44.875 33.421875 42.265625 
Q 44.96875 39.65625 49.265625 37.703125 
Q 55.515625 34.8125 58.484375 30.390625 
Q 61.46875 25.984375 61.46875 20.21875 
Q 61.46875 14.5 58.203125 9.4375 
Q 54.9375 4.390625 48.796875 1.578125 
Q 42.671875 -1.21875 35.015625 -1.21875 
Q 25.296875 -1.21875 18.71875 1.609375 
Q 12.15625 4.4375 8.421875 10.125 
Q 4.6875 15.828125 4.5 23 
z
" id="ArialMT-83"/>
      <path d="M 42.09375 16.703125 
L 51.171875 15.578125 
Q 49.03125 7.625 43.21875 3.21875 
Q 37.40625 -1.171875 28.375 -1.171875 
Q 17 -1.171875 10.328125 5.828125 
Q 3.65625 12.84375 3.65625 25.484375 
Q 3.65625 38.578125 10.390625 45.796875 
Q 17.140625 53.03125 27.875 53.03125 
Q 38.28125 53.03125 44.875 45.953125 
Q 51.46875 38.875 51.46875 26.03125 
Q 51.46875 25.25 51.421875 23.6875 
L 12.75 23.6875 
Q 13.234375 15.140625 17.578125 10.59375 
Q 21.921875 6.0625 28.421875 6.0625 
Q 33.25 6.0625 36.671875 8.59375 
Q 40.09375 11.140625 42.09375 16.703125 
z
M 13.234375 30.90625 
L 42.1875 30.90625 
Q 41.609375 37.453125 38.875 40.71875 
Q 34.671875 45.796875 27.984375 45.796875 
Q 21.921875 45.796875 17.796875 41.75 
Q 13.671875 37.703125 13.234375 30.90625 
z
" id="ArialMT-101"/>
      <path d="M 40.234375 0 
L 40.234375 6.546875 
Q 35.296875 -1.171875 25.734375 -1.171875 
Q 19.53125 -1.171875 14.328125 2.25 
Q 9.125 5.671875 6.265625 11.796875 
Q 3.421875 17.921875 3.421875 25.875 
Q 3.421875 33.640625 6 39.96875 
Q 8.59375 46.296875 13.765625 49.65625 
Q 18.953125 53.03125 25.34375 53.03125 
Q 30.03125 53.03125 33.6875 51.046875 
Q 37.359375 49.078125 39.65625 45.90625 
L 39.65625 71.578125 
L 48.390625 71.578125 
L 48.390625 0 
z
M 12.453125 25.875 
Q 12.453125 15.921875 16.640625 10.984375 
Q 20.84375 6.0625 26.5625 6.0625 
Q 32.328125 6.0625 36.34375 10.765625 
Q 40.375 15.484375 40.375 25.140625 
Q 40.375 35.796875 36.265625 40.765625 
Q 32.171875 45.75 26.171875 45.75 
Q 20.3125 45.75 16.375 40.96875 
Q 12.453125 36.1875 12.453125 25.875 
z
" id="ArialMT-100"/>
      <path d="M 3.078125 15.484375 
L 11.765625 16.84375 
Q 12.5 11.625 15.84375 8.84375 
Q 19.1875 6.0625 25.203125 6.0625 
Q 31.25 6.0625 34.171875 8.515625 
Q 37.109375 10.984375 37.109375 14.3125 
Q 37.109375 17.28125 34.515625 19 
Q 32.71875 20.171875 25.53125 21.96875 
Q 15.875 24.421875 12.140625 26.203125 
Q 8.40625 27.984375 6.46875 31.125 
Q 4.546875 34.28125 4.546875 38.09375 
Q 4.546875 41.546875 6.125 44.5 
Q 7.71875 47.46875 10.453125 49.421875 
Q 12.5 50.921875 16.03125 51.96875 
Q 19.578125 53.03125 23.640625 53.03125 
Q 29.734375 53.03125 34.34375 51.265625 
Q 38.96875 49.515625 41.15625 46.5 
Q 43.359375 43.5 44.1875 38.484375 
L 35.59375 37.3125 
Q 35.015625 41.3125 32.203125 43.546875 
Q 29.390625 45.796875 24.265625 45.796875 
Q 18.21875 45.796875 15.625 43.796875 
Q 13.03125 41.796875 13.03125 39.109375 
Q 13.03125 37.40625 14.109375 36.03125 
Q 15.1875 34.625 17.484375 33.6875 
Q 18.796875 33.203125 25.25 31.453125 
Q 34.578125 28.953125 38.25 27.359375 
Q 41.9375 25.78125 44.03125 22.75 
Q 46.140625 19.734375 46.140625 15.234375 
Q 46.140625 10.84375 43.578125 6.953125 
Q 41.015625 3.078125 36.171875 0.953125 
Q 31.34375 -1.171875 25.25 -1.171875 
Q 15.140625 -1.171875 9.84375 3.03125 
Q 4.546875 7.234375 3.078125 15.484375 
z
" id="ArialMT-115"/>
     </defs>
     <g style="fill:#262626;" transform="translate(483.307188 52.263516)scale(0.11 -0.11)">
      <use xlink:href="#ArialMT-83"/>
      <use x="66.699219" xlink:href="#ArialMT-101"/>
      <use x="122.314453" xlink:href="#ArialMT-101"/>
      <use x="177.929688" xlink:href="#ArialMT-100"/>
      <use x="233.544922" xlink:href="#ArialMT-115"/>
     </g>
    </g>
    <g id="line2d_18"/>
    <g id="line2d_19">
     <g>
      <use style="fill:#c44e52;stroke:#c44e52;" x="463.507188" xlink:href="#mf13cdc60e2" y="63.973359"/>
     </g>
    </g>
    <g id="text_15">
     <!-- Next Seed -->
     <defs>
      <path d="M 7.625 0 
L 7.625 71.578125 
L 17.328125 71.578125 
L 54.9375 15.375 
L 54.9375 71.578125 
L 64.015625 71.578125 
L 64.015625 0 
L 54.296875 0 
L 16.703125 56.25 
L 16.703125 0 
z
" id="ArialMT-78"/>
      <path d="M 0.734375 0 
L 19.671875 26.953125 
L 2.15625 51.859375 
L 13.140625 51.859375 
L 21.09375 39.703125 
Q 23.34375 36.234375 24.703125 33.890625 
Q 26.859375 37.109375 28.65625 39.59375 
L 37.40625 51.859375 
L 47.90625 51.859375 
L 29.984375 27.4375 
L 49.265625 0 
L 38.484375 0 
L 27.828125 16.109375 
L 25 20.453125 
L 11.375 0 
z
" id="ArialMT-120"/>
      <path d="M 25.78125 7.859375 
L 27.046875 0.09375 
Q 23.34375 -0.6875 20.40625 -0.6875 
Q 15.625 -0.6875 12.984375 0.828125 
Q 10.359375 2.34375 9.28125 4.8125 
Q 8.203125 7.28125 8.203125 15.1875 
L 8.203125 45.015625 
L 1.765625 45.015625 
L 1.765625 51.859375 
L 8.203125 51.859375 
L 8.203125 64.703125 
L 16.9375 69.96875 
L 16.9375 51.859375 
L 25.78125 51.859375 
L 25.78125 45.015625 
L 16.9375 45.015625 
L 16.9375 14.703125 
Q 16.9375 10.9375 17.40625 9.859375 
Q 17.875 8.796875 18.921875 8.15625 
Q 19.96875 7.515625 21.921875 7.515625 
Q 23.390625 7.515625 25.78125 7.859375 
z
" id="ArialMT-116"/>
      <path id="ArialMT-32"/>
     </defs>
     <g style="fill:#262626;" transform="translate(483.307188 67.823359)scale(0.11 -0.11)">
      <use xlink:href="#ArialMT-78"/>
      <use x="72.216797" xlink:href="#ArialMT-101"/>
      <use x="127.832031" xlink:href="#ArialMT-120"/>
      <use x="177.832031" xlink:href="#ArialMT-116"/>
      <use x="205.615234" xlink:href="#ArialMT-32"/>
      <use x="233.398438" xlink:href="#ArialMT-83"/>
      <use x="300.097656" xlink:href="#ArialMT-101"/>
      <use x="355.712891" xlink:href="#ArialMT-101"/>
      <use x="411.328125" xlink:href="#ArialMT-100"/>
     </g>
    </g>
   </g>
  </g>
 </g>
 <defs>
  <clipPath id="peb3a035ce2">
   <path d="M 544.568594 288 
C 544.568594 254.709362 538.011064 221.742433 525.271288 190.985893 
C 512.531512 160.229354 493.857247 132.281341 470.317211 108.741305 
C 446.777175 85.201268 418.829162 66.527003 388.072622 53.787228 
C 357.316083 41.047452 324.349154 34.489922 291.058516 34.489922 
C 257.767877 34.489922 224.800948 41.047452 194.044409 53.787228 
C 163.287869 66.527003 135.339856 85.201268 111.79982 108.741305 
C 88.259784 132.281341 69.585519 160.229354 56.845743 190.985893 
C 44.105967 221.742433 37.548437 254.709362 37.548437 288 
C 37.548437 321.290638 44.105967 354.257567 56.845743 385.014107 
C 69.585519 415.770646 88.259784 443.718659 111.79982 467.258695 
C 135.339856 490.798732 163.287869 509.472997 194.044409 522.212772 
C 224.800948 534.952548 257.767877 541.510078 291.058516 541.510078 
C 324.349154 541.510078 357.316083 534.952548 388.072622 522.212772 
C 418.829162 509.472997 446.777175 490.798732 470.317211 467.258695 
C 493.857247 443.718659 512.531512 415.770646 525.271288 385.014107 
C 538.011064 354.257567 544.568594 321.290638 544.568594 288 
M 291.058516 288 
C 291.058516 288 291.058516 288 291.058516 288 
C 291.058516 288 291.058516 288 291.058516 288 
C 291.058516 288 291.058516 288 291.058516 288 
C 291.058516 288 291.058516 288 291.058516 288 
C 291.058516 288 291.058516 288 291.058516 288 
C 291.058516 288 291.058516 288 291.058516 288 
C 291.058516 288 291.058516 288 291.058516 288 
C 291.058516 288 291.058516 288 291.058516 288 
C 291.058516 288 291.058516 288 291.058516 288 
C 291.058516 288 291.058516 288 291.058516 288 
C 291.058516 288 291.058516 288 291.058516 288 
C 291.058516 288 291.058516 288 291.058516 288 
C 291.058516 288 291.058516 288 291.058516 288 
C 291.058516 288 291.058516 288 291.058516 288 
C 291.058516 288 291.058516 288 291.058516 288 
C 291.058516 288 291.058516 288 291.058516 288 
M 544.568594 288 
z
"/>
  </clipPath>
 </defs>
</svg>
